[Module]
Speed=2
FramesCount=54
PatternLength=128
InstrumentsCount=12
SamplesCount=4
SequencesVolumeCount=11
SequencesArpeggioCount=5
SequencesPitchCount=0
SequencesHiPitchCount=0
SequencesDutyCount=3

[Instrument0]

[Instrument1]
SequenceVolume=0
SequenceArpeggio=0

[Instrument2]
SequenceVolume=1

[Instrument3]
SequenceVolume=2
SequenceArpeggio=1

[Instrument4]
SequenceVolume=3
SequenceArpeggio=3
SequenceDuty=0

[Instrument5]
SequenceVolume=4

[Instrument6]
SequenceVolume=5
SequenceArpeggio=2

[Instrument7]
SequenceVolume=6

[Instrument8]
SequenceVolume=7
SequenceDuty=1

[Instrument9]
SequenceVolume=8
SequenceArpeggio=4
SequenceDuty=2

[Instrument10]
SequenceVolume=9

[Instrument11]
SequenceVolume=10

[SequencesVolume]
SequenceVolume0=15,14,12,11,10,11,12,13,13,12,11,9,8,7,6,5,4
SequenceVolume1=12,9,8,4,1,0
SequenceVolume2=12,11,10,7,5,3,1,0
SequenceVolume3=13,10,15
SequenceVolume4=15,13,11,8,6,6,5,5,4,4,3,3,3,2,2,2,1,1,1,0
SequenceVolume5=15,14,14,13,13,12,12,11,11,10,10,9,9,8,8,8,7,7,6,6,5,5,4,4,3,3,2,2,1,1,0
SequenceVolume6=|7,8,8,8,9,9,10,10,11,11,11,12,12,13,13,13,14,14,15,15,15,15,15,15,15,15,15,15,15,14,14,13,13,13,12,12,11,11,11,10,10,9,9,8,8,8,7
SequenceVolume7=15,15,15,14,14,13,13,13,12,12,11,11,11,10,10,10,9,9,8,8,8,7,7,6,6,6,5,5,5,4,4,3,3,3,2,2,1,1,1,0
SequenceVolume8=|15,12,3,9,15,13,8
SequenceVolume9=|15,6,11
SequenceVolume10=|15,15,0

[SequencesArpeggio]
SequenceArpeggio0=2,0,2,3,4
SequenceArpeggio1=-5,2,0
SequenceArpeggio2=-4,2,-6,-2,0
SequenceArpeggio3=12,24,0
SequenceArpeggio4=24,12,-12,0

[SequencesPitch]

[SequencesHiPitch]

[SequencesDuty]
SequenceDuty0=2,2,1
SequenceDuty1=2,2,0,1
SequenceDuty2=2,2,1,0,1

[Frame0]
00|A-2 00 6 V00|A-1 00 8 V01|A-1 00 . ...|C#2 06 a ...|C-3 00 . F02
01|... .. . ...|... .. . ...|... .. . ...|... .. . ...|... .. . ...
02|... .. 2 V01|... .. . ...|... .. . ...|... .. . ...|... .. . ...
03|... .. . ...|... .. . ...|... .. . ...|... .. . ...|... .. . ...
04|A-3 00 6 V00|... .. . ...|... .. . ...|... .. . ...|... .. . ...
05|... .. . ...|... .. . ...|... .. . ...|... .. . ...|... .. . ...
06|... .. 2 V01|... .. 3 ...|--- .. . ...|... .. . ...|... .. . ...
07|... .. . ...|... .. . ...|... .. . ...|... .. . ...|... .. . ...
08|E-3 00 6 V00|A-1 00 8 ...|A-1 00 . ...|... .. . ...|... .. . ...
09|... .. . ...|... .. . ...|... .. . ...|... .. . ...|... .. . ...
0a|... .. 2 V01|... .. 3 ...|--- .. . ...|... .. . ...|... .. . ...
0b|... .. . ...|... .. . ...|... .. . ...|... .. . ...|... .. . ...
0c|A-3 00 6 V00|A-1 00 8 ...|A-1 00 . ...|... .. . ...|... .. . ...
0d|... .. . ...|... .. . ...|... .. . ...|... .. . ...|... .. . ...
0e|... .. 2 V01|... .. 3 ...|--- .. . ...|... .. . ...|... .. . ...
0f|... .. . ...|... .. . ...|... .. . ...|... .. . ...|... .. . ...
10|A-2 00 6 V00|C-2 00 8 ...|C-2 00 . ...|C#2 01 . ...|C#3 00 . ...
11|... .. . ...|... .. . ...|... .. . ...|... .. . ...|... .. . ...
12|... .. 2 V01|... .. . ...|... .. . ...|... .. . ...|... .. . ...
13|... .. . ...|... .. . ...|... .. . ...|... .. . ...|... .. . ...
14|A-3 00 6 V00|... .. . ...|... .. . ...|... .. . ...|... .. . ...
15|... .. . ...|... .. . ...|... .. . ...|... .. . ...|... .. . ...
16|... .. 2 V01|... .. . ...|... .. . ...|... .. . ...|... .. . ...
17|... .. . ...|... .. . ...|... .. . ...|... .. . ...|... .. . ...
18|E-3 00 6 V00|A-1 00 . ...|A-1 00 . ...|E-2 02 . ...|C-3 00 . ...
19|... .. . ...|... .. . ...|... .. . ...|... .. . ...|... .. . ...
1a|... .. 2 V01|... .. 3 ...|--- .. . ...|... .. . ...|... .. . ...
1b|... .. . ...|... .. . ...|... .. . ...|... .. . ...|... .. . ...
1c|A-3 00 6 V00|A-1 00 8 ...|A-1 00 . ...|... .. . ...|... .. . ...
1d|... .. . ...|... .. . ...|... .. . ...|... .. . ...|... .. . ...
1e|... .. 2 V01|... .. 3 ...|--- .. . ...|... .. . ...|... .. . ...
1f|... .. . ...|... .. . ...|... .. . ...|... .. . ...|... .. . ...
20|A-2 00 6 V00|D#2 00 8 ...|D#2 00 . ...|C#2 01 . ...|C-3 00 . ...
21|... .. . ...|... .. . ...|... .. . ...|... .. . ...|... .. . ...
22|... .. 2 V01|... .. . ...|... .. . ...|... .. . ...|... .. . ...
23|... .. . ...|... .. . ...|... .. . ...|... .. . ...|... .. . ...
24|A-3 00 6 V00|D-2 00 . ...|D-2 00 . ...|E-2 03 . ...|C#3 00 . ...
25|... .. . ...|... .. . ...|... .. . ...|... .. . ...|... .. . ...
26|... .. 2 V01|... .. . ...|... .. . ...|... .. . ...|... .. . ...
27|... .. . ...|... .. . ...|... .. . ...|... .. . ...|... .. . ...
28|E-3 00 6 V00|... .. 3 ...|--- .. . ...|... .. . ...|... .. . ...
29|... .. . ...|... .. . ...|... .. . ...|... .. . ...|... .. . ...
2a|... .. 2 V01|... .. . ...|... .. . ...|... .. . ...|... .. . ...
2b|... .. . ...|... .. . ...|... .. . ...|... .. . ...|... .. . ...
2c|A-3 00 6 V00|C-2 00 8 ...|C-2 00 . ...|E-2 02 . ...|C-3 00 . ...
2d|... .. . ...|... .. . ...|... .. . ...|... .. . ...|... .. . ...
2e|... .. 2 V01|... .. . ...|... .. . ...|... .. . ...|... .. . ...
2f|... .. . ...|... .. . ...|... .. . ...|... .. . ...|... .. . ...
30|A-2 00 6 V00|... .. 3 ...|--- .. . ...|C#2 01 . ...|C#3 00 . ...
31|... .. . ...|... .. . ...|... .. . ...|... .. . ...|... .. . ...
32|... .. 2 V01|... .. . ...|... .. . ...|... .. . ...|... .. . ...
33|... .. . ...|... .. . ...|... .. . ...|... .. . ...|... .. . ...
34|A-3 00 6 V00|B-1 00 8 ...|B-1 00 . ...|... .. . ...|... .. . ...
35|... .. . ...|... .. . ...|... .. . ...|... .. . ...|... .. . ...
36|... .. 2 V01|... .. . ...|... .. . ...|... .. . ...|... .. . ...
37|... .. . ...|... .. . ...|... .. . ...|... .. . ...|... .. . ...
38|E-3 00 6 V00|... .. 3 ...|--- .. . ...|E-2 02 . ...|C-3 00 . ...
39|... .. . ...|... .. . ...|... .. . ...|... .. . ...|... .. . ...
3a|... .. 2 V01|... .. . ...|... .. . ...|... .. . ...|... .. . ...
3b|... .. . ...|... .. . ...|... .. . ...|... .. . ...|... .. . ...
3c|D#3 00 6 V00|A-1 00 8 ...|A-1 00 . ...|E-2 02 . ...|C-3 00 . ...
3d|... .. . ...|... .. . ...|... .. . ...|... .. . ...|... .. . ...
3e|... .. . ...|... .. . ...|... .. . ...|... .. . ...|... .. . ...
3f|... .. . ...|... .. . ...|... .. . ...|... .. . ...|... .. . ...
40|... .. 2 V01|... .. . ...|... .. . ...|C#2 01 . ...|C-3 00 . ...
41|... .. . ...|... .. . ...|... .. . ...|... .. . ...|... .. . ...
42|... .. . ...|... .. 3 ...|--- .. . ...|... .. . ...|... .. . ...
43|... .. . ...|... .. . ...|... .. . ...|... .. . ...|... .. . ...
44|A-3 00 6 V00|A-1 00 8 ...|A-1 00 . ...|... .. . ...|... .. . ...
45|... .. . ...|... .. . ...|... .. . ...|... .. . ...|... .. . ...
46|... .. 2 V01|... .. 3 ...|--- .. . ...|... .. . ...|... .. . ...
47|... .. . ...|... .. . ...|... .. . ...|... .. . ...|... .. . ...
48|E-3 00 6 V00|A-1 00 8 ...|A-1 00 . ...|E-2 02 . ...|C-3 00 . ...
49|... .. . ...|... .. . ...|... .. . ...|... .. . ...|... .. . ...
4a|... .. 2 V01|... .. 3 ...|--- .. . ...|... .. . ...|... .. . ...
4b|... .. . ...|... .. . ...|... .. . ...|... .. . ...|... .. . ...
4c|A-3 00 6 V00|E-1 00 8 ...|E-1 00 . ...|... .. . ...|... .. . ...
4d|... .. . ...|... .. . ...|... .. . ...|... .. . ...|... .. . ...
4e|... .. 2 V01|... .. 3 ...|--- .. . ...|... .. . ...|... .. . ...
4f|... .. . ...|... .. . ...|... .. . ...|... .. . ...|... .. . ...
50|D#4 00 6 V00|G-1 00 8 ...|G-1 00 . ...|C#2 01 . ...|C#3 00 . ...
51|... .. . ...|... .. . ...|... .. . ...|... .. . ...|... .. . ...
52|... .. 2 V01|... .. . ...|... .. . ...|... .. . ...|... .. . ...
53|... .. . ...|... .. . ...|... .. . ...|... .. . ...|... .. . ...
54|E-3 00 6 V00|A-1 00 . ...|A-1 00 . ...|... .. . ...|... .. . ...
55|... .. . ...|... .. . ...|... .. . ...|... .. . ...|... .. . ...
56|... .. 2 V01|... .. . ...|... .. . ...|... .. . ...|... .. . ...
57|... .. . ...|... .. . ...|... .. . ...|... .. . ...|... .. . ...
58|D-4 00 6 V00|D-2 00 . ...|D-2 00 . ...|E-2 02 . ...|C-3 00 . ...
59|... .. . ...|... .. . ...|... .. . ...|... .. . ...|... .. . ...
5a|... .. 2 V01|... .. . ...|... .. . ...|... .. . ...|... .. . ...
5b|... .. . ...|... .. . ...|... .. . ...|... .. . ...|... .. . ...
5c|E-3 00 6 V00|D#2 00 . ...|D#2 00 . ...|E-2 02 . ...|C-3 00 . ...
5d|... .. . ...|... .. . ...|... .. . ...|... .. . ...|... .. . ...
5e|... .. 2 V01|... .. . ...|... .. . ...|... .. . ...|... .. . ...
5f|... .. . ...|... .. . ...|... .. . ...|... .. . ...|... .. . ...
60|A-2 00 6 V00|... .. 3 ...|--- .. . ...|C#2 01 . ...|... .. . ...
61|... .. . ...|... .. . ...|... .. . ...|... .. . ...|... .. . ...
62|... .. 2 V01|... .. . ...|... .. . ...|... .. . ...|... .. . ...
63|... .. . ...|... .. . ...|... .. . ...|... .. . ...|... .. . ...
64|A-3 00 6 V00|D#2 00 8 ...|D#2 00 . ...|E-2 02 . ...|C-3 00 . ...
65|... .. . ...|... .. . ...|... .. . ...|... .. . ...|... .. . ...
66|... .. 2 V01|... .. . ...|... .. . ...|... .. . ...|... .. . ...
67|... .. . ...|... .. . ...|... .. . ...|... .. . ...|... .. . ...
68|E-3 00 6 V00|... .. . ...|... .. . ...|... .. . ...|... .. . ...
69|... .. . ...|... .. . ...|... .. . ...|... .. . ...|... .. . ...
6a|... .. 2 V01|... .. . ...|... .. . ...|... .. . ...|... .. . ...
6b|... .. . ...|... .. . ...|... .. . ...|... .. . ...|... .. . ...
6c|A-3 00 6 V00|D-2 00 . ...|D-2 00 . ...|E-2 02 . ...|C-3 00 . ...
6d|... .. . ...|... .. . ...|... .. . ...|... .. . ...|... .. . ...
6e|... .. 2 V01|... .. . ...|... .. . ...|... .. . ...|... .. . ...
6f|... .. . ...|... .. . ...|... .. . ...|... .. . ...|... .. . ...
70|C-4 00 6 V02|A#1 00 . 33a|A#1 00 . ...|C#2 01 . ...|C#3 00 . ...
71|... .. . V01|... .. . ...|... .. . ...|... .. . ...|... .. . ...
72|A-3 00 . V02|C-2 00 . ...|... .. . ...|... .. . ...|... .. . ...
73|... .. . V00|... .. . ...|... .. . ...|... .. . ...|... .. . ...
74|E-3 00 . V02|A#1 00 . ...|... .. . ...|F#2 02 . ...|... .. . ...
75|... .. . V00|... .. . ...|... .. . ...|... .. . ...|... .. . ...
76|C-3 00 . V02|C-2 00 7 ...|... .. . ...|... .. . ...|... .. . ...
77|... .. . V01|... .. . ...|... .. . ...|... .. . ...|... .. . ...
78|A-2 00 . V02|A#1 00 6 ...|... .. . ...|E-2 03 . ...|C#3 00 . ...
79|... .. . V01|... .. 5 ...|... .. . ...|... .. . ...|... .. . ...
7a|E-2 00 . V02|C-2 00 . ...|... .. . ...|... .. . ...|... .. . ...
7b|... .. . V00|... .. 4 ...|... .. . ...|... .. . ...|... .. . ...
7c|C-2 00 . V02|A#1 00 3 ...|... .. . ...|E-2 03 . ...|C#3 00 . ...
7d|... .. . V00|... .. . ...|... .. . ...|... .. . ...|... .. . ...
7e|B-1 00 . V02|C-2 00 2 ...|--- .. . ...|... .. . ...|... .. . ...
7f|... .. . V01|... .. . ...|... .. . ...|... .. . ...|... .. . ...

[Frame1]
00|A-2 00 6 V00|A-1 00 8 V01|A-1 00 . ...|C#2 06 a ...|C-3 00 . ...
01|... .. . ...|... .. . ...|... .. . ...|... .. . ...|... .. . ...
02|... .. 2 V01|... .. . ...|... .. . ...|... .. . ...|... .. . ...
03|... .. . ...|... .. . ...|... .. . ...|... .. . ...|... .. . ...
04|A-3 00 6 V00|... .. . ...|... .. . ...|... .. . ...|... .. . ...
05|... .. . ...|... .. . ...|... .. . ...|... .. . ...|... .. . ...
06|... .. 2 V01|... .. 3 ...|--- .. . ...|... .. . ...|... .. . ...
07|... .. . ...|... .. . ...|... .. . ...|... .. . ...|... .. . ...
08|E-3 00 6 V00|A-1 00 8 ...|A-1 00 . ...|... .. . ...|... .. . ...
09|... .. . ...|... .. . ...|... .. . ...|... .. . ...|... .. . ...
0a|... .. 2 V01|... .. 3 ...|--- .. . ...|... .. . ...|... .. . ...
0b|... .. . ...|... .. . ...|... .. . ...|... .. . ...|... .. . ...
0c|A-3 00 6 V00|A-1 00 8 ...|A-1 00 . ...|... .. . ...|... .. . ...
0d|... .. . ...|... .. . ...|... .. . ...|... .. . ...|... .. . ...
0e|... .. 2 V01|... .. 3 ...|--- .. . ...|... .. . ...|... .. . ...
0f|... .. . ...|... .. . ...|... .. . ...|... .. . ...|... .. . ...
10|A-2 00 6 V00|C-2 00 8 ...|C-2 00 . ...|C#2 01 . ...|C#3 00 . ...
11|... .. . ...|... .. . ...|... .. . ...|... .. . ...|... .. . ...
12|... .. 2 V01|... .. . ...|... .. . ...|... .. . ...|... .. . ...
13|... .. . ...|... .. . ...|... .. . ...|... .. . ...|... .. . ...
14|A-3 00 6 V00|... .. . ...|... .. . ...|... .. . ...|... .. . ...
15|... .. . ...|... .. . ...|... .. . ...|... .. . ...|... .. . ...
16|... .. 2 V01|... .. . ...|... .. . ...|... .. . ...|... .. . ...
17|... .. . ...|... .. . ...|... .. . ...|... .. . ...|... .. . ...
18|E-3 00 6 V00|A-1 00 . ...|A-1 00 . ...|E-2 02 . ...|C-3 00 . ...
19|... .. . ...|... .. . ...|... .. . ...|... .. . ...|... .. . ...
1a|... .. 2 V01|... .. 3 ...|--- .. . ...|... .. . ...|... .. . ...
1b|... .. . ...|... .. . ...|... .. . ...|... .. . ...|... .. . ...
1c|A-3 00 6 V00|A-1 00 8 ...|A-1 00 . ...|... .. . ...|... .. . ...
1d|... .. . ...|... .. . ...|... .. . ...|... .. . ...|... .. . ...
1e|... .. 2 V01|... .. 3 ...|--- .. . ...|... .. . ...|... .. . ...
1f|... .. . ...|... .. . ...|... .. . ...|... .. . ...|... .. . ...
20|A-2 00 6 V00|D#2 00 8 ...|D#2 00 . ...|C#2 01 . ...|C-3 00 . ...
21|... .. . ...|... .. . ...|... .. . ...|... .. . ...|... .. . ...
22|... .. 2 V01|... .. . ...|... .. . ...|... .. . ...|... .. . ...
23|... .. . ...|... .. . ...|... .. . ...|... .. . ...|... .. . ...
24|A-3 00 6 V00|D-2 00 . ...|D-2 00 . ...|E-2 03 . ...|C#3 00 . ...
25|... .. . ...|... .. . ...|... .. . ...|... .. . ...|... .. . ...
26|... .. 2 V01|... .. . ...|... .. . ...|... .. . ...|... .. . ...
27|... .. . ...|... .. . ...|... .. . ...|... .. . ...|... .. . ...
28|E-3 00 6 V00|... .. 3 ...|--- .. . ...|... .. . ...|... .. . ...
29|... .. . ...|... .. . ...|... .. . ...|... .. . ...|... .. . ...
2a|... .. 2 V01|... .. . ...|... .. . ...|... .. . ...|... .. . ...
2b|... .. . ...|... .. . ...|... .. . ...|... .. . ...|... .. . ...
2c|A-3 00 6 V00|C-2 00 8 ...|C-2 00 . ...|E-2 02 . ...|C-3 00 . ...
2d|... .. . ...|... .. . ...|... .. . ...|... .. . ...|... .. . ...
2e|... .. 2 V01|... .. . ...|... .. . ...|... .. . ...|... .. . ...
2f|... .. . ...|... .. . ...|... .. . ...|... .. . ...|... .. . ...
30|A-2 00 6 V00|... .. 3 ...|--- .. . ...|C#2 01 . ...|C#3 00 . ...
31|... .. . ...|... .. . ...|... .. . ...|... .. . ...|... .. . ...
32|... .. 2 V01|... .. . ...|... .. . ...|... .. . ...|... .. . ...
33|... .. . ...|... .. . ...|... .. . ...|... .. . ...|... .. . ...
34|A-3 00 6 V00|B-1 00 8 ...|B-1 00 . ...|... .. . ...|... .. . ...
35|... .. . ...|... .. . ...|... .. . ...|... .. . ...|... .. . ...
36|... .. 2 V01|... .. . ...|... .. . ...|... .. . ...|... .. . ...
37|... .. . ...|... .. . ...|... .. . ...|... .. . ...|... .. . ...
38|E-3 00 6 V00|... .. 3 ...|--- .. . ...|E-2 02 . ...|C-3 00 . ...
39|... .. . ...|... .. . ...|... .. . ...|... .. . ...|... .. . ...
3a|... .. 2 V01|... .. . ...|... .. . ...|... .. . ...|... .. . ...
3b|... .. . ...|... .. . ...|... .. . ...|... .. . ...|... .. . ...
3c|D#3 00 6 V00|A-1 00 8 ...|A-1 00 . ...|E-2 02 . ...|C-3 00 . ...
3d|... .. . ...|... .. . ...|... .. . ...|... .. . ...|... .. . ...
3e|... .. . ...|... .. . ...|... .. . ...|... .. . ...|... .. . ...
3f|... .. . ...|... .. . ...|... .. . ...|... .. . ...|... .. . ...
40|... .. 2 V01|... .. . ...|... .. . ...|C#2 01 . ...|C-3 00 . ...
41|... .. . ...|... .. . ...|... .. . ...|... .. . ...|... .. . ...
42|... .. . ...|... .. 3 ...|--- .. . ...|... .. . ...|... .. . ...
43|... .. . ...|... .. . ...|... .. . ...|... .. . ...|... .. . ...
44|A-3 00 6 V00|G#2 00 8 ...|G#2 00 . ...|F#2 02 . ...|... .. . ...
45|... .. . ...|A-2 00 . ...|A-2 00 . ...|... .. . ...|... .. . ...
46|... .. 2 V01|... .. . ...|... .. . ...|... .. . ...|... .. . ...
47|... .. . ...|... .. . ...|... .. . ...|... .. . ...|... .. . ...
48|E-3 00 6 V00|G-2 00 . ...|G-2 00 . ...|E-2 03 . ...|C#3 00 . ...
49|... .. . ...|... .. . ...|... .. . ...|... .. . ...|... .. . ...
4a|... .. 2 V01|... .. . ...|... .. . ...|... .. . ...|... .. . ...
4b|... .. . ...|... .. . ...|... .. . ...|... .. . ...|... .. . ...
4c|A-3 00 6 V00|E-2 00 . ...|E-2 00 . ...|F#2 02 . ...|... .. . ...
4d|... .. . ...|... .. . ...|... .. . ...|... .. . ...|... .. . ...
4e|... .. 2 V01|... .. . ...|... .. . ...|... .. . ...|... .. . ...
4f|... .. . ...|... .. . ...|... .. . ...|... .. . ...|... .. . ...
50|D#4 00 6 V00|D#2 00 . ...|D#2 00 . ...|E-2 03 . ...|C#3 00 . ...
51|... .. . ...|... .. . ...|... .. . ...|... .. . ...|... .. . ...
52|... .. 2 V01|... .. . ...|... .. . ...|... .. . ...|... .. . ...
53|... .. . ...|... .. . ...|... .. . ...|... .. . ...|... .. . ...
54|E-3 00 6 V00|D-2 00 . ...|D-2 00 . ...|F#2 02 . ...|... .. . ...
55|... .. . ...|D#2 00 . G01|D#2 00 . G01|... .. . ...|... .. . ...
56|... .. 2 V01|D-2 00 . G02|D-2 00 . G02|... .. . ...|... .. . ...
57|... .. . ...|... .. . ...|... .. . ...|... .. . ...|... .. . ...
58|D-4 00 6 V00|C-2 00 . ...|C-2 00 . ...|E-2 02 . ...|C-3 00 . ...
59|... .. . ...|... .. . ...|... .. . ...|... .. . ...|... .. . ...
5a|... .. 2 V01|... .. . ...|... .. . ...|... .. . ...|... .. . ...
5b|... .. . ...|... .. . ...|... .. . ...|... .. . ...|... .. . ...
5c|E-3 00 6 V00|A-1 00 . ...|A-1 00 . ...|E-2 03 . ...|C#3 00 . ...
5d|... .. . ...|... .. . ...|... .. . ...|... .. . ...|... .. . ...
5e|... .. 2 V01|... .. . ...|... .. . ...|... .. . ...|... .. . ...
5f|... .. . ...|... .. . ...|... .. . ...|... .. . ...|... .. . ...
60|A-4 00 6 V00|G-1 00 . ...|G-1 00 . ...|E-2 02 . ...|C-3 00 . ...
61|... .. . ...|... .. . ...|... .. . ...|... .. . ...|... .. . ...
62|... .. 2 V01|... .. . ...|... .. . ...|... .. . ...|... .. . ...
63|... .. . ...|... .. . ...|... .. . ...|... .. . ...|... .. . ...
64|E-4 00 6 V00|G#1 00 . ...|G#1 00 . ...|E-2 03 . ...|C-3 00 . ...
65|... .. . ...|... .. . ...|... .. . ...|... .. . ...|... .. . ...
66|... .. 2 V01|... .. . ...|... .. . ...|... .. . ...|... .. . ...
67|... .. . ...|... .. . ...|... .. . ...|... .. . ...|... .. . ...
68|G#4 00 6 V00|... .. 3 ...|--- .. . ...|F#2 02 . ...|... .. . ...
69|... .. . ...|... .. . ...|... .. . ...|... .. . ...|... .. . ...
6a|... .. 2 V01|... .. . ...|... .. . ...|... .. . ...|... .. . ...
6b|... .. . ...|... .. . ...|... .. . ...|... .. . ...|... .. . ...
6c|C-5 00 6 V00|A-1 00 8 ...|A-1 00 . ...|E-2 02 . ...|C-3 00 . ...
6d|... .. . ...|... .. . ...|... .. . ...|... .. . ...|... .. . ...
6e|... .. . ...|... .. . ...|... .. . ...|... .. . ...|... .. . ...
6f|... .. . ...|... .. . ...|... .. . ...|... .. . ...|... .. . ...
70|B-4 00 6 V02|... .. 3 ...|--- 00 . ...|E-2 03 . ...|C#3 00 . ...
71|... .. . V01|... .. . ...|... .. . ...|... .. . ...|... .. . ...
72|G-4 00 . V02|... .. . ...|... .. . ...|... .. . ...|... .. . ...
73|... .. . V00|... .. . ...|... .. . ...|... .. . ...|... .. . ...
74|D-4 00 . V02|C-2 00 8 ...|C-2 00 . ...|E-2 03 . ...|C#3 00 . ...
75|... .. . V00|... .. . ...|... .. . ...|... .. . ...|... .. . ...
76|B-3 00 . V02|... .. . ...|... .. . ...|... .. . ...|... .. . ...
77|... .. . V01|... .. . ...|... .. . ...|... .. . ...|... .. . ...
78|G-3 00 . V02|... .. . ...|... .. . ...|F#2 02 . ...|... .. . ...
79|... .. . V01|... .. . ...|... .. . ...|... .. . ...|... .. . ...
7a|D-3 00 . V02|... .. . R12|... .. . R12|... .. . ...|... .. . ...
7b|... .. . V00|... .. . ...|... .. . ...|... .. . ...|... .. . ...
7c|B-2 00 . V02|... .. . ...|... .. . ...|E-2 03 . ...|C#3 00 . ...
7d|... .. . V00|... .. . ...|... .. . ...|... .. . ...|... .. . ...
7e|G-2 00 . V02|... .. . ...|... .. . ...|... .. . ...|... .. . ...
7f|... .. . V01|... .. . ...|... .. . ...|... .. . ...|... .. . ...

[Frame2]
00|A-2 00 6 V00|A-1 00 8 V01|A-1 00 . ...|C#2 06 a ...|C-3 00 . F02
01|... .. . ...|... .. . ...|... .. . ...|... .. . ...|... .. . ...
02|... .. 2 V01|... .. . ...|... .. . ...|... .. . ...|... .. . ...
03|... .. . ...|... .. . ...|... .. . ...|... .. . ...|... .. . ...
04|A-3 00 6 V00|... .. . ...|... .. . ...|... .. . ...|... .. . ...
05|... .. . ...|... .. . ...|... .. . ...|... .. . ...|... .. . ...
06|... .. 2 V01|... .. 3 ...|--- .. . ...|... .. . ...|... .. . ...
07|... .. . ...|... .. . ...|... .. . ...|... .. . ...|... .. . ...
08|E-3 00 6 V00|A-1 00 8 ...|A-1 00 . ...|... .. . ...|... .. . ...
09|... .. . ...|... .. . ...|... .. . ...|... .. . ...|... .. . ...
0a|... .. 2 V01|... .. 3 ...|--- .. . ...|... .. . ...|... .. . ...
0b|... .. . ...|... .. . ...|... .. . ...|... .. . ...|... .. . ...
0c|A-3 00 6 V00|A-1 00 8 ...|A-1 00 . ...|... .. . ...|... .. . ...
0d|... .. . ...|... .. . ...|... .. . ...|... .. . ...|... .. . ...
0e|... .. 2 V01|... .. 3 ...|--- .. . ...|... .. . ...|... .. . ...
0f|... .. . ...|... .. . ...|... .. . ...|... .. . ...|... .. . ...
10|A-2 00 6 V00|C-2 00 8 ...|C-2 00 . ...|C#2 01 . ...|C#3 00 . ...
11|... .. . ...|... .. . ...|... .. . ...|... .. . ...|... .. . ...
12|... .. 2 V01|... .. . ...|... .. . ...|... .. . ...|... .. . ...
13|... .. . ...|... .. . ...|... .. . ...|... .. . ...|... .. . ...
14|A-3 00 6 V00|... .. . ...|... .. . ...|... .. . ...|... .. . ...
15|... .. . ...|... .. . ...|... .. . ...|... .. . ...|... .. . ...
16|... .. 2 V01|... .. . ...|... .. . ...|... .. . ...|... .. . ...
17|... .. . ...|... .. . ...|... .. . ...|... .. . ...|... .. . ...
18|E-3 00 6 V00|A-1 00 . ...|A-1 00 . ...|E-2 02 . ...|C-3 00 . ...
19|... .. . ...|... .. . ...|... .. . ...|... .. . ...|... .. . ...
1a|... .. 2 V01|... .. 3 ...|--- .. . ...|... .. . ...|... .. . ...
1b|... .. . ...|... .. . ...|... .. . ...|... .. . ...|... .. . ...
1c|A-3 00 6 V00|A-1 00 8 ...|A-1 00 . ...|... .. . ...|... .. . ...
1d|... .. . ...|... .. . ...|... .. . ...|... .. . ...|... .. . ...
1e|... .. 2 V01|... .. 3 ...|--- .. . ...|... .. . ...|... .. . ...
1f|... .. . ...|... .. . ...|... .. . ...|... .. . ...|... .. . ...
20|A-2 00 6 V00|D#2 00 8 ...|D#2 00 . ...|C#2 01 . ...|C-3 00 . ...
21|... .. . ...|... .. . ...|... .. . ...|... .. . ...|... .. . ...
22|... .. 2 V01|... .. . ...|... .. . ...|... .. . ...|... .. . ...
23|... .. . ...|... .. . ...|... .. . ...|... .. . ...|... .. . ...
24|A-3 00 6 V00|D-2 00 . ...|D-2 00 . ...|E-2 03 . ...|C#3 00 . ...
25|... .. . ...|... .. . ...|... .. . ...|... .. . ...|... .. . ...
26|... .. 2 V01|... .. . ...|... .. . ...|... .. . ...|... .. . ...
27|... .. . ...|... .. . ...|... .. . ...|... .. . ...|... .. . ...
28|E-3 00 6 V00|... .. 3 ...|--- .. . ...|... .. . ...|... .. . ...
29|... .. . ...|... .. . ...|... .. . ...|... .. . ...|... .. . ...
2a|... .. 2 V01|... .. . ...|... .. . ...|... .. . ...|... .. . ...
2b|... .. . ...|... .. . ...|... .. . ...|... .. . ...|... .. . ...
2c|A-3 00 6 V00|C-2 00 8 ...|C-2 00 . ...|E-2 02 . ...|C-3 00 . ...
2d|... .. . ...|... .. . ...|... .. . ...|... .. . ...|... .. . ...
2e|... .. 2 V01|... .. . ...|... .. . ...|... .. . ...|... .. . ...
2f|... .. . ...|... .. . ...|... .. . ...|... .. . ...|... .. . ...
30|A-2 00 6 V00|... .. 3 ...|--- .. . ...|C#2 01 . ...|C#3 00 . ...
31|... .. . ...|... .. . ...|... .. . ...|... .. . ...|... .. . ...
32|... .. 2 V01|... .. . ...|... .. . ...|... .. . ...|... .. . ...
33|... .. . ...|... .. . ...|... .. . ...|... .. . ...|... .. . ...
34|A-3 00 6 V00|B-1 00 8 ...|B-1 00 . ...|... .. . ...|... .. . ...
35|... .. . ...|... .. . ...|... .. . ...|... .. . ...|... .. . ...
36|... .. 2 V01|... .. . ...|... .. . ...|... .. . ...|... .. . ...
37|... .. . ...|... .. . ...|... .. . ...|... .. . ...|... .. . ...
38|E-3 00 6 V00|... .. 3 ...|--- .. . ...|E-2 02 . ...|C-3 00 . ...
39|... .. . ...|... .. . ...|... .. . ...|... .. . ...|... .. . ...
3a|... .. 2 V01|... .. . ...|... .. . ...|... .. . ...|... .. . ...
3b|... .. . ...|... .. . ...|... .. . ...|... .. . ...|... .. . ...
3c|D#3 00 6 V00|A-1 00 8 ...|A-1 00 . ...|E-2 02 . ...|C-3 00 . ...
3d|... .. . ...|... .. . ...|... .. . ...|... .. . ...|... .. . ...
3e|... .. . ...|... .. . ...|... .. . ...|... .. . ...|... .. . ...
3f|... .. . ...|... .. . ...|... .. . ...|... .. . ...|... .. . ...
40|... .. 2 V01|... .. . ...|... .. . ...|C#2 01 . ...|C-3 00 . ...
41|... .. . ...|... .. . ...|... .. . ...|... .. . ...|... .. . ...
42|... .. . ...|... .. 3 ...|--- .. . ...|... .. . ...|... .. . ...
43|... .. . ...|... .. . ...|... .. . ...|... .. . ...|... .. . ...
44|A-3 00 6 V00|A-1 00 8 ...|A-1 00 . ...|... .. . ...|... .. . ...
45|... .. . ...|... .. . ...|... .. . ...|... .. . ...|... .. . ...
46|... .. 2 V01|... .. 3 ...|--- .. . ...|... .. . ...|... .. . ...
47|... .. . ...|... .. . ...|... .. . ...|... .. . ...|... .. . ...
48|E-3 00 6 V00|A-1 00 8 ...|A-1 00 . ...|E-2 02 . ...|C-3 00 . ...
49|... .. . ...|... .. . ...|... .. . ...|... .. . ...|... .. . ...
4a|... .. 2 V01|... .. 3 ...|--- .. . ...|... .. . ...|... .. . ...
4b|... .. . ...|... .. . ...|... .. . ...|... .. . ...|... .. . ...
4c|A-3 00 6 V00|E-1 00 8 ...|E-1 00 . ...|... .. . ...|... .. . ...
4d|... .. . ...|... .. . ...|... .. . ...|... .. . ...|... .. . ...
4e|... .. 2 V01|... .. 3 ...|--- .. . ...|... .. . ...|... .. . ...
4f|... .. . ...|... .. . ...|... .. . ...|... .. . ...|... .. . ...
50|D#4 00 6 V00|G-1 00 8 ...|G-1 00 . ...|C#2 01 . ...|C#3 00 . ...
51|... .. . ...|... .. . ...|... .. . ...|... .. . ...|... .. . ...
52|... .. 2 V01|... .. . ...|... .. . ...|... .. . ...|... .. . ...
53|... .. . ...|... .. . ...|... .. . ...|... .. . ...|... .. . ...
54|E-3 00 6 V00|A-1 00 . ...|A-1 00 . ...|... .. . ...|... .. . ...
55|... .. . ...|... .. . ...|... .. . ...|... .. . ...|... .. . ...
56|... .. 2 V01|... .. . ...|... .. . ...|... .. . ...|... .. . ...
57|... .. . ...|... .. . ...|... .. . ...|... .. . ...|... .. . ...
58|D-4 00 6 V00|D-2 00 . ...|D-2 00 . ...|E-2 02 . ...|C-3 00 . ...
59|... .. . ...|... .. . ...|... .. . ...|... .. . ...|... .. . ...
5a|... .. 2 V01|... .. . ...|... .. . ...|... .. . ...|... .. . ...
5b|... .. . ...|... .. . ...|... .. . ...|... .. . ...|... .. . ...
5c|E-3 00 6 V00|D#2 00 . ...|D#2 00 . ...|E-2 02 . ...|C-3 00 . ...
5d|... .. . ...|... .. . ...|... .. . ...|... .. . ...|... .. . ...
5e|... .. 2 V01|... .. . ...|... .. . ...|... .. . ...|... .. . ...
5f|... .. . ...|... .. . ...|... .. . ...|... .. . ...|... .. . ...
60|A-2 00 6 V00|... .. 3 ...|--- .. . ...|C#2 01 . ...|... .. . ...
61|... .. . ...|... .. . ...|... .. . ...|... .. . ...|... .. . ...
62|... .. 2 V01|... .. . ...|... .. . ...|... .. . ...|... .. . ...
63|... .. . ...|... .. . ...|... .. . ...|... .. . ...|... .. . ...
64|A-3 00 6 V00|D#2 00 8 ...|D#2 00 . ...|E-2 02 . ...|C-3 00 . ...
65|... .. . ...|... .. . ...|... .. . ...|... .. . ...|... .. . ...
66|... .. 2 V01|... .. . ...|... .. . ...|... .. . ...|... .. . ...
67|... .. . ...|... .. . ...|... .. . ...|... .. . ...|... .. . ...
68|E-3 00 6 V00|... .. . ...|... .. . ...|... .. . ...|... .. . ...
69|... .. . ...|... .. . ...|... .. . ...|... .. . ...|... .. . ...
6a|... .. 2 V01|... .. . ...|... .. . ...|... .. . ...|... .. . ...
6b|... .. . ...|... .. . ...|... .. . ...|... .. . ...|... .. . ...
6c|A-3 00 6 V00|D-2 00 . ...|D-2 00 . ...|E-2 02 . ...|C-3 00 . ...
6d|... .. . ...|... .. . ...|... .. . ...|... .. . ...|... .. . ...
6e|... .. 2 V01|... .. . ...|... .. . ...|... .. . ...|... .. . ...
6f|... .. . ...|... .. . ...|... .. . ...|... .. . ...|... .. . ...
70|C-4 00 6 V02|A#1 00 . 33a|A#1 00 . ...|C#2 01 . ...|C#3 00 . ...
71|... .. . V01|... .. . ...|... .. . ...|... .. . ...|... .. . ...
72|A-3 00 . V02|C-2 00 . ...|... .. . ...|... .. . ...|... .. . ...
73|... .. . V00|... .. . ...|... .. . ...|... .. . ...|... .. . ...
74|E-3 00 . V02|A#1 00 . ...|... .. . ...|F#2 02 . ...|... .. . ...
75|... .. . V00|... .. . ...|... .. . ...|... .. . ...|... .. . ...
76|C-3 00 . V02|C-2 00 7 ...|... .. . ...|... .. . ...|... .. . ...
77|... .. . V01|... .. . ...|... .. . ...|... .. . ...|... .. . ...
78|A-2 00 . V02|A#1 00 6 ...|... .. . ...|E-2 03 . ...|C#3 00 . ...
79|... .. . V01|... .. 5 ...|... .. . ...|... .. . ...|... .. . ...
7a|E-2 00 . V02|C-2 00 . ...|... .. . ...|... .. . ...|... .. . ...
7b|... .. . V00|... .. 4 ...|... .. . ...|... .. . ...|... .. . ...
7c|C-2 00 . V02|A#1 00 3 ...|... .. . ...|E-2 03 . ...|C#3 00 . ...
7d|... .. . V00|... .. . ...|... .. . ...|... .. . ...|... .. . ...
7e|B-1 00 . V02|C-2 00 2 ...|--- .. . ...|... .. . ...|... .. . ...
7f|... .. . V01|... .. . ...|... .. . ...|... .. . ...|... .. . ...

[Frame3]
00|A-2 00 6 V00|A-1 00 8 V01|A-1 00 . ...|C#2 06 a ...|C-3 00 . ...
01|... .. . ...|... .. . ...|... .. . ...|... .. . ...|... .. . ...
02|... .. 2 V01|... .. . ...|... .. . ...|... .. . ...|... .. . ...
03|... .. . ...|... .. . ...|... .. . ...|... .. . ...|... .. . ...
04|A-3 00 6 V00|... .. . ...|... .. . ...|... .. . ...|... .. . ...
05|... .. . ...|... .. . ...|... .. . ...|... .. . ...|... .. . ...
06|... .. 2 V01|... .. 3 ...|--- .. . ...|... .. . ...|... .. . ...
07|... .. . ...|... .. . ...|... .. . ...|... .. . ...|... .. . ...
08|E-3 00 6 V00|A-1 00 8 ...|A-1 00 . ...|... .. . ...|... .. . ...
09|... .. . ...|... .. . ...|... .. . ...|... .. . ...|... .. . ...
0a|... .. 2 V01|... .. 3 ...|--- .. . ...|... .. . ...|... .. . ...
0b|... .. . ...|... .. . ...|... .. . ...|... .. . ...|... .. . ...
0c|A-3 00 6 V00|A-1 00 8 ...|A-1 00 . ...|... .. . ...|... .. . ...
0d|... .. . ...|... .. . ...|... .. . ...|... .. . ...|... .. . ...
0e|... .. 2 V01|... .. 3 ...|--- .. . ...|... .. . ...|... .. . ...
0f|... .. . ...|... .. . ...|... .. . ...|... .. . ...|... .. . ...
10|A-2 00 6 V00|C-2 00 8 ...|C-2 00 . ...|C#2 01 . ...|C#3 00 . ...
11|... .. . ...|... .. . ...|... .. . ...|... .. . ...|... .. . ...
12|... .. 2 V01|... .. . ...|... .. . ...|... .. . ...|... .. . ...
13|... .. . ...|... .. . ...|... .. . ...|... .. . ...|... .. . ...
14|A-3 00 6 V00|... .. . ...|... .. . ...|... .. . ...|... .. . ...
15|... .. . ...|... .. . ...|... .. . ...|... .. . ...|... .. . ...
16|... .. 2 V01|... .. . ...|... .. . ...|... .. . ...|... .. . ...
17|... .. . ...|... .. . ...|... .. . ...|... .. . ...|... .. . ...
18|E-3 00 6 V00|A-1 00 . ...|A-1 00 . ...|E-2 02 . ...|C-3 00 . ...
19|... .. . ...|... .. . ...|... .. . ...|... .. . ...|... .. . ...
1a|... .. 2 V01|... .. 3 ...|--- .. . ...|... .. . ...|... .. . ...
1b|... .. . ...|... .. . ...|... .. . ...|... .. . ...|... .. . ...
1c|A-3 00 6 V00|A-1 00 8 ...|A-1 00 . ...|... .. . ...|... .. . ...
1d|... .. . ...|... .. . ...|... .. . ...|... .. . ...|... .. . ...
1e|... .. 2 V01|... .. 3 ...|--- .. . ...|... .. . ...|... .. . ...
1f|... .. . ...|... .. . ...|... .. . ...|... .. . ...|... .. . ...
20|A-2 00 6 V00|D#2 00 8 ...|D#2 00 . ...|C#2 01 . ...|C-3 00 . ...
21|... .. . ...|... .. . ...|... .. . ...|... .. . ...|... .. . ...
22|... .. 2 V01|... .. . ...|... .. . ...|... .. . ...|... .. . ...
23|... .. . ...|... .. . ...|... .. . ...|... .. . ...|... .. . ...
24|A-3 00 6 V00|D-2 00 . ...|D-2 00 . ...|E-2 03 . ...|C#3 00 . ...
25|... .. . ...|... .. . ...|... .. . ...|... .. . ...|... .. . ...
26|... .. 2 V01|... .. . ...|... .. . ...|... .. . ...|... .. . ...
27|... .. . ...|... .. . ...|... .. . ...|... .. . ...|... .. . ...
28|E-3 00 6 V00|... .. 3 ...|--- .. . ...|... .. . ...|... .. . ...
29|... .. . ...|... .. . ...|... .. . ...|... .. . ...|... .. . ...
2a|... .. 2 V01|... .. . ...|... .. . ...|... .. . ...|... .. . ...
2b|... .. . ...|... .. . ...|... .. . ...|... .. . ...|... .. . ...
2c|A-3 00 6 V00|C-2 00 8 ...|C-2 00 . ...|E-2 02 . ...|C-3 00 . ...
2d|... .. . ...|... .. . ...|... .. . ...|... .. . ...|... .. . ...
2e|... .. 2 V01|... .. . ...|... .. . ...|... .. . ...|... .. . ...
2f|... .. . ...|... .. . ...|... .. . ...|... .. . ...|... .. . ...
30|A-2 00 6 V00|... .. 3 ...|--- .. . ...|C#2 01 . ...|C#3 00 . ...
31|... .. . ...|... .. . ...|... .. . ...|... .. . ...|... .. . ...
32|... .. 2 V01|... .. . ...|... .. . ...|... .. . ...|... .. . ...
33|... .. . ...|... .. . ...|... .. . ...|... .. . ...|... .. . ...
34|A-3 00 6 V00|B-1 00 8 ...|B-1 00 . ...|... .. . ...|... .. . ...
35|... .. . ...|... .. . ...|... .. . ...|... .. . ...|... .. . ...
36|... .. 2 V01|... .. . ...|... .. . ...|... .. . ...|... .. . ...
37|... .. . ...|... .. . ...|... .. . ...|... .. . ...|... .. . ...
38|E-3 00 6 V00|... .. 3 ...|--- .. . ...|E-2 02 . ...|C-3 00 . ...
39|... .. . ...|... .. . ...|... .. . ...|... .. . ...|... .. . ...
3a|... .. 2 V01|... .. . ...|... .. . ...|... .. . ...|... .. . ...
3b|... .. . ...|... .. . ...|... .. . ...|... .. . ...|... .. . ...
3c|D#3 00 6 V00|A-1 00 8 ...|A-1 00 . ...|E-2 02 . ...|C-3 00 . ...
3d|... .. . ...|... .. . ...|... .. . ...|... .. . ...|... .. . ...
3e|... .. . ...|... .. . ...|... .. . ...|... .. . ...|... .. . ...
3f|... .. . ...|... .. . ...|... .. . ...|... .. . ...|... .. . ...
40|... .. 2 V01|... .. . ...|... .. . ...|C#2 01 . ...|C-3 00 . ...
41|... .. . ...|... .. . ...|... .. . ...|... .. . ...|... .. . ...
42|... .. . ...|... .. 3 ...|--- .. . ...|... .. . ...|... .. . ...
43|... .. . ...|... .. . ...|... .. . ...|... .. . ...|... .. . ...
44|G#3 00 6 ...|G#2 00 8 ...|G#2 00 . ...|F#2 02 . ...|... .. . ...
45|A-3 00 . ...|A-2 00 . ...|A-2 00 . ...|... .. . ...|... .. . ...
46|... .. . ...|... .. . ...|... .. . ...|... .. . ...|... .. . ...
47|... .. . ...|... .. . ...|... .. . ...|... .. . ...|... .. . ...
48|G-3 00 . ...|G-2 00 . ...|G-2 00 . ...|E-2 03 . ...|C#3 00 . ...
49|... .. . ...|... .. . ...|... .. . ...|... .. . ...|... .. . ...
4a|... .. . ...|... .. . ...|... .. . ...|... .. . ...|... .. . ...
4b|... .. . ...|... .. . ...|... .. . ...|... .. . ...|... .. . ...
4c|E-3 00 . ...|E-2 00 . ...|E-2 00 . ...|F#2 02 . ...|... .. . ...
4d|... .. . ...|... .. . ...|... .. . ...|... .. . ...|... .. . ...
4e|... .. . ...|... .. . ...|... .. . ...|... .. . ...|... .. . ...
4f|... .. . ...|... .. . ...|... .. . ...|... .. . ...|... .. . ...
50|D#3 00 . ...|D#2 00 . ...|D#2 00 . ...|E-2 03 . ...|C#3 00 . ...
51|... .. . ...|... .. . ...|... .. . ...|... .. . ...|... .. . ...
52|... .. . ...|... .. . ...|... .. . ...|... .. . ...|... .. . ...
53|... .. . ...|... .. . ...|... .. . ...|... .. . ...|... .. . ...
54|D-3 00 . ...|D-2 00 . ...|D-2 00 . ...|F#2 02 . ...|... .. . ...
55|D#3 00 . G01|D#2 00 . G01|D#2 00 . G01|... .. . ...|... .. . ...
56|D-3 00 . G02|D-2 00 . G02|D-2 00 . G02|... .. . ...|... .. . ...
57|... .. . ...|... .. . ...|... .. . ...|... .. . ...|... .. . ...
58|C-3 00 . ...|C-2 00 . ...|C-2 00 . ...|E-2 02 . ...|C-3 00 . ...
59|... .. . ...|... .. . ...|... .. . ...|... .. . ...|... .. . ...
5a|... .. . ...|... .. . ...|... .. . ...|... .. . ...|... .. . ...
5b|... .. . ...|... .. . ...|... .. . ...|... .. . ...|... .. . ...
5c|A-2 00 . ...|A-1 00 . ...|A-1 00 . ...|E-2 03 . ...|C#3 00 . ...
5d|... .. . ...|... .. . ...|... .. . ...|... .. . ...|... .. . ...
5e|... .. . ...|... .. . ...|... .. . ...|... .. . ...|... .. . ...
5f|... .. . ...|... .. . ...|... .. . ...|... .. . ...|... .. . ...
60|G-2 00 . ...|G-1 00 . ...|G-1 00 . ...|... .. . ...|... .. . ...
61|... .. . ...|... .. . ...|... .. . ...|... .. . ...|... .. . ...
62|... .. . ...|... .. . ...|... .. . ...|... .. . ...|... .. . ...
63|... .. . ...|... .. . ...|... .. . ...|... .. . ...|... .. . ...
64|G#2 00 . ...|G#1 00 . ...|G#1 00 . ...|E-2 02 . ...|C-3 00 . ...
65|... .. . ...|... .. . ...|... .. . ...|... .. . ...|... .. . ...
66|... .. . ...|... .. . ...|... .. . ...|... .. . ...|... .. . ...
67|... .. . ...|... .. . ...|... .. . ...|... .. . ...|... .. . ...
68|... .. 2 ...|... .. 3 ...|--- .. . ...|... .. . ...|... .. . ...
69|... .. . ...|... .. . ...|... .. . ...|... .. . ...|... .. . ...
6a|... .. . ...|... .. . ...|... .. . ...|... .. . ...|... .. . ...
6b|... .. . ...|... .. . ...|... .. . ...|... .. . ...|... .. . ...
6c|A-2 00 6 ...|A-1 00 8 ...|A-1 00 . ...|E-2 02 . ...|C-3 00 . ...
6d|... .. . ...|... .. . ...|... .. . ...|... .. . ...|... .. . ...
6e|... .. . ...|... .. . ...|... .. . ...|... .. . ...|... .. . ...
6f|... .. . ...|... .. . ...|... .. . ...|... .. . ...|... .. . ...
70|... .. 2 ...|... .. 3 ...|--- 00 . ...|... .. . ...|... .. . ...
71|... .. . ...|... .. . ...|... .. . ...|... .. . ...|... .. . ...
72|... .. . ...|... .. . ...|... .. . ...|... .. . ...|... .. . ...
73|... .. . ...|... .. . ...|... .. . ...|... .. . ...|... .. . ...
74|C-3 00 6 ...|C-2 00 8 ...|C-2 00 . ...|D-2 00 8 ...|... .. . ...
75|... .. . ...|... .. . ...|... .. . ...|D#2 00 8 V01|... .. . ...
76|... .. . ...|... .. . ...|... .. . ...|C-2 00 8 V00|... .. . ...
77|... .. . ...|... .. . ...|... .. . ...|B-1 00 7 ...|... .. . ...
78|... .. . ...|... .. . ...|... .. . ...|E-2 00 7 V01|... .. . ...
79|... .. . ...|... .. . ...|... .. . ...|A-1 00 7 V00|... .. . ...
7a|... .. . R12|... .. . R12|... .. . R12|A#1 00 6 ...|... .. . ...
7b|... .. . ...|... .. . ...|... .. . ...|G-2 00 6 V01|... .. . ...
7c|... .. . ...|... .. . ...|... .. . ...|G#1 00 5 V00|... .. . ...
7d|... .. . ...|... .. . ...|... .. . ...|G-1 00 5 ...|... .. . ...
7e|... .. . ...|... .. . ...|... .. . ...|F#1 00 4 ...|... .. . ...
7f|... .. . ...|... .. . ...|... .. . ...|F#2 00 4 V01|... .. . ...

[Frame4]
00|E-4 00 5 V02|A-1 00 6 V00|A-2 00 . ...|E-2 06 a V00|... .. . ...
01|... .. . ...|... .. . ...|... .. . ...|... .. . ...|... .. . ...
02|... .. . ...|... .. 2 ...|... .. . ...|... .. . ...|... .. . ...
03|... .. . ...|... .. . ...|... .. . ...|... .. . ...|... .. . ...
04|... .. . ...|E-2 00 6 ...|A-3 00 . ...|... .. . ...|... .. . ...
05|... .. . ...|... .. . ...|... .. . ...|... .. . ...|... .. . ...
06|... .. . ...|... .. 2 ...|... .. . ...|... .. . ...|... .. . ...
07|... .. . ...|... .. . ...|... .. . ...|... .. . ...|... .. . ...
08|E-3 00 . V01|A-2 00 6 ...|E-3 00 . ...|... .. . ...|... .. . ...
09|... .. . ...|... .. . ...|... .. . ...|... .. . ...|... .. . ...
0a|... .. . ...|... .. 2 ...|... .. . ...|... .. . ...|... .. . ...
0b|... .. . ...|... .. . ...|... .. . ...|... .. . ...|... .. . ...
0c|D#4 00 . V02|E-2 00 6 ...|D#3 00 . ...|F#2 02 . ...|... .. . ...
0d|... .. . ...|... .. . ...|... .. . ...|... .. . ...|... .. . ...
0e|... .. . ...|... .. 2 ...|... .. . ...|... .. . ...|... .. . ...
0f|... .. . ...|... .. . ...|... .. . ...|... .. . ...|... .. . ...
10|... .. . ...|C-3 00 6 ...|D-3 00 . ...|F#2 02 . ...|... .. . ...
11|... .. . ...|... .. . ...|... .. . ...|... .. . ...|... .. . ...
12|... .. . ...|... .. 2 ...|... .. . ...|... .. . ...|... .. . ...
13|... .. . ...|... .. . ...|... .. . ...|... .. . ...|... .. . ...
14|E-3 00 . V01|E-2 00 6 ...|C-3 00 . ...|F#2 02 . ...|... .. . ...
15|... .. . ...|... .. . ...|... .. . ...|... .. . ...|... .. . ...
16|... .. . ...|... .. 2 ...|... .. . ...|... .. . ...|... .. . ...
17|... .. . ...|... .. . ...|... .. . ...|... .. . ...|... .. . ...
18|E-4 00 . V02|D-3 00 6 ...|A-2 00 . ...|F#2 02 . ...|... .. . ...
19|... .. . ...|... .. . ...|... .. . ...|... .. . ...|... .. . ...
1a|... .. . ...|... .. 2 ...|... .. . ...|... .. . ...|... .. . ...
1b|... .. . ...|... .. . ...|... .. . ...|... .. . ...|... .. . ...
1c|... .. . ...|E-2 00 6 ...|G#2 00 . ...|F#2 02 . ...|... .. . ...
1d|... .. . ...|... .. . ...|... .. . ...|... .. . ...|... .. . ...
1e|... .. . ...|... .. 2 ...|... .. . ...|F#2 02 . ...|... .. . ...
1f|... .. . ...|... .. . ...|... .. . ...|... .. . ...|... .. . ...
20|E-3 00 . V01|D#3 00 6 ...|G-2 00 . ...|F#2 02 . ...|... .. . ...
21|... .. . ...|... .. . ...|... .. . ...|... .. . ...|... .. . ...
22|... .. . ...|... .. 2 ...|... .. . ...|... .. . ...|... .. . ...
23|... .. . ...|... .. . ...|... .. . ...|... .. . ...|... .. . ...
24|G-4 00 . V02|E-2 00 6 ...|D#2 00 . ...|F#2 02 . ...|... .. . ...
25|... .. . ...|... .. . ...|... .. . ...|... .. . ...|... .. . ...
26|... .. . ...|... .. 2 ...|... .. . ...|... .. . ...|... .. . ...
27|... .. . ...|... .. . ...|... .. . ...|... .. . ...|... .. . ...
28|... .. . ...|D-3 00 6 ...|E-2 00 . ...|F#2 02 . ...|... .. . ...
29|... .. . ...|... .. . ...|... .. . ...|... .. . ...|... .. . ...
2a|... .. . ...|... .. 2 ...|... .. . ...|... .. . ...|... .. . ...
2b|... .. . ...|... .. . ...|... .. . ...|... .. . ...|... .. . ...
2c|E-3 00 . V01|C-3 00 6 ...|C-3 00 . ...|F#2 02 . ...|... .. . ...
2d|... .. . ...|... .. . ...|... .. . ...|... .. . ...|... .. . ...
2e|... .. . ...|... .. . ...|... .. . ...|... .. . ...|... .. . ...
2f|... .. . ...|... .. . ...|... .. . ...|... .. . ...|... .. . ...
30|A-4 00 . V02|... .. 2 ...|D#2 00 . ...|F#2 02 . ...|... .. . ...
31|... .. . ...|... .. . ...|... .. . ...|... .. . ...|... .. . ...
32|... .. . ...|... .. . ...|... .. . ...|F#2 02 . ...|... .. . ...
33|... .. . ...|... .. . ...|... .. . ...|... .. . ...|... .. . ...
34|E-3 00 . V01|E-2 00 6 ...|E-2 00 . ...|F#2 02 . ...|... .. . ...
35|... .. . ...|... .. . ...|... .. . ...|... .. . ...|... .. . ...
36|... .. . ...|... .. 2 ...|... .. . ...|... .. . ...|... .. . ...
37|... .. . ...|... .. . ...|... .. . ...|... .. . ...|... .. . ...
38|B-4 00 . V02|C-3 00 6 ...|D-3 00 . ...|F#2 02 . ...|... .. . ...
39|... .. . ...|... .. . ...|... .. . ...|... .. . ...|... .. . ...
3a|... .. . ...|... .. 2 ...|... .. . ...|... .. . ...|... .. . ...
3b|... .. . ...|... .. . ...|... .. . ...|... .. . ...|... .. . ...
3c|E-3 00 . V01|B-2 00 6 ...|E-2 00 . ...|F#2 02 . ...|... .. . ...
3d|... .. . ...|... .. . ...|... .. . ...|... .. . ...|... .. . ...
3e|... .. . ...|... .. 2 ...|... .. . ...|... .. . ...|... .. . ...
3f|... .. . ...|... .. . ...|... .. . ...|... .. . ...|... .. . ...
40|C-5 00 . V02|A-1 00 6 ...|A-2 00 . ...|F#2 02 . ...|... .. . ...
41|... .. . ...|... .. . ...|... .. . ...|... .. . ...|... .. . ...
42|... .. . ...|... .. 2 ...|... .. . ...|... .. . ...|... .. . ...
43|... .. . ...|... .. . ...|... .. . ...|... .. . ...|... .. . ...
44|... .. . ...|E-2 00 6 ...|A-3 00 . ...|F#2 02 . ...|... .. . ...
45|... .. . ...|... .. . ...|... .. . ...|... .. . ...|... .. . ...
46|... .. . ...|... .. 2 ...|... .. . ...|F#2 02 . ...|... .. . ...
47|... .. . ...|... .. . ...|... .. . ...|... .. . ...|... .. . ...
48|E-3 00 . V01|A-2 00 6 ...|E-3 00 . ...|F#2 02 . ...|... .. . ...
49|... .. . ...|... .. . ...|... .. . ...|... .. . ...|... .. . ...
4a|... .. . ...|... .. 2 ...|... .. . ...|... .. . ...|... .. . ...
4b|... .. . ...|... .. . ...|... .. . ...|... .. . ...|... .. . ...
4c|B-4 00 . V02|E-2 00 6 ...|D#3 00 . ...|F#2 02 . ...|... .. . ...
4d|... .. . ...|... .. . ...|... .. . ...|... .. . ...|... .. . ...
4e|... .. . ...|... .. 2 ...|... .. . ...|... .. . ...|... .. . ...
4f|... .. . ...|... .. . ...|... .. . ...|... .. . ...|... .. . ...
50|... .. . ...|C-3 00 6 ...|D-3 00 . ...|F#2 02 . ...|... .. . ...
51|... .. . ...|... .. . ...|... .. . ...|... .. . ...|... .. . ...
52|... .. . ...|... .. 2 ...|... .. . ...|... .. . ...|... .. . ...
53|... .. . ...|... .. . ...|... .. . ...|... .. . ...|... .. . ...
54|E-3 00 . V01|E-2 00 6 ...|C-3 00 . ...|F#2 02 . ...|... .. . ...
55|... .. . ...|... .. . ...|... .. . ...|... .. . ...|... .. . ...
56|... .. . ...|... .. 2 ...|... .. . ...|... .. . ...|... .. . ...
57|... .. . ...|... .. . ...|... .. . ...|... .. . ...|... .. . ...
58|G-4 00 . V02|D-3 00 6 ...|A-2 00 . ...|F#2 02 . ...|... .. . ...
59|... .. . ...|... .. . ...|... .. . ...|... .. . ...|... .. . ...
5a|... .. . ...|... .. 2 ...|... .. . ...|... .. . ...|... .. . ...
5b|... .. . ...|... .. . ...|... .. . ...|... .. . ...|... .. . ...
5c|... .. . ...|E-2 00 6 ...|G#2 00 . ...|F#2 02 . ...|... .. . ...
5d|... .. . ...|... .. . ...|... .. . ...|... .. . ...|... .. . ...
5e|... .. . ...|... .. 2 ...|... .. . ...|F#2 02 . ...|... .. . ...
5f|... .. . ...|... .. . ...|... .. . ...|... .. . ...|... .. . ...
60|E-3 00 . V01|D#3 00 6 ...|G-2 00 . ...|F#2 02 . ...|... .. . ...
61|... .. . ...|... .. . ...|... .. . ...|... .. . ...|... .. . ...
62|... .. . ...|... .. 2 ...|... .. . ...|... .. . ...|... .. . ...
63|... .. . ...|... .. . ...|... .. . ...|... .. . ...|... .. . ...
64|E-4 00 . V02|E-2 00 6 ...|D#2 00 . ...|F#2 02 . ...|... .. . ...
65|... .. . ...|... .. . ...|... .. . ...|... .. . ...|... .. . ...
66|... .. . ...|... .. 2 ...|... .. . ...|... .. . ...|... .. . ...
67|... .. . ...|... .. . ...|... .. . ...|... .. . ...|... .. . ...
68|... .. . ...|D-3 00 6 ...|E-2 00 . ...|F#2 02 . ...|... .. . ...
69|... .. . ...|... .. . ...|... .. . ...|... .. . ...|... .. . ...
6a|... .. . ...|... .. 2 ...|... .. . ...|... .. . ...|... .. . ...
6b|... .. . ...|... .. . ...|... .. . ...|... .. . ...|... .. . ...
6c|E-3 00 . V01|C-3 00 6 ...|C-3 00 . ...|F#2 02 . ...|... .. . ...
6d|... .. . ...|... .. . ...|... .. . ...|... .. . ...|... .. . ...
6e|... .. . ...|... .. . ...|... .. . ...|... .. . ...|... .. . ...
6f|... .. . ...|... .. . ...|... .. . ...|... .. . ...|... .. . ...
70|D#4 00 . V02|... .. 2 ...|D#2 00 . ...|F#2 02 . ...|... .. . ...
71|... .. . ...|... .. . ...|... .. . ...|... .. . ...|... .. . ...
72|... .. . ...|... .. . ...|... .. . ...|F#2 02 . ...|... .. . ...
73|... .. . ...|... .. . ...|... .. . ...|... .. . ...|... .. . ...
74|E-3 00 . V01|E-2 00 6 ...|E-2 00 . ...|F#2 02 . ...|... .. . ...
75|... .. . ...|... .. . ...|... .. . ...|... .. . ...|... .. . ...
76|... .. . ...|... .. 2 ...|... .. . ...|... .. . ...|... .. . ...
77|... .. . ...|... .. . ...|... .. . ...|... .. . ...|... .. . ...
78|D-4 00 . V02|C-3 00 6 ...|D-3 00 . ...|F#2 02 . ...|... .. . ...
79|... .. . ...|... .. . ...|... .. . ...|... .. . ...|... .. . ...
7a|... .. . ...|... .. 2 ...|... .. . ...|... .. . ...|... .. . ...
7b|... .. . ...|... .. . ...|... .. . ...|... .. . ...|... .. . ...
7c|E-3 00 . V01|B-2 00 6 ...|E-2 00 . ...|F#2 02 . ...|... .. . ...
7d|... .. . ...|... .. . ...|... .. . ...|... .. . ...|... .. . ...
7e|... .. . ...|... .. 2 ...|... .. . ...|... .. . ...|... .. . ...
7f|... .. . ...|... .. . ...|... .. . ...|... .. . ...|... .. . ...

[Frame5]
00|E-4 00 5 V02|A-1 00 6 V00|A-2 00 . ...|F#2 02 a ...|... .. . ...
01|... .. . ...|... .. . ...|... .. . ...|... .. . ...|... .. . ...
02|... .. . ...|... .. 2 ...|... .. . ...|... .. . ...|... .. . ...
03|... .. . ...|... .. . ...|... .. . ...|... .. . ...|... .. . ...
04|... .. . ...|E-2 00 6 ...|A-3 00 . ...|F#2 02 . ...|... .. . ...
05|... .. . ...|... .. . ...|... .. . ...|... .. . ...|... .. . ...
06|... .. . ...|... .. 2 ...|... .. . ...|F#2 02 . ...|... .. . ...
07|... .. . ...|... .. . ...|... .. . ...|... .. . ...|... .. . ...
08|E-3 00 . V01|A-2 00 6 ...|E-3 00 . ...|F#2 02 . ...|... .. . ...
09|... .. . ...|... .. . ...|... .. . ...|... .. . ...|... .. . ...
0a|... .. . ...|... .. 2 ...|... .. . ...|... .. . ...|... .. . ...
0b|... .. . ...|... .. . ...|... .. . ...|... .. . ...|... .. . ...
0c|D#4 00 . V02|E-2 00 6 ...|D#3 00 . ...|F#2 02 . ...|... .. . ...
0d|... .. . ...|... .. . ...|... .. . ...|... .. . ...|... .. . ...
0e|... .. . ...|... .. 2 ...|... .. . ...|... .. . ...|... .. . ...
0f|... .. . ...|... .. . ...|... .. . ...|... .. . ...|... .. . ...
10|... .. . ...|C-3 00 6 ...|D-3 00 . ...|F#2 02 . ...|... .. . ...
11|... .. . ...|... .. . ...|... .. . ...|... .. . ...|... .. . ...
12|... .. . ...|... .. 2 ...|... .. . ...|... .. . ...|... .. . ...
13|... .. . ...|... .. . ...|... .. . ...|... .. . ...|... .. . ...
14|E-3 00 . V01|E-2 00 6 ...|C-3 00 . ...|F#2 02 . ...|... .. . ...
15|... .. . ...|... .. . ...|... .. . ...|... .. . ...|... .. . ...
16|... .. . ...|... .. 2 ...|... .. . ...|... .. . ...|... .. . ...
17|... .. . ...|... .. . ...|... .. . ...|... .. . ...|... .. . ...
18|E-4 00 . V02|D-3 00 6 ...|A-2 00 . ...|F#2 02 . ...|... .. . ...
19|... .. . ...|... .. . ...|... .. . ...|... .. . ...|... .. . ...
1a|... .. . ...|... .. 2 ...|... .. . ...|... .. . ...|... .. . ...
1b|... .. . ...|... .. . ...|... .. . ...|... .. . ...|... .. . ...
1c|... .. . ...|E-2 00 6 ...|G#2 00 . ...|F#2 02 . ...|... .. . ...
1d|... .. . ...|... .. . ...|... .. . ...|... .. . ...|... .. . ...
1e|... .. . ...|... .. 2 ...|... .. . ...|F#2 02 . ...|... .. . ...
1f|... .. . ...|... .. . ...|... .. . ...|... .. . ...|... .. . ...
20|E-3 00 . V01|D#3 00 6 ...|G-2 00 . ...|F#2 02 . ...|... .. . ...
21|... .. . ...|... .. . ...|... .. . ...|... .. . ...|... .. . ...
22|... .. . ...|... .. 2 ...|... .. . ...|... .. . ...|... .. . ...
23|... .. . ...|... .. . ...|... .. . ...|... .. . ...|... .. . ...
24|D-5 00 . V02|E-2 00 6 ...|D#2 00 . ...|F#2 02 . ...|... .. . ...
25|... .. . ...|... .. . ...|... .. . ...|... .. . ...|... .. . ...
26|... .. . ...|... .. 2 ...|... .. . ...|... .. . ...|... .. . ...
27|... .. . ...|... .. . ...|... .. . ...|... .. . ...|... .. . ...
28|... .. . ...|D-3 00 6 ...|E-2 00 . ...|F#2 02 . ...|... .. . ...
29|... .. . ...|... .. . ...|... .. . ...|... .. . ...|... .. . ...
2a|... .. . ...|... .. 2 ...|... .. . ...|... .. . ...|... .. . ...
2b|... .. . ...|... .. . ...|... .. . ...|... .. . ...|... .. . ...
2c|E-3 00 . V01|C-3 00 6 ...|C-3 00 . ...|F#2 02 . ...|... .. . ...
2d|... .. . ...|... .. . ...|... .. . ...|... .. . ...|... .. . ...
2e|... .. . ...|... .. . ...|... .. . ...|... .. . ...|... .. . ...
2f|... .. . ...|... .. . ...|... .. . ...|... .. . ...|... .. . ...
30|C-5 00 . V02|... .. 2 ...|D#2 00 . ...|F#2 02 . ...|... .. . ...
31|... .. . ...|... .. . ...|... .. . ...|... .. . ...|... .. . ...
32|... .. . ...|... .. . ...|... .. . ...|F#2 02 . ...|... .. . ...
33|... .. . ...|... .. . ...|... .. . ...|... .. . ...|... .. . ...
34|E-3 00 . V01|E-2 00 6 ...|E-2 00 . ...|F#2 02 . ...|... .. . ...
35|... .. . ...|... .. . ...|... .. . ...|... .. . ...|... .. . ...
36|... .. . ...|... .. 2 ...|... .. . ...|... .. . ...|... .. . ...
37|... .. . ...|... .. . ...|... .. . ...|... .. . ...|... .. . ...
38|B-4 00 . V02|C-3 00 6 ...|D-3 00 . ...|F#2 02 . ...|... .. . ...
39|... .. . ...|... .. . ...|... .. . ...|... .. . ...|... .. . ...
3a|... .. . ...|... .. 2 ...|... .. . ...|... .. . ...|... .. . ...
3b|... .. . ...|... .. . ...|... .. . ...|... .. . ...|... .. . ...
3c|E-3 00 . V01|B-2 00 6 ...|E-2 00 . ...|F#2 02 . ...|... .. . ...
3d|... .. . ...|... .. . ...|... .. . ...|... .. . ...|... .. . ...
3e|... .. . ...|... .. 2 ...|... .. . ...|... .. . ...|... .. . ...
3f|... .. . ...|... .. . ...|... .. . ...|... .. . ...|... .. . ...
40|C-5 00 . V02|A-1 00 6 ...|A-2 00 . ...|F#2 02 . ...|... .. . ...
41|... .. . ...|... .. . ...|... .. . ...|... .. . ...|... .. . ...
42|... .. . ...|... .. 2 ...|... .. . ...|... .. . ...|... .. . ...
43|... .. . ...|... .. . ...|... .. . ...|... .. . ...|... .. . ...
44|... .. . ...|E-2 00 6 ...|A-3 00 . ...|F#2 02 . ...|... .. . ...
45|... .. . ...|... .. . ...|... .. . ...|... .. . ...|... .. . ...
46|... .. . ...|... .. 2 ...|... .. . ...|F#2 02 . ...|... .. . ...
47|... .. . ...|... .. . ...|... .. . ...|... .. . ...|... .. . ...
48|E-3 00 . V01|A-2 00 6 ...|E-3 00 . ...|F#2 02 . ...|... .. . ...
49|... .. . ...|... .. . ...|... .. . ...|... .. . ...|... .. . ...
4a|... .. . ...|... .. 2 ...|... .. . ...|... .. . ...|... .. . ...
4b|... .. . ...|... .. . ...|... .. . ...|... .. . ...|... .. . ...
4c|B-4 00 . V02|E-2 00 6 ...|D#3 00 . ...|F#2 02 . ...|... .. . ...
4d|... .. . ...|... .. . ...|... .. . ...|... .. . ...|... .. . ...
4e|... .. . ...|... .. 2 ...|... .. . ...|... .. . ...|... .. . ...
4f|... .. . ...|... .. . ...|... .. . ...|... .. . ...|... .. . ...
50|... .. . ...|C-3 00 6 ...|D-3 00 . ...|F#2 02 . ...|... .. . ...
51|... .. . ...|... .. . ...|... .. . ...|... .. . ...|... .. . ...
52|... .. . ...|... .. 2 ...|... .. . ...|... .. . ...|... .. . ...
53|... .. . ...|... .. . ...|... .. . ...|... .. . ...|... .. . ...
54|E-3 00 . V01|E-2 00 6 ...|C-3 00 . ...|F#2 02 . ...|... .. . ...
55|... .. . ...|... .. . ...|... .. . ...|... .. . ...|... .. . ...
56|... .. . ...|... .. 2 ...|... .. . ...|... .. . ...|... .. . ...
57|... .. . ...|... .. . ...|... .. . ...|... .. . ...|... .. . ...
58|A-4 00 . V02|D-3 00 6 ...|A-2 00 . ...|F#2 02 . ...|... .. . ...
59|... .. . ...|... .. . ...|... .. . ...|... .. . ...|... .. . ...
5a|... .. . ...|... .. 2 ...|... .. . ...|... .. . ...|... .. . ...
5b|... .. . ...|... .. . ...|... .. . ...|... .. . ...|... .. . ...
5c|... .. . ...|E-2 00 6 ...|G#2 00 . ...|F#2 02 . ...|... .. . ...
5d|... .. . ...|... .. . ...|... .. . ...|... .. . ...|... .. . ...
5e|... .. . ...|... .. 2 ...|... .. . ...|F#2 02 . ...|... .. . ...
5f|... .. . ...|... .. . ...|... .. . ...|... .. . ...|... .. . ...
60|... .. . ...|D#3 00 6 ...|G-2 00 . ...|E-2 02 . ...|C-3 00 . ...
61|... .. . ...|... .. . ...|... .. . ...|... .. . ...|... .. . ...
62|... .. . ...|... .. 2 ...|... .. . ...|... .. . ...|... .. . ...
63|... .. . ...|... .. . ...|... .. . ...|... .. . ...|... .. . ...
64|... .. . ...|E-2 00 6 ...|D#2 00 . ...|E-2 03 . ...|C#3 00 . ...
65|... .. . ...|... .. . ...|... .. . ...|... .. . ...|... .. . ...
66|... .. . ...|... .. 2 ...|... .. . ...|... .. . ...|... .. . ...
67|... .. . ...|... .. . ...|... .. . ...|... .. . ...|... .. . ...
68|... .. . 473|D-3 00 6 ...|E-2 00 . ...|F#2 02 . ...|... .. . ...
69|... .. . ...|... .. . ...|... .. . ...|... .. . ...|... .. . ...
6a|... .. . ...|... .. 2 ...|... .. . ...|... .. . ...|... .. . ...
6b|... .. . ...|... .. . ...|... .. . ...|... .. . ...|... .. . ...
6c|... .. . ...|C-3 00 6 ...|C-3 00 . ...|E-2 02 . ...|C-3 00 . ...
6d|... .. . ...|... .. . ...|... .. . ...|... .. . ...|... .. . ...
6e|... .. . ...|... .. . ...|... .. . ...|... .. . ...|... .. . ...
6f|... .. . ...|... .. . ...|... .. . ...|... .. . ...|... .. . ...
70|... .. . ...|... .. 2 ...|D#2 00 . ...|E-2 03 . ...|C#3 00 . ...
71|... .. . ...|... .. . ...|... .. . ...|... .. . ...|... .. . ...
72|... .. . ...|... .. . ...|... .. . ...|... .. . ...|... .. . ...
73|... .. . ...|... .. . ...|... .. . ...|... .. . ...|... .. . ...
74|... .. 4 ...|E-2 00 6 ...|E-2 00 . ...|F#2 02 . ...|... .. . ...
75|... .. . ...|... .. . ...|... .. . ...|... .. . ...|... .. . ...
76|... .. . ...|... .. 2 ...|... .. . ...|... .. . ...|... .. . ...
77|... .. . ...|... .. . ...|... .. . ...|... .. . ...|... .. . ...
78|... .. 3 ...|C-3 00 6 ...|D-3 00 . ...|E-2 03 . ...|C#3 00 . ...
79|... .. . ...|... .. . ...|... .. . ...|... .. . ...|... .. . ...
7a|... .. . ...|... .. 2 ...|... .. . ...|... .. . ...|... .. . ...
7b|... .. . ...|... .. . ...|... .. . ...|... .. . ...|... .. . ...
7c|... .. 2 ...|B-2 00 6 ...|E-2 00 . ...|E-2 03 . ...|C#3 00 . ...
7d|... .. . ...|... .. . ...|... .. . ...|... .. . ...|... .. . ...
7e|... .. 1 ...|... .. 2 ...|... .. . ...|... .. . ...|... .. . ...
7f|... .. . ...|... .. . ...|... .. . ...|... .. . ...|... .. . ...

[Frame6]
00|E-4 00 5 V02|A-1 00 8 V01|A-1 00 . ...|C#2 06 c ...|C-3 00 . ...
01|... .. . ...|... .. . ...|... .. . ...|... .. . ...|... .. . ...
02|... .. . ...|... .. . ...|... .. . ...|... .. . ...|... .. . ...
03|... .. . ...|... .. . ...|... .. . ...|... .. . ...|... .. . ...
04|... .. . ...|... .. . ...|... .. . ...|... .. . ...|... .. . ...
05|... .. . ...|... .. . ...|... .. . ...|... .. . ...|... .. . ...
06|... .. . ...|... .. 3 ...|--- .. . ...|... .. . ...|... .. . ...
07|... .. . ...|... .. . ...|... .. . ...|... .. . ...|... .. . ...
08|E-3 00 . V01|A-1 00 8 ...|A-1 00 . ...|... .. . ...|... .. . ...
09|... .. . ...|... .. . ...|... .. . ...|... .. . ...|... .. . ...
0a|... .. . ...|... .. 3 ...|--- .. . ...|... .. . ...|... .. . ...
0b|... .. . ...|... .. . ...|... .. . ...|... .. . ...|... .. . ...
0c|D#4 00 . V02|A-1 00 8 ...|A-1 00 . ...|... .. . ...|... .. . ...
0d|... .. . ...|... .. . ...|... .. . ...|... .. . ...|... .. . ...
0e|... .. . ...|... .. 3 ...|--- .. . ...|... .. . ...|... .. . ...
0f|... .. . ...|... .. . ...|... .. . ...|... .. . ...|... .. . ...
10|... .. . ...|C-2 00 8 ...|C-2 00 . ...|C#2 01 a ...|C#3 00 . ...
11|... .. . ...|... .. . ...|... .. . ...|... .. . ...|... .. . ...
12|... .. . ...|... .. . ...|... .. . ...|... .. . ...|... .. . ...
13|... .. . ...|... .. . ...|... .. . ...|... .. . ...|... .. . ...
14|E-3 00 . V01|... .. . ...|... .. . ...|... .. . ...|... .. . ...
15|... .. . ...|... .. . ...|... .. . ...|... .. . ...|... .. . ...
16|... .. . ...|... .. . ...|... .. . ...|... .. . ...|... .. . ...
17|... .. . ...|... .. . ...|... .. . ...|... .. . ...|... .. . ...
18|E-4 00 . V02|A-1 00 . ...|A-1 00 . ...|E-2 02 . ...|C-3 00 . ...
19|... .. . ...|... .. . ...|... .. . ...|... .. . ...|... .. . ...
1a|... .. . ...|... .. 3 ...|--- .. . ...|... .. . ...|... .. . ...
1b|... .. . ...|... .. . ...|... .. . ...|... .. . ...|... .. . ...
1c|... .. . ...|A-1 00 8 ...|A-1 00 . ...|... .. . ...|... .. . ...
1d|... .. . ...|... .. . ...|... .. . ...|... .. . ...|... .. . ...
1e|... .. . ...|... .. 3 ...|--- .. . ...|... .. . ...|... .. . ...
1f|... .. . ...|... .. . ...|... .. . ...|... .. . ...|... .. . ...
20|E-3 00 . V01|D#2 00 8 ...|D#2 00 . ...|C#2 01 . ...|C-3 00 . ...
21|... .. . ...|... .. . ...|... .. . ...|... .. . ...|... .. . ...
22|... .. . ...|... .. . ...|... .. . ...|... .. . ...|... .. . ...
23|... .. . ...|... .. . ...|... .. . ...|... .. . ...|... .. . ...
24|G-4 00 . V02|D-2 00 . ...|D-2 00 . ...|E-2 03 . ...|C#3 00 . ...
25|... .. . ...|... .. . ...|... .. . ...|... .. . ...|... .. . ...
26|... .. . ...|... .. . ...|... .. . ...|... .. . ...|... .. . ...
27|... .. . ...|... .. . ...|... .. . ...|... .. . ...|... .. . ...
28|... .. . ...|... .. 3 ...|--- .. . ...|... .. . ...|... .. . ...
29|... .. . ...|... .. . ...|... .. . ...|... .. . ...|... .. . ...
2a|... .. . ...|... .. . ...|... .. . ...|... .. . ...|... .. . ...
2b|... .. . ...|... .. . ...|... .. . ...|... .. . ...|... .. . ...
2c|E-3 00 . V01|C-2 00 8 ...|C-2 00 . ...|E-2 02 . ...|C-3 00 . ...
2d|... .. . ...|... .. . ...|... .. . ...|... .. . ...|... .. . ...
2e|... .. . ...|... .. . ...|... .. . ...|... .. . ...|... .. . ...
2f|... .. . ...|... .. . ...|... .. . ...|... .. . ...|... .. . ...
30|A-4 00 . V02|... .. 3 ...|--- .. . ...|C#2 01 . ...|C#3 00 . ...
31|... .. . ...|... .. . ...|... .. . ...|... .. . ...|... .. . ...
32|... .. . ...|... .. . ...|... .. . ...|... .. . ...|... .. . ...
33|... .. . ...|... .. . ...|... .. . ...|... .. . ...|... .. . ...
34|E-3 00 . V01|B-1 00 8 ...|B-1 00 . ...|... .. . ...|... .. . ...
35|... .. . ...|... .. . ...|... .. . ...|... .. . ...|... .. . ...
36|... .. . ...|... .. . ...|... .. . ...|... .. . ...|... .. . ...
37|... .. . ...|... .. . ...|... .. . ...|... .. . ...|... .. . ...
38|B-4 00 . V02|... .. 3 ...|--- .. . ...|E-2 02 . ...|C-3 00 . ...
39|... .. . ...|... .. . ...|... .. . ...|... .. . ...|... .. . ...
3a|... .. . ...|... .. . ...|... .. . ...|... .. . ...|... .. . ...
3b|... .. . ...|... .. . ...|... .. . ...|... .. . ...|... .. . ...
3c|E-3 00 . V01|A-1 00 8 ...|A-1 00 . ...|E-2 02 . ...|C-3 00 . ...
3d|... .. . ...|... .. . ...|... .. . ...|... .. . ...|... .. . ...
3e|... .. . ...|... .. . ...|... .. . ...|... .. . ...|... .. . ...
3f|... .. . ...|... .. . ...|... .. . ...|... .. . ...|... .. . ...
40|C-5 00 . V02|... .. . ...|... .. . ...|C#2 01 . ...|C-3 00 . ...
41|... .. . ...|... .. . ...|... .. . ...|... .. . ...|... .. . ...
42|... .. . ...|... .. 3 ...|--- .. . ...|... .. . ...|... .. . ...
43|... .. . ...|... .. . ...|... .. . ...|... .. . ...|... .. . ...
44|... .. . ...|A-1 00 8 ...|A-1 00 . ...|... .. . ...|... .. . ...
45|... .. . ...|... .. . ...|... .. . ...|... .. . ...|... .. . ...
46|... .. . ...|... .. 3 ...|--- .. . ...|... .. . ...|... .. . ...
47|... .. . ...|... .. . ...|... .. . ...|... .. . ...|... .. . ...
48|E-3 00 . V01|A-1 00 8 ...|A-1 00 . ...|E-2 02 . ...|C-3 00 . ...
49|... .. . ...|... .. . ...|... .. . ...|... .. . ...|... .. . ...
4a|... .. . ...|... .. 3 ...|--- .. . ...|... .. . ...|... .. . ...
4b|... .. . ...|... .. . ...|... .. . ...|... .. . ...|... .. . ...
4c|B-4 00 . V02|E-1 00 8 ...|E-1 00 . ...|... .. . ...|... .. . ...
4d|... .. . ...|... .. . ...|... .. . ...|... .. . ...|... .. . ...
4e|... .. . ...|... .. 3 ...|--- .. . ...|... .. . ...|... .. . ...
4f|... .. . ...|... .. . ...|... .. . ...|... .. . ...|... .. . ...
50|... .. . ...|G-1 00 8 ...|G-1 00 . ...|C#2 01 . ...|C#3 00 . ...
51|... .. . ...|... .. . ...|... .. . ...|... .. . ...|... .. . ...
52|... .. . ...|... .. . ...|... .. . ...|... .. . ...|... .. . ...
53|... .. . ...|... .. . ...|... .. . ...|... .. . ...|... .. . ...
54|E-3 00 . V01|A-1 00 . ...|A-1 00 . ...|... .. . ...|... .. . ...
55|... .. . ...|... .. . ...|... .. . ...|... .. . ...|... .. . ...
56|... .. . ...|... .. . ...|... .. . ...|... .. . ...|... .. . ...
57|... .. . ...|... .. . ...|... .. . ...|... .. . ...|... .. . ...
58|G-4 00 . V02|D-2 00 . ...|D-2 00 . ...|E-2 02 . ...|C-3 00 . ...
59|... .. . ...|... .. . ...|... .. . ...|... .. . ...|... .. . ...
5a|... .. . ...|... .. . ...|... .. . ...|... .. . ...|... .. . ...
5b|... .. . ...|... .. . ...|... .. . ...|... .. . ...|... .. . ...
5c|... .. . ...|D#2 00 . ...|D#2 00 . ...|E-2 02 . ...|C-3 00 . ...
5d|... .. . ...|... .. . ...|... .. . ...|... .. . ...|... .. . ...
5e|... .. . ...|... .. . ...|... .. . ...|... .. . ...|... .. . ...
5f|... .. . ...|... .. . ...|... .. . ...|... .. . ...|... .. . ...
60|E-3 00 . V01|... .. 3 ...|--- .. . ...|C#2 01 . ...|... .. . ...
61|... .. . ...|... .. . ...|... .. . ...|... .. . ...|... .. . ...
62|... .. . ...|... .. . ...|... .. . ...|... .. . ...|... .. . ...
63|... .. . ...|... .. . ...|... .. . ...|... .. . ...|... .. . ...
64|E-4 00 . V02|D#2 00 8 ...|D#2 00 . ...|E-2 02 . ...|C-3 00 . ...
65|... .. . ...|... .. . ...|... .. . ...|... .. . ...|... .. . ...
66|... .. . ...|... .. . ...|... .. . ...|... .. . ...|... .. . ...
67|... .. . ...|... .. . ...|... .. . ...|... .. . ...|... .. . ...
68|... .. . ...|... .. . ...|... .. . ...|... .. . ...|... .. . ...
69|... .. . ...|... .. . ...|... .. . ...|... .. . ...|... .. . ...
6a|... .. . ...|... .. . ...|... .. . ...|... .. . ...|... .. . ...
6b|... .. . ...|... .. . ...|... .. . ...|... .. . ...|... .. . ...
6c|E-3 00 . V01|D-2 00 . ...|D-2 00 . ...|E-2 02 . ...|C-3 00 . ...
6d|... .. . ...|... .. . ...|... .. . ...|... .. . ...|... .. . ...
6e|... .. . ...|... .. . ...|... .. . ...|... .. . ...|... .. . ...
6f|... .. . ...|... .. . ...|... .. . ...|... .. . ...|... .. . ...
70|D#4 00 . V02|A#1 00 . 33a|A#1 00 . ...|C#2 01 . ...|C#3 00 . ...
71|... .. . ...|... .. . ...|... .. . ...|... .. . ...|... .. . ...
72|... .. . ...|C-2 00 . ...|... .. . ...|... .. . ...|... .. . ...
73|... .. . ...|... .. . ...|... .. . ...|... .. . ...|... .. . ...
74|E-3 00 . V01|A#1 00 . ...|... .. . ...|F#2 02 . ...|... .. . ...
75|... .. . ...|... .. . ...|... .. . ...|... .. . ...|... .. . ...
76|... .. . ...|C-2 00 7 ...|... .. . ...|... .. . ...|... .. . ...
77|... .. . ...|... .. . ...|... .. . ...|... .. . ...|... .. . ...
78|D-4 00 . V02|A#1 00 6 ...|... .. . ...|E-2 03 . ...|C#3 00 . ...
79|... .. . ...|... .. 5 ...|... .. . ...|... .. . ...|... .. . ...
7a|... .. . ...|C-2 00 . ...|... .. . ...|... .. . ...|... .. . ...
7b|... .. . ...|... .. 4 ...|... .. . ...|... .. . ...|... .. . ...
7c|E-3 00 . V01|A#1 00 3 ...|... .. . ...|E-2 03 . ...|C#3 00 . ...
7d|... .. . ...|... .. . ...|... .. . ...|... .. . ...|... .. . ...
7e|... .. . ...|C-2 00 2 ...|--- .. . ...|... .. . ...|... .. . ...
7f|... .. . ...|... .. . ...|... .. . ...|... .. . ...|... .. . ...

[Frame7]
00|E-4 00 5 V02|A-1 00 8 V01|A-1 00 . ...|C#2 06 c ...|C-3 00 . ...
01|... .. . ...|... .. . ...|... .. . ...|... .. . ...|... .. . ...
02|... .. . ...|... .. . ...|... .. . ...|... .. . ...|... .. . ...
03|... .. . ...|... .. . ...|... .. . ...|... .. . ...|... .. . ...
04|... .. . ...|... .. . ...|... .. . ...|... .. . ...|... .. . ...
05|... .. . ...|... .. . ...|... .. . ...|... .. . ...|... .. . ...
06|... .. . ...|... .. 3 ...|--- .. . ...|... .. . ...|... .. . ...
07|... .. . ...|... .. . ...|... .. . ...|... .. . ...|... .. . ...
08|E-3 00 . V01|A-1 00 8 ...|A-1 00 . ...|... .. . ...|... .. . ...
09|... .. . ...|... .. . ...|... .. . ...|... .. . ...|... .. . ...
0a|... .. . ...|... .. 3 ...|--- .. . ...|... .. . ...|... .. . ...
0b|... .. . ...|... .. . ...|... .. . ...|... .. . ...|... .. . ...
0c|D#4 00 . V02|A-1 00 8 ...|A-1 00 . ...|... .. . ...|... .. . ...
0d|... .. . ...|... .. . ...|... .. . ...|... .. . ...|... .. . ...
0e|... .. . ...|... .. 3 ...|--- .. . ...|... .. . ...|... .. . ...
0f|... .. . ...|... .. . ...|... .. . ...|... .. . ...|... .. . ...
10|... .. . ...|C-2 00 8 ...|C-2 00 . ...|C#2 01 a ...|C#3 00 . ...
11|... .. . ...|... .. . ...|... .. . ...|... .. . ...|... .. . ...
12|... .. . ...|... .. . ...|... .. . ...|... .. . ...|... .. . ...
13|... .. . ...|... .. . ...|... .. . ...|... .. . ...|... .. . ...
14|E-3 00 . V01|... .. . ...|... .. . ...|... .. . ...|... .. . ...
15|... .. . ...|... .. . ...|... .. . ...|... .. . ...|... .. . ...
16|... .. . ...|... .. . ...|... .. . ...|... .. . ...|... .. . ...
17|... .. . ...|... .. . ...|... .. . ...|... .. . ...|... .. . ...
18|C-4 00 . V02|A-1 00 . ...|A-1 00 . ...|E-2 02 . ...|C-3 00 . ...
19|... .. . ...|... .. . ...|... .. . ...|... .. . ...|... .. . ...
1a|... .. . ...|... .. 3 ...|--- .. . ...|... .. . ...|... .. . ...
1b|... .. . ...|... .. . ...|... .. . ...|... .. . ...|... .. . ...
1c|... .. . ...|A-1 00 8 ...|A-1 00 . ...|... .. . ...|... .. . ...
1d|... .. . ...|... .. . ...|... .. . ...|... .. . ...|... .. . ...
1e|... .. . ...|... .. 3 ...|--- .. . ...|... .. . ...|... .. . ...
1f|... .. . ...|... .. . ...|... .. . ...|... .. . ...|... .. . ...
20|E-3 00 . V01|D#2 00 8 ...|D#2 00 . ...|C#2 01 . ...|C-3 00 . ...
21|... .. . ...|... .. . ...|... .. . ...|... .. . ...|... .. . ...
22|... .. . ...|... .. . ...|... .. . ...|... .. . ...|... .. . ...
23|... .. . ...|... .. . ...|... .. . ...|... .. . ...|... .. . ...
24|E-4 00 . V02|D-2 00 . ...|D-2 00 . ...|E-2 03 . ...|C#3 00 . ...
25|... .. . ...|... .. . ...|... .. . ...|... .. . ...|... .. . ...
26|... .. . ...|... .. . ...|... .. . ...|... .. . ...|... .. . ...
27|... .. . ...|... .. . ...|... .. . ...|... .. . ...|... .. . ...
28|... .. . ...|... .. 3 ...|--- .. . ...|... .. . ...|... .. . ...
29|... .. . ...|... .. . ...|... .. . ...|... .. . ...|... .. . ...
2a|... .. . ...|... .. . ...|... .. . ...|... .. . ...|... .. . ...
2b|... .. . ...|... .. . ...|... .. . ...|... .. . ...|... .. . ...
2c|E-3 00 . V01|C-2 00 8 ...|C-2 00 . ...|E-2 02 . ...|C-3 00 . ...
2d|... .. . ...|... .. . ...|... .. . ...|... .. . ...|... .. . ...
2e|... .. . ...|... .. . ...|... .. . ...|... .. . ...|... .. . ...
2f|... .. . ...|... .. . ...|... .. . ...|... .. . ...|... .. . ...
30|C-4 00 . V02|... .. 3 ...|--- .. . ...|C#2 01 . ...|C#3 00 . ...
31|... .. . ...|... .. . ...|... .. . ...|... .. . ...|... .. . ...
32|... .. . ...|... .. . ...|... .. . ...|... .. . ...|... .. . ...
33|... .. . ...|... .. . ...|... .. . ...|... .. . ...|... .. . ...
34|E-3 00 . V01|B-1 00 8 ...|B-1 00 . ...|... .. . ...|... .. . ...
35|... .. . ...|... .. . ...|... .. . ...|... .. . ...|... .. . ...
36|... .. . ...|... .. . ...|... .. . ...|... .. . ...|... .. . ...
37|... .. . ...|... .. . ...|... .. . ...|... .. . ...|... .. . ...
38|B-3 00 . V02|... .. 3 ...|--- .. . ...|E-2 02 . ...|C-3 00 . ...
39|... .. . ...|... .. . ...|... .. . ...|... .. . ...|... .. . ...
3a|... .. . ...|... .. . ...|... .. . ...|... .. . ...|... .. . ...
3b|... .. . ...|... .. . ...|... .. . ...|... .. . ...|... .. . ...
3c|E-3 00 . V01|A-1 00 8 ...|A-1 00 . ...|E-2 02 . ...|C-3 00 . ...
3d|... .. . ...|... .. . ...|... .. . ...|... .. . ...|... .. . ...
3e|... .. . ...|... .. . ...|... .. . ...|... .. . ...|... .. . ...
3f|... .. . ...|... .. . ...|... .. . ...|... .. . ...|... .. . ...
40|C-4 00 . V02|F-1 00 . ...|F-1 00 . ...|C#2 06 . ...|C-3 00 . ...
41|... .. . ...|... .. . ...|... .. . ...|... .. . ...|... .. . ...
42|... .. . ...|... .. . ...|... .. . ...|... .. . ...|... .. . ...
43|... .. . ...|... .. . ...|... .. . ...|... .. . ...|... .. . ...
44|... .. . ...|... .. . ...|... .. . ...|... .. . ...|... .. . ...
45|... .. . ...|... .. . ...|... .. . ...|... .. . ...|... .. . ...
46|... .. . ...|... .. . ...|... .. . ...|... .. . ...|... .. . ...
47|... .. . ...|... .. . ...|... .. . ...|... .. . ...|... .. . ...
48|E-3 00 . V01|C-1 00 . ...|C-1 00 . ...|E-2 03 . ...|C#3 00 . ...
49|... .. . ...|... .. . ...|... .. . ...|... .. . ...|... .. . ...
4a|... .. . ...|... .. 3 ...|--- .. . ...|... .. . ...|... .. . ...
4b|... .. . ...|... .. . ...|... .. . ...|... .. . ...|... .. . ...
4c|B-3 00 . V02|G-1 00 8 ...|G-1 00 . ...|C#2 06 . ...|C-3 00 . ...
4d|... .. . ...|... .. . ...|... .. . ...|... .. . ...|... .. . ...
4e|... .. . ...|... .. . ...|... .. . ...|... .. . ...|... .. . ...
4f|... .. . ...|... .. . ...|... .. . ...|... .. . ...|... .. . ...
50|... .. . ...|... .. . ...|... .. . ...|... .. . ...|... .. . ...
51|... .. . ...|... .. . ...|... .. . ...|... .. . ...|... .. . ...
52|... .. . ...|... .. . ...|... .. . ...|... .. . ...|... .. . ...
53|... .. . ...|... .. . ...|... .. . ...|... .. . ...|... .. . ...
54|E-3 00 . V01|C-1 00 . ...|C-1 00 . ...|E-2 03 . ...|C#3 00 . ...
55|... .. . ...|... .. . ...|... .. . ...|... .. . ...|... .. . ...
56|... .. . ...|... .. 3 ...|--- .. . ...|... .. . ...|... .. . ...
57|... .. . ...|... .. . ...|... .. . ...|... .. . ...|... .. . ...
58|A-3 00 . V02|A-1 00 8 ...|A-1 00 . ...|C#2 06 . ...|C-3 00 . ...
59|... .. . ...|... .. . ...|... .. . ...|... .. . ...|... .. . ...
5a|... .. . ...|... .. . ...|... .. . ...|... .. . ...|... .. . ...
5b|... .. . ...|... .. . ...|... .. . ...|... .. . ...|... .. . ...
5c|... .. . ...|... .. . ...|... .. . ...|... .. . ...|... .. . ...
5d|... .. . ...|... .. . ...|... .. . ...|... .. . ...|... .. . ...
5e|... .. . ...|... .. . ...|... .. . ...|... .. . ...|... .. . ...
5f|... .. . ...|... .. . ...|... .. . ...|... .. . ...|... .. . ...
60|... .. . ...|... .. . ...|... .. . ...|... .. . ...|... .. . ...
61|... .. . ...|... .. . ...|... .. . ...|... .. . ...|... .. . ...
62|... .. . ...|... .. . ...|... .. . ...|... .. . ...|... .. . ...
63|... .. . ...|... .. . ...|... .. . ...|... .. . ...|... .. . ...
64|... .. . ...|... .. . ...|... .. . ...|F#2 02 . ...|D-3 00 . ...
65|... .. . Q2c|... .. . ...|... .. . ...|... .. . ...|... .. . ...
66|... .. . ...|... .. . ...|... .. . ...|F#2 02 . ...|D-3 00 . ...
67|... .. . ...|... .. . ...|... .. . ...|... .. . ...|... .. . ...
68|... .. . ...|... .. . R8c|... .. . R8c|F#2 02 . ...|D-3 00 . ...
69|... .. . ...|... .. . ...|... .. . ...|... .. . ...|... .. . ...
6a|... .. . ...|... .. . ...|... .. . ...|... .. . ...|... .. . ...
6b|... .. . ...|... .. . ...|... .. . ...|... .. . ...|... .. . ...
6c|... .. . ...|... .. . ...|... .. . ...|E-2 03 . ...|C#3 00 . ...
6d|... .. . ...|... .. . ...|... .. . ...|... .. . ...|... .. . ...
6e|... .. . ...|... .. . ...|... .. . ...|... .. . ...|... .. . ...
6f|... .. . ...|... .. . ...|... .. . ...|... .. . ...|... .. . ...
70|... .. . ...|... .. . ...|... .. . ...|E-2 03 . ...|C#3 00 . ...
71|... .. . ...|... .. . ...|... .. . ...|... .. . ...|... .. . ...
72|... .. . ...|... .. . ...|... .. . ...|... .. . ...|... .. . ...
73|... .. . ...|... .. . ...|... .. . ...|... .. . ...|... .. . ...
74|... .. . 473|... .. . ...|... .. . ...|F#2 02 . ...|D-3 00 . ...
75|... .. . ...|... .. . ...|... .. . ...|... .. . ...|... .. . ...
76|... .. . ...|... .. . ...|... .. . ...|F#2 02 . ...|... .. . ...
77|... .. . ...|... .. . ...|... .. . ...|... .. . ...|... .. . ...
78|... .. . ...|... .. . ...|... .. . ...|F#2 02 . ...|D#3 00 . ...
79|... .. . ...|... .. . ...|... .. . ...|... .. . ...|... .. . ...
7a|... .. . ...|... .. . ...|... .. . ...|... .. . ...|... .. . ...
7b|... .. . ...|... .. . ...|... .. . ...|... .. . ...|... .. . ...
7c|... .. 1 ...|... .. 3 ...|--- .. . ...|F#2 02 . ...|D#3 00 . ...
7d|... .. . ...|... .. . ...|... .. . ...|... .. . ...|... .. . ...
7e|... .. . ...|... .. . ...|... .. . ...|... .. . ...|... .. . ...
7f|... .. . ...|... .. . ...|... .. . ...|... .. . ...|... .. . ...

[Frame8]
00|A-3 04 6 V01|A-4 00 2 V02|A-2 00 . ...|C#2 06 a ...|C-3 00 . ...
01|... .. . ...|E-4 00 . V01|... .. . ...|... .. . ...|... .. . ...
02|... .. . ...|C-4 00 . V02|--- .. . ...|... .. . ...|... .. . ...
03|... .. . ...|A-4 00 . V01|... .. . ...|... .. . ...|... .. . ...
04|E-3 04 . ...|E-4 00 3 V02|A-3 00 . ...|... .. . ...|C-3 00 . ...
05|... .. . ...|C-4 00 . V00|... .. . ...|... .. . ...|... .. . ...
06|... .. . ...|A-4 00 . V02|--- .. . ...|... .. . ...|C-3 00 . ...
07|... .. . ...|E-4 00 . V00|... .. . ...|... .. . ...|... .. . ...
08|C-3 04 . ...|C-4 00 4 V02|A-3 00 . ...|E-2 03 . ...|C#3 00 . ...
09|... .. . ...|A-4 00 . V01|... .. . ...|... .. . ...|... .. . ...
0a|... .. . ...|E-4 00 . V02|--- .. . ...|... .. . ...|... .. . ...
0b|... .. . ...|C-4 00 . V01|... .. . ...|... .. . ...|... .. . ...
0c|A-3 04 . ...|A-4 00 5 V02|A-2 00 . ...|E-2 02 . ...|C-3 00 . ...
0d|... .. . ...|E-4 00 . V00|... .. . ...|... .. . ...|... .. . ...
0e|... .. . ...|C-4 00 . V02|--- .. . ...|... .. . ...|... .. . ...
0f|... .. . ...|A-4 00 . V00|... .. . ...|... .. . ...|... .. . ...
10|E-3 04 . ...|E-4 00 4 V02|A-3 00 . ...|E-2 02 . ...|C-3 00 . ...
11|... .. . ...|C-4 00 . V01|... .. . ...|... .. . ...|... .. . ...
12|... .. . ...|A-4 00 . V02|--- .. . ...|E-2 02 . ...|C-3 00 . ...
13|... .. . ...|E-4 00 . V01|... .. . ...|... .. . ...|... .. . ...
14|C-3 04 . ...|C-4 00 3 V02|A-3 00 . ...|E-2 03 . ...|C#3 00 . ...
15|... .. . ...|A-4 00 . V00|... .. . ...|... .. . ...|... .. . ...
16|... .. . ...|E-4 00 . V02|--- .. . ...|... .. . ...|... .. . ...
17|... .. . ...|C-4 00 . V00|... .. . ...|... .. . ...|... .. . ...
18|A#3 04 . ...|A#4 00 2 V02|A#2 00 . ...|C#2 06 . ...|C-3 00 . ...
19|... .. . ...|F-4 00 . V01|... .. . ...|... .. . ...|... .. . ...
1a|... .. . ...|D-4 00 . V02|... .. . ...|... .. . ...|... .. . ...
1b|... .. . ...|A#4 00 . V01|... .. . ...|... .. . ...|... .. . ...
1c|... .. . ...|F-4 00 3 V02|... .. . ...|... .. . ...|... .. . ...
1d|... .. . ...|D-4 00 . V00|... .. . ...|... .. . ...|... .. . ...
1e|... .. . ...|A#4 00 . V02|... .. . ...|... .. . ...|... .. . ...
1f|... .. . ...|F-4 00 . V00|... .. . ...|... .. . ...|... .. . ...
20|... .. . ...|D-4 00 4 V02|... .. . ...|... .. . ...|... .. . ...
21|... .. . ...|A#4 00 . V01|... .. . ...|... .. . ...|... .. . ...
22|... .. . ...|F-4 00 . V02|... .. . ...|... .. . ...|... .. . ...
23|... .. . ...|D-4 00 . V01|... .. . ...|... .. . ...|... .. . ...
24|... .. . ...|A#4 00 5 V02|A#3 00 . ...|E-2 02 . ...|C-3 00 . ...
25|... .. . ...|F-4 00 . V00|... .. . ...|... .. . ...|... .. . ...
26|... .. . ...|D-4 00 . V02|--- .. . ...|E-2 02 . ...|C-3 00 . ...
27|... .. . ...|A#4 00 . V00|... .. . ...|... .. . ...|... .. . ...
28|... .. . Q2c|F-4 00 6 V02|A#3 00 . ...|E-2 03 . ...|C#3 00 . ...
29|... .. . ...|D-4 00 . V01|... .. . ...|... .. . ...|... .. . ...
2a|... .. . ...|A#4 00 . V02|--- .. . ...|... .. . ...|... .. . ...
2b|... .. . ...|F-4 00 . V01|... .. . ...|... .. . ...|... .. . ...
2c|... .. . ...|D-4 00 5 V02|C-3 00 . ...|E-2 02 . ...|C-3 00 . ...
2d|... .. . ...|A#4 00 . V00|... .. . ...|... .. . ...|... .. . ...
2e|... .. . ...|F-4 00 . V02|--- .. . ...|... .. . ...|... .. . ...
2f|... .. . ...|D-4 00 . V00|... .. . ...|... .. . ...|... .. . ...
30|... .. . ...|A#4 00 4 V02|A#2 00 . ...|E-2 03 . ...|C#3 00 . ...
31|... .. . ...|F-4 00 . V01|... .. . ...|... .. . ...|... .. . ...
32|... .. . ...|D-4 00 . V02|--- .. . ...|... .. . ...|... .. . ...
33|... .. . ...|A#4 00 . V01|... .. . ...|... .. . ...|... .. . ...
34|... .. . 473|F-4 00 3 V02|A#3 00 . ...|E-2 02 . ...|C-3 00 . ...
35|... .. . ...|D-4 00 . V00|... .. . ...|... .. . ...|... .. . ...
36|... .. . ...|A#4 00 . V02|--- .. . ...|... .. . ...|... .. . ...
37|... .. . ...|F-4 00 . V00|... .. . ...|... .. . ...|... .. . ...
38|... .. . ...|D-4 00 2 V02|A#3 00 . ...|E-2 03 . ...|C#3 00 . ...
39|... .. . ...|A#4 00 . V01|... .. . ...|... .. . ...|... .. . ...
3a|... .. . ...|F-4 00 . V02|--- .. . ...|... .. . ...|... .. . ...
3b|... .. . ...|D-4 00 . V01|... .. . ...|... .. . ...|... .. . ...
3c|... .. . ...|A#4 00 1 V02|A#2 00 . ...|E-2 03 . ...|C#3 00 . ...
3d|... .. . ...|F-4 00 . V00|... .. . ...|... .. . ...|... .. . ...
3e|... .. . ...|D-4 00 . V02|--- .. . ...|... .. . ...|... .. . ...
3f|... .. . ...|A#4 00 . V00|... .. . ...|... .. . ...|... .. . ...
40|A#3 04 . 400|A#4 00 2 V02|A#2 00 . ...|C#2 06 . ...|C-3 00 . ...
41|... .. . ...|F-4 00 . V01|... .. . ...|... .. . ...|... .. . ...
42|... .. . ...|D-4 00 . V02|--- .. . ...|... .. . ...|... .. . ...
43|... .. . ...|A#4 00 . V01|... .. . ...|... .. . ...|... .. . ...
44|F-3 04 . ...|F-4 00 3 V02|A#3 00 . ...|E-2 02 . ...|C-3 00 . ...
45|... .. . ...|D-4 00 . V00|... .. . ...|... .. . ...|... .. . ...
46|... .. . ...|A#4 00 . V02|--- .. . ...|E-2 02 . ...|C-3 00 . ...
47|... .. . ...|F-4 00 . V00|... .. . ...|... .. . ...|... .. . ...
48|D-3 04 . ...|D-4 00 4 V02|A#3 00 . ...|E-2 03 . ...|C#3 00 . ...
49|... .. . ...|A#4 00 . V01|... .. . ...|... .. . ...|... .. . ...
4a|... .. . ...|F-4 00 . V02|--- .. . ...|... .. . ...|... .. . ...
4b|... .. . ...|D-4 00 . V01|... .. . ...|... .. . ...|... .. . ...
4c|A#3 04 . ...|A#4 00 5 V02|A#2 00 . ...|E-2 02 . ...|C-3 00 . ...
4d|... .. . ...|F-4 00 . V00|... .. . ...|... .. . ...|... .. . ...
4e|... .. . ...|D-4 00 . V02|--- .. . ...|... .. . ...|... .. . ...
4f|... .. . ...|A#4 00 . V00|... .. . ...|... .. . ...|... .. . ...
50|F-3 04 . ...|F-4 00 4 V02|A#3 00 . ...|E-2 02 . ...|C-3 00 . ...
51|... .. . ...|D-4 00 . V01|... .. . ...|... .. . ...|... .. . ...
52|... .. . ...|A#4 00 . V02|--- .. . ...|E-2 02 . ...|C-3 00 . ...
53|... .. . ...|F-4 00 . V01|... .. . ...|... .. . ...|... .. . ...
54|D-3 04 . ...|D-4 00 3 V02|A#3 00 . ...|E-2 03 . ...|C#3 00 . ...
55|... .. . ...|A#4 00 . V00|... .. . ...|... .. . ...|... .. . ...
56|... .. . ...|F-4 00 . V02|--- .. . ...|... .. . ...|... .. . ...
57|... .. . ...|D-4 00 . V00|... .. . ...|... .. . ...|... .. . ...
58|A-3 04 . ...|A-4 00 2 V02|A-2 00 . ...|C#2 06 . ...|C-3 00 . ...
59|... .. . ...|E-4 00 . V01|... .. . ...|... .. . ...|... .. . ...
5a|... .. . ...|C-4 00 . V02|... .. . ...|... .. . ...|... .. . ...
5b|... .. . ...|A-4 00 . V01|... .. . ...|... .. . ...|... .. . ...
5c|... .. . ...|E-4 00 3 V02|... .. . ...|... .. . ...|... .. . ...
5d|... .. . ...|C-4 00 . V00|... .. . ...|... .. . ...|... .. . ...
5e|... .. . ...|A-4 00 . V02|... .. . ...|... .. . ...|... .. . ...
5f|... .. . ...|E-4 00 . V00|... .. . ...|... .. . ...|... .. . ...
60|... .. . ...|C-4 00 4 V02|... .. . ...|... .. . ...|... .. . ...
61|... .. . ...|A-4 00 . V01|... .. . ...|... .. . ...|... .. . ...
62|... .. . ...|E-4 00 . V02|... .. . ...|... .. . ...|... .. . ...
63|... .. . ...|C-4 00 . V01|... .. . ...|... .. . ...|... .. . ...
64|... .. . ...|A-4 00 5 V02|A-3 00 . ...|E-2 02 . ...|C-3 00 . ...
65|... .. . ...|E-4 00 . V00|... .. . ...|... .. . ...|... .. . ...
66|... .. . ...|C-4 00 . V02|--- .. . ...|E-2 02 . ...|C-3 00 . ...
67|... .. . ...|A-4 00 . V00|... .. . ...|... .. . ...|... .. . ...
68|... .. . R6c|E-4 00 6 V02|A-3 00 . ...|E-2 03 . ...|C#3 00 . ...
69|... .. . ...|C-4 00 . V01|... .. . ...|... .. . ...|... .. . ...
6a|... .. . ...|A-4 00 . V02|--- .. . ...|... .. . ...|... .. . ...
6b|... .. . ...|E-4 00 . V01|... .. . ...|... .. . ...|... .. . ...
6c|... .. . ...|C-4 00 5 V02|E-3 00 . ...|E-2 02 . ...|C-3 00 . ...
6d|... .. . ...|A-4 00 . V00|... .. . ...|... .. . ...|... .. . ...
6e|... .. . ...|E-4 00 . V02|--- .. . ...|... .. . ...|... .. . ...
6f|... .. . ...|C-4 00 . V00|... .. . ...|... .. . ...|... .. . ...
70|... .. . ...|A-4 00 4 V02|A-2 00 . ...|E-2 03 . ...|C#3 00 . ...
71|... .. . ...|E-4 00 . V01|... .. . ...|... .. . ...|... .. . ...
72|... .. . ...|C-4 00 . V02|--- .. . ...|... .. . ...|... .. . ...
73|... .. . ...|A-4 00 . V01|... .. . ...|... .. . ...|... .. . ...
74|... .. . 476|E-4 00 3 V02|A-3 00 . ...|F#2 02 . ...|D-3 00 . ...
75|... .. . ...|C-4 00 . V00|... .. . ...|... .. . ...|... .. . ...
76|... .. . ...|A-4 00 . V02|--- .. . ...|F#2 02 . ...|D-3 00 . ...
77|... .. . ...|E-4 00 . V00|... .. . ...|... .. . ...|... .. . ...
78|... .. . ...|C-4 00 2 V02|A-3 00 . ...|F#2 02 . ...|D#3 00 . ...
79|... .. . ...|A-4 00 . V01|... .. . ...|... .. . ...|... .. . ...
7a|... .. . ...|E-4 00 . V02|--- .. . ...|... .. . ...|... .. . ...
7b|... .. . ...|C-4 00 . V01|... .. . ...|... .. . ...|... .. . ...
7c|... .. . ...|A-4 00 1 V02|A-2 00 . ...|F#2 02 . ...|D#3 00 . ...
7d|... .. . ...|E-4 00 . V00|... .. . ...|... .. . ...|... .. . ...
7e|... .. . ...|C-4 00 . V02|--- .. . ...|F#2 02 . ...|D#3 00 . ...
7f|... .. . ...|A-4 00 . V00|... .. . ...|... .. . ...|... .. . ...

[Frame9]
00|A-3 04 6 V01|A-4 00 2 V02|A-2 00 . ...|C#2 06 a ...|C-3 00 . ...
01|... .. . ...|E-4 00 . V01|... .. . ...|... .. . ...|... .. . ...
02|... .. . ...|C-4 00 . V02|--- .. . ...|... .. . ...|... .. . ...
03|... .. . ...|A-4 00 . V01|... .. . ...|... .. . ...|... .. . ...
04|E-3 04 . ...|E-4 00 3 V02|A-3 00 . ...|... .. . ...|C-3 00 . ...
05|... .. . ...|C-4 00 . V00|... .. . ...|... .. . ...|... .. . ...
06|... .. . ...|A-4 00 . V02|--- .. . ...|... .. . ...|C-3 00 . ...
07|... .. . ...|E-4 00 . V00|... .. . ...|... .. . ...|... .. . ...
08|C-3 04 . ...|C-4 00 4 V02|A-3 00 . ...|E-2 03 . ...|C#3 00 . ...
09|... .. . ...|A-4 00 . V01|... .. . ...|... .. . ...|... .. . ...
0a|... .. . ...|E-4 00 . V02|--- .. . ...|... .. . ...|... .. . ...
0b|... .. . ...|C-4 00 . V01|... .. . ...|... .. . ...|... .. . ...
0c|A-3 04 . ...|A-4 00 5 V02|A-2 00 . ...|E-2 02 . ...|C-3 00 . ...
0d|... .. . ...|E-4 00 . V00|... .. . ...|... .. . ...|... .. . ...
0e|... .. . ...|C-4 00 . V02|--- .. . ...|... .. . ...|... .. . ...
0f|... .. . ...|A-4 00 . V00|... .. . ...|... .. . ...|... .. . ...
10|E-3 04 . ...|E-4 00 4 V02|A-3 00 . ...|E-2 02 . ...|C-3 00 . ...
11|... .. . ...|C-4 00 . V01|... .. . ...|... .. . ...|... .. . ...
12|... .. . ...|A-4 00 . V02|--- .. . ...|E-2 02 . ...|C-3 00 . ...
13|... .. . ...|E-4 00 . V01|... .. . ...|... .. . ...|... .. . ...
14|C-3 04 . ...|C-4 00 3 V02|A-3 00 . ...|E-2 03 . ...|C#3 00 . ...
15|... .. . ...|A-4 00 . V00|... .. . ...|... .. . ...|... .. . ...
16|... .. . ...|E-4 00 . V02|--- .. . ...|... .. . ...|... .. . ...
17|... .. . ...|C-4 00 . V00|... .. . ...|... .. . ...|... .. . ...
18|A#3 04 . ...|A#4 00 2 V02|A#2 00 . ...|C#2 06 . ...|C-3 00 . ...
19|... .. . ...|F-4 00 . V01|... .. . ...|... .. . ...|... .. . ...
1a|... .. . ...|D-4 00 . V02|... .. . ...|... .. . ...|... .. . ...
1b|... .. . ...|A#4 00 . V01|... .. . ...|... .. . ...|... .. . ...
1c|... .. . ...|F-4 00 3 V02|... .. . ...|... .. . ...|... .. . ...
1d|... .. . ...|D-4 00 . V00|... .. . ...|... .. . ...|... .. . ...
1e|... .. . ...|A#4 00 . V02|... .. . ...|... .. . ...|... .. . ...
1f|... .. . ...|F-4 00 . V00|... .. . ...|... .. . ...|... .. . ...
20|... .. . ...|D-4 00 4 V02|... .. . ...|... .. . ...|... .. . ...
21|... .. . ...|A#4 00 . V01|... .. . ...|... .. . ...|... .. . ...
22|... .. . ...|F-4 00 . V02|... .. . ...|... .. . ...|... .. . ...
23|... .. . ...|D-4 00 . V01|... .. . ...|... .. . ...|... .. . ...
24|... .. . ...|A#4 00 5 V02|A#3 00 . ...|E-2 02 . ...|C-3 00 . ...
25|... .. . ...|F-4 00 . V00|... .. . ...|... .. . ...|... .. . ...
26|... .. . ...|D-4 00 . V02|--- .. . ...|E-2 02 . ...|C-3 00 . ...
27|... .. . ...|A#4 00 . V00|... .. . ...|... .. . ...|... .. . ...
28|... .. . Q2c|F-4 00 6 V02|A#3 00 . ...|E-2 03 . ...|C#3 00 . ...
29|... .. . ...|D-4 00 . V01|... .. . ...|... .. . ...|... .. . ...
2a|... .. . ...|A#4 00 . V02|--- .. . ...|... .. . ...|... .. . ...
2b|... .. . ...|F-4 00 . V01|... .. . ...|... .. . ...|... .. . ...
2c|... .. . ...|D-4 00 5 V02|C-3 00 . ...|E-2 02 . ...|C-3 00 . ...
2d|... .. . ...|A#4 00 . V00|... .. . ...|... .. . ...|... .. . ...
2e|... .. . ...|F-4 00 . V02|--- .. . ...|... .. . ...|... .. . ...
2f|... .. . ...|D-4 00 . V00|... .. . ...|... .. . ...|... .. . ...
30|... .. . ...|A#4 00 4 V02|A#2 00 . ...|E-2 03 . ...|C#3 00 . ...
31|... .. . ...|F-4 00 . V01|... .. . ...|... .. . ...|... .. . ...
32|... .. . ...|D-4 00 . V02|--- .. . ...|... .. . ...|... .. . ...
33|... .. . ...|A#4 00 . V01|... .. . ...|... .. . ...|... .. . ...
34|... .. . 473|F-4 00 3 V02|A#3 00 . ...|E-2 02 . ...|C-3 00 . ...
35|... .. . ...|D-4 00 . V00|... .. . ...|... .. . ...|... .. . ...
36|... .. . ...|A#4 00 . V02|--- .. . ...|... .. . ...|... .. . ...
37|... .. . ...|F-4 00 . V00|... .. . ...|... .. . ...|... .. . ...
38|... .. . ...|D-4 00 2 V02|A#3 00 . ...|E-2 03 . ...|C#3 00 . ...
39|... .. . ...|A#4 00 . V01|... .. . ...|... .. . ...|... .. . ...
3a|... .. . ...|F-4 00 . V02|--- .. . ...|... .. . ...|... .. . ...
3b|... .. . ...|D-4 00 . V01|... .. . ...|... .. . ...|... .. . ...
3c|... .. . ...|A#4 00 1 V02|A#2 00 . ...|E-2 03 . ...|C#3 00 . ...
3d|... .. . ...|F-4 00 . V00|... .. . ...|... .. . ...|... .. . ...
3e|... .. . ...|D-4 00 . V02|--- .. . ...|... .. . ...|... .. . ...
3f|... .. . ...|A#4 00 . V00|... .. . ...|... .. . ...|... .. . ...
40|A#3 04 . 400|A#4 00 2 V02|A#2 00 . ...|C#2 06 . ...|C-3 00 . ...
41|... .. . ...|F-4 00 . V01|... .. . ...|... .. . ...|... .. . ...
42|... .. . ...|D-4 00 . V02|--- .. . ...|... .. . ...|... .. . ...
43|... .. . ...|A#4 00 . V01|... .. . ...|... .. . ...|... .. . ...
44|F-3 04 . ...|F-4 00 3 V02|A#3 00 . ...|E-2 02 . ...|C-3 00 . ...
45|... .. . ...|D-4 00 . V00|... .. . ...|... .. . ...|... .. . ...
46|... .. . ...|A#4 00 . V02|--- .. . ...|E-2 02 . ...|C-3 00 . ...
47|... .. . ...|F-4 00 . V00|... .. . ...|... .. . ...|... .. . ...
48|D-3 04 . ...|D-4 00 4 V02|A#3 00 . ...|E-2 03 . ...|C#3 00 . ...
49|... .. . ...|A#4 00 . V01|... .. . ...|... .. . ...|... .. . ...
4a|... .. . ...|F-4 00 . V02|--- .. . ...|... .. . ...|... .. . ...
4b|... .. . ...|D-4 00 . V01|... .. . ...|... .. . ...|... .. . ...
4c|A#3 04 . ...|A#4 00 5 V02|A#2 00 . ...|E-2 02 . ...|C-3 00 . ...
4d|... .. . ...|F-4 00 . V00|... .. . ...|... .. . ...|... .. . ...
4e|... .. . ...|D-4 00 . V02|--- .. . ...|... .. . ...|... .. . ...
4f|... .. . ...|A#4 00 . V00|... .. . ...|... .. . ...|... .. . ...
50|F-3 04 . ...|F-4 00 4 V02|A#3 00 . ...|E-2 02 . ...|C-3 00 . ...
51|... .. . ...|D-4 00 . V01|... .. . ...|... .. . ...|... .. . ...
52|... .. . ...|A#4 00 . V02|--- .. . ...|E-2 02 . ...|C-3 00 . ...
53|... .. . ...|F-4 00 . V01|... .. . ...|... .. . ...|... .. . ...
54|D-3 04 . ...|D-4 00 3 V02|A#3 00 . ...|E-2 03 . ...|C#3 00 . ...
55|... .. . ...|A#4 00 . V00|... .. . ...|... .. . ...|... .. . ...
56|... .. . ...|F-4 00 . V02|--- .. . ...|... .. . ...|... .. . ...
57|... .. . ...|D-4 00 . V00|... .. . ...|... .. . ...|... .. . ...
58|A-3 04 . ...|A-4 00 2 V02|A-2 00 . ...|C#2 06 . ...|C-3 00 . ...
59|... .. . ...|E-4 00 . V01|... .. . ...|... .. . ...|... .. . ...
5a|... .. . ...|C-4 00 . V02|... .. . ...|... .. . ...|... .. . ...
5b|... .. . ...|A-4 00 . V01|... .. . ...|... .. . ...|... .. . ...
5c|... .. . ...|E-4 00 3 V02|... .. . ...|... .. . ...|... .. . ...
5d|... .. . ...|C-4 00 . V00|... .. . ...|... .. . ...|... .. . ...
5e|... .. . ...|A-4 00 . V02|... .. . ...|... .. . ...|... .. . ...
5f|... .. . ...|E-4 00 . V00|... .. . ...|... .. . ...|... .. . ...
60|... .. . ...|C-4 00 4 V02|... .. . ...|... .. . ...|... .. . ...
61|... .. . ...|A-4 00 . V01|... .. . ...|... .. . ...|... .. . ...
62|... .. . ...|E-4 00 . V02|... .. . ...|... .. . ...|... .. . ...
63|... .. . ...|C-4 00 . V01|... .. . ...|... .. . ...|... .. . ...
64|... .. . ...|A-4 00 5 V02|A-3 00 . ...|E-2 02 . ...|C-3 00 . ...
65|... .. . ...|E-4 00 . V00|... .. . ...|... .. . ...|... .. . ...
66|... .. . ...|C-4 00 . V02|--- .. . ...|E-2 02 . ...|C-3 00 . ...
67|... .. . ...|A-4 00 . V00|... .. . ...|... .. . ...|... .. . ...
68|... .. . R6c|E-4 00 6 V02|A-3 00 . ...|E-2 03 . ...|C#3 00 . ...
69|... .. . ...|C-4 00 . V01|... .. . ...|... .. . ...|... .. . ...
6a|... .. . ...|A-4 00 . V02|--- .. . ...|... .. . ...|... .. . ...
6b|... .. . ...|E-4 00 . V01|... .. . ...|... .. . ...|... .. . ...
6c|... .. . ...|C-4 00 5 V02|E-3 00 . ...|E-2 02 . ...|C-3 00 . ...
6d|... .. . ...|A-4 00 . V00|... .. . ...|... .. . ...|... .. . ...
6e|... .. . ...|E-4 00 . V02|--- .. . ...|... .. . ...|... .. . ...
6f|... .. . ...|C-4 00 . V00|... .. . ...|... .. . ...|... .. . ...
70|... .. . ...|A-4 00 4 V02|A-2 00 . ...|E-2 03 . ...|C#3 00 . ...
71|... .. . ...|E-4 00 . V01|... .. . ...|... .. . ...|... .. . ...
72|... .. . ...|C-4 00 . V02|--- .. . ...|... .. . ...|... .. . ...
73|... .. . ...|A-4 00 . V01|... .. . ...|... .. . ...|... .. . ...
74|... .. . 476|E-4 00 3 V02|A-3 00 . ...|F#2 02 . ...|D-3 00 . ...
75|... .. . ...|C-4 00 . V00|... .. . ...|... .. . ...|... .. . ...
76|... .. . ...|A-4 00 . V02|--- .. . ...|F#2 02 . ...|D-3 00 . ...
77|... .. . ...|E-4 00 . V00|... .. . ...|... .. . ...|... .. . ...
78|... .. . ...|C-4 00 2 V02|A-3 00 . ...|F#2 02 . ...|D#3 00 . ...
79|... .. . ...|A-4 00 . V01|... .. . ...|... .. . ...|... .. . ...
7a|... .. . ...|E-4 00 . V02|--- .. . ...|... .. . ...|... .. . ...
7b|... .. . ...|C-4 00 . V01|... .. . ...|... .. . ...|... .. . ...
7c|... .. . ...|A-4 00 1 V02|A-2 00 . ...|F#2 02 . ...|D#3 00 . ...
7d|... .. . ...|E-4 00 . V00|... .. . ...|... .. . ...|... .. . ...
7e|... .. . ...|C-4 00 . V02|--- .. . ...|F#2 02 . ...|D#3 00 . ...
7f|... .. . ...|A-4 00 . V00|... .. . ...|... .. . ...|... .. . ...

[Frame10]
00|E-4 00 5 V02|A-1 00 8 V01|A-1 00 . ...|C#2 06 c ...|C-3 00 . ...
01|... .. . ...|... .. . ...|... .. . ...|... .. . ...|... .. . ...
02|... .. . ...|... .. . ...|... .. . ...|... .. . ...|... .. . ...
03|... .. . ...|... .. . ...|... .. . ...|... .. . ...|... .. . ...
04|... .. . ...|... .. . ...|... .. . ...|... .. . ...|... .. . ...
05|... .. . ...|... .. . ...|... .. . ...|... .. . ...|... .. . ...
06|... .. . ...|... .. 3 ...|--- .. . ...|... .. . ...|... .. . ...
07|... .. . ...|... .. . ...|... .. . ...|... .. . ...|... .. . ...
08|E-3 00 . V01|A-1 00 8 ...|A-1 00 . ...|... .. . ...|... .. . ...
09|... .. . ...|... .. . ...|... .. . ...|... .. . ...|... .. . ...
0a|... .. . ...|... .. 3 ...|--- .. . ...|... .. . ...|... .. . ...
0b|... .. . ...|... .. . ...|... .. . ...|... .. . ...|... .. . ...
0c|D#4 00 . V02|A-1 00 8 ...|A-1 00 . ...|... .. . ...|... .. . ...
0d|... .. . ...|... .. . ...|... .. . ...|... .. . ...|... .. . ...
0e|... .. . ...|... .. 3 ...|--- .. . ...|... .. . ...|... .. . ...
0f|... .. . ...|... .. . ...|... .. . ...|... .. . ...|... .. . ...
10|... .. . ...|C-2 00 8 ...|C-2 00 . ...|C#2 01 a ...|C#3 00 . ...
11|... .. . ...|... .. . ...|... .. . ...|... .. . ...|... .. . ...
12|... .. . ...|... .. . ...|... .. . ...|... .. . ...|... .. . ...
13|... .. . ...|... .. . ...|... .. . ...|... .. . ...|... .. . ...
14|E-3 00 . V01|... .. . ...|... .. . ...|... .. . ...|... .. . ...
15|... .. . ...|... .. . ...|... .. . ...|... .. . ...|... .. . ...
16|... .. . ...|... .. . ...|... .. . ...|... .. . ...|... .. . ...
17|... .. . ...|... .. . ...|... .. . ...|... .. . ...|... .. . ...
18|E-4 00 . V02|A-1 00 . ...|A-1 00 . ...|E-2 02 . ...|C-3 00 . ...
19|... .. . ...|... .. . ...|... .. . ...|... .. . ...|... .. . ...
1a|... .. . ...|... .. 3 ...|--- .. . ...|... .. . ...|... .. . ...
1b|... .. . ...|... .. . ...|... .. . ...|... .. . ...|... .. . ...
1c|... .. . ...|A-1 00 8 ...|A-1 00 . ...|... .. . ...|... .. . ...
1d|... .. . ...|... .. . ...|... .. . ...|... .. . ...|... .. . ...
1e|... .. . ...|... .. 3 ...|--- .. . ...|... .. . ...|... .. . ...
1f|... .. . ...|... .. . ...|... .. . ...|... .. . ...|... .. . ...
20|E-3 00 . V01|D#2 00 8 ...|D#2 00 . ...|C#2 01 . ...|C-3 00 . ...
21|... .. . ...|... .. . ...|... .. . ...|... .. . ...|... .. . ...
22|... .. . ...|... .. . ...|... .. . ...|... .. . ...|... .. . ...
23|... .. . ...|... .. . ...|... .. . ...|... .. . ...|... .. . ...
24|G-4 00 . V02|D-2 00 . ...|D-2 00 . ...|E-2 03 . ...|C#3 00 . ...
25|... .. . ...|... .. . ...|... .. . ...|... .. . ...|... .. . ...
26|... .. . ...|... .. . ...|... .. . ...|... .. . ...|... .. . ...
27|... .. . ...|... .. . ...|... .. . ...|... .. . ...|... .. . ...
28|... .. . ...|... .. 3 ...|--- .. . ...|... .. . ...|... .. . ...
29|... .. . ...|... .. . ...|... .. . ...|... .. . ...|... .. . ...
2a|... .. . ...|... .. . ...|... .. . ...|... .. . ...|... .. . ...
2b|... .. . ...|... .. . ...|... .. . ...|... .. . ...|... .. . ...
2c|E-3 00 . V01|C-2 00 8 ...|C-2 00 . ...|E-2 02 . ...|C-3 00 . ...
2d|... .. . ...|... .. . ...|... .. . ...|... .. . ...|... .. . ...
2e|... .. . ...|... .. . ...|... .. . ...|... .. . ...|... .. . ...
2f|... .. . ...|... .. . ...|... .. . ...|... .. . ...|... .. . ...
30|A-4 00 . V02|... .. 3 ...|--- .. . ...|C#2 01 . ...|C#3 00 . ...
31|... .. . ...|... .. . ...|... .. . ...|... .. . ...|... .. . ...
32|... .. . ...|... .. . ...|... .. . ...|... .. . ...|... .. . ...
33|... .. . ...|... .. . ...|... .. . ...|... .. . ...|... .. . ...
34|E-3 00 . V01|B-1 00 8 ...|B-1 00 . ...|... .. . ...|... .. . ...
35|... .. . ...|... .. . ...|... .. . ...|... .. . ...|... .. . ...
36|... .. . ...|... .. . ...|... .. . ...|... .. . ...|... .. . ...
37|... .. . ...|... .. . ...|... .. . ...|... .. . ...|... .. . ...
38|B-4 00 . V02|... .. 3 ...|--- .. . ...|E-2 02 . ...|C-3 00 . ...
39|... .. . ...|... .. . ...|... .. . ...|... .. . ...|... .. . ...
3a|... .. . ...|... .. . ...|... .. . ...|... .. . ...|... .. . ...
3b|... .. . ...|... .. . ...|... .. . ...|... .. . ...|... .. . ...
3c|E-3 00 . V01|A-1 00 8 ...|A-1 00 . ...|E-2 02 . ...|C-3 00 . ...
3d|... .. . ...|... .. . ...|... .. . ...|... .. . ...|... .. . ...
3e|... .. . ...|... .. . ...|... .. . ...|... .. . ...|... .. . ...
3f|... .. . ...|... .. . ...|... .. . ...|... .. . ...|... .. . ...
40|C-5 00 . V02|... .. . ...|... .. . ...|C#2 01 . ...|C-3 00 . ...
41|... .. . ...|... .. . ...|... .. . ...|... .. . ...|... .. . ...
42|... .. . ...|... .. 3 ...|--- .. . ...|... .. . ...|... .. . ...
43|... .. . ...|... .. . ...|... .. . ...|... .. . ...|... .. . ...
44|... .. . ...|A-1 00 8 ...|A-1 00 . ...|... .. . ...|... .. . ...
45|... .. . ...|... .. . ...|... .. . ...|... .. . ...|... .. . ...
46|... .. . ...|... .. 3 ...|--- .. . ...|... .. . ...|... .. . ...
47|... .. . ...|... .. . ...|... .. . ...|... .. . ...|... .. . ...
48|E-3 00 . V01|A-1 00 8 ...|A-1 00 . ...|E-2 02 . ...|C-3 00 . ...
49|... .. . ...|... .. . ...|... .. . ...|... .. . ...|... .. . ...
4a|... .. . ...|... .. 3 ...|--- .. . ...|... .. . ...|... .. . ...
4b|... .. . ...|... .. . ...|... .. . ...|... .. . ...|... .. . ...
4c|B-4 00 . V02|E-1 00 8 ...|E-1 00 . ...|... .. . ...|... .. . ...
4d|... .. . ...|... .. . ...|... .. . ...|... .. . ...|... .. . ...
4e|... .. . ...|... .. 3 ...|--- .. . ...|... .. . ...|... .. . ...
4f|... .. . ...|... .. . ...|... .. . ...|... .. . ...|... .. . ...
50|... .. . ...|G-1 00 8 ...|G-1 00 . ...|C#2 01 . ...|C#3 00 . ...
51|... .. . ...|... .. . ...|... .. . ...|... .. . ...|... .. . ...
52|... .. . ...|... .. . ...|... .. . ...|... .. . ...|... .. . ...
53|... .. . ...|... .. . ...|... .. . ...|... .. . ...|... .. . ...
54|E-3 00 . V01|A-1 00 . ...|A-1 00 . ...|... .. . ...|... .. . ...
55|... .. . ...|... .. . ...|... .. . ...|... .. . ...|... .. . ...
56|... .. . ...|... .. . ...|... .. . ...|... .. . ...|... .. . ...
57|... .. . ...|... .. . ...|... .. . ...|... .. . ...|... .. . ...
58|G-4 00 . V02|D-2 00 . ...|D-2 00 . ...|E-2 02 . ...|C-3 00 . ...
59|... .. . ...|... .. . ...|... .. . ...|... .. . ...|... .. . ...
5a|... .. . ...|... .. . ...|... .. . ...|... .. . ...|... .. . ...
5b|... .. . ...|... .. . ...|... .. . ...|... .. . ...|... .. . ...
5c|... .. . ...|D#2 00 . ...|D#2 00 . ...|E-2 02 . ...|C-3 00 . ...
5d|... .. . ...|... .. . ...|... .. . ...|... .. . ...|... .. . ...
5e|... .. . ...|... .. . ...|... .. . ...|... .. . ...|... .. . ...
5f|... .. . ...|... .. . ...|... .. . ...|... .. . ...|... .. . ...
60|E-3 00 . V01|... .. 3 ...|--- .. . ...|C#2 01 . ...|... .. . ...
61|... .. . ...|... .. . ...|... .. . ...|... .. . ...|... .. . ...
62|... .. . ...|... .. . ...|... .. . ...|... .. . ...|... .. . ...
63|... .. . ...|... .. . ...|... .. . ...|... .. . ...|... .. . ...
64|E-4 00 . V02|D#2 00 8 ...|D#2 00 . ...|E-2 02 . ...|C-3 00 . ...
65|... .. . ...|... .. . ...|... .. . ...|... .. . ...|... .. . ...
66|... .. . ...|... .. . ...|... .. . ...|... .. . ...|... .. . ...
67|... .. . ...|... .. . ...|... .. . ...|... .. . ...|... .. . ...
68|... .. . ...|... .. . ...|... .. . ...|... .. . ...|... .. . ...
69|... .. . ...|... .. . ...|... .. . ...|... .. . ...|... .. . ...
6a|... .. . ...|... .. . ...|... .. . ...|... .. . ...|... .. . ...
6b|... .. . ...|... .. . ...|... .. . ...|... .. . ...|... .. . ...
6c|E-3 00 . V01|D-2 00 . ...|D-2 00 . ...|E-2 02 . ...|C-3 00 . ...
6d|... .. . ...|... .. . ...|... .. . ...|... .. . ...|... .. . ...
6e|... .. . ...|... .. . ...|... .. . ...|... .. . ...|... .. . ...
6f|... .. . ...|... .. . ...|... .. . ...|... .. . ...|... .. . ...
70|D#4 00 . V02|A#1 00 . 33a|A#1 00 . ...|C#2 01 . ...|C#3 00 . ...
71|... .. . ...|... .. . ...|... .. . ...|... .. . ...|... .. . ...
72|... .. . ...|C-2 00 . ...|... .. . ...|... .. . ...|... .. . ...
73|... .. . ...|... .. . ...|... .. . ...|... .. . ...|... .. . ...
74|E-3 00 . V01|A#1 00 . ...|... .. . ...|F#2 02 . ...|... .. . ...
75|... .. . ...|... .. . ...|... .. . ...|... .. . ...|... .. . ...
76|... .. . ...|C-2 00 7 ...|... .. . ...|... .. . ...|... .. . ...
77|... .. . ...|... .. . ...|... .. . ...|... .. . ...|... .. . ...
78|D-4 00 . V02|A#1 00 6 ...|... .. . ...|E-2 03 . ...|C#3 00 . ...
79|... .. . ...|... .. 5 ...|... .. . ...|... .. . ...|... .. . ...
7a|... .. . ...|C-2 00 . ...|... .. . ...|... .. . ...|... .. . ...
7b|... .. . ...|... .. 4 ...|... .. . ...|... .. . ...|... .. . ...
7c|E-3 00 . V01|A#1 00 3 ...|... .. . ...|E-2 03 . ...|C#3 00 . ...
7d|... .. . ...|... .. . ...|... .. . ...|... .. . ...|... .. . ...
7e|... .. . ...|C-2 00 2 ...|--- .. . ...|... .. . ...|... .. . ...
7f|... .. . ...|... .. . ...|... .. . ...|... .. . ...|... .. . ...

[Frame11]
00|E-4 00 5 V02|A-1 00 8 V01|A-1 00 . ...|C#2 06 c ...|C-3 00 . ...
01|... .. . ...|... .. . ...|... .. . ...|... .. . ...|... .. . ...
02|... .. . ...|... .. . ...|... .. . ...|... .. . ...|... .. . ...
03|... .. . ...|... .. . ...|... .. . ...|... .. . ...|... .. . ...
04|... .. . ...|... .. . ...|... .. . ...|... .. . ...|... .. . ...
05|... .. . ...|... .. . ...|... .. . ...|... .. . ...|... .. . ...
06|... .. . ...|... .. 3 ...|--- .. . ...|... .. . ...|... .. . ...
07|... .. . ...|... .. . ...|... .. . ...|... .. . ...|... .. . ...
08|E-3 00 . V01|A-1 00 8 ...|A-1 00 . ...|... .. . ...|... .. . ...
09|... .. . ...|... .. . ...|... .. . ...|... .. . ...|... .. . ...
0a|... .. . ...|... .. 3 ...|--- .. . ...|... .. . ...|... .. . ...
0b|... .. . ...|... .. . ...|... .. . ...|... .. . ...|... .. . ...
0c|D#4 00 . V02|A-1 00 8 ...|A-1 00 . ...|... .. . ...|... .. . ...
0d|... .. . ...|... .. . ...|... .. . ...|... .. . ...|... .. . ...
0e|... .. . ...|... .. 3 ...|--- .. . ...|... .. . ...|... .. . ...
0f|... .. . ...|... .. . ...|... .. . ...|... .. . ...|... .. . ...
10|... .. . ...|C-2 00 8 ...|C-2 00 . ...|C#2 01 a ...|C#3 00 . ...
11|... .. . ...|... .. . ...|... .. . ...|... .. . ...|... .. . ...
12|... .. . ...|... .. . ...|... .. . ...|... .. . ...|... .. . ...
13|... .. . ...|... .. . ...|... .. . ...|... .. . ...|... .. . ...
14|E-3 00 . V01|... .. . ...|... .. . ...|... .. . ...|... .. . ...
15|... .. . ...|... .. . ...|... .. . ...|... .. . ...|... .. . ...
16|... .. . ...|... .. . ...|... .. . ...|... .. . ...|... .. . ...
17|... .. . ...|... .. . ...|... .. . ...|... .. . ...|... .. . ...
18|E-4 00 . V02|A-1 00 . ...|A-1 00 . ...|E-2 02 . ...|C-3 00 . ...
19|... .. . ...|... .. . ...|... .. . ...|... .. . ...|... .. . ...
1a|... .. . ...|... .. 3 ...|--- .. . ...|... .. . ...|... .. . ...
1b|... .. . ...|... .. . ...|... .. . ...|... .. . ...|... .. . ...
1c|... .. . ...|A-1 00 8 ...|A-1 00 . ...|... .. . ...|... .. . ...
1d|... .. . ...|... .. . ...|... .. . ...|... .. . ...|... .. . ...
1e|... .. . ...|... .. 3 ...|--- .. . ...|... .. . ...|... .. . ...
1f|... .. . ...|... .. . ...|... .. . ...|... .. . ...|... .. . ...
20|E-3 00 . V01|D#2 00 8 ...|D#2 00 . ...|C#2 01 . ...|C-3 00 . ...
21|... .. . ...|... .. . ...|... .. . ...|... .. . ...|... .. . ...
22|... .. . ...|... .. . ...|... .. . ...|... .. . ...|... .. . ...
23|... .. . ...|... .. . ...|... .. . ...|... .. . ...|... .. . ...
24|D-5 00 . V02|D-2 00 . ...|D-2 00 . ...|E-2 03 . ...|C#3 00 . ...
25|... .. . ...|... .. . ...|... .. . ...|... .. . ...|... .. . ...
26|... .. . ...|... .. . ...|... .. . ...|... .. . ...|... .. . ...
27|... .. . ...|... .. . ...|... .. . ...|... .. . ...|... .. . ...
28|... .. . ...|... .. 3 ...|--- .. . ...|... .. . ...|... .. . ...
29|... .. . ...|... .. . ...|... .. . ...|... .. . ...|... .. . ...
2a|... .. . ...|... .. . ...|... .. . ...|... .. . ...|... .. . ...
2b|... .. . ...|... .. . ...|... .. . ...|... .. . ...|... .. . ...
2c|E-3 00 . V01|C-2 00 8 ...|C-2 00 . ...|E-2 02 . ...|C-3 00 . ...
2d|... .. . ...|... .. . ...|... .. . ...|... .. . ...|... .. . ...
2e|... .. . ...|... .. . ...|... .. . ...|... .. . ...|... .. . ...
2f|... .. . ...|... .. . ...|... .. . ...|... .. . ...|... .. . ...
30|C-5 00 . V02|... .. 3 ...|--- .. . ...|C#2 01 . ...|C#3 00 . ...
31|... .. . ...|... .. . ...|... .. . ...|... .. . ...|... .. . ...
32|... .. . ...|... .. . ...|... .. . ...|... .. . ...|... .. . ...
33|... .. . ...|... .. . ...|... .. . ...|... .. . ...|... .. . ...
34|E-3 00 . V01|B-1 00 8 ...|B-1 00 . ...|... .. . ...|... .. . ...
35|... .. . ...|... .. . ...|... .. . ...|... .. . ...|... .. . ...
36|... .. . ...|... .. . ...|... .. . ...|... .. . ...|... .. . ...
37|... .. . ...|... .. . ...|... .. . ...|... .. . ...|... .. . ...
38|B-4 00 . V02|... .. 3 ...|--- .. . ...|E-2 02 . ...|C-3 00 . ...
39|... .. . ...|... .. . ...|... .. . ...|... .. . ...|... .. . ...
3a|... .. . ...|... .. . ...|... .. . ...|... .. . ...|... .. . ...
3b|... .. . ...|... .. . ...|... .. . ...|... .. . ...|... .. . ...
3c|E-3 00 . V01|A-1 00 8 ...|A-1 00 . ...|E-2 02 . ...|C-3 00 . ...
3d|... .. . ...|... .. . ...|... .. . ...|... .. . ...|... .. . ...
3e|... .. . ...|... .. 3 ...|--- .. . ...|... .. . ...|... .. . ...
3f|... .. . ...|... .. . ...|... .. . ...|... .. . ...|... .. . ...
40|C-5 00 . V02|A-1 00 8 ...|A-1 00 . ...|C#2 01 . ...|C-3 00 . ...
41|... .. . ...|... .. . ...|... .. . ...|... .. . ...|... .. . ...
42|... .. . ...|... .. . ...|... .. . ...|... .. . ...|... .. . ...
43|... .. . ...|... .. . ...|... .. . ...|... .. . ...|... .. . ...
44|... .. . ...|... .. . ...|... .. . ...|... .. . ...|... .. . ...
45|... .. . ...|... .. . ...|... .. . ...|... .. . ...|... .. . ...
46|... .. . ...|... .. . ...|... .. . ...|... .. . ...|... .. . ...
47|... .. . ...|... .. . ...|... .. . ...|... .. . ...|... .. . ...
48|E-3 00 . V01|... .. 3 ...|--- 00 . ...|E-2 03 . ...|C#3 00 . ...
49|... .. . ...|... .. . ...|... .. . ...|... .. . ...|... .. . ...
4a|... .. . ...|... .. . ...|... .. . ...|... .. . ...|... .. . ...
4b|... .. . ...|... .. . ...|... .. . ...|... .. . ...|... .. . ...
4c|B-4 00 . V02|A-1 00 8 ...|A-1 00 . ...|E-2 02 . ...|C-3 00 . ...
4d|... .. . ...|... .. . ...|... .. . ...|... .. . ...|... .. . ...
4e|... .. . ...|... .. . ...|... .. . ...|... .. . ...|... .. . ...
4f|... .. . ...|... .. . ...|... .. . ...|... .. . ...|... .. . ...
50|... .. . ...|... .. 3 ...|--- .. . ...|F#2 02 . ...|... .. . ...
51|... .. . ...|... .. . ...|... .. . ...|... .. . ...|... .. . ...
52|... .. . ...|... .. . ...|... .. . ...|... .. . ...|... .. . ...
53|... .. . ...|... .. . ...|... .. . ...|... .. . ...|... .. . ...
54|E-3 00 . V01|A-1 00 8 ...|A-1 00 . ...|E-2 02 . ...|C-3 00 . ...
55|... .. . ...|... .. . ...|... .. . ...|... .. . ...|... .. . ...
56|... .. . ...|... .. . ...|... .. . ...|... .. . ...|... .. . ...
57|... .. . ...|... .. . ...|... .. . ...|... .. . ...|... .. . ...
58|A-4 00 . V02|G-1 00 . ...|G-1 00 . ...|E-2 03 . ...|C#3 00 . ...
59|... .. . ...|... .. . ...|... .. . ...|... .. . ...|... .. . ...
5a|... .. . ...|... .. . ...|... .. . ...|... .. . ...|... .. . ...
5b|... .. . ...|... .. . ...|... .. . ...|... .. . ...|... .. . ...
5c|... .. . ...|E-1 00 . ...|E-1 00 . ...|E-2 03 . ...|C#3 00 . ...
5d|... .. . ...|... .. . ...|... .. . ...|... .. . ...|... .. . ...
5e|... .. . ...|... .. . ...|... .. . ...|... .. . ...|... .. . ...
5f|... .. . ...|... .. . ...|... .. . ...|... .. . ...|... .. . ...
60|... .. . ...|G-1 00 . ...|G-1 00 . ...|E-2 02 . ...|C-3 00 . ...
61|... .. . ...|... .. . ...|... .. . ...|... .. . ...|... .. . ...
62|... .. . ...|... .. . ...|... .. . ...|... .. . ...|... .. . ...
63|... .. . ...|... .. . ...|... .. . ...|... .. . ...|... .. . ...
64|... .. . ...|A-1 00 . ...|A-1 00 . ...|E-2 02 . ...|C-3 00 . ...
65|... .. . ...|... .. . ...|... .. . ...|... .. . ...|... .. . ...
66|... .. . ...|... .. . ...|... .. . ...|... .. . ...|... .. . ...
67|... .. . ...|... .. . ...|... .. . ...|... .. . ...|... .. . ...
68|... .. . 473|... .. 3 ...|--- .. . ...|F#2 02 . ...|... .. . ...
69|... .. . ...|... .. . ...|... .. . ...|... .. . ...|... .. . ...
6a|... .. . ...|... .. . ...|... .. . ...|... .. . ...|... .. . ...
6b|... .. . ...|... .. . ...|... .. . ...|... .. . ...|... .. . ...
6c|... .. . ...|C-2 00 8 ...|C-2 00 . ...|E-2 03 . ...|C#3 00 . ...
6d|... .. . ...|... .. . ...|... .. . ...|... .. . ...|... .. . ...
6e|... .. . ...|... .. . ...|... .. . ...|... .. . ...|... .. . ...
6f|... .. . ...|... .. . ...|... .. . ...|... .. . ...|... .. . ...
70|... .. . ...|... .. 3 ...|--- .. . ...|F#2 02 . ...|... .. . ...
71|... .. . ...|... .. . ...|... .. . ...|... .. . ...|... .. . ...
72|... .. . ...|... .. . ...|... .. . ...|... .. . ...|... .. . ...
73|... .. . ...|... .. . ...|... .. . ...|... .. . ...|... .. . ...
74|... .. 4 ...|C-2 00 8 ...|C-2 00 . ...|E-2 03 . ...|C#3 00 . ...
75|... .. . ...|... .. . ...|... .. . ...|... .. . ...|... .. . ...
76|... .. . ...|... .. . ...|... .. . ...|... .. . ...|... .. . ...
77|... .. . ...|... .. . ...|... .. . ...|... .. . ...|... .. . ...
78|... .. 1 ...|... .. 1 ...|--- .. . ...|... .. . ...|... .. . ...
79|... .. . ...|... .. . ...|... .. . ...|... .. . ...|... .. . ...
7a|... .. . ...|... .. . ...|... .. . ...|... .. . ...|... .. . ...
7b|... .. . ...|... .. . ...|... .. . ...|... .. . ...|... .. . ...
7c|... .. 0 ...|... .. 0 ...|... .. . ...|... .. . ...|... .. . ...
7d|... .. . ...|... .. . ...|... .. . ...|... .. . ...|... .. . ...
7e|... .. . ...|... .. . ...|... .. . ...|... .. . ...|... .. . ...
7f|... .. . ...|... .. . ...|... .. . ...|... .. . ...|... .. . ...

[Frame12]
00|E-4 00 5 V02|A-1 00 8 V01|A-1 00 . ...|C#2 06 c ...|C-3 00 . ...
01|... .. . ...|... .. . ...|... .. . ...|... .. . ...|... .. . ...
02|... .. . ...|... .. . ...|... .. . ...|... .. . ...|... .. . ...
03|... .. . ...|... .. . ...|... .. . ...|... .. . ...|... .. . ...
04|... .. . ...|... .. . ...|... .. . ...|... .. . ...|... .. . ...
05|... .. . ...|... .. . ...|... .. . ...|... .. . ...|... .. . ...
06|... .. . ...|... .. 3 ...|--- .. . ...|... .. . ...|... .. . ...
07|... .. . ...|... .. . ...|... .. . ...|... .. . ...|... .. . ...
08|E-3 00 . V01|A-1 00 8 ...|A-1 00 . ...|... .. . ...|... .. . ...
09|... .. . ...|... .. . ...|... .. . ...|... .. . ...|... .. . ...
0a|... .. . ...|... .. 3 ...|--- .. . ...|... .. . ...|... .. . ...
0b|... .. . ...|... .. . ...|... .. . ...|... .. . ...|... .. . ...
0c|D#4 00 . V02|A-1 00 8 ...|A-1 00 . ...|... .. . ...|... .. . ...
0d|... .. . ...|... .. . ...|... .. . ...|... .. . ...|... .. . ...
0e|... .. . ...|... .. 3 ...|--- .. . ...|... .. . ...|... .. . ...
0f|... .. . ...|... .. . ...|... .. . ...|... .. . ...|... .. . ...
10|... .. . ...|C-2 00 8 ...|C-2 00 . ...|C#2 01 a ...|C#3 00 . ...
11|... .. . ...|... .. . ...|... .. . ...|... .. . ...|... .. . ...
12|... .. . ...|... .. . ...|... .. . ...|... .. . ...|... .. . ...
13|... .. . ...|... .. . ...|... .. . ...|... .. . ...|... .. . ...
14|E-3 00 . V01|... .. . ...|... .. . ...|... .. . ...|... .. . ...
15|... .. . ...|... .. . ...|... .. . ...|... .. . ...|... .. . ...
16|... .. . ...|... .. . ...|... .. . ...|... .. . ...|... .. . ...
17|... .. . ...|... .. . ...|... .. . ...|... .. . ...|... .. . ...
18|E-4 00 . V02|A-1 00 . ...|A-1 00 . ...|E-2 02 . ...|C-3 00 . ...
19|... .. . ...|... .. . ...|... .. . ...|... .. . ...|... .. . ...
1a|... .. . ...|... .. 3 ...|--- .. . ...|... .. . ...|... .. . ...
1b|... .. . ...|... .. . ...|... .. . ...|... .. . ...|... .. . ...
1c|... .. . ...|A-1 00 8 ...|A-1 00 . ...|... .. . ...|... .. . ...
1d|... .. . ...|... .. . ...|... .. . ...|... .. . ...|... .. . ...
1e|... .. . ...|... .. 3 ...|--- .. . ...|... .. . ...|... .. . ...
1f|... .. . ...|... .. . ...|... .. . ...|... .. . ...|... .. . ...
20|E-3 00 . V01|D#2 00 8 ...|D#2 00 . ...|C#2 01 . ...|C-3 00 . ...
21|... .. . ...|... .. . ...|... .. . ...|... .. . ...|... .. . ...
22|... .. . ...|... .. . ...|... .. . ...|... .. . ...|... .. . ...
23|... .. . ...|... .. . ...|... .. . ...|... .. . ...|... .. . ...
24|G-4 00 . V02|D-2 00 . ...|D-2 00 . ...|E-2 03 . ...|C#3 00 . ...
25|... .. . ...|... .. . ...|... .. . ...|... .. . ...|... .. . ...
26|... .. . ...|... .. . ...|... .. . ...|... .. . ...|... .. . ...
27|... .. . ...|... .. . ...|... .. . ...|... .. . ...|... .. . ...
28|... .. . ...|... .. 3 ...|--- .. . ...|... .. . ...|... .. . ...
29|... .. . ...|... .. . ...|... .. . ...|... .. . ...|... .. . ...
2a|... .. . ...|... .. . ...|... .. . ...|... .. . ...|... .. . ...
2b|... .. . ...|... .. . ...|... .. . ...|... .. . ...|... .. . ...
2c|E-3 00 . V01|C-2 00 8 ...|C-2 00 . ...|E-2 02 . ...|C-3 00 . ...
2d|... .. . ...|... .. . ...|... .. . ...|... .. . ...|... .. . ...
2e|... .. . ...|... .. . ...|... .. . ...|... .. . ...|... .. . ...
2f|... .. . ...|... .. . ...|... .. . ...|... .. . ...|... .. . ...
30|A-4 00 . V02|... .. 3 ...|--- .. . ...|C#2 01 . ...|C#3 00 . ...
31|... .. . ...|... .. . ...|... .. . ...|... .. . ...|... .. . ...
32|... .. . ...|... .. . ...|... .. . ...|... .. . ...|... .. . ...
33|... .. . ...|... .. . ...|... .. . ...|... .. . ...|... .. . ...
34|E-3 00 . V01|B-1 00 8 ...|B-1 00 . ...|... .. . ...|... .. . ...
35|... .. . ...|... .. . ...|... .. . ...|... .. . ...|... .. . ...
36|... .. . ...|... .. . ...|... .. . ...|... .. . ...|... .. . ...
37|... .. . ...|... .. . ...|... .. . ...|... .. . ...|... .. . ...
38|B-4 00 . V02|... .. 3 ...|--- .. . ...|E-2 02 . ...|C-3 00 . ...
39|... .. . ...|... .. . ...|... .. . ...|... .. . ...|... .. . ...
3a|... .. . ...|... .. . ...|... .. . ...|... .. . ...|... .. . ...
3b|... .. . ...|... .. . ...|... .. . ...|... .. . ...|... .. . ...
3c|E-3 00 . V01|A-1 00 8 ...|A-1 00 . ...|E-2 02 . ...|C-3 00 . ...
3d|... .. . ...|... .. . ...|... .. . ...|... .. . ...|... .. . ...
3e|... .. . ...|... .. . ...|... .. . ...|... .. . ...|... .. . ...
3f|... .. . ...|... .. . ...|... .. . ...|... .. . ...|... .. . ...
40|C-5 00 . V02|... .. . ...|... .. . ...|C#2 01 . ...|C-3 00 . ...
41|... .. . ...|... .. . ...|... .. . ...|... .. . ...|... .. . ...
42|... .. . ...|... .. 3 ...|--- .. . ...|... .. . ...|... .. . ...
43|... .. . ...|... .. . ...|... .. . ...|... .. . ...|... .. . ...
44|... .. . ...|A-1 00 8 ...|A-1 00 . ...|... .. . ...|... .. . ...
45|... .. . ...|... .. . ...|... .. . ...|... .. . ...|... .. . ...
46|... .. . ...|... .. 3 ...|--- .. . ...|... .. . ...|... .. . ...
47|... .. . ...|... .. . ...|... .. . ...|... .. . ...|... .. . ...
48|E-3 00 . V01|A-1 00 8 ...|A-1 00 . ...|E-2 02 . ...|C-3 00 . ...
49|... .. . ...|... .. . ...|... .. . ...|... .. . ...|... .. . ...
4a|... .. . ...|... .. 3 ...|--- .. . ...|... .. . ...|... .. . ...
4b|... .. . ...|... .. . ...|... .. . ...|... .. . ...|... .. . ...
4c|B-4 00 . V02|E-1 00 8 ...|E-1 00 . ...|... .. . ...|... .. . ...
4d|... .. . ...|... .. . ...|... .. . ...|... .. . ...|... .. . ...
4e|... .. . ...|... .. 3 ...|--- .. . ...|... .. . ...|... .. . ...
4f|... .. . ...|... .. . ...|... .. . ...|... .. . ...|... .. . ...
50|... .. . ...|G-1 00 8 ...|G-1 00 . ...|C#2 01 . ...|C#3 00 . ...
51|... .. . ...|... .. . ...|... .. . ...|... .. . ...|... .. . ...
52|... .. . ...|... .. . ...|... .. . ...|... .. . ...|... .. . ...
53|... .. . ...|... .. . ...|... .. . ...|... .. . ...|... .. . ...
54|E-3 00 . V01|A-1 00 . ...|A-1 00 . ...|... .. . ...|... .. . ...
55|... .. . ...|... .. . ...|... .. . ...|... .. . ...|... .. . ...
56|... .. . ...|... .. . ...|... .. . ...|... .. . ...|... .. . ...
57|... .. . ...|... .. . ...|... .. . ...|... .. . ...|... .. . ...
58|G-4 00 . V02|D-2 00 . ...|D-2 00 . ...|E-2 02 . ...|C-3 00 . ...
59|... .. . ...|... .. . ...|... .. . ...|... .. . ...|... .. . ...
5a|... .. . ...|... .. . ...|... .. . ...|... .. . ...|... .. . ...
5b|... .. . ...|... .. . ...|... .. . ...|... .. . ...|... .. . ...
5c|... .. . ...|D#2 00 . ...|D#2 00 . ...|E-2 02 . ...|C-3 00 . ...
5d|... .. . ...|... .. . ...|... .. . ...|... .. . ...|... .. . ...
5e|... .. . ...|... .. . ...|... .. . ...|... .. . ...|... .. . ...
5f|... .. . ...|... .. . ...|... .. . ...|... .. . ...|... .. . ...
60|E-3 00 . V01|... .. 3 ...|--- .. . ...|C#2 01 . ...|... .. . ...
61|... .. . ...|... .. . ...|... .. . ...|... .. . ...|... .. . ...
62|... .. . ...|... .. . ...|... .. . ...|... .. . ...|... .. . ...
63|... .. . ...|... .. . ...|... .. . ...|... .. . ...|... .. . ...
64|E-4 00 . V02|D#2 00 8 ...|D#2 00 . ...|E-2 02 . ...|C-3 00 . ...
65|... .. . ...|... .. . ...|... .. . ...|... .. . ...|... .. . ...
66|... .. . ...|... .. . ...|... .. . ...|... .. . ...|... .. . ...
67|... .. . ...|... .. . ...|... .. . ...|... .. . ...|... .. . ...
68|... .. . ...|... .. . ...|... .. . ...|... .. . ...|... .. . ...
69|... .. . ...|... .. . ...|... .. . ...|... .. . ...|... .. . ...
6a|... .. . ...|... .. . ...|... .. . ...|... .. . ...|... .. . ...
6b|... .. . ...|... .. . ...|... .. . ...|... .. . ...|... .. . ...
6c|E-3 00 . V01|D-2 00 . ...|D-2 00 . ...|E-2 02 . ...|C-3 00 . ...
6d|... .. . ...|... .. . ...|... .. . ...|... .. . ...|... .. . ...
6e|... .. . ...|... .. . ...|... .. . ...|... .. . ...|... .. . ...
6f|... .. . ...|... .. . ...|... .. . ...|... .. . ...|... .. . ...
70|D#4 00 . V02|A#1 00 . 33a|A#1 00 . ...|C#2 01 . ...|C#3 00 . ...
71|... .. . ...|... .. . ...|... .. . ...|... .. . ...|... .. . ...
72|... .. . ...|C-2 00 . ...|... .. . ...|... .. . ...|... .. . ...
73|... .. . ...|... .. . ...|... .. . ...|... .. . ...|... .. . ...
74|E-3 00 . V01|A#1 00 . ...|... .. . ...|F#2 02 . ...|... .. . ...
75|... .. . ...|... .. . ...|... .. . ...|... .. . ...|... .. . ...
76|... .. . ...|C-2 00 7 ...|... .. . ...|... .. . ...|... .. . ...
77|... .. . ...|... .. . ...|... .. . ...|... .. . ...|... .. . ...
78|D-4 00 . V02|A#1 00 6 ...|... .. . ...|E-2 03 . ...|C#3 00 . ...
79|... .. . ...|... .. 5 ...|... .. . ...|... .. . ...|... .. . ...
7a|... .. . ...|C-2 00 . ...|... .. . ...|... .. . ...|... .. . ...
7b|... .. . ...|... .. 4 ...|... .. . ...|... .. . ...|... .. . ...
7c|E-3 00 . V01|A#1 00 3 ...|... .. . ...|E-2 03 . ...|C#3 00 . ...
7d|... .. . ...|... .. . ...|... .. . ...|... .. . ...|... .. . ...
7e|... .. . ...|C-2 00 2 ...|--- .. . ...|... .. . ...|... .. . ...
7f|... .. . ...|... .. . ...|... .. . ...|... .. . ...|... .. . ...

[Frame13]
00|E-4 00 5 V02|A-1 00 8 V01|A-1 00 . ...|C#2 06 c ...|C-3 00 . ...
01|... .. . ...|... .. . ...|... .. . ...|... .. . ...|... .. . ...
02|... .. . ...|... .. . ...|... .. . ...|... .. . ...|... .. . ...
03|... .. . ...|... .. . ...|... .. . ...|... .. . ...|... .. . ...
04|... .. . ...|... .. . ...|... .. . ...|... .. . ...|... .. . ...
05|... .. . ...|... .. . ...|... .. . ...|... .. . ...|... .. . ...
06|... .. . ...|... .. 3 ...|--- .. . ...|... .. . ...|... .. . ...
07|... .. . ...|... .. . ...|... .. . ...|... .. . ...|... .. . ...
08|E-3 00 . V01|A-1 00 8 ...|A-1 00 . ...|... .. . ...|... .. . ...
09|... .. . ...|... .. . ...|... .. . ...|... .. . ...|... .. . ...
0a|... .. . ...|... .. 3 ...|--- .. . ...|... .. . ...|... .. . ...
0b|... .. . ...|... .. . ...|... .. . ...|... .. . ...|... .. . ...
0c|D#4 00 . V02|A-1 00 8 ...|A-1 00 . ...|... .. . ...|... .. . ...
0d|... .. . ...|... .. . ...|... .. . ...|... .. . ...|... .. . ...
0e|... .. . ...|... .. 3 ...|--- .. . ...|... .. . ...|... .. . ...
0f|... .. . ...|... .. . ...|... .. . ...|... .. . ...|... .. . ...
10|... .. . ...|C-2 00 8 ...|C-2 00 . ...|C#2 01 a ...|C#3 00 . ...
11|... .. . ...|... .. . ...|... .. . ...|... .. . ...|... .. . ...
12|... .. . ...|... .. . ...|... .. . ...|... .. . ...|... .. . ...
13|... .. . ...|... .. . ...|... .. . ...|... .. . ...|... .. . ...
14|E-3 00 . V01|... .. . ...|... .. . ...|... .. . ...|... .. . ...
15|... .. . ...|... .. . ...|... .. . ...|... .. . ...|... .. . ...
16|... .. . ...|... .. . ...|... .. . ...|... .. . ...|... .. . ...
17|... .. . ...|... .. . ...|... .. . ...|... .. . ...|... .. . ...
18|C-4 00 . V02|A-1 00 . ...|A-1 00 . ...|E-2 02 . ...|C-3 00 . ...
19|... .. . ...|... .. . ...|... .. . ...|... .. . ...|... .. . ...
1a|... .. . ...|... .. 3 ...|--- .. . ...|... .. . ...|... .. . ...
1b|... .. . ...|... .. . ...|... .. . ...|... .. . ...|... .. . ...
1c|... .. . ...|A-1 00 8 ...|A-1 00 . ...|... .. . ...|... .. . ...
1d|... .. . ...|... .. . ...|... .. . ...|... .. . ...|... .. . ...
1e|... .. . ...|... .. 3 ...|--- .. . ...|... .. . ...|... .. . ...
1f|... .. . ...|... .. . ...|... .. . ...|... .. . ...|... .. . ...
20|E-3 00 . V01|D#2 00 8 ...|D#2 00 . ...|C#2 01 . ...|C-3 00 . ...
21|... .. . ...|... .. . ...|... .. . ...|... .. . ...|... .. . ...
22|... .. . ...|... .. . ...|... .. . ...|... .. . ...|... .. . ...
23|... .. . ...|... .. . ...|... .. . ...|... .. . ...|... .. . ...
24|E-4 00 . V02|D-2 00 . ...|D-2 00 . ...|E-2 03 . ...|C#3 00 . ...
25|... .. . ...|... .. . ...|... .. . ...|... .. . ...|... .. . ...
26|... .. . ...|... .. . ...|... .. . ...|... .. . ...|... .. . ...
27|... .. . ...|... .. . ...|... .. . ...|... .. . ...|... .. . ...
28|... .. . ...|... .. 3 ...|--- .. . ...|... .. . ...|... .. . ...
29|... .. . ...|... .. . ...|... .. . ...|... .. . ...|... .. . ...
2a|... .. . ...|... .. . ...|... .. . ...|... .. . ...|... .. . ...
2b|... .. . ...|... .. . ...|... .. . ...|... .. . ...|... .. . ...
2c|E-3 00 . V01|C-2 00 8 ...|C-2 00 . ...|E-2 02 . ...|C-3 00 . ...
2d|... .. . ...|... .. . ...|... .. . ...|... .. . ...|... .. . ...
2e|... .. . ...|... .. . ...|... .. . ...|... .. . ...|... .. . ...
2f|... .. . ...|... .. . ...|... .. . ...|... .. . ...|... .. . ...
30|C-4 00 . V02|... .. 3 ...|--- .. . ...|C#2 01 . ...|C#3 00 . ...
31|... .. . ...|... .. . ...|... .. . ...|... .. . ...|... .. . ...
32|... .. . ...|... .. . ...|... .. . ...|... .. . ...|... .. . ...
33|... .. . ...|... .. . ...|... .. . ...|... .. . ...|... .. . ...
34|E-3 00 . V01|B-1 00 8 ...|B-1 00 . ...|... .. . ...|... .. . ...
35|... .. . ...|... .. . ...|... .. . ...|... .. . ...|... .. . ...
36|... .. . ...|... .. . ...|... .. . ...|... .. . ...|... .. . ...
37|... .. . ...|... .. . ...|... .. . ...|... .. . ...|... .. . ...
38|B-3 00 . V02|... .. 3 ...|--- .. . ...|E-2 02 . ...|C-3 00 . ...
39|... .. . ...|... .. . ...|... .. . ...|... .. . ...|... .. . ...
3a|... .. . ...|... .. . ...|... .. . ...|... .. . ...|... .. . ...
3b|... .. . ...|... .. . ...|... .. . ...|... .. . ...|... .. . ...
3c|E-3 00 . V01|A-1 00 8 ...|A-1 00 . ...|E-2 02 . ...|C-3 00 . ...
3d|... .. . ...|... .. . ...|... .. . ...|... .. . ...|... .. . ...
3e|... .. . ...|... .. . ...|... .. . ...|... .. . ...|... .. . ...
3f|... .. . ...|... .. . ...|... .. . ...|... .. . ...|... .. . ...
40|C-4 00 . V02|F-1 00 . ...|F-1 00 . ...|C#2 06 . ...|C-3 00 . ...
41|... .. . ...|... .. . ...|... .. . ...|... .. . ...|... .. . ...
42|... .. . ...|... .. . ...|... .. . ...|... .. . ...|... .. . ...
43|... .. . ...|... .. . ...|... .. . ...|... .. . ...|... .. . ...
44|... .. . ...|... .. . ...|... .. . ...|... .. . ...|... .. . ...
45|... .. . ...|... .. . ...|... .. . ...|... .. . ...|... .. . ...
46|... .. . ...|... .. . ...|... .. . ...|... .. . ...|... .. . ...
47|... .. . ...|... .. . ...|... .. . ...|... .. . ...|... .. . ...
48|E-3 00 . V01|C-1 00 . ...|C-1 00 . ...|E-2 03 . ...|C#3 00 . ...
49|... .. . ...|... .. . ...|... .. . ...|... .. . ...|... .. . ...
4a|... .. . ...|... .. 3 ...|--- .. . ...|... .. . ...|... .. . ...
4b|... .. . ...|... .. . ...|... .. . ...|... .. . ...|... .. . ...
4c|B-3 00 . V02|G-1 00 8 ...|G-1 00 . ...|C#2 06 . ...|C-3 00 . ...
4d|... .. . ...|... .. . ...|... .. . ...|... .. . ...|... .. . ...
4e|... .. . ...|... .. . ...|... .. . ...|... .. . ...|... .. . ...
4f|... .. . ...|... .. . ...|... .. . ...|... .. . ...|... .. . ...
50|... .. . ...|... .. . ...|... .. . ...|... .. . ...|... .. . ...
51|... .. . ...|... .. . ...|... .. . ...|... .. . ...|... .. . ...
52|... .. . ...|... .. . ...|... .. . ...|... .. . ...|... .. . ...
53|... .. . ...|... .. . ...|... .. . ...|... .. . ...|... .. . ...
54|E-3 00 . V01|C-1 00 . ...|C-1 00 . ...|E-2 03 . ...|C#3 00 . ...
55|... .. . ...|... .. . ...|... .. . ...|... .. . ...|... .. . ...
56|... .. . ...|... .. 3 ...|--- .. . ...|... .. . ...|... .. . ...
57|... .. . ...|... .. . ...|... .. . ...|... .. . ...|... .. . ...
58|A-3 00 . V02|A-1 00 8 ...|A-1 00 . ...|C#2 06 . ...|C-3 00 . ...
59|... .. . ...|... .. . ...|... .. . ...|... .. . ...|... .. . ...
5a|... .. . ...|... .. . ...|... .. . ...|... .. . ...|... .. . ...
5b|... .. . ...|... .. . ...|... .. . ...|... .. . ...|... .. . ...
5c|... .. . ...|... .. . ...|... .. . ...|... .. . ...|... .. . ...
5d|... .. . ...|... .. . ...|... .. . ...|... .. . ...|... .. . ...
5e|... .. . ...|... .. . ...|... .. . ...|... .. . ...|... .. . ...
5f|... .. . ...|... .. . ...|... .. . ...|... .. . ...|... .. . ...
60|... .. . ...|... .. . ...|... .. . ...|... .. . ...|... .. . ...
61|... .. . ...|... .. . ...|... .. . ...|... .. . ...|... .. . ...
62|... .. . ...|... .. . ...|... .. . ...|... .. . ...|... .. . ...
63|... .. . ...|... .. . ...|... .. . ...|... .. . ...|... .. . ...
64|... .. . ...|... .. . ...|... .. . ...|F#2 02 . ...|D-3 00 . ...
65|... .. . Q2c|... .. . ...|... .. . ...|... .. . ...|... .. . ...
66|... .. . ...|... .. . ...|... .. . ...|F#2 02 . ...|D-3 00 . ...
67|... .. . ...|... .. . ...|... .. . ...|... .. . ...|... .. . ...
68|... .. . ...|... .. . R8c|... .. . R8c|F#2 02 . ...|D-3 00 . ...
69|... .. . ...|... .. . ...|... .. . ...|... .. . ...|... .. . ...
6a|... .. . ...|... .. . ...|... .. . ...|... .. . ...|... .. . ...
6b|... .. . ...|... .. . ...|... .. . ...|... .. . ...|... .. . ...
6c|... .. . ...|... .. . ...|... .. . ...|E-2 03 . ...|C#3 00 . ...
6d|... .. . ...|... .. . ...|... .. . ...|... .. . ...|... .. . ...
6e|... .. . ...|... .. . ...|... .. . ...|... .. . ...|... .. . ...
6f|... .. . ...|... .. . ...|... .. . ...|... .. . ...|... .. . ...
70|... .. . ...|... .. . ...|... .. . ...|E-2 03 . ...|C#3 00 . ...
71|... .. . ...|... .. . ...|... .. . ...|... .. . ...|... .. . ...
72|... .. . ...|... .. . ...|... .. . ...|... .. . ...|... .. . ...
73|... .. . ...|... .. . ...|... .. . ...|... .. . ...|... .. . ...
74|... .. . 473|... .. . ...|... .. . ...|F#2 02 . ...|D-3 00 . ...
75|... .. . ...|... .. . ...|... .. . ...|... .. . ...|... .. . ...
76|... .. . ...|... .. . ...|... .. . ...|F#2 02 . ...|... .. . ...
77|... .. . ...|... .. . ...|... .. . ...|... .. . ...|... .. . ...
78|... .. . ...|... .. . ...|... .. . ...|F#2 02 . ...|D#3 00 . ...
79|... .. . ...|... .. . ...|... .. . ...|... .. . ...|... .. . ...
7a|... .. . ...|... .. . ...|... .. . ...|... .. . ...|... .. . ...
7b|... .. . ...|... .. . ...|... .. . ...|... .. . ...|... .. . ...
7c|... .. 1 ...|... .. 3 ...|--- .. . ...|F#2 02 . ...|D#3 00 . ...
7d|... .. . ...|... .. . ...|... .. . ...|... .. . ...|... .. . ...
7e|... .. . ...|... .. . ...|... .. . ...|... .. . ...|... .. . ...
7f|... .. . ...|... .. . ...|... .. . ...|... .. . ...|... .. . ...

[Frame14]
00|A-3 04 6 V01|A-4 00 2 V02|A-2 00 . ...|C#2 06 a ...|C-3 00 . ...
01|... .. . ...|E-4 00 . V01|... .. . ...|... .. . ...|... .. . ...
02|... .. . ...|C-4 00 . V02|--- .. . ...|... .. . ...|... .. . ...
03|... .. . ...|A-4 00 . V01|... .. . ...|... .. . ...|... .. . ...
04|E-3 04 . ...|E-4 00 3 V02|A-3 00 . ...|... .. . ...|C-3 00 . ...
05|... .. . ...|C-4 00 . V00|... .. . ...|... .. . ...|... .. . ...
06|... .. . ...|A-4 00 . V02|--- .. . ...|... .. . ...|C-3 00 . ...
07|... .. . ...|E-4 00 . V00|... .. . ...|... .. . ...|... .. . ...
08|C-3 04 . ...|C-4 00 4 V02|A-3 00 . ...|E-2 03 . ...|C#3 00 . ...
09|... .. . ...|A-4 00 . V01|... .. . ...|... .. . ...|... .. . ...
0a|... .. . ...|E-4 00 . V02|--- .. . ...|... .. . ...|... .. . ...
0b|... .. . ...|C-4 00 . V01|... .. . ...|... .. . ...|... .. . ...
0c|A-3 04 . ...|A-4 00 5 V02|A-2 00 . ...|E-2 02 . ...|C-3 00 . ...
0d|... .. . ...|E-4 00 . V00|... .. . ...|... .. . ...|... .. . ...
0e|... .. . ...|C-4 00 . V02|--- .. . ...|... .. . ...|... .. . ...
0f|... .. . ...|A-4 00 . V00|... .. . ...|... .. . ...|... .. . ...
10|E-3 04 . ...|E-4 00 4 V02|A-3 00 . ...|E-2 02 . ...|C-3 00 . ...
11|... .. . ...|C-4 00 . V01|... .. . ...|... .. . ...|... .. . ...
12|... .. . ...|A-4 00 . V02|--- .. . ...|E-2 02 . ...|C-3 00 . ...
13|... .. . ...|E-4 00 . V01|... .. . ...|... .. . ...|... .. . ...
14|C-3 04 . ...|C-4 00 3 V02|A-3 00 . ...|E-2 03 . ...|C#3 00 . ...
15|... .. . ...|A-4 00 . V00|... .. . ...|... .. . ...|... .. . ...
16|... .. . ...|E-4 00 . V02|--- .. . ...|... .. . ...|... .. . ...
17|... .. . ...|C-4 00 . V00|... .. . ...|... .. . ...|... .. . ...
18|A#3 04 . ...|A#4 00 2 V02|A#2 00 . ...|C#2 06 . ...|C-3 00 . ...
19|... .. . ...|F-4 00 . V01|... .. . ...|... .. . ...|... .. . ...
1a|... .. . ...|D-4 00 . V02|... .. . ...|... .. . ...|... .. . ...
1b|... .. . ...|A#4 00 . V01|... .. . ...|... .. . ...|... .. . ...
1c|... .. . ...|F-4 00 3 V02|... .. . ...|... .. . ...|... .. . ...
1d|... .. . ...|D-4 00 . V00|... .. . ...|... .. . ...|... .. . ...
1e|... .. . ...|A#4 00 . V02|... .. . ...|... .. . ...|... .. . ...
1f|... .. . ...|F-4 00 . V00|... .. . ...|... .. . ...|... .. . ...
20|... .. . ...|D-4 00 4 V02|... .. . ...|... .. . ...|... .. . ...
21|... .. . ...|A#4 00 . V01|... .. . ...|... .. . ...|... .. . ...
22|... .. . ...|F-4 00 . V02|... .. . ...|... .. . ...|... .. . ...
23|... .. . ...|D-4 00 . V01|... .. . ...|... .. . ...|... .. . ...
24|... .. . ...|A#4 00 5 V02|A#3 00 . ...|E-2 02 . ...|C-3 00 . ...
25|... .. . ...|F-4 00 . V00|... .. . ...|... .. . ...|... .. . ...
26|... .. . ...|D-4 00 . V02|--- .. . ...|E-2 02 . ...|C-3 00 . ...
27|... .. . ...|A#4 00 . V00|... .. . ...|... .. . ...|... .. . ...
28|... .. . Q2c|F-4 00 6 V02|A#3 00 . ...|E-2 03 . ...|C#3 00 . ...
29|... .. . ...|D-4 00 . V01|... .. . ...|... .. . ...|... .. . ...
2a|... .. . ...|A#4 00 . V02|--- .. . ...|... .. . ...|... .. . ...
2b|... .. . ...|F-4 00 . V01|... .. . ...|... .. . ...|... .. . ...
2c|... .. . ...|D-4 00 5 V02|C-3 00 . ...|E-2 02 . ...|C-3 00 . ...
2d|... .. . ...|A#4 00 . V00|... .. . ...|... .. . ...|... .. . ...
2e|... .. . ...|F-4 00 . V02|--- .. . ...|... .. . ...|... .. . ...
2f|... .. . ...|D-4 00 . V00|... .. . ...|... .. . ...|... .. . ...
30|... .. . ...|A#4 00 4 V02|A#2 00 . ...|E-2 03 . ...|C#3 00 . ...
31|... .. . ...|F-4 00 . V01|... .. . ...|... .. . ...|... .. . ...
32|... .. . ...|D-4 00 . V02|--- .. . ...|... .. . ...|... .. . ...
33|... .. . ...|A#4 00 . V01|... .. . ...|... .. . ...|... .. . ...
34|... .. . 473|F-4 00 3 V02|A#3 00 . ...|E-2 02 . ...|C-3 00 . ...
35|... .. . ...|D-4 00 . V00|... .. . ...|... .. . ...|... .. . ...
36|... .. . ...|A#4 00 . V02|--- .. . ...|... .. . ...|... .. . ...
37|... .. . ...|F-4 00 . V00|... .. . ...|... .. . ...|... .. . ...
38|... .. . ...|D-4 00 2 V02|A#3 00 . ...|E-2 03 . ...|C#3 00 . ...
39|... .. . ...|A#4 00 . V01|... .. . ...|... .. . ...|... .. . ...
3a|... .. . ...|F-4 00 . V02|--- .. . ...|... .. . ...|... .. . ...
3b|... .. . ...|D-4 00 . V01|... .. . ...|... .. . ...|... .. . ...
3c|... .. . ...|A#4 00 1 V02|A#2 00 . ...|E-2 03 . ...|C#3 00 . ...
3d|... .. . ...|F-4 00 . V00|... .. . ...|... .. . ...|... .. . ...
3e|... .. . ...|D-4 00 . V02|--- .. . ...|... .. . ...|... .. . ...
3f|... .. . ...|A#4 00 . V00|... .. . ...|... .. . ...|... .. . ...
40|A#3 04 . 400|A#4 00 2 V02|A#2 00 . ...|C#2 06 . ...|C-3 00 . ...
41|... .. . ...|F-4 00 . V01|... .. . ...|... .. . ...|... .. . ...
42|... .. . ...|D-4 00 . V02|--- .. . ...|... .. . ...|... .. . ...
43|... .. . ...|A#4 00 . V01|... .. . ...|... .. . ...|... .. . ...
44|F-3 04 . ...|F-4 00 3 V02|A#3 00 . ...|E-2 02 . ...|C-3 00 . ...
45|... .. . ...|D-4 00 . V00|... .. . ...|... .. . ...|... .. . ...
46|... .. . ...|A#4 00 . V02|--- .. . ...|E-2 02 . ...|C-3 00 . ...
47|... .. . ...|F-4 00 . V00|... .. . ...|... .. . ...|... .. . ...
48|D-3 04 . ...|D-4 00 4 V02|A#3 00 . ...|E-2 03 . ...|C#3 00 . ...
49|... .. . ...|A#4 00 . V01|... .. . ...|... .. . ...|... .. . ...
4a|... .. . ...|F-4 00 . V02|--- .. . ...|... .. . ...|... .. . ...
4b|... .. . ...|D-4 00 . V01|... .. . ...|... .. . ...|... .. . ...
4c|A#3 04 . ...|A#4 00 5 V02|A#2 00 . ...|E-2 02 . ...|C-3 00 . ...
4d|... .. . ...|F-4 00 . V00|... .. . ...|... .. . ...|... .. . ...
4e|... .. . ...|D-4 00 . V02|--- .. . ...|... .. . ...|... .. . ...
4f|... .. . ...|A#4 00 . V00|... .. . ...|... .. . ...|... .. . ...
50|F-3 04 . ...|F-4 00 4 V02|A#3 00 . ...|E-2 02 . ...|C-3 00 . ...
51|... .. . ...|D-4 00 . V01|... .. . ...|... .. . ...|... .. . ...
52|... .. . ...|A#4 00 . V02|--- .. . ...|E-2 02 . ...|C-3 00 . ...
53|... .. . ...|F-4 00 . V01|... .. . ...|... .. . ...|... .. . ...
54|D-3 04 . ...|D-4 00 3 V02|A#3 00 . ...|E-2 03 . ...|C#3 00 . ...
55|... .. . ...|A#4 00 . V00|... .. . ...|... .. . ...|... .. . ...
56|... .. . ...|F-4 00 . V02|--- .. . ...|... .. . ...|... .. . ...
57|... .. . ...|D-4 00 . V00|... .. . ...|... .. . ...|... .. . ...
58|A-3 04 . ...|A-4 00 2 V02|A-2 00 . ...|C#2 06 . ...|C-3 00 . ...
59|... .. . ...|E-4 00 . V01|... .. . ...|... .. . ...|... .. . ...
5a|... .. . ...|C-4 00 . V02|... .. . ...|... .. . ...|... .. . ...
5b|... .. . ...|A-4 00 . V01|... .. . ...|... .. . ...|... .. . ...
5c|... .. . ...|E-4 00 3 V02|... .. . ...|... .. . ...|... .. . ...
5d|... .. . ...|C-4 00 . V00|... .. . ...|... .. . ...|... .. . ...
5e|... .. . ...|A-4 00 . V02|... .. . ...|... .. . ...|... .. . ...
5f|... .. . ...|E-4 00 . V00|... .. . ...|... .. . ...|... .. . ...
60|... .. . ...|C-4 00 4 V02|... .. . ...|... .. . ...|... .. . ...
61|... .. . ...|A-4 00 . V01|... .. . ...|... .. . ...|... .. . ...
62|... .. . ...|E-4 00 . V02|... .. . ...|... .. . ...|... .. . ...
63|... .. . ...|C-4 00 . V01|... .. . ...|... .. . ...|... .. . ...
64|... .. . ...|A-4 00 5 V02|A-3 00 . ...|E-2 02 . ...|C-3 00 . ...
65|... .. . ...|E-4 00 . V00|... .. . ...|... .. . ...|... .. . ...
66|... .. . ...|C-4 00 . V02|--- .. . ...|E-2 02 . ...|C-3 00 . ...
67|... .. . ...|A-4 00 . V00|... .. . ...|... .. . ...|... .. . ...
68|... .. . R6c|E-4 00 6 V02|A-3 00 . ...|E-2 03 . ...|C#3 00 . ...
69|... .. . ...|C-4 00 . V01|... .. . ...|... .. . ...|... .. . ...
6a|... .. . ...|A-4 00 . V02|--- .. . ...|... .. . ...|... .. . ...
6b|... .. . ...|E-4 00 . V01|... .. . ...|... .. . ...|... .. . ...
6c|... .. . ...|C-4 00 5 V02|E-3 00 . ...|E-2 02 . ...|C-3 00 . ...
6d|... .. . ...|A-4 00 . V00|... .. . ...|... .. . ...|... .. . ...
6e|... .. . ...|E-4 00 . V02|--- .. . ...|... .. . ...|... .. . ...
6f|... .. . ...|C-4 00 . V00|... .. . ...|... .. . ...|... .. . ...
70|... .. . ...|A-4 00 4 V02|A-2 00 . ...|E-2 03 . ...|C#3 00 . ...
71|... .. . ...|E-4 00 . V01|... .. . ...|... .. . ...|... .. . ...
72|... .. . ...|C-4 00 . V02|--- .. . ...|... .. . ...|... .. . ...
73|... .. . ...|A-4 00 . V01|... .. . ...|... .. . ...|... .. . ...
74|... .. . 476|E-4 00 3 V02|A-3 00 . ...|F#2 02 . ...|D-3 00 . ...
75|... .. . ...|C-4 00 . V00|... .. . ...|... .. . ...|... .. . ...
76|... .. . ...|A-4 00 . V02|--- .. . ...|F#2 02 . ...|D-3 00 . ...
77|... .. . ...|E-4 00 . V00|... .. . ...|... .. . ...|... .. . ...
78|... .. . ...|C-4 00 2 V02|A-3 00 . ...|F#2 02 . ...|D#3 00 . ...
79|... .. . ...|A-4 00 . V01|... .. . ...|... .. . ...|... .. . ...
7a|... .. . ...|E-4 00 . V02|--- .. . ...|... .. . ...|... .. . ...
7b|... .. . ...|C-4 00 . V01|... .. . ...|... .. . ...|... .. . ...
7c|... .. . ...|A-4 00 1 V02|A-2 00 . ...|F#2 02 . ...|D#3 00 . ...
7d|... .. . ...|E-4 00 . V00|... .. . ...|... .. . ...|... .. . ...
7e|... .. . ...|C-4 00 . V02|--- .. . ...|F#2 02 . ...|D#3 00 . ...
7f|... .. . ...|A-4 00 . V00|... .. . ...|... .. . ...|... .. . ...

[Frame15]
00|A-3 04 6 V01|A-4 00 2 V02|A-2 00 . ...|C#2 06 a ...|C-3 00 . ...
01|... .. . ...|E-4 00 . V01|... .. . ...|... .. . ...|... .. . ...
02|... .. . ...|C-4 00 . V02|--- .. . ...|... .. . ...|... .. . ...
03|... .. . ...|A-4 00 . V01|... .. . ...|... .. . ...|... .. . ...
04|E-3 04 . ...|E-4 00 3 V02|A-3 00 . ...|... .. . ...|C-3 00 . ...
05|... .. . ...|C-4 00 . V00|... .. . ...|... .. . ...|... .. . ...
06|... .. . ...|A-4 00 . V02|--- .. . ...|... .. . ...|C-3 00 . ...
07|... .. . ...|E-4 00 . V00|... .. . ...|... .. . ...|... .. . ...
08|C-3 04 . ...|C-4 00 4 V02|A-3 00 . ...|E-2 03 . ...|C#3 00 . ...
09|... .. . ...|A-4 00 . V01|... .. . ...|... .. . ...|... .. . ...
0a|... .. . ...|E-4 00 . V02|--- .. . ...|... .. . ...|... .. . ...
0b|... .. . ...|C-4 00 . V01|... .. . ...|... .. . ...|... .. . ...
0c|A-3 04 . ...|A-4 00 5 V02|A-2 00 . ...|E-2 02 . ...|C-3 00 . ...
0d|... .. . ...|E-4 00 . V00|... .. . ...|... .. . ...|... .. . ...
0e|... .. . ...|C-4 00 . V02|--- .. . ...|... .. . ...|... .. . ...
0f|... .. . ...|A-4 00 . V00|... .. . ...|... .. . ...|... .. . ...
10|E-3 04 . ...|E-4 00 4 V02|A-3 00 . ...|E-2 02 . ...|C-3 00 . ...
11|... .. . ...|C-4 00 . V01|... .. . ...|... .. . ...|... .. . ...
12|... .. . ...|A-4 00 . V02|--- .. . ...|E-2 02 . ...|C-3 00 . ...
13|... .. . ...|E-4 00 . V01|... .. . ...|... .. . ...|... .. . ...
14|C-3 04 . ...|C-4 00 3 V02|A-3 00 . ...|E-2 03 . ...|C#3 00 . ...
15|... .. . ...|A-4 00 . V00|... .. . ...|... .. . ...|... .. . ...
16|... .. . ...|E-4 00 . V02|--- .. . ...|... .. . ...|... .. . ...
17|... .. . ...|C-4 00 . V00|... .. . ...|... .. . ...|... .. . ...
18|A#3 04 . ...|A#4 00 2 V02|A#2 00 . ...|C#2 06 . ...|C-3 00 . ...
19|... .. . ...|F-4 00 . V01|... .. . ...|... .. . ...|... .. . ...
1a|... .. . ...|D-4 00 . V02|... .. . ...|... .. . ...|... .. . ...
1b|... .. . ...|A#4 00 . V01|... .. . ...|... .. . ...|... .. . ...
1c|... .. . ...|F-4 00 3 V02|... .. . ...|... .. . ...|... .. . ...
1d|... .. . ...|D-4 00 . V00|... .. . ...|... .. . ...|... .. . ...
1e|... .. . ...|A#4 00 . V02|... .. . ...|... .. . ...|... .. . ...
1f|... .. . ...|F-4 00 . V00|... .. . ...|... .. . ...|... .. . ...
20|... .. . ...|D-4 00 4 V02|... .. . ...|... .. . ...|... .. . ...
21|... .. . ...|A#4 00 . V01|... .. . ...|... .. . ...|... .. . ...
22|... .. . ...|F-4 00 . V02|... .. . ...|... .. . ...|... .. . ...
23|... .. . ...|D-4 00 . V01|... .. . ...|... .. . ...|... .. . ...
24|... .. . ...|A#4 00 5 V02|A#3 00 . ...|E-2 02 . ...|C-3 00 . ...
25|... .. . ...|F-4 00 . V00|... .. . ...|... .. . ...|... .. . ...
26|... .. . ...|D-4 00 . V02|--- .. . ...|E-2 02 . ...|C-3 00 . ...
27|... .. . ...|A#4 00 . V00|... .. . ...|... .. . ...|... .. . ...
28|... .. . Q2c|F-4 00 6 V02|A#3 00 . ...|E-2 03 . ...|C#3 00 . ...
29|... .. . ...|D-4 00 . V01|... .. . ...|... .. . ...|... .. . ...
2a|... .. . ...|A#4 00 . V02|--- .. . ...|... .. . ...|... .. . ...
2b|... .. . ...|F-4 00 . V01|... .. . ...|... .. . ...|... .. . ...
2c|... .. . ...|D-4 00 5 V02|C-3 00 . ...|E-2 02 . ...|C-3 00 . ...
2d|... .. . ...|A#4 00 . V00|... .. . ...|... .. . ...|... .. . ...
2e|... .. . ...|F-4 00 . V02|--- .. . ...|... .. . ...|... .. . ...
2f|... .. . ...|D-4 00 . V00|... .. . ...|... .. . ...|... .. . ...
30|... .. . ...|A#4 00 4 V02|A#2 00 . ...|E-2 03 . ...|C#3 00 . ...
31|... .. . ...|F-4 00 . V01|... .. . ...|... .. . ...|... .. . ...
32|... .. . ...|D-4 00 . V02|--- .. . ...|... .. . ...|... .. . ...
33|... .. . ...|A#4 00 . V01|... .. . ...|... .. . ...|... .. . ...
34|... .. . 473|F-4 00 3 V02|A#3 00 . ...|E-2 02 . ...|C-3 00 . ...
35|... .. . ...|D-4 00 . V00|... .. . ...|... .. . ...|... .. . ...
36|... .. . ...|A#4 00 . V02|--- .. . ...|... .. . ...|... .. . ...
37|... .. . ...|F-4 00 . V00|... .. . ...|... .. . ...|... .. . ...
38|... .. . ...|D-4 00 2 V02|A#3 00 . ...|E-2 03 . ...|C#3 00 . ...
39|... .. . ...|A#4 00 . V01|... .. . ...|... .. . ...|... .. . ...
3a|... .. . ...|F-4 00 . V02|--- .. . ...|... .. . ...|... .. . ...
3b|... .. . ...|D-4 00 . V01|... .. . ...|... .. . ...|... .. . ...
3c|... .. . ...|A#4 00 1 V02|A#2 00 . ...|E-2 03 . ...|C#3 00 . ...
3d|... .. . ...|F-4 00 . V00|... .. . ...|... .. . ...|... .. . ...
3e|... .. . ...|D-4 00 . V02|--- .. . ...|... .. . ...|... .. . ...
3f|... .. . ...|A#4 00 . V00|... .. . ...|... .. . ...|... .. . ...
40|A#3 04 . 400|A#4 00 2 V02|A#2 00 . ...|C#2 06 . ...|C-3 00 . ...
41|... .. . ...|F-4 00 . V01|... .. . ...|... .. . ...|... .. . ...
42|... .. . ...|D-4 00 . V02|--- .. . ...|... .. . ...|... .. . ...
43|... .. . ...|A#4 00 . V01|... .. . ...|... .. . ...|... .. . ...
44|F-3 04 . ...|F-4 00 3 V02|A#3 00 . ...|E-2 02 . ...|C-3 00 . ...
45|... .. . ...|D-4 00 . V00|... .. . ...|... .. . ...|... .. . ...
46|... .. . ...|A#4 00 . V02|--- .. . ...|E-2 02 . ...|C-3 00 . ...
47|... .. . ...|F-4 00 . V00|... .. . ...|... .. . ...|... .. . ...
48|D-3 04 . ...|D-4 00 4 V02|A#3 00 . ...|E-2 03 . ...|C#3 00 . ...
49|... .. . ...|A#4 00 . V01|... .. . ...|... .. . ...|... .. . ...
4a|... .. . ...|F-4 00 . V02|--- .. . ...|... .. . ...|... .. . ...
4b|... .. . ...|D-4 00 . V01|... .. . ...|... .. . ...|... .. . ...
4c|A#3 04 . ...|A#4 00 5 V02|A#2 00 . ...|E-2 02 . ...|C-3 00 . ...
4d|... .. . ...|F-4 00 . V00|... .. . ...|... .. . ...|... .. . ...
4e|... .. . ...|D-4 00 . V02|--- .. . ...|... .. . ...|... .. . ...
4f|... .. . ...|A#4 00 . V00|... .. . ...|... .. . ...|... .. . ...
50|F-3 04 . ...|F-4 00 4 V02|A#3 00 . ...|E-2 02 . ...|C-3 00 . ...
51|... .. . ...|D-4 00 . V01|... .. . ...|... .. . ...|... .. . ...
52|... .. . ...|A#4 00 . V02|--- .. . ...|E-2 02 . ...|C-3 00 . ...
53|... .. . ...|F-4 00 . V01|... .. . ...|... .. . ...|... .. . ...
54|D-3 04 . ...|D-4 00 3 V02|A#3 00 . ...|E-2 03 . ...|C#3 00 . ...
55|... .. . ...|A#4 00 . V00|... .. . ...|... .. . ...|... .. . ...
56|... .. . ...|F-4 00 . V02|--- .. . ...|... .. . ...|... .. . ...
57|... .. . ...|D-4 00 . V00|... .. . ...|... .. . ...|... .. . ...
58|A-3 04 . ...|A-4 00 2 V02|A-2 00 . ...|C#2 06 . ...|C-3 00 . ...
59|... .. . ...|E-4 00 . V01|... .. . ...|... .. . ...|... .. . ...
5a|... .. . ...|C-4 00 . V02|... .. . ...|... .. . ...|... .. . ...
5b|... .. . ...|A-4 00 . V01|... .. . ...|... .. . ...|... .. . ...
5c|... .. . ...|E-4 00 3 V02|... .. . ...|... .. . ...|... .. . ...
5d|... .. . ...|C-4 00 . V00|... .. . ...|... .. . ...|... .. . ...
5e|... .. . ...|A-4 00 . V02|... .. . ...|... .. . ...|... .. . ...
5f|... .. . ...|E-4 00 . V00|... .. . ...|... .. . ...|... .. . ...
60|... .. . ...|C-4 00 4 V02|... .. . ...|... .. . ...|... .. . ...
61|... .. . ...|A-4 00 . V01|... .. . ...|... .. . ...|... .. . ...
62|... .. . ...|E-4 00 . V02|... .. . ...|... .. . ...|... .. . ...
63|... .. . ...|C-4 00 . V01|... .. . ...|... .. . ...|... .. . ...
64|... .. . ...|A-4 00 5 V02|A-3 00 . ...|E-2 02 . ...|C-3 00 . ...
65|... .. . ...|E-4 00 . V00|... .. . ...|... .. . ...|... .. . ...
66|... .. . ...|C-4 00 . V02|--- .. . ...|E-2 02 . ...|C-3 00 . ...
67|... .. . ...|A-4 00 . V00|... .. . ...|... .. . ...|... .. . ...
68|... .. . R6c|E-4 00 6 V02|A-3 00 . ...|E-2 03 . ...|C#3 00 . ...
69|... .. . ...|C-4 00 . V01|... .. . ...|... .. . ...|... .. . ...
6a|... .. . ...|A-4 00 . V02|--- .. . ...|... .. . ...|... .. . ...
6b|... .. . ...|E-4 00 . V01|... .. . ...|... .. . ...|... .. . ...
6c|... .. . ...|C-4 00 5 V02|E-3 00 . ...|E-2 02 . ...|C-3 00 . ...
6d|... .. . ...|A-4 00 . V00|... .. . ...|... .. . ...|... .. . ...
6e|... .. . ...|E-4 00 . V02|--- .. . ...|... .. . ...|... .. . ...
6f|... .. . ...|C-4 00 . V00|... .. . ...|... .. . ...|... .. . ...
70|... .. . ...|A-4 00 4 V02|A-2 00 . ...|E-2 03 . ...|C#3 00 . ...
71|... .. . ...|E-4 00 . V01|... .. . ...|... .. . ...|... .. . ...
72|... .. . ...|C-4 00 . V02|--- .. . ...|... .. . ...|... .. . ...
73|... .. . ...|A-4 00 . V01|... .. . ...|... .. . ...|... .. . ...
74|... .. . 476|E-4 00 3 V02|A-3 00 . ...|F#2 02 . ...|D-3 00 . ...
75|... .. . ...|C-4 00 . V00|... .. . ...|... .. . ...|... .. . ...
76|... .. . ...|A-4 00 . V02|--- .. . ...|F#2 02 . ...|D-3 00 . ...
77|... .. . ...|E-4 00 . V00|... .. . ...|... .. . ...|... .. . ...
78|... .. . ...|C-4 00 2 V02|A-3 00 . ...|F#2 02 . ...|D#3 00 . ...
79|... .. . ...|A-4 00 . V01|... .. . ...|... .. . ...|... .. . ...
7a|... .. . ...|E-4 00 . V02|--- .. . ...|... .. . ...|... .. . ...
7b|... .. . ...|C-4 00 . V01|... .. . ...|... .. . ...|... .. . ...
7c|... .. . ...|A-4 00 1 V02|A-2 00 . ...|F#2 02 . ...|D#3 00 . ...
7d|... .. . ...|E-4 00 . V00|... .. . ...|... .. . ...|... .. . ...
7e|... .. . ...|C-4 00 . V02|--- .. . ...|F#2 02 . ...|D#3 00 . ...
7f|... .. . ...|A-4 00 . V00|... .. . ...|... .. . ...|... .. . ...

[Frame16]
00|D-3 04 6 400|A-4 00 5 V00|D-3 00 . ...|C#2 06 a ...|C-3 00 . ...
01|... .. . ...|F-4 00 . V01|... .. . ...|... .. . ...|... .. . ...
02|... .. . ...|D-4 00 . V00|... .. . ...|... .. . ...|... .. . ...
03|... .. . ...|A-3 00 . V02|... .. . ...|... .. . ...|... .. . ...
04|A-2 04 . ...|F-3 00 . V00|... .. . ...|... .. . ...|C#3 00 . ...
05|... .. . ...|D-3 00 . V01|... .. . ...|... .. . ...|... .. . ...
06|... .. . ...|A-2 00 . V00|... .. . ...|... .. . ...|... .. . ...
07|... .. . ...|F-2 00 . V02|... .. . ...|... .. . ...|... .. . ...
08|D-3 04 . ...|D-2 00 . V00|A-2 00 . ...|E-2 02 . ...|C-3 00 . ...
09|... .. . ...|A-1 00 . V01|... .. . ...|... .. . ...|... .. . ...
0a|... .. . ...|F-1 00 . V00|--- .. . ...|... .. . ...|... .. . ...
0b|... .. . ...|D-1 00 . V02|... .. . ...|... .. . ...|... .. . ...
0c|E-3 04 . ...|F-1 00 . V00|A-2 00 . ...|E-2 02 . ...|C-3 00 . ...
0d|... .. . ...|A-1 00 . V01|... .. . ...|... .. . ...|... .. . ...
0e|... .. . ...|D-2 00 . V00|--- .. . ...|... .. . ...|... .. . ...
0f|... .. . ...|F-2 00 . V02|... .. . ...|... .. . ...|... .. . ...
10|F-3 04 . ...|A-2 00 . V00|A-2 00 . ...|E-2 02 . ...|C-3 00 . ...
11|... .. . ...|D-3 00 . V01|... .. . ...|... .. . ...|... .. . ...
12|... .. . ...|F-3 00 . V00|... .. . ...|... .. . ...|... .. . ...
13|... .. . ...|A-3 00 . V02|... .. . ...|... .. . ...|... .. . ...
14|A-3 04 . ...|D-4 00 . V00|... .. . ...|F#2 02 . ...|D-3 00 . ...
15|... .. . ...|F-4 00 . V01|... .. . ...|... .. . ...|... .. . ...
16|... .. . ...|A-4 00 . V00|--- .. . ...|F#2 02 . ...|D-3 00 . ...
17|... .. . ...|D-5 00 . V02|... .. . ...|... .. . ...|... .. . ...
18|F-3 04 . ...|F-5 00 . V00|A-2 00 . ...|F#2 02 . ...|D#3 00 . ...
19|... .. . ...|A-5 00 . V01|... .. . ...|... .. . ...|... .. . ...
1a|... .. . ...|D-6 00 . V00|... .. . ...|... .. . ...|... .. . ...
1b|... .. . ...|A-5 00 . V02|... .. . ...|... .. . ...|... .. . ...
1c|D#3 04 . ...|A#4 00 . V00|D#3 00 . ...|C#2 06 . ...|C-3 00 . ...
1d|... .. . ...|F#4 00 . V01|... .. . ...|... .. . ...|... .. . ...
1e|... .. . ...|D#4 00 . V00|... .. . ...|... .. . ...|... .. . ...
1f|... .. . ...|A#3 00 . V02|... .. . ...|... .. . ...|... .. . ...
20|A#2 04 . ...|F#3 00 . V00|... .. . ...|... .. . ...|C-3 00 . ...
21|... .. . ...|D#3 00 . V01|... .. . ...|... .. . ...|... .. . ...
22|... .. . ...|A#2 00 . V00|--- .. . ...|... .. . ...|C-3 00 . ...
23|... .. . ...|F#2 00 . V02|... .. . ...|... .. . ...|... .. . ...
24|D#3 04 . ...|D#2 00 . V00|A-2 00 . ...|E-2 03 . ...|C#3 00 . ...
25|... .. . ...|A#1 00 . V01|... .. . ...|... .. . ...|... .. . ...
26|... .. . ...|F#1 00 . V00|--- .. . ...|... .. . ...|... .. . ...
27|... .. . ...|D#1 00 . V02|... .. . ...|... .. . ...|... .. . ...
28|F-3 04 . ...|F#1 00 . V00|A-2 00 . ...|E-2 02 . ...|C-3 00 . ...
29|... .. . ...|A#1 00 . V01|... .. . ...|... .. . ...|... .. . ...
2a|... .. . ...|D#2 00 . V00|--- .. . ...|... .. . ...|... .. . ...
2b|... .. . ...|F#2 00 . V02|... .. . ...|... .. . ...|... .. . ...
2c|A-3 00 . ...|A#4 00 4 V00|G-2 00 . ...|C#2 06 . ...|C-3 00 . ...
2d|... .. . ...|A#3 00 . ...|... .. . ...|... .. . ...|... .. . ...
2e|A-4 00 . V02|F-4 00 . ...|... .. . ...|... .. . ...|... .. . ...
2f|... .. . ...|A#3 00 . V01|... .. . ...|... .. . ...|... .. . ...
30|B-3 00 . V01|A#4 00 . V00|A-2 00 . ...|F#2 02 . ...|D-3 00 . ...
31|... .. . ...|A#3 00 . ...|... .. . ...|... .. . ...|... .. . ...
32|B-4 00 . V02|F-4 00 . ...|... .. . ...|F#2 02 . ...|D-3 00 . ...
33|... .. . ...|A#3 00 . V01|... .. . ...|... .. . ...|... .. . ...
34|A-3 00 . V01|A#4 00 . V00|G-2 00 . ...|F#2 02 . ...|D-3 00 . ...
35|... .. . ...|A#3 00 . ...|... .. . ...|... .. . ...|... .. . ...
36|A-4 00 . V02|F-4 00 . ...|... .. . ...|... .. . ...|... .. . ...
37|... .. . ...|A#3 00 . V01|... .. . ...|... .. . ...|... .. . ...
38|B-3 00 . V01|A#4 00 . V00|A-2 00 . ...|E-2 02 . ...|C-3 00 . ...
39|... .. . ...|A#3 00 . ...|... .. . ...|... .. . ...|... .. . ...
3a|B-4 00 . V02|F-4 00 . ...|... .. . ...|... .. . ...|... .. . ...
3b|... .. . ...|A#3 00 . V01|... .. . ...|... .. . ...|... .. . ...
3c|A-3 00 . V01|A#4 00 . V00|G-2 00 . ...|F#2 02 . ...|D#3 00 . ...
3d|... .. . ...|A#3 00 . ...|... .. . ...|... .. . ...|... .. . ...
3e|A-4 00 . V02|F-4 00 . ...|... .. . ...|F#2 02 . ...|... .. . ...
3f|... .. . ...|A#3 00 . V01|... .. . ...|... .. . ...|... .. . ...
40|B-3 00 . V01|A#4 00 . V00|A-2 00 . ...|E-2 03 . ...|C#3 00 . ...
41|... .. . ...|A#3 00 . ...|... .. . ...|... .. . ...|... .. . ...
42|B-4 00 . V02|F-4 00 . ...|... .. . ...|E-2 03 . ...|C#3 00 . ...
43|... .. . ...|A#3 00 . V01|... .. . ...|... .. . ...|... .. . ...
44|A-3 00 . V01|A#4 00 . V00|G-2 00 . ...|E-2 03 . ...|C#3 00 . ...
45|... .. . ...|A#3 00 . ...|... .. . ...|... .. . ...|... .. . ...
46|A-4 00 . V02|F-4 00 . ...|... .. . ...|F#2 02 . ...|D-3 00 . ...
47|... .. . ...|A#3 00 . V01|... .. . ...|... .. . ...|... .. . ...
48|B-3 00 . V01|A#4 00 . V00|A-2 00 . ...|F#2 02 . ...|D#3 00 . ...
49|... .. . ...|A#3 00 . ...|... .. . ...|... .. . ...|... .. . ...
4a|B-4 00 . V02|F-4 00 . ...|... .. . ...|F#2 02 . ...|D#3 00 . ...
4b|... .. . ...|A#3 00 . V01|... .. . ...|... .. . ...|... .. . ...
4c|A-3 00 . V01|A#4 00 . V00|G-2 00 . ...|E-2 03 . ...|C#3 00 . ...
4d|... .. . ...|A#3 00 . ...|... .. . ...|... .. . ...|... .. . ...
4e|A-4 00 . V02|F-4 00 . ...|... .. . ...|E-2 03 . ...|C#3 00 . ...
4f|... .. . ...|A#3 00 . V01|... .. . ...|... .. . ...|... .. . ...
50|... .. . ...|... .. . ...|... .. . ...|... .. . ...|... .. . ...
51|... .. . ...|... .. . ...|... .. . ...|... .. . ...|... .. . ...
52|... .. . ...|... .. . ...|... .. . ...|... .. . ...|... .. . ...
53|... .. . ...|... .. . ...|... .. . ...|... .. . ...|... .. . ...
54|... .. . ...|... .. . ...|... .. . ...|... .. . ...|... .. . ...
55|... .. . ...|... .. . ...|... .. . ...|... .. . ...|... .. . ...
56|... .. . ...|... .. . ...|... .. . ...|... .. . ...|... .. . ...
57|... .. . ...|... .. . ...|... .. . ...|... .. . ...|... .. . ...
58|... .. . ...|... .. . ...|... .. . ...|... .. . ...|... .. . ...
59|... .. . ...|... .. . ...|... .. . ...|... .. . ...|... .. . ...
5a|... .. . ...|... .. . ...|... .. . ...|... .. . ...|... .. . ...
5b|... .. . ...|... .. . ...|... .. . ...|... .. . ...|... .. . ...
5c|... .. . ...|... .. . ...|... .. . ...|... .. . ...|... .. . ...
5d|... .. . ...|... .. . ...|... .. . ...|... .. . ...|... .. . ...
5e|... .. . ...|... .. . ...|... .. . ...|... .. . ...|... .. . ...
5f|... .. . ...|... .. . ...|... .. . ...|... .. . ...|... .. . ...
60|... .. . ...|... .. . ...|... .. . ...|... .. . ...|... .. . ...
61|... .. . ...|... .. . ...|... .. . ...|... .. . ...|... .. . ...
62|... .. . ...|... .. . ...|... .. . ...|... .. . ...|... .. . ...
63|... .. . ...|... .. . ...|... .. . ...|... .. . ...|... .. . ...
64|... .. . ...|... .. . ...|... .. . ...|... .. . ...|... .. . ...
65|... .. . ...|... .. . ...|... .. . ...|... .. . ...|... .. . ...
66|... .. . ...|... .. . ...|... .. . ...|... .. . ...|... .. . ...
67|... .. . ...|... .. . ...|... .. . ...|... .. . ...|... .. . ...
68|... .. . ...|... .. . ...|... .. . ...|... .. . ...|... .. . ...
69|... .. . ...|... .. . ...|... .. . ...|... .. . ...|... .. . ...
6a|... .. . ...|... .. . ...|... .. . ...|... .. . ...|... .. . ...
6b|... .. . ...|... .. . ...|... .. . ...|... .. . ...|... .. . ...
6c|... .. . ...|... .. . ...|... .. . ...|... .. . ...|... .. . ...
6d|... .. . ...|... .. . ...|... .. . ...|... .. . ...|... .. . ...
6e|... .. . ...|... .. . ...|... .. . ...|... .. . ...|... .. . ...
6f|... .. . ...|... .. . ...|... .. . ...|... .. . ...|... .. . ...
70|... .. . ...|... .. . ...|... .. . ...|... .. . ...|... .. . ...
71|... .. . ...|... .. . ...|... .. . ...|... .. . ...|... .. . ...
72|... .. . ...|... .. . ...|... .. . ...|... .. . ...|... .. . ...
73|... .. . ...|... .. . ...|... .. . ...|... .. . ...|... .. . ...
74|... .. . ...|... .. . ...|... .. . ...|... .. . ...|... .. . ...
75|... .. . ...|... .. . ...|... .. . ...|... .. . ...|... .. . ...
76|... .. . ...|... .. . ...|... .. . ...|... .. . ...|... .. . ...
77|... .. . ...|... .. . ...|... .. . ...|... .. . ...|... .. . ...
78|... .. . ...|... .. . ...|... .. . ...|... .. . ...|... .. . ...
79|... .. . ...|... .. . ...|... .. . ...|... .. . ...|... .. . ...
7a|... .. . ...|... .. . ...|... .. . ...|... .. . ...|... .. . ...
7b|... .. . ...|... .. . ...|... .. . ...|... .. . ...|... .. . ...
7c|... .. . ...|... .. . ...|... .. . ...|... .. . ...|... .. . ...
7d|... .. . ...|... .. . ...|... .. . ...|... .. . ...|... .. . ...
7e|... .. . ...|... .. . ...|... .. . ...|... .. . ...|... .. . ...
7f|... .. . ...|... .. . ...|... .. . ...|... .. . ...|... .. . ...

[Frame17]
00|B-3 00 6 V01|A#4 00 4 V00|A-2 00 . ...|E-2 02 a ...|C-3 00 . ...
01|... .. . ...|A#3 00 . ...|... .. . ...|... .. . ...|... .. . ...
02|B-4 00 . V02|F-4 00 . ...|... .. . ...|F#2 02 . ...|... .. . ...
03|... .. . ...|A#3 00 . V01|... .. . ...|... .. . ...|... .. . ...
04|A-3 00 . V01|A#4 00 . V00|G-2 00 . ...|E-2 02 . ...|C-3 00 . ...
05|... .. . ...|A#3 00 . ...|... .. . ...|... .. . ...|... .. . ...
06|A-4 00 . V02|F-4 00 . ...|... .. . ...|F#2 02 . ...|... .. . ...
07|... .. . ...|A#3 00 . V01|... .. . ...|... .. . ...|... .. . ...
08|B-3 00 . V01|A#4 00 . V00|A-2 00 . ...|E-2 03 . ...|C#3 00 . ...
09|... .. . ...|A#3 00 . ...|... .. . ...|... .. . ...|... .. . ...
0a|B-4 00 . V02|F-4 00 . ...|... .. . ...|F#2 02 . ...|... .. . ...
0b|... .. . ...|A#3 00 . V01|... .. . ...|... .. . ...|... .. . ...
0c|A-3 00 . V01|A#4 00 . V00|G-2 00 . ...|E-2 02 . ...|C-3 00 . ...
0d|... .. . ...|A#3 00 . ...|... .. . ...|... .. . ...|... .. . ...
0e|A-4 00 . V02|F-4 00 . ...|... .. . ...|E-2 02 . ...|C-3 00 . ...
0f|... .. . ...|A#3 00 . V01|... .. . ...|... .. . ...|... .. . ...
10|B-3 00 . V01|A#4 00 . V00|A-2 00 . ...|E-2 03 . ...|C#3 00 . ...
11|... .. . ...|A#3 00 . ...|... .. . ...|... .. . ...|... .. . ...
12|B-4 00 . V02|F-4 00 . ...|... .. . ...|F#2 02 . ...|... .. . ...
13|... .. . ...|A#3 00 . V01|... .. . ...|... .. . ...|... .. . ...
14|A-3 00 . V01|A#4 00 . V00|G-2 00 . ...|E-2 02 . ...|C-3 00 . ...
15|... .. . ...|A#3 00 . ...|... .. . ...|... .. . ...|... .. . ...
16|A-4 00 . V02|F-4 00 . ...|... .. . ...|E-2 02 . ...|C-3 00 . ...
17|... .. . ...|A#3 00 . V01|... .. . ...|... .. . ...|... .. . ...
18|B-3 00 . V01|A#4 00 . V00|A-2 00 . ...|E-2 02 . ...|C-3 00 . ...
19|... .. . ...|A#3 00 . ...|... .. . ...|... .. . ...|... .. . ...
1a|B-4 00 . V02|F-4 00 . ...|... .. . ...|F#2 02 . ...|... .. . ...
1b|... .. . ...|A#3 00 . V01|... .. . ...|... .. . ...|... .. . ...
1c|A-3 00 . V01|A#4 00 . V00|G-2 00 . ...|E-2 03 . ...|C#3 00 . ...
1d|... .. . ...|A#3 00 . ...|... .. . ...|... .. . ...|... .. . ...
1e|A-4 00 . V02|F-4 00 . ...|... .. . ...|E-2 03 . ...|C#3 00 . ...
1f|... .. . ...|A#3 00 . V01|... .. . ...|... .. . ...|... .. . ...
20|B-3 00 . V01|A#4 00 . V00|A-2 00 . ...|E-2 03 . ...|C#3 00 . ...
21|... .. . ...|A#3 00 . ...|... .. . ...|... .. . ...|... .. . ...
22|B-4 00 . V02|F-4 00 . ...|... .. . ...|F#2 02 . ...|... .. . ...
23|... .. . ...|A#3 00 . V01|... .. . ...|... .. . ...|... .. . ...
24|A-3 00 . V01|A#4 00 . V00|G-2 00 . ...|E-2 03 . ...|C#3 00 . ...
25|... .. . ...|A#3 00 . ...|... .. . ...|... .. . ...|... .. . ...
26|A-4 00 . V02|F-4 00 . ...|... .. . ...|E-2 03 . ...|C#3 00 . ...
27|... .. . ...|A#3 00 . V01|... .. . ...|... .. . ...|... .. . ...
28|... .. . ...|... .. . ...|... .. . ...|... .. . ...|... .. . ...
29|... .. . ...|... .. . ...|... .. . ...|... .. . ...|... .. . ...
2a|... .. . ...|... .. . ...|... .. . ...|... .. . ...|... .. . ...
2b|... .. . ...|... .. . ...|... .. . ...|... .. . ...|... .. . ...
2c|... .. . ...|... .. . ...|... .. . ...|... .. . ...|... .. . ...
2d|... .. . ...|... .. . ...|... .. . ...|... .. . ...|... .. . ...
2e|... .. . ...|... .. . ...|... .. . ...|... .. . ...|... .. . ...
2f|... .. . ...|... .. . ...|... .. . ...|... .. . ...|... .. . ...
30|... .. . ...|... .. . ...|... .. . ...|... .. . ...|... .. . ...
31|... .. . ...|... .. . ...|... .. . ...|... .. . ...|... .. . ...
32|... .. . ...|... .. . ...|... .. . ...|... .. . ...|... .. . ...
33|... .. . ...|... .. . ...|... .. . ...|... .. . ...|... .. . ...
34|... .. . ...|... .. . ...|... .. . ...|... .. . ...|... .. . ...
35|... .. . ...|... .. . ...|... .. . ...|... .. . ...|... .. . ...
36|... .. . ...|... .. . ...|... .. . ...|... .. . ...|... .. . ...
37|... .. . ...|... .. . ...|... .. . ...|... .. . ...|... .. . ...
38|... .. . ...|... .. . ...|... .. . ...|... .. . ...|... .. . ...
39|... .. . ...|... .. . ...|... .. . ...|... .. . ...|... .. . ...
3a|... .. . ...|... .. . ...|... .. . ...|... .. . ...|... .. . ...
3b|... .. . ...|... .. . ...|... .. . ...|... .. . ...|... .. . ...
3c|... .. . ...|... .. . ...|... .. . ...|... .. . ...|... .. . ...
3d|... .. . ...|... .. . ...|... .. . ...|... .. . ...|... .. . ...
3e|... .. . ...|... .. . ...|... .. . ...|... .. . ...|... .. . ...
3f|... .. . ...|... .. . ...|... .. . ...|... .. . ...|... .. . ...
40|... .. . ...|... .. . ...|... .. . ...|... .. . ...|... .. . ...
41|... .. . ...|... .. . ...|... .. . ...|... .. . ...|... .. . ...
42|... .. . ...|... .. . ...|... .. . ...|... .. . ...|... .. . ...
43|... .. . ...|... .. . ...|... .. . ...|... .. . ...|... .. . ...
44|... .. . ...|... .. . ...|... .. . ...|... .. . ...|... .. . ...
45|... .. . ...|... .. . ...|... .. . ...|... .. . ...|... .. . ...
46|... .. . ...|... .. . ...|... .. . ...|... .. . ...|... .. . ...
47|... .. . ...|... .. . ...|... .. . ...|... .. . ...|... .. . ...
48|... .. . ...|... .. . ...|... .. . ...|... .. . ...|... .. . ...
49|... .. . ...|... .. . ...|... .. . ...|... .. . ...|... .. . ...
4a|... .. . ...|... .. . ...|... .. . ...|... .. . ...|... .. . ...
4b|... .. . ...|... .. . ...|... .. . ...|... .. . ...|... .. . ...
4c|... .. . ...|... .. . ...|... .. . ...|... .. . ...|... .. . ...
4d|... .. . ...|... .. . ...|... .. . ...|... .. . ...|... .. . ...
4e|... .. . ...|... .. . ...|... .. . ...|... .. . ...|... .. . ...
4f|... .. . ...|... .. . ...|... .. . ...|... .. . ...|... .. . ...
50|... .. . ...|... .. . ...|... .. . ...|... .. . ...|... .. . ...
51|... .. . ...|... .. . ...|... .. . ...|... .. . ...|... .. . ...
52|... .. . ...|... .. . ...|... .. . ...|... .. . ...|... .. . ...
53|... .. . ...|... .. . ...|... .. . ...|... .. . ...|... .. . ...
54|... .. . ...|... .. . ...|... .. . ...|... .. . ...|... .. . ...
55|... .. . ...|... .. . ...|... .. . ...|... .. . ...|... .. . ...
56|... .. . ...|... .. . ...|... .. . ...|... .. . ...|... .. . ...
57|... .. . ...|... .. . ...|... .. . ...|... .. . ...|... .. . ...
58|... .. . ...|... .. . ...|... .. . ...|... .. . ...|... .. . ...
59|... .. . ...|... .. . ...|... .. . ...|... .. . ...|... .. . ...
5a|... .. . ...|... .. . ...|... .. . ...|... .. . ...|... .. . ...
5b|... .. . ...|... .. . ...|... .. . ...|... .. . ...|... .. . ...
5c|... .. . ...|... .. . ...|... .. . ...|... .. . ...|... .. . ...
5d|... .. . ...|... .. . ...|... .. . ...|... .. . ...|... .. . ...
5e|... .. . ...|... .. . ...|... .. . ...|... .. . ...|... .. . ...
5f|... .. . ...|... .. . ...|... .. . ...|... .. . ...|... .. . ...
60|... .. . ...|... .. . ...|... .. . ...|... .. . ...|... .. . ...
61|... .. . ...|... .. . ...|... .. . ...|... .. . ...|... .. . ...
62|... .. . ...|... .. . ...|... .. . ...|... .. . ...|... .. . ...
63|... .. . ...|... .. . ...|... .. . ...|... .. . ...|... .. . ...
64|... .. . ...|... .. . ...|... .. . ...|... .. . ...|... .. . ...
65|... .. . ...|... .. . ...|... .. . ...|... .. . ...|... .. . ...
66|... .. . ...|... .. . ...|... .. . ...|... .. . ...|... .. . ...
67|... .. . ...|... .. . ...|... .. . ...|... .. . ...|... .. . ...
68|... .. . ...|... .. . ...|... .. . ...|... .. . ...|... .. . ...
69|... .. . ...|... .. . ...|... .. . ...|... .. . ...|... .. . ...
6a|... .. . ...|... .. . ...|... .. . ...|... .. . ...|... .. . ...
6b|... .. . ...|... .. . ...|... .. . ...|... .. . ...|... .. . ...
6c|... .. . ...|... .. . ...|... .. . ...|... .. . ...|... .. . ...
6d|... .. . ...|... .. . ...|... .. . ...|... .. . ...|... .. . ...
6e|... .. . ...|... .. . ...|... .. . ...|... .. . ...|... .. . ...
6f|... .. . ...|... .. . ...|... .. . ...|... .. . ...|... .. . ...
70|... .. . ...|... .. . ...|... .. . ...|... .. . ...|... .. . ...
71|... .. . ...|... .. . ...|... .. . ...|... .. . ...|... .. . ...
72|... .. . ...|... .. . ...|... .. . ...|... .. . ...|... .. . ...
73|... .. . ...|... .. . ...|... .. . ...|... .. . ...|... .. . ...
74|... .. . ...|... .. . ...|... .. . ...|... .. . ...|... .. . ...
75|... .. . ...|... .. . ...|... .. . ...|... .. . ...|... .. . ...
76|... .. . ...|... .. . ...|... .. . ...|... .. . ...|... .. . ...
77|... .. . ...|... .. . ...|... .. . ...|... .. . ...|... .. . ...
78|... .. . ...|... .. . ...|... .. . ...|... .. . ...|... .. . ...
79|... .. . ...|... .. . ...|... .. . ...|... .. . ...|... .. . ...
7a|... .. . ...|... .. . ...|... .. . ...|... .. . ...|... .. . ...
7b|... .. . ...|... .. . ...|... .. . ...|... .. . ...|... .. . ...
7c|... .. . ...|... .. . ...|... .. . ...|... .. . ...|... .. . ...
7d|... .. . ...|... .. . ...|... .. . ...|... .. . ...|... .. . ...
7e|... .. . ...|... .. . ...|... .. . ...|... .. . ...|... .. . ...
7f|... .. . ...|... .. . ...|... .. . ...|... .. . ...|... .. . ...

[Frame18]
00|A#4 07 3 V01|F-4 07 3 V01|A#2 00 . ...|C#2 06 a ...|C-3 00 . F03
01|... .. . ...|... .. . ...|... .. . ...|... .. . ...|... .. . ...
02|... .. . ...|... .. . ...|... .. . ...|... .. . ...|... .. . ...
03|... .. . ...|... .. . ...|... .. . ...|... .. . ...|... .. . ...
04|... .. . ...|... .. . ...|... .. . ...|... .. . ...|... .. . ...
05|... .. . ...|... .. . ...|... .. . ...|... .. . ...|... .. . ...
06|... .. . ...|... .. . ...|... .. . ...|... .. . ...|... .. . ...
07|... .. . ...|... .. . ...|... .. . ...|... .. . ...|... .. . ...
08|... .. . ...|... .. . ...|... .. . ...|F#2 02 . ...|... .. . ...
09|... .. . ...|... .. . ...|... .. . ...|... .. . ...|... .. . ...
0a|... .. . ...|... .. . ...|... .. . ...|... .. . ...|... .. . ...
0b|... .. . ...|... .. . ...|... .. . ...|... .. . ...|... .. . ...
0c|... .. . ...|... .. . ...|... .. . ...|... .. . ...|... .. . ...
0d|... .. . ...|... .. . ...|... .. . ...|... .. . ...|... .. . ...
0e|... .. . ...|... .. . ...|... .. . ...|... .. . ...|... .. . ...
0f|... .. . ...|... .. . ...|... .. . ...|... .. . ...|... .. . ...
10|... .. . ...|... .. . ...|... .. . ...|E-2 03 . ...|C#3 00 . ...
11|... .. . ...|... .. . ...|... .. . ...|... .. . ...|... .. . ...
12|... .. . ...|... .. . ...|... .. . ...|... .. . ...|... .. . ...
13|... .. . ...|... .. . ...|... .. . ...|... .. . ...|... .. . ...
14|... .. . ...|... .. . ...|... .. . ...|... .. . ...|... .. . ...
15|... .. . ...|... .. . ...|... .. . ...|... .. . ...|... .. . ...
16|... .. . ...|... .. . ...|... .. . ...|... .. . ...|... .. . ...
17|... .. . ...|... .. . ...|... .. . ...|... .. . ...|... .. . ...
18|... .. . ...|... .. . ...|--- .. . ...|F#2 02 . ...|... .. . ...
19|... .. . ...|... .. . ...|... .. . ...|... .. . ...|... .. . ...
1a|... .. . ...|... .. . ...|... .. . ...|... .. . ...|... .. . ...
1b|... .. . ...|... .. . ...|... .. . ...|... .. . ...|... .. . ...
1c|... .. . ...|... .. . ...|A#2 00 . G04|... .. . ...|... .. . ...
1d|... .. . ...|... .. . ...|... .. . ...|... .. . ...|... .. . ...
1e|... .. . ...|... .. . ...|... .. . S04|... .. . ...|... .. . ...
1f|... .. . ...|... .. . ...|... .. . ...|... .. . ...|... .. . ...
20|... .. . ...|... .. . ...|A#2 00 . ...|E-2 02 . ...|C-3 00 . ...
21|... .. . ...|... .. . ...|... .. . ...|... .. . ...|... .. . ...
22|... .. . ...|... .. . ...|... .. . ...|... .. . ...|... .. . ...
23|... .. . ...|... .. . ...|... .. . ...|... .. . ...|... .. . ...
24|... .. . ...|... .. . ...|... .. . ...|... .. . ...|... .. . ...
25|... .. . ...|... .. . ...|... .. . ...|... .. . ...|... .. . ...
26|... .. . ...|... .. . ...|... .. . ...|... .. . ...|... .. . ...
27|... .. . ...|... .. . ...|... .. . ...|... .. . ...|... .. . ...
28|... .. . ...|... .. . ...|... .. . ...|F#2 02 . ...|... .. . ...
29|... .. . ...|... .. . ...|... .. . ...|... .. . ...|... .. . ...
2a|... .. . ...|... .. . ...|... .. . ...|... .. . ...|... .. . ...
2b|... .. . ...|... .. . ...|... .. . ...|... .. . ...|... .. . ...
2c|... .. . ...|... .. . ...|... .. . ...|... .. . ...|... .. . ...
2d|... .. . ...|... .. . ...|... .. . ...|... .. . ...|... .. . ...
2e|... .. . ...|... .. . ...|... .. . ...|... .. . ...|... .. . ...
2f|... .. . ...|... .. . ...|... .. . ...|... .. . ...|... .. . ...
30|... .. . ...|... .. . ...|... .. . ...|E-2 03 . ...|C#3 00 . ...
31|... .. . ...|... .. . ...|... .. . ...|... .. . ...|... .. . ...
32|... .. . ...|... .. . ...|... .. . ...|... .. . ...|... .. . ...
33|... .. . ...|... .. . ...|... .. . ...|... .. . ...|... .. . ...
34|... .. . ...|... .. . ...|... .. . ...|... .. . ...|... .. . ...
35|... .. . ...|... .. . ...|... .. . ...|... .. . ...|... .. . ...
36|... .. . ...|... .. . ...|... .. . ...|... .. . ...|... .. . ...
37|... .. . ...|... .. . ...|... .. . ...|... .. . ...|... .. . ...
38|... .. . ...|... .. . ...|--- .. . ...|F#2 02 . ...|... .. . ...
39|... .. . ...|... .. . ...|... .. . ...|... .. . ...|... .. . ...
3a|... .. . ...|... .. . ...|... .. . ...|... .. . ...|... .. . ...
3b|... .. . ...|... .. . ...|... .. . ...|... .. . ...|... .. . ...
3c|... .. . ...|... .. . ...|... .. . ...|... .. . ...|... .. . ...
3d|... .. . ...|... .. . ...|... .. . ...|... .. . ...|... .. . ...
3e|... .. . ...|... .. . ...|... .. . ...|... .. . ...|... .. . ...
3f|... .. . ...|... .. . ...|... .. . ...|... .. . ...|... .. . ...
40|... .. . ...|E-4 07 . ...|A#2 00 . ...|E-2 02 . ...|C-3 00 . ...
41|... .. . ...|... .. . ...|... .. . ...|... .. . ...|... .. . ...
42|... .. . ...|... .. . ...|... .. . ...|... .. . ...|... .. . ...
43|... .. . ...|... .. . ...|... .. . ...|... .. . ...|... .. . ...
44|... .. . ...|... .. . ...|... .. . ...|... .. . ...|... .. . ...
45|... .. . ...|... .. . ...|... .. . ...|... .. . ...|... .. . ...
46|... .. . ...|... .. . ...|... .. . ...|... .. . ...|... .. . ...
47|... .. . ...|... .. . ...|... .. . ...|... .. . ...|... .. . ...
48|... .. . ...|... .. . ...|... .. . ...|F#2 02 . ...|... .. . ...
49|... .. . ...|... .. . ...|... .. . ...|... .. . ...|... .. . ...
4a|... .. . ...|... .. . ...|... .. . ...|... .. . ...|... .. . ...
4b|... .. . ...|... .. . ...|... .. . ...|... .. . ...|... .. . ...
4c|... .. . ...|... .. . ...|... .. . ...|... .. . ...|... .. . ...
4d|... .. . ...|... .. . ...|... .. . ...|... .. . ...|... .. . ...
4e|... .. . ...|... .. . ...|... .. . ...|... .. . ...|... .. . ...
4f|... .. . ...|... .. . ...|... .. . ...|... .. . ...|... .. . ...
50|... .. . ...|... .. . ...|... .. . ...|E-2 03 . ...|C#3 00 . ...
51|... .. . ...|... .. . ...|... .. . ...|... .. . ...|... .. . ...
52|... .. . ...|... .. . ...|... .. . ...|... .. . ...|... .. . ...
53|... .. . ...|... .. . ...|... .. . ...|... .. . ...|... .. . ...
54|... .. . ...|... .. . ...|... .. . ...|... .. . ...|... .. . ...
55|... .. . ...|... .. . ...|... .. . ...|... .. . ...|... .. . ...
56|... .. . ...|... .. . ...|... .. . ...|... .. . ...|... .. . ...
57|... .. . ...|... .. . ...|... .. . ...|... .. . ...|... .. . ...
58|... .. . ...|... .. . ...|--- .. . ...|F#2 02 . ...|... .. . ...
59|... .. . ...|... .. . ...|... .. . ...|... .. . ...|... .. . ...
5a|... .. . ...|... .. . ...|... .. . ...|... .. . ...|... .. . ...
5b|... .. . ...|... .. . ...|... .. . ...|... .. . ...|... .. . ...
5c|... .. . ...|... .. . ...|A#2 00 . G04|E-2 02 . ...|C-3 00 . ...
5d|... .. . ...|... .. . ...|... .. . ...|... .. . ...|... .. . ...
5e|... .. . ...|... .. . ...|... .. . S04|... .. . ...|... .. . ...
5f|... .. . ...|... .. . ...|... .. . ...|... .. . ...|... .. . ...
60|... .. . ...|... .. . ...|A-2 00 . ...|E-2 02 . ...|C-3 00 . ...
61|... .. . ...|... .. . ...|A#2 00 . ...|... .. . ...|... .. . ...
62|... .. . ...|... .. . ...|... .. . ...|... .. . ...|... .. . ...
63|... .. . ...|... .. . ...|... .. . ...|... .. . ...|... .. . ...
64|... .. . ...|... .. . ...|E-3 00 . ...|E-2 03 . ...|C#3 00 . ...
65|... .. . ...|... .. . ...|... .. . ...|... .. . ...|... .. . ...
66|... .. . ...|... .. . ...|... .. . ...|... .. . ...|... .. . ...
67|... .. . ...|... .. . ...|... .. . ...|... .. . ...|... .. . ...
68|... .. . ...|... .. . ...|A#2 00 . ...|F#2 02 . ...|... .. . ...
69|... .. . ...|... .. . ...|... .. . ...|... .. . ...|... .. . ...
6a|... .. . ...|... .. . ...|--- .. . ...|... .. . ...|... .. . ...
6b|... .. . ...|... .. . ...|... .. . ...|... .. . ...|... .. . ...
6c|... .. . ...|... .. . ...|E-3 00 . ...|E-2 02 . ...|C-3 00 . ...
6d|... .. . ...|... .. . ...|F-3 00 . ...|... .. . ...|... .. . ...
6e|... .. . ...|... .. . ...|... .. . ...|... .. . ...|... .. . ...
6f|... .. . ...|... .. . ...|... .. . ...|... .. . ...|... .. . ...
70|... .. . ...|... .. . ...|... .. . ...|E-2 03 . ...|C#3 00 . ...
71|... .. . ...|... .. . ...|... .. . ...|... .. . ...|... .. . ...
72|... .. . ...|... .. . ...|... .. . ...|... .. . ...|... .. . ...
73|... .. . ...|... .. . ...|... .. . ...|... .. . ...|... .. . ...
74|... .. . ...|... .. . ...|E-3 00 . ...|F#2 02 . ...|... .. . ...
75|... .. . ...|... .. . ...|... .. . ...|... .. . ...|... .. . ...
76|... .. . ...|... .. . ...|... .. . ...|... .. . ...|... .. . ...
77|... .. . ...|... .. . ...|... .. . ...|... .. . ...|... .. . ...
78|... .. . ...|... .. . ...|C-3 00 . ...|E-2 03 . ...|C#3 00 . ...
79|... .. . ...|... .. . ...|... .. . ...|... .. . ...|... .. . ...
7a|... .. . ...|... .. . ...|... .. . ...|... .. . ...|... .. . ...
7b|... .. . ...|... .. . ...|... .. . ...|... .. . ...|... .. . ...
7c|... .. . ...|... .. . ...|A-2 00 . ...|E-2 03 . ...|C#3 00 . ...
7d|... .. . ...|... .. . ...|... .. . ...|... .. . ...|... .. . ...
7e|... .. . ...|... .. . ...|... .. . ...|... .. . ...|... .. . ...
7f|... .. . ...|... .. . ...|... .. . ...|... .. . ...|... .. . ...

[Frame19]
00|A#4 07 3 V01|F-4 07 3 V01|A#2 00 . ...|C#2 06 a ...|C-3 00 . F03
01|... .. . ...|... .. . ...|... .. . ...|... .. . ...|... .. . ...
02|... .. . ...|... .. . ...|... .. . ...|... .. . ...|... .. . ...
03|... .. . ...|... .. . ...|... .. . ...|... .. . ...|... .. . ...
04|... .. . ...|... .. . ...|... .. . ...|... .. . ...|... .. . ...
05|... .. . ...|... .. . ...|... .. . ...|... .. . ...|... .. . ...
06|... .. . ...|... .. . ...|... .. . ...|... .. . ...|... .. . ...
07|... .. . ...|... .. . ...|... .. . ...|... .. . ...|... .. . ...
08|... .. . ...|... .. . ...|... .. . ...|F#2 02 . ...|... .. . ...
09|... .. . ...|... .. . ...|... .. . ...|... .. . ...|... .. . ...
0a|... .. . ...|... .. . ...|... .. . ...|... .. . ...|... .. . ...
0b|... .. . ...|... .. . ...|... .. . ...|... .. . ...|... .. . ...
0c|... .. . ...|... .. . ...|... .. . ...|... .. . ...|... .. . ...
0d|... .. . ...|... .. . ...|... .. . ...|... .. . ...|... .. . ...
0e|... .. . ...|... .. . ...|... .. . ...|... .. . ...|... .. . ...
0f|... .. . ...|... .. . ...|... .. . ...|... .. . ...|... .. . ...
10|... .. . ...|... .. . ...|... .. . ...|E-2 03 . ...|C#3 00 . ...
11|... .. . ...|... .. . ...|... .. . ...|... .. . ...|... .. . ...
12|... .. . ...|... .. . ...|... .. . ...|... .. . ...|... .. . ...
13|... .. . ...|... .. . ...|... .. . ...|... .. . ...|... .. . ...
14|... .. . ...|... .. . ...|... .. . ...|... .. . ...|... .. . ...
15|... .. . ...|... .. . ...|... .. . ...|... .. . ...|... .. . ...
16|... .. . ...|... .. . ...|... .. . ...|... .. . ...|... .. . ...
17|... .. . ...|... .. . ...|... .. . ...|... .. . ...|... .. . ...
18|... .. . ...|... .. . ...|--- .. . ...|F#2 02 . ...|... .. . ...
19|... .. . ...|... .. . ...|... .. . ...|... .. . ...|... .. . ...
1a|... .. . ...|... .. . ...|... .. . ...|... .. . ...|... .. . ...
1b|... .. . ...|... .. . ...|... .. . ...|... .. . ...|... .. . ...
1c|... .. . ...|... .. . ...|A#2 00 . G04|... .. . ...|... .. . ...
1d|... .. . ...|... .. . ...|... .. . ...|... .. . ...|... .. . ...
1e|... .. . ...|... .. . ...|... .. . S04|... .. . ...|... .. . ...
1f|... .. . ...|... .. . ...|... .. . ...|... .. . ...|... .. . ...
20|... .. . ...|... .. . ...|A#2 00 . ...|E-2 02 . ...|C-3 00 . ...
21|... .. . ...|... .. . ...|... .. . ...|... .. . ...|... .. . ...
22|... .. . ...|... .. . ...|... .. . ...|... .. . ...|... .. . ...
23|... .. . ...|... .. . ...|... .. . ...|... .. . ...|... .. . ...
24|... .. . ...|... .. . ...|... .. . ...|... .. . ...|... .. . ...
25|... .. . ...|... .. . ...|... .. . ...|... .. . ...|... .. . ...
26|... .. . ...|... .. . ...|... .. . ...|... .. . ...|... .. . ...
27|... .. . ...|... .. . ...|... .. . ...|... .. . ...|... .. . ...
28|... .. . ...|... .. . ...|... .. . ...|F#2 02 . ...|... .. . ...
29|... .. . ...|... .. . ...|... .. . ...|... .. . ...|... .. . ...
2a|... .. . ...|... .. . ...|... .. . ...|... .. . ...|... .. . ...
2b|... .. . ...|... .. . ...|... .. . ...|... .. . ...|... .. . ...
2c|... .. . ...|... .. . ...|... .. . ...|... .. . ...|... .. . ...
2d|... .. . ...|... .. . ...|... .. . ...|... .. . ...|... .. . ...
2e|... .. . ...|... .. . ...|... .. . ...|... .. . ...|... .. . ...
2f|... .. . ...|... .. . ...|... .. . ...|... .. . ...|... .. . ...
30|... .. . ...|... .. . ...|... .. . ...|E-2 03 . ...|C#3 00 . ...
31|... .. . ...|... .. . ...|... .. . ...|... .. . ...|... .. . ...
32|... .. . ...|... .. . ...|... .. . ...|... .. . ...|... .. . ...
33|... .. . ...|... .. . ...|... .. . ...|... .. . ...|... .. . ...
34|... .. . ...|... .. . ...|... .. . ...|... .. . ...|... .. . ...
35|... .. . ...|... .. . ...|... .. . ...|... .. . ...|... .. . ...
36|... .. . ...|... .. . ...|... .. . ...|... .. . ...|... .. . ...
37|... .. . ...|... .. . ...|... .. . ...|... .. . ...|... .. . ...
38|... .. . ...|... .. . ...|--- .. . ...|F#2 02 . ...|... .. . ...
39|... .. . ...|... .. . ...|... .. . ...|... .. . ...|... .. . ...
3a|... .. . ...|... .. . ...|... .. . ...|... .. . ...|... .. . ...
3b|... .. . ...|... .. . ...|... .. . ...|... .. . ...|... .. . ...
3c|... .. . ...|... .. . ...|... .. . ...|... .. . ...|... .. . ...
3d|... .. . ...|... .. . ...|... .. . ...|... .. . ...|... .. . ...
3e|... .. . ...|... .. . ...|... .. . ...|... .. . ...|... .. . ...
3f|... .. . ...|... .. . ...|... .. . ...|... .. . ...|... .. . ...
40|... .. . ...|E-4 07 . ...|A#2 00 . ...|E-2 02 . ...|C-3 00 . ...
41|... .. . ...|... .. . ...|... .. . ...|... .. . ...|... .. . ...
42|... .. . ...|... .. . ...|... .. . ...|... .. . ...|... .. . ...
43|... .. . ...|... .. . ...|... .. . ...|... .. . ...|... .. . ...
44|... .. . ...|... .. . ...|... .. . ...|... .. . ...|... .. . ...
45|... .. . ...|... .. . ...|... .. . ...|... .. . ...|... .. . ...
46|... .. . ...|... .. . ...|... .. . ...|... .. . ...|... .. . ...
47|... .. . ...|... .. . ...|... .. . ...|... .. . ...|... .. . ...
48|... .. . ...|... .. . ...|... .. . ...|F#2 02 . ...|... .. . ...
49|... .. . ...|... .. . ...|... .. . ...|... .. . ...|... .. . ...
4a|... .. . ...|... .. . ...|... .. . ...|... .. . ...|... .. . ...
4b|... .. . ...|... .. . ...|... .. . ...|... .. . ...|... .. . ...
4c|... .. . ...|... .. . ...|... .. . ...|... .. . ...|... .. . ...
4d|... .. . ...|... .. . ...|... .. . ...|... .. . ...|... .. . ...
4e|... .. . ...|... .. . ...|... .. . ...|... .. . ...|... .. . ...
4f|... .. . ...|... .. . ...|... .. . ...|... .. . ...|... .. . ...
50|... .. . ...|... .. . ...|... .. . ...|E-2 03 . ...|C#3 00 . ...
51|... .. . ...|... .. . ...|... .. . ...|... .. . ...|... .. . ...
52|... .. . ...|... .. . ...|... .. . ...|... .. . ...|... .. . ...
53|... .. . ...|... .. . ...|... .. . ...|... .. . ...|... .. . ...
54|... .. . ...|... .. . ...|... .. . ...|... .. . ...|... .. . ...
55|... .. . ...|... .. . ...|... .. . ...|... .. . ...|... .. . ...
56|... .. . ...|... .. . ...|... .. . ...|... .. . ...|... .. . ...
57|... .. . ...|... .. . ...|... .. . ...|... .. . ...|... .. . ...
58|... .. . ...|... .. . ...|--- .. . ...|F#2 02 . ...|... .. . ...
59|... .. . ...|... .. . ...|... .. . ...|... .. . ...|... .. . ...
5a|... .. . ...|... .. . ...|... .. . ...|... .. . ...|... .. . ...
5b|... .. . ...|... .. . ...|... .. . ...|... .. . ...|... .. . ...
5c|... .. . ...|... .. . ...|F-2 00 . G04|E-2 02 . ...|C-3 00 . ...
5d|... .. . ...|... .. . ...|... .. . ...|... .. . ...|... .. . ...
5e|... .. . ...|... .. . ...|... .. . S04|... .. . ...|... .. . ...
5f|... .. . ...|... .. . ...|... .. . ...|... .. . ...|... .. . ...
60|... .. . ...|... .. . ...|A-2 00 . ...|E-2 02 . ...|C-3 00 . ...
61|... .. . ...|... .. . ...|A#2 00 . ...|... .. . ...|... .. . ...
62|... .. . ...|... .. . ...|... .. . ...|... .. . ...|... .. . ...
63|... .. . ...|... .. . ...|... .. . ...|... .. . ...|... .. . ...
64|... .. . ...|... .. . ...|E-3 00 . ...|E-2 03 . ...|C#3 00 . ...
65|... .. . ...|... .. . ...|... .. . ...|... .. . ...|... .. . ...
66|... .. . ...|... .. . ...|... .. . ...|... .. . ...|... .. . ...
67|... .. . ...|... .. . ...|... .. . ...|... .. . ...|... .. . ...
68|... .. . ...|... .. . ...|A#2 00 . ...|F#2 02 . ...|... .. . ...
69|... .. . ...|... .. . ...|... .. . ...|... .. . ...|... .. . ...
6a|... .. . ...|... .. . ...|--- .. . ...|... .. . ...|... .. . ...
6b|... .. . ...|... .. . ...|... .. . ...|... .. . ...|... .. . ...
6c|... .. . ...|... .. . ...|F#3 00 . ...|E-2 02 . ...|C-3 00 . ...
6d|... .. . ...|... .. . ...|G-3 00 . ...|... .. . ...|... .. . ...
6e|... .. . ...|... .. . ...|... .. . ...|... .. . ...|... .. . ...
6f|... .. . ...|... .. . ...|... .. . ...|... .. . ...|... .. . ...
70|... .. . ...|... .. . ...|... .. . ...|E-2 03 . ...|C#3 00 . ...
71|... .. . ...|... .. . ...|... .. . ...|... .. . ...|... .. . ...
72|... .. . ...|... .. . ...|... .. . ...|... .. . ...|... .. . ...
73|... .. . ...|... .. . ...|... .. . ...|... .. . ...|... .. . ...
74|... .. . ...|... .. . ...|F-3 00 . ...|F#2 02 . ...|... .. . ...
75|... .. . ...|... .. . ...|... .. . ...|... .. . ...|... .. . ...
76|... .. . ...|... .. . ...|... .. . ...|... .. . ...|... .. . ...
77|... .. . ...|... .. . ...|... .. . ...|... .. . ...|... .. . ...
78|... .. . ...|... .. . ...|... .. . ...|E-2 03 . ...|C#3 00 . ...
79|... .. . ...|... .. . ...|... .. . ...|... .. . ...|... .. . ...
7a|... .. . ...|... .. . ...|... .. . ...|... .. . ...|... .. . ...
7b|... .. . ...|... .. . ...|... .. . ...|... .. . ...|... .. . ...
7c|... .. . ...|... .. . ...|E-3 00 . ...|E-2 03 . ...|C#3 00 . ...
7d|... .. . ...|... .. . ...|... .. . ...|... .. . ...|... .. . ...
7e|... .. . ...|... .. . ...|... .. . ...|... .. . ...|... .. . ...
7f|... .. . ...|... .. . ...|... .. . ...|... .. . ...|... .. . ...

[Frame20]
00|A-2 00 6 Q11|F-4 07 3 V01|A#2 00 . ...|C#2 06 a ...|C-3 00 . F03
01|... .. . ...|... .. . ...|... .. . ...|... .. . ...|... .. . ...
02|... .. . ...|... .. . ...|... .. . ...|... .. . ...|... .. . ...
03|... .. . ...|... .. . ...|... .. . ...|... .. . ...|... .. . ...
04|... .. . ...|... .. . ...|... .. . ...|... .. . ...|... .. . ...
05|... .. . ...|... .. . ...|... .. . ...|... .. . ...|... .. . ...
06|... .. . ...|... .. . ...|... .. . ...|... .. . ...|... .. . ...
07|... .. . ...|... .. . ...|... .. . ...|... .. . ...|... .. . ...
08|... .. . 472|... .. . ...|... .. . ...|F#2 02 . ...|... .. . ...
09|... .. . ...|... .. . ...|... .. . ...|... .. . ...|... .. . ...
0a|... .. . ...|... .. . ...|... .. . ...|... .. . ...|... .. . ...
0b|... .. . ...|... .. . ...|... .. . ...|... .. . ...|... .. . ...
0c|F-3 00 . 400|... .. . ...|... .. . ...|... .. . ...|... .. . ...
0d|... .. . ...|... .. . ...|... .. . ...|... .. . ...|... .. . ...
0e|... .. . ...|... .. . ...|... .. . ...|... .. . ...|... .. . ...
0f|... .. . ...|... .. . ...|... .. . ...|... .. . ...|... .. . ...
10|... .. . ...|... .. . ...|... .. . ...|E-2 03 . ...|C#3 00 . ...
11|... .. . ...|... .. . ...|... .. . ...|... .. . ...|... .. . ...
12|... .. . ...|... .. . ...|... .. . ...|... .. . ...|... .. . ...
13|... .. . ...|... .. . ...|... .. . ...|... .. . ...|... .. . ...
14|... .. . 472|... .. . ...|... .. . ...|... .. . ...|... .. . ...
15|... .. . ...|... .. . ...|... .. . ...|... .. . ...|... .. . ...
16|... .. . ...|... .. . ...|... .. . ...|... .. . ...|... .. . ...
17|... .. . ...|... .. . ...|... .. . ...|... .. . ...|... .. . ...
18|A#2 00 . 400|... .. . ...|--- .. . ...|F#2 02 . ...|... .. . ...
19|... .. . ...|... .. . ...|... .. . ...|... .. . ...|... .. . ...
1a|... .. . ...|... .. . ...|... .. . ...|... .. . ...|... .. . ...
1b|... .. . ...|... .. . ...|... .. . ...|... .. . ...|... .. . ...
1c|... .. 2 ...|... .. . ...|A#2 00 . G04|... .. . ...|... .. . ...
1d|... .. . ...|... .. . ...|... .. . ...|... .. . ...|... .. . ...
1e|... .. . ...|... .. . ...|... .. . S04|... .. . ...|... .. . ...
1f|... .. . ...|... .. . ...|... .. . ...|... .. . ...|... .. . ...
20|C-4 00 6 ...|... .. . ...|A#2 00 . ...|E-2 02 . ...|C-3 00 . ...
21|... .. . ...|... .. . ...|... .. . ...|... .. . ...|... .. . ...
22|... .. . ...|... .. . ...|... .. . ...|... .. . ...|... .. . ...
23|... .. . ...|... .. . ...|... .. . ...|... .. . ...|... .. . ...
24|... .. . ...|... .. . ...|... .. . ...|... .. . ...|... .. . ...
25|... .. . ...|... .. . ...|... .. . ...|... .. . ...|... .. . ...
26|... .. . ...|... .. . ...|... .. . ...|... .. . ...|... .. . ...
27|... .. . ...|... .. . ...|... .. . ...|... .. . ...|... .. . ...
28|... .. . 472|... .. . ...|... .. . ...|F#2 02 . ...|... .. . ...
29|... .. . ...|... .. . ...|... .. . ...|... .. . ...|... .. . ...
2a|... .. . ...|... .. . ...|... .. . ...|... .. . ...|... .. . ...
2b|... .. . ...|... .. . ...|... .. . ...|... .. . ...|... .. . ...
2c|... .. . ...|... .. . ...|... .. . ...|... .. . ...|... .. . ...
2d|... .. . ...|... .. . ...|... .. . ...|... .. . ...|... .. . ...
2e|... .. . ...|... .. . ...|... .. . ...|... .. . ...|... .. . ...
2f|... .. . ...|... .. . ...|... .. . ...|... .. . ...|... .. . ...
30|... .. . ...|... .. . ...|... .. . ...|E-2 03 . ...|C#3 00 . ...
31|... .. . ...|... .. . ...|... .. . ...|... .. . ...|... .. . ...
32|... .. . ...|... .. . ...|... .. . ...|... .. . ...|... .. . ...
33|... .. . ...|... .. . ...|... .. . ...|... .. . ...|... .. . ...
34|... .. 2 ...|... .. . ...|... .. . ...|... .. . ...|... .. . ...
35|... .. . ...|... .. . ...|... .. . ...|... .. . ...|... .. . ...
36|... .. . ...|... .. . ...|... .. . ...|... .. . ...|... .. . ...
37|... .. . ...|... .. . ...|... .. . ...|... .. . ...|... .. . ...
38|A#3 00 6 400|... .. . ...|--- .. . ...|F#2 02 . ...|... .. . ...
39|... .. . ...|... .. . ...|... .. . ...|... .. . ...|... .. . ...
3a|... .. . ...|... .. . ...|... .. . ...|... .. . ...|... .. . ...
3b|... .. . ...|... .. . ...|... .. . ...|... .. . ...|... .. . ...
3c|C-4 00 . ...|... .. . ...|... .. . ...|... .. . ...|... .. . ...
3d|... .. . ...|... .. . ...|... .. . ...|... .. . ...|... .. . ...
3e|A#3 00 . ...|... .. . ...|... .. . ...|... .. . ...|... .. . ...
3f|... .. . ...|... .. . ...|... .. . ...|... .. . ...|... .. . ...
40|A-3 00 . ...|E-4 07 . ...|A#2 00 . ...|E-2 02 . ...|C-3 00 . ...
41|... .. . ...|... .. . ...|... .. . ...|... .. . ...|... .. . ...
42|... .. . ...|... .. . ...|... .. . ...|... .. . ...|... .. . ...
43|... .. . ...|... .. . ...|... .. . ...|... .. . ...|... .. . ...
44|... .. . ...|... .. . ...|... .. . ...|... .. . ...|... .. . ...
45|... .. . ...|... .. . ...|... .. . ...|... .. . ...|... .. . ...
46|... .. . ...|... .. . ...|... .. . ...|... .. . ...|... .. . ...
47|... .. . ...|... .. . ...|... .. . ...|... .. . ...|... .. . ...
48|... .. . ...|... .. . ...|... .. . ...|F#2 02 . ...|... .. . ...
49|... .. . ...|... .. . ...|... .. . ...|... .. . ...|... .. . ...
4a|... .. . ...|... .. . ...|... .. . ...|... .. . ...|... .. . ...
4b|... .. . ...|... .. . ...|... .. . ...|... .. . ...|... .. . ...
4c|... .. . ...|... .. . ...|... .. . ...|... .. . ...|... .. . ...
4d|... .. . ...|... .. . ...|... .. . ...|... .. . ...|... .. . ...
4e|... .. . ...|... .. . ...|... .. . ...|... .. . ...|... .. . ...
4f|... .. . ...|... .. . ...|... .. . ...|... .. . ...|... .. . ...
50|... .. . 472|... .. . ...|... .. . ...|E-2 03 . ...|C#3 00 . ...
51|... .. . ...|... .. . ...|... .. . ...|... .. . ...|... .. . ...
52|... .. . ...|... .. . ...|... .. . ...|... .. . ...|... .. . ...
53|... .. . ...|... .. . ...|... .. . ...|... .. . ...|... .. . ...
54|... .. . ...|... .. . ...|... .. . ...|... .. . ...|... .. . ...
55|... .. . ...|... .. . ...|... .. . ...|... .. . ...|... .. . ...
56|... .. . ...|... .. . ...|... .. . ...|... .. . ...|... .. . ...
57|... .. . ...|... .. . ...|... .. . ...|... .. . ...|... .. . ...
58|... .. . ...|... .. . ...|--- .. . ...|F#2 02 . ...|... .. . ...
59|... .. . ...|... .. . ...|... .. . ...|... .. . ...|... .. . ...
5a|... .. . ...|... .. . ...|... .. . ...|... .. . ...|... .. . ...
5b|... .. . ...|... .. . ...|... .. . ...|... .. . ...|... .. . ...
5c|... .. . ...|... .. . ...|A#2 00 . G04|E-2 02 . ...|C-3 00 . ...
5d|... .. . ...|... .. . ...|... .. . ...|... .. . ...|... .. . ...
5e|... .. . ...|... .. . ...|... .. . S04|... .. . ...|... .. . ...
5f|... .. . ...|... .. . ...|... .. . ...|... .. . ...|... .. . ...
60|... .. 5 ...|... .. . ...|A-2 00 . ...|E-2 02 . ...|C-3 00 . ...
61|... .. . ...|... .. . ...|A#2 00 . ...|... .. . ...|... .. . ...
62|... .. . ...|... .. . ...|... .. . ...|... .. . ...|... .. . ...
63|... .. . ...|... .. . ...|... .. . ...|... .. . ...|... .. . ...
64|... .. . ...|... .. . ...|E-3 00 . ...|E-2 03 . ...|C#3 00 . ...
65|... .. . ...|... .. . ...|... .. . ...|... .. . ...|... .. . ...
66|... .. . ...|... .. . ...|... .. . ...|... .. . ...|... .. . ...
67|... .. . ...|... .. . ...|... .. . ...|... .. . ...|... .. . ...
68|... .. 4 ...|... .. . ...|A#2 00 . ...|F#2 02 . ...|... .. . ...
69|... .. . ...|... .. . ...|... .. . ...|... .. . ...|... .. . ...
6a|... .. . ...|... .. . ...|--- .. . ...|... .. . ...|... .. . ...
6b|... .. . ...|... .. . ...|... .. . ...|... .. . ...|... .. . ...
6c|... .. . ...|... .. . ...|E-3 00 . ...|E-2 02 . ...|C-3 00 . ...
6d|... .. . ...|... .. . ...|F-3 00 . ...|... .. . ...|... .. . ...
6e|... .. . ...|... .. . ...|... .. . ...|... .. . ...|... .. . ...
6f|... .. . ...|... .. . ...|... .. . ...|... .. . ...|... .. . ...
70|... .. 3 ...|... .. . ...|... .. . ...|E-2 03 . ...|C#3 00 . ...
71|... .. . ...|... .. . ...|... .. . ...|... .. . ...|... .. . ...
72|... .. . ...|... .. . ...|... .. . ...|... .. . ...|... .. . ...
73|... .. . ...|... .. . ...|... .. . ...|... .. . ...|... .. . ...
74|... .. . ...|... .. . ...|E-3 00 . ...|F#2 02 . ...|... .. . ...
75|... .. . ...|... .. . ...|... .. . ...|... .. . ...|... .. . ...
76|... .. . ...|... .. . ...|... .. . ...|... .. . ...|... .. . ...
77|... .. . ...|... .. . ...|... .. . ...|... .. . ...|... .. . ...
78|... .. 2 ...|... .. . ...|C-3 00 . ...|E-2 03 . ...|C#3 00 . ...
79|... .. . ...|... .. . ...|... .. . ...|... .. . ...|... .. . ...
7a|... .. . ...|... .. . ...|... .. . ...|... .. . ...|... .. . ...
7b|... .. . ...|... .. . ...|... .. . ...|... .. . ...|... .. . ...
7c|... .. 1 ...|... .. . ...|A-2 00 . ...|E-2 03 . ...|C#3 00 . ...
7d|... .. . ...|... .. . ...|... .. . ...|... .. . ...|... .. . ...
7e|... .. . ...|... .. . ...|... .. . ...|... .. . ...|... .. . ...
7f|... .. . ...|... .. . ...|... .. . ...|... .. . ...|... .. . ...

[Frame21]
00|A-2 00 6 Q11|F-4 07 3 V01|A#2 00 . ...|C#2 06 a ...|C-3 00 . F03
01|... .. . ...|... .. . ...|... .. . ...|... .. . ...|... .. . ...
02|... .. . ...|... .. . ...|... .. . ...|... .. . ...|... .. . ...
03|... .. . ...|... .. . ...|... .. . ...|... .. . ...|... .. . ...
04|... .. . ...|... .. . ...|... .. . ...|... .. . ...|... .. . ...
05|... .. . ...|... .. . ...|... .. . ...|... .. . ...|... .. . ...
06|... .. . ...|... .. . ...|... .. . ...|... .. . ...|... .. . ...
07|... .. . ...|... .. . ...|... .. . ...|... .. . ...|... .. . ...
08|... .. . 472|... .. . ...|... .. . ...|F#2 02 . ...|... .. . ...
09|... .. . ...|... .. . ...|... .. . ...|... .. . ...|... .. . ...
0a|... .. . ...|... .. . ...|... .. . ...|... .. . ...|... .. . ...
0b|... .. . ...|... .. . ...|... .. . ...|... .. . ...|... .. . ...
0c|F-3 00 . 400|... .. . ...|... .. . ...|... .. . ...|... .. . ...
0d|... .. . ...|... .. . ...|... .. . ...|... .. . ...|... .. . ...
0e|... .. . ...|... .. . ...|... .. . ...|... .. . ...|... .. . ...
0f|... .. . ...|... .. . ...|... .. . ...|... .. . ...|... .. . ...
10|... .. . ...|... .. . ...|... .. . ...|E-2 03 . ...|C#3 00 . ...
11|... .. . ...|... .. . ...|... .. . ...|... .. . ...|... .. . ...
12|... .. . ...|... .. . ...|... .. . ...|... .. . ...|... .. . ...
13|... .. . ...|... .. . ...|... .. . ...|... .. . ...|... .. . ...
14|... .. . 472|... .. . ...|... .. . ...|... .. . ...|... .. . ...
15|... .. . ...|... .. . ...|... .. . ...|... .. . ...|... .. . ...
16|... .. . ...|... .. . ...|... .. . ...|... .. . ...|... .. . ...
17|... .. . ...|... .. . ...|... .. . ...|... .. . ...|... .. . ...
18|A#2 00 . 400|... .. . ...|--- .. . ...|F#2 02 . ...|... .. . ...
19|... .. . ...|... .. . ...|... .. . ...|... .. . ...|... .. . ...
1a|... .. . ...|... .. . ...|... .. . ...|... .. . ...|... .. . ...
1b|... .. . ...|... .. . ...|... .. . ...|... .. . ...|... .. . ...
1c|... .. 2 ...|... .. . ...|A#2 00 . G04|... .. . ...|... .. . ...
1d|... .. . ...|... .. . ...|... .. . ...|... .. . ...|... .. . ...
1e|... .. . ...|... .. . ...|... .. . S04|... .. . ...|... .. . ...
1f|... .. . ...|... .. . ...|... .. . ...|... .. . ...|... .. . ...
20|C-4 00 6 ...|... .. . ...|A#2 00 . ...|E-2 02 . ...|C-3 00 . ...
21|... .. . ...|... .. . ...|... .. . ...|... .. . ...|... .. . ...
22|... .. . ...|... .. . ...|... .. . ...|... .. . ...|... .. . ...
23|... .. . ...|... .. . ...|... .. . ...|... .. . ...|... .. . ...
24|... .. . ...|... .. . ...|... .. . ...|... .. . ...|... .. . ...
25|... .. . ...|... .. . ...|... .. . ...|... .. . ...|... .. . ...
26|... .. . ...|... .. . ...|... .. . ...|... .. . ...|... .. . ...
27|... .. . ...|... .. . ...|... .. . ...|... .. . ...|... .. . ...
28|... .. . 472|... .. . ...|... .. . ...|F#2 02 . ...|... .. . ...
29|... .. . ...|... .. . ...|... .. . ...|... .. . ...|... .. . ...
2a|... .. . ...|... .. . ...|... .. . ...|... .. . ...|... .. . ...
2b|... .. . ...|... .. . ...|... .. . ...|... .. . ...|... .. . ...
2c|... .. . ...|... .. . ...|... .. . ...|... .. . ...|... .. . ...
2d|... .. . ...|... .. . ...|... .. . ...|... .. . ...|... .. . ...
2e|... .. . ...|... .. . ...|... .. . ...|... .. . ...|... .. . ...
2f|... .. . ...|... .. . ...|... .. . ...|... .. . ...|... .. . ...
30|... .. . ...|... .. . ...|... .. . ...|E-2 03 . ...|C#3 00 . ...
31|... .. . ...|... .. . ...|... .. . ...|... .. . ...|... .. . ...
32|... .. . ...|... .. . ...|... .. . ...|... .. . ...|... .. . ...
33|... .. . ...|... .. . ...|... .. . ...|... .. . ...|... .. . ...
34|... .. 2 ...|... .. . ...|... .. . ...|... .. . ...|... .. . ...
35|... .. . ...|... .. . ...|... .. . ...|... .. . ...|... .. . ...
36|... .. . ...|... .. . ...|... .. . ...|... .. . ...|... .. . ...
37|... .. . ...|... .. . ...|... .. . ...|... .. . ...|... .. . ...
38|C-4 00 6 400|... .. . ...|--- .. . ...|F#2 02 . ...|... .. . ...
39|... .. . ...|... .. . ...|... .. . ...|... .. . ...|... .. . ...
3a|... .. . ...|... .. . ...|... .. . ...|... .. . ...|... .. . ...
3b|... .. . ...|... .. . ...|... .. . ...|... .. . ...|... .. . ...
3c|... .. . Q22|... .. . ...|... .. . ...|... .. . ...|... .. . ...
3d|... .. . ...|... .. . ...|... .. . ...|... .. . ...|... .. . ...
3e|... .. . ...|... .. . ...|... .. . ...|... .. . ...|... .. . ...
3f|... .. . ...|... .. . ...|... .. . ...|... .. . ...|... .. . ...
40|A-3 00 . ...|E-4 07 . ...|A#2 00 . ...|E-2 02 . ...|C-3 00 . ...
41|... .. . ...|... .. . ...|... .. . ...|... .. . ...|... .. . ...
42|... .. . ...|... .. . ...|... .. . ...|... .. . ...|... .. . ...
43|... .. . ...|... .. . ...|... .. . ...|... .. . ...|... .. . ...
44|... .. . ...|... .. . ...|... .. . ...|... .. . ...|... .. . ...
45|... .. . ...|... .. . ...|... .. . ...|... .. . ...|... .. . ...
46|... .. . ...|... .. . ...|... .. . ...|... .. . ...|... .. . ...
47|... .. . ...|... .. . ...|... .. . ...|... .. . ...|... .. . ...
48|... .. . ...|... .. . ...|... .. . ...|F#2 02 . ...|... .. . ...
49|... .. . ...|... .. . ...|... .. . ...|... .. . ...|... .. . ...
4a|... .. . ...|... .. . ...|... .. . ...|... .. . ...|... .. . ...
4b|... .. . ...|... .. . ...|... .. . ...|... .. . ...|... .. . ...
4c|... .. . ...|... .. . ...|... .. . ...|... .. . ...|... .. . ...
4d|... .. . ...|... .. . ...|... .. . ...|... .. . ...|... .. . ...
4e|... .. . ...|... .. . ...|... .. . ...|... .. . ...|... .. . ...
4f|... .. . ...|... .. . ...|... .. . ...|... .. . ...|... .. . ...
50|... .. . 472|... .. . ...|... .. . ...|E-2 03 . ...|C#3 00 . ...
51|... .. . ...|... .. . ...|... .. . ...|... .. . ...|... .. . ...
52|... .. . ...|... .. . ...|... .. . ...|... .. . ...|... .. . ...
53|... .. . ...|... .. . ...|... .. . ...|... .. . ...|... .. . ...
54|... .. . ...|... .. . ...|... .. . ...|... .. . ...|... .. . ...
55|... .. . ...|... .. . ...|... .. . ...|... .. . ...|... .. . ...
56|... .. . ...|... .. . ...|... .. . ...|... .. . ...|... .. . ...
57|... .. . ...|... .. . ...|... .. . ...|... .. . ...|... .. . ...
58|... .. . ...|... .. . ...|--- .. . ...|F#2 02 . ...|... .. . ...
59|... .. . ...|... .. . ...|... .. . ...|... .. . ...|... .. . ...
5a|... .. . ...|... .. . ...|... .. . ...|... .. . ...|... .. . ...
5b|... .. . ...|... .. . ...|... .. . ...|... .. . ...|... .. . ...
5c|... .. . ...|... .. . ...|F-2 00 . G04|E-2 02 . ...|C-3 00 . ...
5d|... .. . ...|... .. . ...|... .. . ...|... .. . ...|... .. . ...
5e|... .. . ...|... .. . ...|... .. . S04|... .. . ...|... .. . ...
5f|... .. . ...|... .. . ...|... .. . ...|... .. . ...|... .. . ...
60|... .. 5 ...|... .. . ...|A-2 00 . ...|E-2 02 . ...|C-3 00 . ...
61|... .. . ...|... .. . ...|A#2 00 . ...|... .. . ...|... .. . ...
62|... .. . ...|... .. . ...|... .. . ...|... .. . ...|... .. . ...
63|... .. . ...|... .. . ...|... .. . ...|... .. . ...|... .. . ...
64|... .. . ...|... .. . ...|E-3 00 . ...|E-2 03 . ...|C#3 00 . ...
65|... .. . ...|... .. . ...|... .. . ...|... .. . ...|... .. . ...
66|... .. . ...|... .. . ...|... .. . ...|... .. . ...|... .. . ...
67|... .. . ...|... .. . ...|... .. . ...|... .. . ...|... .. . ...
68|... .. 4 ...|... .. . ...|A#2 00 . ...|F#2 02 . ...|... .. . ...
69|... .. . ...|... .. . ...|... .. . ...|... .. . ...|... .. . ...
6a|... .. . ...|... .. . ...|--- .. . ...|... .. . ...|... .. . ...
6b|... .. . ...|... .. . ...|... .. . ...|... .. . ...|... .. . ...
6c|... .. . ...|... .. . ...|F#3 00 . ...|E-2 02 . ...|C-3 00 . ...
6d|... .. . ...|... .. . ...|G-3 00 . ...|... .. . ...|... .. . ...
6e|... .. . ...|... .. . ...|... .. . ...|... .. . ...|... .. . ...
6f|... .. . ...|... .. . ...|... .. . ...|... .. . ...|... .. . ...
70|... .. 3 ...|... .. . ...|... .. . ...|E-2 03 . ...|C#3 00 . ...
71|... .. . ...|... .. . ...|... .. . ...|... .. . ...|... .. . ...
72|... .. . ...|... .. . ...|... .. . ...|... .. . ...|... .. . ...
73|... .. . ...|... .. . ...|... .. . ...|... .. . ...|... .. . ...
74|... .. . ...|... .. . ...|F-3 00 . ...|F#2 02 . ...|... .. . ...
75|... .. . ...|... .. . ...|... .. . ...|... .. . ...|... .. . ...
76|... .. . ...|... .. . ...|... .. . ...|... .. . ...|... .. . ...
77|... .. . ...|... .. . ...|... .. . ...|... .. . ...|... .. . ...
78|... .. 2 ...|... .. . ...|... .. . ...|E-2 03 . ...|C#3 00 . ...
79|... .. . ...|... .. . ...|... .. . ...|... .. . ...|... .. . ...
7a|... .. . ...|... .. . ...|... .. . ...|... .. . ...|... .. . ...
7b|... .. . ...|... .. . ...|... .. . ...|... .. . ...|... .. . ...
7c|... .. 1 ...|... .. . ...|E-3 00 . ...|E-2 03 . ...|C#3 00 . ...
7d|... .. . ...|... .. . ...|... .. . ...|... .. . ...|... .. . ...
7e|... .. . ...|... .. . ...|... .. . ...|... .. . ...|... .. . ...
7f|... .. . ...|... .. . ...|... .. . ...|... .. . ...|... .. . ...

[Frame22]
00|C#3 00 6 Q11|G-4 07 3 V01|D-3 00 . ...|C#2 06 a ...|C-3 00 . F03
01|... .. . ...|... .. . ...|... .. . ...|... .. . ...|... .. . ...
02|... .. . ...|... .. . ...|... .. . ...|... .. . ...|... .. . ...
03|... .. . ...|... .. . ...|... .. . ...|... .. . ...|... .. . ...
04|... .. . ...|... .. . ...|... .. . ...|... .. . ...|... .. . ...
05|... .. . ...|... .. . ...|... .. . ...|... .. . ...|... .. . ...
06|... .. . ...|... .. . ...|... .. . ...|... .. . ...|... .. . ...
07|... .. . ...|... .. . ...|... .. . ...|... .. . ...|... .. . ...
08|... .. . 472|... .. . ...|... .. . ...|F#2 02 . ...|... .. . ...
09|... .. . ...|... .. . ...|... .. . ...|... .. . ...|... .. . ...
0a|... .. . ...|... .. . ...|... .. . ...|... .. . ...|... .. . ...
0b|... .. . ...|... .. . ...|... .. . ...|... .. . ...|... .. . ...
0c|A-3 00 . 400|... .. . ...|... .. . ...|... .. . ...|... .. . ...
0d|... .. . ...|... .. . ...|... .. . ...|... .. . ...|... .. . ...
0e|... .. . ...|... .. . ...|... .. . ...|... .. . ...|... .. . ...
0f|... .. . ...|... .. . ...|... .. . ...|... .. . ...|... .. . ...
10|... .. . ...|... .. . ...|... .. . ...|E-2 03 . ...|C#3 00 . ...
11|... .. . ...|... .. . ...|... .. . ...|... .. . ...|... .. . ...
12|... .. . ...|... .. . ...|... .. . ...|... .. . ...|... .. . ...
13|... .. . ...|... .. . ...|... .. . ...|... .. . ...|... .. . ...
14|... .. . 472|... .. . ...|... .. . ...|... .. . ...|... .. . ...
15|... .. . ...|... .. . ...|... .. . ...|... .. . ...|... .. . ...
16|... .. . ...|... .. . ...|... .. . ...|... .. . ...|... .. . ...
17|... .. . ...|... .. . ...|... .. . ...|... .. . ...|... .. . ...
18|F-3 00 . 400|... .. . ...|--- .. . ...|F#2 02 . ...|... .. . ...
19|... .. . ...|... .. . ...|... .. . ...|... .. . ...|... .. . ...
1a|... .. . ...|... .. . ...|... .. . ...|... .. . ...|... .. . ...
1b|... .. . ...|... .. . ...|... .. . ...|... .. . ...|... .. . ...
1c|... .. 2 ...|... .. . ...|D-3 00 . G04|... .. . ...|... .. . ...
1d|... .. . ...|... .. . ...|... .. . ...|... .. . ...|... .. . ...
1e|... .. . ...|... .. . ...|... .. . S04|... .. . ...|... .. . ...
1f|... .. . ...|... .. . ...|... .. . ...|... .. . ...|... .. . ...
20|D-4 00 6 Q22|... .. . ...|D-3 00 . ...|E-2 02 . ...|C-3 00 . ...
21|... .. . ...|... .. . ...|... .. . ...|... .. . ...|... .. . ...
22|... .. . ...|... .. . ...|... .. . ...|... .. . ...|... .. . ...
23|... .. . ...|... .. . ...|... .. . ...|... .. . ...|... .. . ...
24|... .. . ...|... .. . ...|... .. . ...|... .. . ...|... .. . ...
25|... .. . ...|... .. . ...|... .. . ...|... .. . ...|... .. . ...
26|... .. . ...|... .. . ...|... .. . ...|... .. . ...|... .. . ...
27|... .. . ...|... .. . ...|... .. . ...|... .. . ...|... .. . ...
28|... .. . 472|... .. . ...|... .. . ...|F#2 02 . ...|... .. . ...
29|... .. . ...|... .. . ...|... .. . ...|... .. . ...|... .. . ...
2a|... .. . ...|... .. . ...|... .. . ...|... .. . ...|... .. . ...
2b|... .. . ...|... .. . ...|... .. . ...|... .. . ...|... .. . ...
2c|... .. . ...|... .. . ...|... .. . ...|... .. . ...|... .. . ...
2d|... .. . ...|... .. . ...|... .. . ...|... .. . ...|... .. . ...
2e|... .. . ...|... .. . ...|... .. . ...|... .. . ...|... .. . ...
2f|... .. . ...|... .. . ...|... .. . ...|... .. . ...|... .. . ...
30|... .. . ...|... .. . ...|... .. . ...|E-2 03 . ...|C#3 00 . ...
31|... .. . ...|... .. . ...|... .. . ...|... .. . ...|... .. . ...
32|... .. . ...|... .. . ...|... .. . ...|... .. . ...|... .. . ...
33|... .. . ...|... .. . ...|... .. . ...|... .. . ...|... .. . ...
34|... .. . ...|... .. . ...|--- .. . ...|... .. . ...|... .. . ...
35|... .. . ...|... .. . ...|... .. . ...|... .. . ...|... .. . ...
36|... .. . ...|... .. . ...|... .. . ...|... .. . ...|... .. . ...
37|... .. . ...|... .. . ...|... .. . ...|... .. . ...|... .. . ...
38|F-4 00 . 400|... .. . ...|A-2 00 . ...|F#2 02 . ...|... .. . ...
39|... .. . ...|... .. . ...|... .. . ...|... .. . ...|... .. . ...
3a|... .. . ...|... .. . ...|... .. . ...|... .. . ...|... .. . ...
3b|... .. . ...|... .. . ...|... .. . ...|... .. . ...|... .. . ...
3c|... .. . ...|... .. . ...|--- .. . ...|... .. . ...|... .. . ...
3d|... .. . ...|... .. . ...|... .. . ...|... .. . ...|... .. . ...
3e|... .. . ...|... .. . ...|... .. . ...|... .. . ...|... .. . ...
3f|... .. . ...|... .. . ...|... .. . ...|... .. . ...|... .. . ...
40|E-4 00 . ...|F-4 07 . ...|D-3 00 . ...|E-2 02 . ...|C-3 00 . ...
41|... .. . ...|... .. . ...|... .. . ...|... .. . ...|... .. . ...
42|... .. . ...|... .. . ...|... .. . ...|... .. . ...|... .. . ...
43|... .. . ...|... .. . ...|... .. . ...|... .. . ...|... .. . ...
44|... .. . ...|... .. . ...|... .. . ...|... .. . ...|... .. . ...
45|... .. . ...|... .. . ...|... .. . ...|... .. . ...|... .. . ...
46|... .. . ...|... .. . ...|... .. . ...|... .. . ...|... .. . ...
47|... .. . ...|... .. . ...|... .. . ...|... .. . ...|... .. . ...
48|... .. . ...|... .. . ...|... .. . ...|F#2 02 . ...|... .. . ...
49|... .. . ...|... .. . ...|... .. . ...|... .. . ...|... .. . ...
4a|... .. . ...|... .. . ...|... .. . ...|... .. . ...|... .. . ...
4b|... .. . ...|... .. . ...|... .. . ...|... .. . ...|... .. . ...
4c|... .. . ...|... .. . ...|... .. . ...|... .. . ...|... .. . ...
4d|... .. . ...|... .. . ...|... .. . ...|... .. . ...|... .. . ...
4e|... .. . ...|... .. . ...|... .. . ...|... .. . ...|... .. . ...
4f|... .. . ...|... .. . ...|... .. . ...|... .. . ...|... .. . ...
50|... .. . 472|D-6 04 5 ...|... .. . ...|E-2 03 . ...|C#3 00 . ...
51|... .. . ...|A-5 04 . ...|... .. . ...|... .. . ...|... .. . ...
52|... .. . ...|F-5 04 . ...|... .. . ...|... .. . ...|... .. . ...
53|... .. . ...|A-5 04 . ...|... .. . ...|... .. . ...|... .. . ...
54|... .. . ...|F-5 04 . ...|... .. . ...|... .. . ...|... .. . ...
55|... .. . ...|D-5 04 . ...|... .. . ...|... .. . ...|... .. . ...
56|... .. . ...|F-5 04 . ...|... .. . ...|... .. . ...|... .. . ...
57|... .. . ...|D-5 04 . ...|... .. . ...|... .. . ...|... .. . ...
58|... .. . ...|A-4 04 . ...|--- .. . ...|F#2 02 . ...|... .. . ...
59|... .. . ...|D-5 04 . ...|... .. . ...|... .. . ...|... .. . ...
5a|... .. . ...|A-4 04 . ...|... .. . ...|... .. . ...|... .. . ...
5b|... .. . ...|F-4 04 . ...|... .. . ...|... .. . ...|... .. . ...
5c|... .. . ...|A-4 04 . ...|A-2 00 . G04|E-2 02 . ...|C-3 00 . ...
5d|... .. . ...|F-4 04 . ...|... .. . ...|... .. . ...|... .. . ...
5e|... .. . ...|D-4 04 . ...|... .. . S04|... .. . ...|... .. . ...
5f|... .. . ...|F-4 04 . ...|... .. . ...|... .. . ...|... .. . ...
60|... .. 5 ...|D-4 04 . ...|G#3 00 . ...|E-2 02 . ...|C-3 00 . ...
61|... .. . ...|A-3 04 . ...|A-3 00 . ...|... .. . ...|... .. . ...
62|... .. . ...|D-4 04 . ...|... .. . ...|... .. . ...|... .. . ...
63|... .. . ...|A-3 04 . ...|... .. . ...|... .. . ...|... .. . ...
64|... .. . ...|F-3 04 . ...|G-3 00 . ...|E-2 03 . ...|C#3 00 . ...
65|... .. . ...|A-3 04 . ...|... .. . ...|... .. . ...|... .. . ...
66|... .. . ...|F-3 04 . ...|... .. . ...|... .. . ...|... .. . ...
67|... .. . ...|D-3 04 . ...|... .. . ...|... .. . ...|... .. . ...
68|... .. 4 ...|F-3 04 . ...|F-3 00 . ...|F#2 02 . ...|... .. . ...
69|... .. . ...|D-3 04 . ...|... .. . ...|... .. . ...|... .. . ...
6a|... .. . ...|A-2 04 . ...|--- .. . ...|... .. . ...|... .. . ...
6b|... .. . ...|D-3 04 . ...|... .. . ...|... .. . ...|... .. . ...
6c|... .. . ...|A-2 04 . ...|G-3 00 . ...|E-2 02 . ...|C-3 00 . ...
6d|... .. . ...|F-2 04 . ...|... .. . ...|... .. . ...|... .. . ...
6e|... .. . ...|A-2 04 . ...|... .. . ...|... .. . ...|... .. . ...
6f|... .. . ...|F-2 04 . ...|... .. . ...|... .. . ...|... .. . ...
70|... .. 3 ...|D-2 04 . ...|... .. . ...|E-2 03 . ...|C#3 00 . ...
71|... .. . ...|F-2 04 . ...|... .. . ...|... .. . ...|... .. . ...
72|... .. . ...|D-2 04 . ...|--- .. . ...|... .. . ...|... .. . ...
73|... .. . ...|A-1 04 . ...|... .. . ...|... .. . ...|... .. . ...
74|... .. . ...|D-2 04 . ...|G#3 00 . ...|F#2 02 . ...|... .. . ...
75|... .. . ...|A-1 04 . ...|A-3 00 . ...|... .. . ...|... .. . ...
76|... .. . ...|F-1 04 . ...|... .. . ...|... .. . ...|... .. . ...
77|... .. . ...|A-1 04 . ...|... .. . ...|... .. . ...|... .. . ...
78|... .. 2 ...|F-1 04 . ...|F-3 00 . ...|E-2 03 . ...|C#3 00 . ...
79|... .. . ...|D-1 04 . ...|... .. . ...|... .. . ...|... .. . ...
7a|... .. . ...|F-1 04 . ...|--- .. . ...|... .. . ...|... .. . ...
7b|... .. . ...|D-1 04 . ...|... .. . ...|... .. . ...|... .. . ...
7c|... .. 1 ...|A-0 04 . ...|E-3 00 . ...|E-2 03 . ...|C#3 00 . ...
7d|... .. . ...|D-1 04 . ...|... .. . ...|... .. . ...|... .. . ...
7e|... .. . ...|A-0 04 . ...|--- .. . ...|... .. . ...|... .. . ...
7f|... .. . ...|D-1 04 . ...|... .. . ...|... .. . ...|... .. . ...

[Frame23]
00|C#3 00 6 Q11|G-4 07 3 V01|D-3 00 . ...|C#2 06 a ...|C-3 00 . F03
01|... .. . ...|... .. . ...|... .. . ...|... .. . ...|... .. . ...
02|... .. . ...|... .. . ...|... .. . ...|... .. . ...|... .. . ...
03|... .. . ...|... .. . ...|... .. . ...|... .. . ...|... .. . ...
04|... .. . ...|... .. . ...|... .. . ...|... .. . ...|... .. . ...
05|... .. . ...|... .. . ...|... .. . ...|... .. . ...|... .. . ...
06|... .. . ...|... .. . ...|... .. . ...|... .. . ...|... .. . ...
07|... .. . ...|... .. . ...|... .. . ...|... .. . ...|... .. . ...
08|... .. . 472|... .. . ...|... .. . ...|F#2 02 . ...|... .. . ...
09|... .. . ...|... .. . ...|... .. . ...|... .. . ...|... .. . ...
0a|... .. . ...|... .. . ...|... .. . ...|... .. . ...|... .. . ...
0b|... .. . ...|... .. . ...|... .. . ...|... .. . ...|... .. . ...
0c|A-3 00 . 400|... .. . ...|... .. . ...|... .. . ...|... .. . ...
0d|... .. . ...|... .. . ...|... .. . ...|... .. . ...|... .. . ...
0e|... .. . ...|... .. . ...|... .. . ...|... .. . ...|... .. . ...
0f|... .. . ...|... .. . ...|... .. . ...|... .. . ...|... .. . ...
10|... .. . ...|... .. . ...|... .. . ...|E-2 03 . ...|C#3 00 . ...
11|... .. . ...|... .. . ...|... .. . ...|... .. . ...|... .. . ...
12|... .. . ...|... .. . ...|... .. . ...|... .. . ...|... .. . ...
13|... .. . ...|... .. . ...|... .. . ...|... .. . ...|... .. . ...
14|... .. . 472|... .. . ...|... .. . ...|... .. . ...|... .. . ...
15|... .. . ...|... .. . ...|... .. . ...|... .. . ...|... .. . ...
16|... .. . ...|... .. . ...|... .. . ...|... .. . ...|... .. . ...
17|... .. . ...|... .. . ...|... .. . ...|... .. . ...|... .. . ...
18|F-3 00 . 400|... .. . ...|--- .. . ...|F#2 02 . ...|... .. . ...
19|... .. . ...|... .. . ...|... .. . ...|... .. . ...|... .. . ...
1a|... .. . ...|... .. . ...|... .. . ...|... .. . ...|... .. . ...
1b|... .. . ...|... .. . ...|... .. . ...|... .. . ...|... .. . ...
1c|... .. 2 ...|... .. . ...|D-3 00 . G04|... .. . ...|... .. . ...
1d|... .. . ...|... .. . ...|... .. . ...|... .. . ...|... .. . ...
1e|... .. . ...|... .. . ...|... .. . S04|... .. . ...|... .. . ...
1f|... .. . ...|... .. . ...|... .. . ...|... .. . ...|... .. . ...
20|F-4 00 6 Q22|... .. . ...|D-3 00 . ...|E-2 02 . ...|C-3 00 . ...
21|... .. . ...|... .. . ...|... .. . ...|... .. . ...|... .. . ...
22|... .. . ...|... .. . ...|... .. . ...|... .. . ...|... .. . ...
23|... .. . ...|... .. . ...|... .. . ...|... .. . ...|... .. . ...
24|... .. . ...|... .. . ...|... .. . ...|... .. . ...|... .. . ...
25|... .. . ...|... .. . ...|... .. . ...|... .. . ...|... .. . ...
26|... .. . ...|... .. . ...|... .. . ...|... .. . ...|... .. . ...
27|... .. . ...|... .. . ...|... .. . ...|... .. . ...|... .. . ...
28|... .. . 472|... .. . ...|... .. . ...|F#2 02 . ...|... .. . ...
29|... .. . ...|... .. . ...|... .. . ...|... .. . ...|... .. . ...
2a|... .. . ...|... .. . ...|... .. . ...|... .. . ...|... .. . ...
2b|... .. . ...|... .. . ...|... .. . ...|... .. . ...|... .. . ...
2c|... .. . ...|... .. . ...|... .. . ...|... .. . ...|... .. . ...
2d|... .. . ...|... .. . ...|... .. . ...|... .. . ...|... .. . ...
2e|... .. . ...|... .. . ...|... .. . ...|... .. . ...|... .. . ...
2f|... .. . ...|... .. . ...|... .. . ...|... .. . ...|... .. . ...
30|... .. . ...|... .. . ...|... .. . ...|E-2 03 . ...|C#3 00 . ...
31|... .. . ...|... .. . ...|... .. . ...|... .. . ...|... .. . ...
32|... .. . ...|... .. . ...|... .. . ...|... .. . ...|... .. . ...
33|... .. . ...|... .. . ...|... .. . ...|... .. . ...|... .. . ...
34|... .. . ...|... .. . ...|--- .. . ...|... .. . ...|... .. . ...
35|... .. . ...|... .. . ...|... .. . ...|... .. . ...|... .. . ...
36|... .. . ...|... .. . ...|... .. . ...|... .. . ...|... .. . ...
37|... .. . ...|... .. . ...|... .. . ...|... .. . ...|... .. . ...
38|F-4 00 . 400|... .. . ...|A-2 00 . ...|F#2 02 . ...|... .. . ...
39|... .. . ...|... .. . ...|... .. . ...|... .. . ...|... .. . ...
3a|... .. . ...|... .. . ...|... .. . ...|... .. . ...|... .. . ...
3b|... .. . ...|... .. . ...|... .. . ...|... .. . ...|... .. . ...
3c|G-4 00 . ...|... .. . ...|--- .. . ...|... .. . ...|... .. . ...
3d|... .. . ...|... .. . ...|... .. . ...|... .. . ...|... .. . ...
3e|F-4 00 . ...|... .. . ...|... .. . ...|... .. . ...|... .. . ...
3f|... .. . ...|... .. . ...|... .. . ...|... .. . ...|... .. . ...
40|D-4 00 . ...|F-4 07 . ...|D-3 00 . ...|E-2 02 . ...|C-3 00 . ...
41|... .. . ...|... .. . ...|... .. . ...|... .. . ...|... .. . ...
42|... .. . ...|... .. . ...|... .. . ...|... .. . ...|... .. . ...
43|... .. . ...|... .. . ...|... .. . ...|... .. . ...|... .. . ...
44|... .. . ...|... .. . ...|... .. . ...|... .. . ...|... .. . ...
45|... .. . ...|... .. . ...|... .. . ...|... .. . ...|... .. . ...
46|... .. . ...|... .. . ...|... .. . ...|... .. . ...|... .. . ...
47|... .. . ...|... .. . ...|... .. . ...|... .. . ...|... .. . ...
48|... .. . ...|... .. . ...|... .. . ...|F#2 02 . ...|... .. . ...
49|... .. . ...|... .. . ...|... .. . ...|... .. . ...|... .. . ...
4a|... .. . ...|... .. . ...|... .. . ...|... .. . ...|... .. . ...
4b|... .. . ...|... .. . ...|... .. . ...|... .. . ...|... .. . ...
4c|... .. . ...|... .. . ...|... .. . ...|... .. . ...|... .. . ...
4d|... .. . ...|... .. . ...|... .. . ...|... .. . ...|... .. . ...
4e|... .. . ...|... .. . ...|... .. . ...|... .. . ...|... .. . ...
4f|... .. . ...|... .. . ...|... .. . ...|... .. . ...|... .. . ...
50|... .. . 472|D-6 04 5 ...|... .. . ...|E-2 03 . ...|C#3 00 . ...
51|... .. . ...|A-5 04 . ...|... .. . ...|... .. . ...|... .. . ...
52|... .. . ...|F-5 04 . ...|... .. . ...|... .. . ...|... .. . ...
53|... .. . ...|A-5 04 . ...|... .. . ...|... .. . ...|... .. . ...
54|... .. . ...|F-5 04 . ...|... .. . ...|... .. . ...|... .. . ...
55|... .. . ...|D-5 04 . ...|... .. . ...|... .. . ...|... .. . ...
56|... .. . ...|F-5 04 . ...|... .. . ...|... .. . ...|... .. . ...
57|... .. . ...|D-5 04 . ...|... .. . ...|... .. . ...|... .. . ...
58|... .. . ...|A-4 04 . ...|--- .. . ...|F#2 02 . ...|D-3 00 . ...
59|... .. . ...|D-5 04 . ...|... .. . ...|... .. . ...|... .. . ...
5a|... .. . ...|A-4 04 . ...|... .. . ...|... .. . ...|... .. . ...
5b|... .. . ...|F-4 04 . ...|... .. . ...|... .. . ...|... .. . ...
5c|... .. . ...|A-4 04 . ...|A-2 00 . G04|F#2 02 . ...|D-3 00 . ...
5d|... .. . ...|F-4 04 . ...|... .. . ...|... .. . ...|... .. . ...
5e|... .. . ...|D-4 04 . ...|... .. . S04|... .. . ...|... .. . ...
5f|... .. . ...|F-4 04 . ...|... .. . ...|... .. . ...|... .. . ...
60|... .. 5 ...|D-4 04 . ...|D-3 00 . ...|E-2 02 . ...|C-3 00 . ...
61|... .. . ...|A-3 04 . ...|... .. . ...|... .. . ...|... .. . ...
62|... .. . ...|D-4 04 . ...|... .. . ...|... .. . ...|... .. . ...
63|... .. . ...|A-3 04 . ...|... .. . ...|... .. . ...|... .. . ...
64|... .. . ...|F-3 04 . ...|D-4 00 . ...|E-2 03 . ...|C#3 00 . ...
65|... .. . ...|A-3 04 . ...|... .. . ...|... .. . ...|... .. . ...
66|... .. . ...|F-3 04 . ...|... .. . ...|... .. . ...|... .. . ...
67|... .. . ...|D-3 04 . ...|... .. . ...|... .. . ...|... .. . ...
68|... .. 4 ...|F-3 04 . ...|D-3 00 . ...|F#2 02 . ...|D-3 00 . ...
69|... .. . ...|D-3 04 . ...|... .. . ...|... .. . ...|... .. . ...
6a|... .. . ...|A-2 04 . ...|--- .. . ...|... .. . ...|... .. . ...
6b|... .. . ...|D-3 04 . ...|... .. . ...|... .. . ...|... .. . ...
6c|... .. . ...|A-2 04 . ...|A-3 00 . ...|F#2 02 . ...|D#3 00 . ...
6d|... .. . ...|F-2 04 . ...|... .. . ...|... .. . ...|... .. . ...
6e|... .. . ...|A-2 04 . ...|... .. . ...|F#2 02 . ...|D#3 00 . ...
6f|... .. . ...|F-2 04 . ...|... .. . ...|... .. . ...|... .. . ...
70|... .. 3 ...|D-2 04 . ...|... .. . ...|F#2 02 . ...|D#3 00 . ...
71|... .. . ...|F-2 04 . ...|... .. . ...|... .. . ...|... .. . ...
72|... .. . ...|D-2 04 . ...|--- .. . ...|... .. . ...|... .. . ...
73|... .. . ...|A-1 04 . ...|... .. . ...|... .. . ...|... .. . ...
74|... .. . ...|D-2 04 . ...|G-3 00 . ...|F#2 02 . ...|D-3 00 . ...
75|... .. . ...|A-1 04 . ...|... .. . ...|... .. . ...|... .. . ...
76|... .. . ...|F-1 04 . ...|... .. . ...|F#2 02 . ...|D-3 00 . ...
77|... .. . ...|A-1 04 . ...|... .. . ...|... .. . ...|... .. . ...
78|... .. 2 ...|F-1 04 . ...|... .. . ...|E-2 03 . ...|C#3 00 . ...
79|... .. . ...|D-1 04 . ...|... .. . ...|... .. . ...|... .. . ...
7a|... .. . ...|F-1 04 . ...|--- .. . ...|... .. . ...|... .. . ...
7b|... .. . ...|D-1 04 . ...|... .. . ...|... .. . ...|... .. . ...
7c|... .. 1 ...|A-0 04 . ...|F-3 00 . ...|E-2 02 . ...|C-3 00 . ...
7d|... .. . ...|D-1 04 . ...|... .. . ...|... .. . ...|... .. . ...
7e|... .. . ...|A-0 04 . ...|--- .. . ...|... .. . ...|... .. . ...
7f|... .. . ...|D-1 04 . ...|... .. . ...|... .. . ...|... .. . ...

[Frame24]
00|A#4 07 3 V01|F-4 07 3 V01|A#2 00 . ...|C#2 06 a ...|C-3 00 . F03
01|... .. . ...|... .. . ...|... .. . ...|... .. . ...|... .. . ...
02|... .. . ...|... .. . ...|... .. . ...|... .. . ...|... .. . ...
03|... .. . ...|... .. . ...|... .. . ...|... .. . ...|... .. . ...
04|... .. . ...|... .. . ...|... .. . ...|... .. . ...|... .. . ...
05|... .. . ...|... .. . ...|... .. . ...|... .. . ...|... .. . ...
06|... .. . ...|... .. . ...|... .. . ...|... .. . ...|... .. . ...
07|... .. . ...|... .. . ...|... .. . ...|... .. . ...|... .. . ...
08|... .. . ...|... .. . ...|... .. . ...|F#2 02 . ...|... .. . ...
09|... .. . ...|... .. . ...|... .. . ...|... .. . ...|... .. . ...
0a|... .. . ...|... .. . ...|... .. . ...|... .. . ...|... .. . ...
0b|... .. . ...|... .. . ...|... .. . ...|... .. . ...|... .. . ...
0c|... .. . ...|... .. . ...|... .. . ...|... .. . ...|... .. . ...
0d|... .. . ...|... .. . ...|... .. . ...|... .. . ...|... .. . ...
0e|... .. . ...|... .. . ...|... .. . ...|... .. . ...|... .. . ...
0f|... .. . ...|... .. . ...|... .. . ...|... .. . ...|... .. . ...
10|... .. . ...|... .. . ...|... .. . ...|E-2 03 . ...|C#3 00 . ...
11|... .. . ...|... .. . ...|... .. . ...|... .. . ...|... .. . ...
12|... .. . ...|... .. . ...|... .. . ...|... .. . ...|... .. . ...
13|... .. . ...|... .. . ...|... .. . ...|... .. . ...|... .. . ...
14|... .. . ...|... .. . ...|... .. . ...|... .. . ...|... .. . ...
15|... .. . ...|... .. . ...|... .. . ...|... .. . ...|... .. . ...
16|... .. . ...|... .. . ...|... .. . ...|... .. . ...|... .. . ...
17|... .. . ...|... .. . ...|... .. . ...|... .. . ...|... .. . ...
18|... .. . ...|... .. . ...|--- .. . ...|F#2 02 . ...|... .. . ...
19|... .. . ...|... .. . ...|... .. . ...|... .. . ...|... .. . ...
1a|... .. . ...|... .. . ...|... .. . ...|... .. . ...|... .. . ...
1b|... .. . ...|... .. . ...|... .. . ...|... .. . ...|... .. . ...
1c|... .. . ...|... .. . ...|A#2 00 . G04|... .. . ...|... .. . ...
1d|... .. . ...|... .. . ...|... .. . ...|... .. . ...|... .. . ...
1e|... .. . ...|... .. . ...|... .. . S04|... .. . ...|... .. . ...
1f|... .. . ...|... .. . ...|... .. . ...|... .. . ...|... .. . ...
20|... .. . ...|... .. . ...|A#2 00 . ...|E-2 02 . ...|C-3 00 . ...
21|... .. . ...|... .. . ...|... .. . ...|... .. . ...|... .. . ...
22|... .. . ...|... .. . ...|... .. . ...|... .. . ...|... .. . ...
23|... .. . ...|... .. . ...|... .. . ...|... .. . ...|... .. . ...
24|... .. . ...|... .. . ...|... .. . ...|... .. . ...|... .. . ...
25|... .. . ...|... .. . ...|... .. . ...|... .. . ...|... .. . ...
26|... .. . ...|... .. . ...|... .. . ...|... .. . ...|... .. . ...
27|... .. . ...|... .. . ...|... .. . ...|... .. . ...|... .. . ...
28|... .. . ...|... .. . ...|... .. . ...|F#2 02 . ...|... .. . ...
29|... .. . ...|... .. . ...|... .. . ...|... .. . ...|... .. . ...
2a|... .. . ...|... .. . ...|... .. . ...|... .. . ...|... .. . ...
2b|... .. . ...|... .. . ...|... .. . ...|... .. . ...|... .. . ...
2c|... .. . ...|... .. . ...|... .. . ...|... .. . ...|... .. . ...
2d|... .. . ...|... .. . ...|... .. . ...|... .. . ...|... .. . ...
2e|... .. . ...|... .. . ...|... .. . ...|... .. . ...|... .. . ...
2f|... .. . ...|... .. . ...|... .. . ...|... .. . ...|... .. . ...
30|... .. . ...|... .. . ...|... .. . ...|E-2 03 . ...|C#3 00 . ...
31|... .. . ...|... .. . ...|... .. . ...|... .. . ...|... .. . ...
32|... .. . ...|... .. . ...|... .. . ...|... .. . ...|... .. . ...
33|... .. . ...|... .. . ...|... .. . ...|... .. . ...|... .. . ...
34|... .. . ...|... .. . ...|... .. . ...|... .. . ...|... .. . ...
35|... .. . ...|... .. . ...|... .. . ...|... .. . ...|... .. . ...
36|... .. . ...|... .. . ...|... .. . ...|... .. . ...|... .. . ...
37|... .. . ...|... .. . ...|... .. . ...|... .. . ...|... .. . ...
38|... .. . ...|... .. . ...|--- .. . ...|F#2 02 . ...|... .. . ...
39|... .. . ...|... .. . ...|... .. . ...|... .. . ...|... .. . ...
3a|... .. . ...|... .. . ...|... .. . ...|... .. . ...|... .. . ...
3b|... .. . ...|... .. . ...|... .. . ...|... .. . ...|... .. . ...
3c|... .. . ...|... .. . ...|... .. . ...|... .. . ...|... .. . ...
3d|... .. . ...|... .. . ...|... .. . ...|... .. . ...|... .. . ...
3e|... .. . ...|... .. . ...|... .. . ...|... .. . ...|... .. . ...
3f|... .. . ...|... .. . ...|... .. . ...|... .. . ...|... .. . ...
40|... .. . ...|E-4 07 . ...|A#2 00 . ...|E-2 02 . ...|C-3 00 . ...
41|... .. . ...|... .. . ...|... .. . ...|... .. . ...|... .. . ...
42|... .. . ...|... .. . ...|... .. . ...|... .. . ...|... .. . ...
43|... .. . ...|... .. . ...|... .. . ...|... .. . ...|... .. . ...
44|... .. . ...|... .. . ...|... .. . ...|... .. . ...|... .. . ...
45|... .. . ...|... .. . ...|... .. . ...|... .. . ...|... .. . ...
46|... .. . ...|... .. . ...|... .. . ...|... .. . ...|... .. . ...
47|... .. . ...|... .. . ...|... .. . ...|... .. . ...|... .. . ...
48|... .. . ...|... .. . ...|... .. . ...|F#2 02 . ...|... .. . ...
49|... .. . ...|... .. . ...|... .. . ...|... .. . ...|... .. . ...
4a|... .. . ...|... .. . ...|... .. . ...|... .. . ...|... .. . ...
4b|... .. . ...|... .. . ...|... .. . ...|... .. . ...|... .. . ...
4c|... .. . ...|... .. . ...|... .. . ...|... .. . ...|... .. . ...
4d|... .. . ...|... .. . ...|... .. . ...|... .. . ...|... .. . ...
4e|... .. . ...|... .. . ...|... .. . ...|... .. . ...|... .. . ...
4f|... .. . ...|... .. . ...|... .. . ...|... .. . ...|... .. . ...
50|... .. . ...|... .. . ...|... .. . ...|E-2 03 . ...|C#3 00 . ...
51|... .. . ...|... .. . ...|... .. . ...|... .. . ...|... .. . ...
52|... .. . ...|... .. . ...|... .. . ...|... .. . ...|... .. . ...
53|... .. . ...|... .. . ...|... .. . ...|... .. . ...|... .. . ...
54|... .. . ...|... .. . ...|... .. . ...|... .. . ...|... .. . ...
55|... .. . ...|... .. . ...|... .. . ...|... .. . ...|... .. . ...
56|... .. . ...|... .. . ...|... .. . ...|... .. . ...|... .. . ...
57|... .. . ...|... .. . ...|... .. . ...|... .. . ...|... .. . ...
58|... .. . ...|... .. . ...|--- .. . ...|F#2 02 . ...|... .. . ...
59|... .. . ...|... .. . ...|... .. . ...|... .. . ...|... .. . ...
5a|... .. . ...|... .. . ...|... .. . ...|... .. . ...|... .. . ...
5b|... .. . ...|... .. . ...|... .. . ...|... .. . ...|... .. . ...
5c|... .. . ...|... .. . ...|A#2 00 . G04|E-2 02 . ...|C-3 00 . ...
5d|... .. . ...|... .. . ...|... .. . ...|... .. . ...|... .. . ...
5e|... .. . ...|... .. . ...|... .. . S04|... .. . ...|... .. . ...
5f|... .. . ...|... .. . ...|... .. . ...|... .. . ...|... .. . ...
60|... .. . ...|... .. . ...|A-2 00 . ...|E-2 02 . ...|C-3 00 . ...
61|... .. . ...|... .. . ...|A#2 00 . ...|... .. . ...|... .. . ...
62|... .. . ...|... .. . ...|... .. . ...|... .. . ...|... .. . ...
63|... .. . ...|... .. . ...|... .. . ...|... .. . ...|... .. . ...
64|... .. . ...|... .. . ...|E-3 00 . ...|E-2 03 . ...|C#3 00 . ...
65|... .. . ...|... .. . ...|... .. . ...|... .. . ...|... .. . ...
66|... .. . ...|... .. . ...|... .. . ...|... .. . ...|... .. . ...
67|... .. . ...|... .. . ...|... .. . ...|... .. . ...|... .. . ...
68|... .. . ...|... .. . ...|A#2 00 . ...|F#2 02 . ...|... .. . ...
69|... .. . ...|... .. . ...|... .. . ...|... .. . ...|... .. . ...
6a|... .. . ...|... .. . ...|--- .. . ...|... .. . ...|... .. . ...
6b|... .. . ...|... .. . ...|... .. . ...|... .. . ...|... .. . ...
6c|... .. . ...|... .. . ...|E-3 00 . ...|E-2 02 . ...|C-3 00 . ...
6d|... .. . ...|... .. . ...|F-3 00 . ...|... .. . ...|... .. . ...
6e|... .. . ...|... .. . ...|... .. . ...|... .. . ...|... .. . ...
6f|... .. . ...|... .. . ...|... .. . ...|... .. . ...|... .. . ...
70|... .. . ...|... .. . ...|... .. . ...|E-2 03 . ...|C#3 00 . ...
71|... .. . ...|... .. . ...|... .. . ...|... .. . ...|... .. . ...
72|... .. . ...|... .. . ...|... .. . ...|... .. . ...|... .. . ...
73|... .. . ...|... .. . ...|... .. . ...|... .. . ...|... .. . ...
74|... .. . ...|... .. . ...|E-3 00 . ...|F#2 02 . ...|... .. . ...
75|... .. . ...|... .. . ...|... .. . ...|... .. . ...|... .. . ...
76|... .. . ...|... .. . ...|... .. . ...|... .. . ...|... .. . ...
77|... .. . ...|... .. . ...|... .. . ...|... .. . ...|... .. . ...
78|... .. . ...|... .. . ...|C-3 00 . ...|E-2 03 . ...|C#3 00 . ...
79|... .. . ...|... .. . ...|... .. . ...|... .. . ...|... .. . ...
7a|... .. . ...|... .. . ...|... .. . ...|... .. . ...|... .. . ...
7b|... .. . ...|... .. . ...|... .. . ...|... .. . ...|... .. . ...
7c|... .. . ...|... .. . ...|A-2 00 . ...|E-2 03 . ...|C#3 00 . ...
7d|... .. . ...|... .. . ...|... .. . ...|... .. . ...|... .. . ...
7e|... .. . ...|... .. . ...|... .. . ...|... .. . ...|... .. . ...
7f|... .. . ...|... .. . ...|... .. . ...|... .. . ...|... .. . ...

[Frame25]
00|A#4 07 3 V01|F-4 07 3 V01|A#2 00 . ...|C#2 06 a ...|C-3 00 . F03
01|... .. . ...|... .. . ...|... .. . ...|... .. . ...|... .. . ...
02|... .. . ...|... .. . ...|... .. . ...|... .. . ...|... .. . ...
03|... .. . ...|... .. . ...|... .. . ...|... .. . ...|... .. . ...
04|D-2 08 7 ...|... .. . ...|... .. . ...|... .. . ...|... .. . ...
05|... .. . ...|... .. . ...|... .. . ...|... .. . ...|... .. . ...
06|... .. . ...|... .. . ...|... .. . ...|... .. . ...|... .. . ...
07|... .. . ...|... .. . ...|... .. . ...|... .. . ...|... .. . ...
08|E-2 08 . ...|... .. . ...|... .. . ...|F#2 02 . ...|... .. . ...
09|... .. . ...|... .. . ...|... .. . ...|... .. . ...|... .. . ...
0a|... .. . ...|... .. . ...|... .. . ...|... .. . ...|... .. . ...
0b|... .. . ...|... .. . ...|... .. . ...|... .. . ...|... .. . ...
0c|F-2 08 . ...|... .. . ...|... .. . ...|... .. . ...|... .. . ...
0d|... .. . ...|... .. . ...|... .. . ...|... .. . ...|... .. . ...
0e|... .. . ...|... .. . ...|... .. . ...|... .. . ...|... .. . ...
0f|... .. . ...|... .. . ...|... .. . ...|... .. . ...|... .. . ...
10|G-2 08 . ...|... .. . ...|... .. . ...|E-2 03 . ...|C#3 00 . ...
11|... .. . ...|... .. . ...|... .. . ...|... .. . ...|... .. . ...
12|... .. . ...|... .. . ...|... .. . ...|... .. . ...|... .. . ...
13|... .. . ...|... .. . ...|... .. . ...|... .. . ...|... .. . ...
14|A-2 08 . ...|... .. . ...|... .. . ...|... .. . ...|... .. . ...
15|... .. . ...|... .. . ...|... .. . ...|... .. . ...|... .. . ...
16|... .. . ...|... .. . ...|... .. . ...|... .. . ...|... .. . ...
17|... .. . ...|... .. . ...|... .. . ...|... .. . ...|... .. . ...
18|C-3 08 . ...|... .. . ...|--- .. . ...|F#2 02 . ...|... .. . ...
19|... .. . ...|... .. . ...|... .. . ...|... .. . ...|... .. . ...
1a|... .. . ...|... .. . ...|... .. . ...|... .. . ...|... .. . ...
1b|... .. . ...|... .. . ...|... .. . ...|... .. . ...|... .. . ...
1c|D-3 08 . ...|... .. . ...|A#2 00 . G04|... .. . ...|... .. . ...
1d|... .. . ...|... .. . ...|... .. . ...|... .. . ...|... .. . ...
1e|... .. . ...|... .. . ...|... .. . S04|... .. . ...|... .. . ...
1f|... .. . ...|... .. . ...|... .. . ...|... .. . ...|... .. . ...
20|E-3 08 . ...|... .. . ...|A#2 00 . ...|E-2 02 . ...|C-3 00 . ...
21|... .. . ...|... .. . ...|... .. . ...|... .. . ...|... .. . ...
22|... .. . ...|... .. . ...|... .. . ...|... .. . ...|... .. . ...
23|... .. . ...|... .. . ...|... .. . ...|... .. . ...|... .. . ...
24|F-3 08 . ...|... .. . ...|... .. . ...|... .. . ...|... .. . ...
25|... .. . ...|... .. . ...|... .. . ...|... .. . ...|... .. . ...
26|E-3 08 . ...|... .. . ...|... .. . ...|... .. . ...|... .. . ...
27|... .. . ...|... .. . ...|... .. . ...|... .. . ...|... .. . ...
28|D-3 08 . ...|... .. . ...|... .. . ...|F#2 02 . ...|... .. . ...
29|... .. . ...|... .. . ...|... .. . ...|... .. . ...|... .. . ...
2a|... .. . ...|... .. . ...|... .. . ...|... .. . ...|... .. . ...
2b|... .. . ...|... .. . ...|... .. . ...|... .. . ...|... .. . ...
2c|E-3 08 . ...|... .. . ...|... .. . ...|... .. . ...|... .. . ...
2d|... .. . ...|... .. . ...|... .. . ...|... .. . ...|... .. . ...
2e|... .. . ...|... .. . ...|... .. . ...|... .. . ...|... .. . ...
2f|... .. . ...|... .. . ...|... .. . ...|... .. . ...|... .. . ...
30|C-3 08 . ...|... .. . ...|... .. . ...|E-2 03 . ...|C#3 00 . ...
31|... .. . ...|... .. . ...|... .. . ...|... .. . ...|... .. . ...
32|... .. . ...|... .. . ...|... .. . ...|... .. . ...|... .. . ...
33|... .. . ...|... .. . ...|... .. . ...|... .. . ...|... .. . ...
34|D-3 08 . ...|... .. . ...|--- .. . ...|... .. . ...|... .. . ...
35|... .. . ...|... .. . ...|... .. . ...|... .. . ...|... .. . ...
36|... .. . ...|... .. . ...|... .. . ...|... .. . ...|... .. . ...
37|... .. . ...|... .. . ...|... .. . ...|... .. . ...|... .. . ...
38|C-3 08 . ...|... .. . ...|F-2 00 . ...|F#2 02 . ...|... .. . ...
39|... .. . ...|... .. . ...|... .. . ...|... .. . ...|... .. . ...
3a|... .. . ...|... .. . ...|... .. . ...|... .. . ...|... .. . ...
3b|... .. . ...|... .. . ...|... .. . ...|... .. . ...|... .. . ...
3c|D-3 08 . ...|... .. . ...|--- .. . ...|... .. . ...|... .. . ...
3d|... .. . ...|... .. . ...|... .. . ...|... .. . ...|... .. . ...
3e|... .. . ...|... .. . ...|... .. . ...|... .. . ...|... .. . ...
3f|... .. . ...|... .. . ...|... .. . ...|... .. . ...|... .. . ...
40|C-3 08 . ...|E-4 07 . ...|A#2 00 . ...|E-2 02 . ...|C-3 00 . ...
41|... .. . ...|... .. . ...|... .. . ...|... .. . ...|... .. . ...
42|... .. . ...|... .. . ...|... .. . ...|... .. . ...|... .. . ...
43|... .. . ...|... .. . ...|... .. . ...|... .. . ...|... .. . ...
44|D-3 08 . ...|... .. . ...|... .. . ...|... .. . ...|... .. . ...
45|... .. . ...|... .. . ...|... .. . ...|... .. . ...|... .. . ...
46|C-3 08 . ...|... .. . ...|... .. . ...|... .. . ...|... .. . ...
47|... .. . ...|... .. . ...|... .. . ...|... .. . ...|... .. . ...
48|A-2 08 . ...|... .. . ...|--- .. . ...|F#2 02 . ...|... .. . ...
49|... .. . ...|... .. . ...|... .. . ...|... .. . ...|... .. . ...
4a|... .. . ...|... .. . ...|... .. . ...|... .. . ...|... .. . ...
4b|... .. . ...|... .. . ...|... .. . ...|... .. . ...|... .. . ...
4c|C-3 08 . ...|... .. . ...|F-3 00 . ...|... .. . ...|... .. . ...
4d|... .. . ...|... .. . ...|... .. . ...|... .. . ...|... .. . ...
4e|... .. . ...|... .. . ...|... .. . ...|... .. . ...|... .. . ...
4f|... .. . ...|... .. . ...|... .. . ...|... .. . ...|... .. . ...
50|G-2 08 . ...|... .. . ...|... .. . ...|E-2 03 . ...|C#3 00 . ...
51|... .. . ...|... .. . ...|... .. . ...|... .. . ...|... .. . ...
52|... .. . ...|... .. . ...|... .. . ...|... .. . ...|... .. . ...
53|... .. . ...|... .. . ...|... .. . ...|... .. . ...|... .. . ...
54|A-2 08 . ...|... .. . ...|--- .. . ...|... .. . ...|... .. . ...
55|... .. . ...|... .. . ...|... .. . ...|... .. . ...|... .. . ...
56|... .. . ...|... .. . ...|... .. . ...|... .. . ...|... .. . ...
57|... .. . ...|... .. . ...|... .. . ...|... .. . ...|... .. . ...
58|F-2 08 . ...|... .. . ...|B-3 00 . ...|F#2 02 . ...|... .. . ...
59|... .. . ...|... .. . ...|C-4 00 . ...|... .. . ...|... .. . ...
5a|... .. . ...|... .. . ...|... .. . ...|... .. . ...|... .. . ...
5b|... .. . ...|... .. . ...|... .. . ...|... .. . ...|... .. . ...
5c|G-2 08 . ...|... .. . ...|... .. . ...|E-2 02 . ...|C-3 00 . ...
5d|... .. . ...|... .. . ...|... .. . ...|... .. . ...|... .. . ...
5e|... .. . ...|... .. . ...|... .. . ...|... .. . ...|... .. . ...
5f|... .. . ...|... .. . ...|... .. . ...|... .. . ...|... .. . ...
60|D-2 08 . ...|... .. . ...|... .. . ...|E-2 02 . ...|C-3 00 . ...
61|... .. . ...|... .. . ...|... .. . ...|... .. . ...|... .. . ...
62|... .. . ...|... .. . ...|... .. . ...|... .. . ...|... .. . ...
63|... .. . ...|... .. . ...|... .. . ...|... .. . ...|... .. . ...
64|... .. . ...|... .. . ...|... .. . ...|E-2 03 . ...|C#3 00 . ...
65|... .. . ...|... .. . ...|... .. . ...|... .. . ...|... .. . ...
66|... .. . ...|... .. . ...|... .. . ...|... .. . ...|... .. . ...
67|... .. . ...|... .. . ...|... .. . ...|... .. . ...|... .. . ...
68|... .. . ...|... .. . ...|A#3 00 . ...|F#2 02 . ...|... .. . ...
69|... .. . ...|... .. . ...|... .. . ...|... .. . ...|... .. . ...
6a|... .. . ...|... .. . ...|... .. . ...|... .. . ...|... .. . ...
6b|... .. . ...|... .. . ...|... .. . ...|... .. . ...|... .. . ...
6c|... .. . ...|... .. . ...|--- .. . ...|E-2 02 . ...|C-3 00 . ...
6d|... .. . ...|... .. . ...|... .. . ...|... .. . ...|... .. . ...
6e|... .. . ...|... .. . ...|... .. . ...|... .. . ...|... .. . ...
6f|... .. . ...|... .. . ...|... .. . ...|... .. . ...|... .. . ...
70|F-2 08 . ...|... .. . ...|A-3 00 . ...|E-2 03 . ...|C#3 00 . ...
71|... .. . ...|... .. . ...|... .. . ...|... .. . ...|... .. . ...
72|... .. . ...|... .. . ...|... .. . ...|... .. . ...|... .. . ...
73|... .. . ...|... .. . ...|... .. . ...|... .. . ...|... .. . ...
74|... .. . ...|... .. . ...|... .. . ...|F#2 02 . ...|... .. . ...
75|... .. . ...|... .. . ...|... .. . ...|... .. . ...|... .. . ...
76|... .. . ...|... .. . ...|... .. . ...|... .. . ...|... .. . ...
77|... .. . ...|... .. . ...|... .. . ...|... .. . ...|... .. . ...
78|E-2 08 . ...|... .. . ...|F-3 00 . ...|E-2 03 . ...|C#3 00 . ...
79|... .. . ...|... .. . ...|... .. . ...|... .. . ...|... .. . ...
7a|... .. . ...|... .. . ...|... .. . ...|... .. . ...|... .. . ...
7b|... .. . ...|... .. . ...|... .. . ...|... .. . ...|... .. . ...
7c|... .. . ...|... .. . ...|... .. . ...|E-2 03 . ...|C#3 00 . ...
7d|... .. . ...|... .. . ...|... .. . ...|... .. . ...|... .. . ...
7e|... .. . ...|... .. . ...|... .. . ...|... .. . ...|... .. . ...
7f|... .. . ...|... .. . ...|... .. . ...|... .. . ...|... .. . ...

[Frame26]
00|G-2 08 7 ...|F-3 08 5 ...|D-3 00 . ...|C#2 06 a ...|C-3 00 . F03
01|... .. . ...|... .. . ...|... .. . ...|... .. . ...|... .. . ...
02|... .. . ...|... .. . ...|... .. . ...|... .. . ...|... .. . ...
03|... .. . ...|... .. . ...|... .. . ...|... .. . ...|... .. . ...
04|... .. . ...|... .. . ...|... .. . ...|... .. . ...|... .. . ...
05|... .. . ...|... .. . ...|... .. . ...|... .. . ...|... .. . ...
06|... .. . ...|... .. . ...|... .. . ...|... .. . ...|... .. . ...
07|... .. . ...|... .. . ...|... .. . ...|... .. . ...|... .. . ...
08|... .. . ...|... .. . ...|... .. . ...|F#2 02 . ...|... .. . ...
09|... .. . ...|... .. . ...|... .. . ...|... .. . ...|... .. . ...
0a|... .. . ...|... .. . ...|... .. . ...|... .. . ...|... .. . ...
0b|... .. . ...|... .. . ...|... .. . ...|... .. . ...|... .. . ...
0c|... .. . ...|... .. . ...|... .. . ...|... .. . ...|... .. . ...
0d|... .. . ...|... .. . ...|... .. . ...|... .. . ...|... .. . ...
0e|... .. . ...|... .. . ...|... .. . ...|... .. . ...|... .. . ...
0f|... .. . ...|... .. . ...|... .. . ...|... .. . ...|... .. . ...
10|F-2 08 . ...|D-5 08 3 ...|... .. . ...|E-2 03 . ...|C#3 00 . ...
11|... .. . ...|... .. . ...|... .. . ...|... .. . ...|... .. . ...
12|... .. . ...|... .. . ...|... .. . ...|... .. . ...|... .. . ...
13|... .. . ...|... .. . ...|... .. . ...|... .. . ...|... .. . ...
14|... .. . ...|C-5 08 . ...|... .. . ...|... .. . ...|... .. . ...
15|... .. . ...|... .. . ...|... .. . ...|... .. . ...|... .. . ...
16|... .. . ...|... .. . ...|... .. . ...|... .. . ...|... .. . ...
17|... .. . ...|... .. . ...|... .. . ...|... .. . ...|... .. . ...
18|... .. . ...|D-5 08 . ...|--- .. . ...|F#2 02 . ...|... .. . ...
19|... .. . ...|... .. . ...|... .. . ...|... .. . ...|... .. . ...
1a|... .. . ...|... .. . ...|... .. . ...|... .. . ...|... .. . ...
1b|... .. . ...|... .. . ...|... .. . ...|... .. . ...|... .. . ...
1c|... .. . ...|A-4 08 . ...|D-3 00 . G04|... .. . ...|... .. . ...
1d|... .. . ...|... .. . ...|... .. . ...|... .. . ...|... .. . ...
1e|... .. . ...|... .. . ...|... .. . S04|... .. . ...|... .. . ...
1f|... .. . ...|... .. . ...|... .. . ...|... .. . ...|... .. . ...
20|A-2 08 . ...|G-3 08 5 ...|D-3 00 . ...|E-2 02 . ...|C-3 00 . ...
21|... .. . ...|... .. . ...|... .. . ...|... .. . ...|... .. . ...
22|... .. . ...|... .. . ...|... .. . ...|... .. . ...|... .. . ...
23|... .. . ...|... .. . ...|... .. . ...|... .. . ...|... .. . ...
24|D-2 08 . ...|... .. . ...|... .. . ...|... .. . ...|... .. . ...
25|... .. . ...|... .. . ...|... .. . ...|... .. . ...|... .. . ...
26|... .. . ...|... .. . ...|... .. . ...|... .. . ...|... .. . ...
27|... .. . ...|... .. . ...|... .. . ...|... .. . ...|... .. . ...
28|G-2 08 . ...|... .. . ...|... .. . ...|F#2 02 . ...|... .. . ...
29|... .. . ...|... .. . ...|... .. . ...|... .. . ...|... .. . ...
2a|... .. . ...|... .. . ...|... .. . ...|... .. . ...|... .. . ...
2b|... .. . ...|... .. . ...|... .. . ...|... .. . ...|... .. . ...
2c|D-2 08 . ...|... .. . ...|... .. . ...|... .. . ...|... .. . ...
2d|... .. . ...|... .. . ...|... .. . ...|... .. . ...|... .. . ...
2e|... .. . ...|... .. . ...|... .. . ...|... .. . ...|... .. . ...
2f|... .. . ...|... .. . ...|... .. . ...|... .. . ...|... .. . ...
30|F-2 08 . ...|D-5 08 3 ...|... .. . ...|E-2 03 . ...|C#3 00 . ...
31|... .. . ...|... .. . ...|... .. . ...|... .. . ...|... .. . ...
32|... .. . ...|... .. . ...|... .. . ...|... .. . ...|... .. . ...
33|... .. . ...|... .. . ...|... .. . ...|... .. . ...|... .. . ...
34|D-2 08 . ...|C-5 08 . ...|--- .. . ...|... .. . ...|... .. . ...
35|... .. . ...|... .. . ...|... .. . ...|... .. . ...|... .. . ...
36|... .. . ...|... .. . ...|... .. . ...|... .. . ...|... .. . ...
37|... .. . ...|... .. . ...|... .. . ...|... .. . ...|... .. . ...
38|G-2 08 . ...|D-5 08 . ...|A-2 00 . ...|F#2 02 . ...|... .. . ...
39|... .. . ...|... .. . ...|... .. . ...|... .. . ...|... .. . ...
3a|... .. . ...|... .. . ...|... .. . ...|... .. . ...|... .. . ...
3b|... .. . ...|... .. . ...|... .. . ...|... .. . ...|... .. . ...
3c|D-2 08 . ...|A-4 08 . ...|--- .. . ...|... .. . ...|... .. . ...
3d|... .. . ...|... .. . ...|... .. . ...|... .. . ...|... .. . ...
3e|... .. . ...|... .. . ...|... .. . ...|... .. . ...|... .. . ...
3f|... .. . ...|... .. . ...|... .. . ...|... .. . ...|... .. . ...
40|F-3 08 . ...|A-3 08 5 ...|D-3 00 . ...|E-2 02 . ...|C-3 00 . ...
41|... .. . ...|... .. . ...|... .. . ...|... .. . ...|... .. . ...
42|... .. . ...|... .. . ...|... .. . ...|... .. . ...|... .. . ...
43|... .. . ...|... .. . ...|... .. . ...|... .. . ...|... .. . ...
44|F-4 08 . ...|D-4 08 . ...|... .. . ...|... .. . ...|... .. . ...
45|... .. . ...|... .. . ...|... .. . ...|... .. . ...|... .. . ...
46|... .. . ...|... .. . ...|... .. . ...|... .. . ...|... .. . ...
47|... .. . ...|... .. . ...|... .. . ...|... .. . ...|... .. . ...
48|E-4 08 . ...|C-4 08 . ...|... .. . ...|F#2 02 . ...|... .. . ...
49|... .. . ...|... .. . ...|... .. . ...|... .. . ...|... .. . ...
4a|... .. . ...|... .. . ...|... .. . ...|... .. . ...|... .. . ...
4b|... .. . ...|... .. . ...|... .. . ...|... .. . ...|... .. . ...
4c|F-4 08 . ...|D-4 08 . ...|... .. . ...|... .. . ...|... .. . ...
4d|... .. . ...|... .. . ...|... .. . ...|... .. . ...|... .. . ...
4e|... .. . ...|... .. . ...|... .. . ...|... .. . ...|... .. . ...
4f|... .. . ...|... .. . ...|... .. . ...|... .. . ...|... .. . ...
50|E-4 08 . ...|C-4 08 . ...|... .. . ...|E-2 03 . ...|C#3 00 . ...
51|... .. . ...|... .. . ...|... .. . ...|... .. . ...|... .. . ...
52|... .. . ...|... .. . ...|... .. . ...|... .. . ...|... .. . ...
53|... .. . ...|... .. . ...|... .. . ...|... .. . ...|... .. . ...
54|F-4 08 . ...|D-4 08 . ...|... .. . ...|... .. . ...|... .. . ...
55|... .. . ...|... .. . ...|... .. . ...|... .. . ...|... .. . ...
56|E-4 08 . ...|C-4 08 . ...|... .. . ...|... .. . ...|... .. . ...
57|... .. . ...|... .. . ...|... .. . ...|... .. . ...|... .. . ...
58|D-4 08 . ...|A-3 08 . ...|--- .. . ...|F#2 02 . ...|... .. . ...
59|... .. . ...|... .. . ...|... .. . ...|... .. . ...|... .. . ...
5a|... .. . ...|... .. . ...|... .. . ...|... .. . ...|... .. . ...
5b|... .. . ...|... .. . ...|... .. . ...|... .. . ...|... .. . ...
5c|A-3 08 . ...|F-3 08 . ...|A-2 00 . G04|E-2 02 . ...|C-3 00 . ...
5d|... .. . ...|... .. . ...|... .. . ...|... .. . ...|... .. . ...
5e|... .. . ...|... .. . ...|... .. . S04|... .. . ...|... .. . ...
5f|... .. . ...|... .. . ...|... .. . ...|... .. . ...|... .. . ...
60|D-4 08 . ...|A-3 08 . ...|G#3 00 . ...|E-2 02 . ...|C-3 00 . ...
61|... .. . ...|... .. . ...|A-3 00 . ...|... .. . ...|... .. . ...
62|... .. . ...|... .. . ...|... .. . ...|... .. . ...|... .. . ...
63|... .. . ...|... .. . ...|... .. . ...|... .. . ...|... .. . ...
64|A-4 08 . ...|F-4 08 . ...|G-3 00 . ...|E-2 03 . ...|C#3 00 . ...
65|... .. . ...|... .. . ...|... .. . ...|... .. . ...|... .. . ...
66|... .. . ...|... .. . ...|... .. . ...|... .. . ...|... .. . ...
67|... .. . ...|... .. . ...|... .. . ...|... .. . ...|... .. . ...
68|A-3 08 . ...|F-3 08 . ...|F-3 00 . ...|F#2 02 . ...|... .. . ...
69|... .. . ...|... .. . ...|... .. . ...|... .. . ...|... .. . ...
6a|... .. . ...|... .. . ...|--- .. . ...|... .. . ...|... .. . ...
6b|... .. . ...|... .. . ...|... .. . ...|... .. . ...|... .. . ...
6c|F-4 08 . ...|D-4 08 . ...|G-3 00 . ...|E-2 02 . ...|C-3 00 . ...
6d|... .. . ...|... .. . ...|... .. . ...|... .. . ...|... .. . ...
6e|... .. . ...|... .. . ...|... .. . ...|... .. . ...|... .. . ...
6f|... .. . ...|... .. . ...|... .. . ...|... .. . ...|... .. . ...
70|... .. . ...|... .. . ...|... .. . ...|E-2 03 . ...|C#3 00 . ...
71|... .. . ...|... .. . ...|... .. . ...|... .. . ...|... .. . ...
72|... .. . ...|... .. . ...|--- .. . ...|... .. . ...|... .. . ...
73|... .. . ...|... .. . ...|... .. . ...|... .. . ...|... .. . ...
74|D-4 08 . ...|A-3 08 . ...|G#3 00 . ...|F#2 02 . ...|... .. . ...
75|... .. . ...|... .. . ...|A-3 00 . ...|... .. . ...|... .. . ...
76|... .. . ...|... .. . ...|... .. . ...|... .. . ...|... .. . ...
77|... .. . ...|... .. . ...|... .. . ...|... .. . ...|... .. . ...
78|... .. . ...|G-3 08 . ...|F-3 00 . ...|E-2 03 . ...|C#3 00 . ...
79|... .. . ...|... .. . ...|... .. . ...|... .. . ...|... .. . ...
7a|... .. . ...|... .. . ...|--- .. . ...|... .. . ...|... .. . ...
7b|... .. . ...|... .. . ...|... .. . ...|... .. . ...|... .. . ...
7c|A-3 08 . ...|F-3 08 . ...|E-3 00 . ...|E-2 03 . ...|C#3 00 . ...
7d|... .. . ...|... .. . ...|... .. . ...|... .. . ...|... .. . ...
7e|... .. . ...|... .. . ...|--- .. . ...|... .. . ...|... .. . ...
7f|... .. . ...|... .. . ...|... .. . ...|... .. . ...|... .. . ...

[Frame27]
00|G-3 00 6 V02|A#4 00 4 V02|D#3 00 . ...|C#2 06 a ...|C-3 00 . F03
01|... .. . ...|D#2 00 . V00|... .. . ...|... .. . ...|... .. . ...
02|... .. . ...|A#5 00 . V02|... .. . ...|... .. . ...|... .. . ...
03|... .. . ...|D#2 00 . V00|... .. . ...|... .. . ...|... .. . ...
04|... .. . ...|A-4 00 . V02|... .. . ...|... .. . ...|... .. . ...
05|... .. . ...|D#2 00 . V01|... .. . ...|... .. . ...|... .. . ...
06|... .. . ...|A-5 00 . V02|... .. . ...|... .. . ...|... .. . ...
07|... .. . ...|D#2 00 . V01|... .. . ...|... .. . ...|... .. . ...
08|... .. . ...|F-4 00 . V02|... .. . ...|F#2 02 . ...|... .. . ...
09|... .. . ...|D#2 00 . V00|... .. . ...|... .. . ...|... .. . ...
0a|... .. . ...|F-5 00 . V02|... .. . ...|... .. . ...|... .. . ...
0b|... .. . ...|D#2 00 . V00|... .. . ...|... .. . ...|... .. . ...
0c|... .. . ...|D#4 00 . V02|... .. . ...|F#2 02 . ...|... .. . ...
0d|... .. . ...|D#2 00 . V01|... .. . ...|... .. . ...|... .. . ...
0e|... .. . ...|D#5 00 . V02|... .. . ...|... .. . ...|... .. . ...
0f|... .. . ...|D#2 00 . V01|... .. . ...|... .. . ...|... .. . ...
10|... .. . 473|D#3 00 . V02|... .. . ...|F#2 02 . ...|... .. . ...
11|... .. . ...|D#2 00 . V00|... .. . ...|... .. . ...|... .. . ...
12|... .. . ...|D#4 00 . V02|... .. . ...|F#2 02 . ...|... .. . ...
13|... .. . ...|D#2 00 . V00|... .. . ...|... .. . ...|... .. . ...
14|... .. 2 ...|D#4 00 . V02|--- .. . ...|F#2 02 . ...|... .. . ...
15|... .. . ...|D#2 00 . V01|... .. . ...|... .. . ...|... .. . ...
16|... .. . ...|D#5 00 . V02|... .. . ...|... .. . ...|... .. . ...
17|... .. . ...|D#2 00 . V01|... .. . ...|... .. . ...|... .. . ...
18|A#3 00 6 400|F-4 00 . V02|D#3 00 . ...|E-2 02 . ...|C-3 00 . ...
19|... .. . ...|D#2 00 . V00|... .. . ...|... .. . ...|... .. . ...
1a|... .. . ...|F-5 00 . V02|--- .. . ...|... .. . ...|... .. . ...
1b|... .. . ...|D#2 00 . V00|... .. . ...|... .. . ...|... .. . ...
1c|A-3 00 . ...|G-4 00 . V02|D#3 00 . ...|F#2 02 . ...|... .. . ...
1d|... .. . ...|D#2 00 . V01|... .. . ...|... .. . ...|... .. . ...
1e|... .. . ...|G-5 00 . V02|--- .. . ...|... .. . ...|... .. . ...
1f|... .. . ...|D#2 00 . V01|... .. . ...|... .. . ...|... .. . ...
20|G-3 00 . ...|A#4 00 4 V02|D#3 00 . ...|E-2 02 . ...|C-3 00 . ...
21|... .. . ...|D#2 00 . V00|... .. . ...|... .. . ...|... .. . ...
22|... .. . ...|A#5 00 . V02|... .. . ...|... .. . ...|... .. . ...
23|... .. . ...|D#2 00 . V00|... .. . ...|... .. . ...|... .. . ...
24|... .. . ...|A-4 00 . V02|... .. . ...|F#2 02 . ...|... .. . ...
25|... .. . ...|D#2 00 . V01|... .. . ...|... .. . ...|... .. . ...
26|... .. . ...|A-5 00 . V02|... .. . ...|... .. . ...|... .. . ...
27|... .. . ...|D#2 00 . V01|... .. . ...|... .. . ...|... .. . ...
28|... .. . ...|F-4 00 . V02|... .. . ...|F#2 02 . ...|... .. . ...
29|... .. . ...|D#2 00 . V00|... .. . ...|... .. . ...|... .. . ...
2a|... .. . ...|F-5 00 . V02|... .. . ...|... .. . ...|... .. . ...
2b|... .. . ...|D#2 00 . V00|... .. . ...|... .. . ...|... .. . ...
2c|... .. . ...|D#4 00 . V02|... .. . ...|F#2 02 . ...|... .. . ...
2d|... .. . ...|D#2 00 . V01|... .. . ...|... .. . ...|... .. . ...
2e|... .. . ...|D#5 00 . V02|... .. . ...|... .. . ...|... .. . ...
2f|... .. . ...|D#2 00 . V01|... .. . ...|... .. . ...|... .. . ...
30|... .. . 473|D#3 00 . V02|... .. . ...|E-2 03 . ...|C#3 00 . ...
31|... .. . ...|D#2 00 . V00|... .. . ...|... .. . ...|... .. . ...
32|... .. . ...|D#4 00 . V02|... .. . ...|... .. . ...|... .. . ...
33|... .. . ...|D#2 00 . V00|... .. . ...|... .. . ...|... .. . ...
34|... .. . ...|D#4 00 . V02|... .. . ...|F#2 02 . ...|... .. . ...
35|... .. . ...|D#2 00 . V01|... .. . ...|... .. . ...|... .. . ...
36|... .. . ...|D#5 00 . V02|... .. . ...|F#2 02 . ...|... .. . ...
37|... .. . ...|D#2 00 . V01|... .. . ...|... .. . ...|... .. . ...
38|... .. . ...|F-4 00 . V02|--- .. . ...|F#2 02 . ...|... .. . ...
39|... .. . ...|D#2 00 . V00|... .. . ...|... .. . ...|... .. . ...
3a|... .. . ...|F-5 00 . V02|... .. . ...|... .. . ...|... .. . ...
3b|... .. . ...|D#2 00 . V00|... .. . ...|... .. . ...|... .. . ...
3c|... .. 2 ...|G-4 00 . V02|D#3 00 . ...|F#2 02 . ...|... .. . ...
3d|... .. . ...|D#2 00 . V01|... .. . ...|... .. . ...|... .. . ...
3e|... .. . ...|G-5 00 . V02|... .. . ...|... .. . ...|... .. . ...
3f|... .. . ...|D#2 00 . V01|... .. . ...|... .. . ...|... .. . ...
40|G-3 00 6 Q22|A#4 00 4 V02|D#2 00 . ...|E-2 02 . ...|C-3 00 . ...
41|... .. . ...|D#2 00 . V00|... .. . ...|... .. . ...|... .. . ...
42|... .. . ...|A#5 00 . V02|... .. . ...|... .. . ...|... .. . ...
43|... .. . ...|D#2 00 . V00|... .. . ...|... .. . ...|... .. . ...
44|... .. . ...|A-4 00 . V02|... .. . ...|F#2 02 . ...|... .. . ...
45|... .. . ...|D#2 00 . V01|... .. . ...|... .. . ...|... .. . ...
46|... .. . ...|A-5 00 . V02|... .. . ...|... .. . ...|... .. . ...
47|... .. . ...|D#2 00 . V01|... .. . ...|... .. . ...|... .. . ...
48|... .. . ...|F-4 00 . V02|... .. . ...|F#2 02 . ...|... .. . ...
49|... .. . ...|D#2 00 . V00|... .. . ...|... .. . ...|... .. . ...
4a|... .. . ...|F-5 00 . V02|... .. . ...|... .. . ...|... .. . ...
4b|... .. . ...|D#2 00 . V00|... .. . ...|... .. . ...|... .. . ...
4c|... .. 2 ...|D#4 00 . V02|... .. . ...|F#2 02 . ...|... .. . ...
4d|... .. . ...|D#2 00 . V01|... .. . ...|... .. . ...|... .. . ...
4e|... .. . ...|D#5 00 . V02|... .. . ...|... .. . ...|... .. . ...
4f|... .. . ...|D#2 00 . V01|... .. . ...|... .. . ...|... .. . ...
50|A#3 00 6 ...|D#3 00 . V02|... .. . ...|F#2 02 . ...|... .. . ...
51|... .. . ...|D#2 00 . V00|... .. . ...|... .. . ...|... .. . ...
52|... .. . ...|D#4 00 . V02|... .. . ...|F#2 02 . ...|... .. . ...
53|... .. . ...|D#2 00 . V00|... .. . ...|... .. . ...|... .. . ...
54|... .. . ...|D#4 00 . V02|... .. . ...|F#2 02 . ...|... .. . ...
55|... .. . ...|D#2 00 . V01|... .. . ...|... .. . ...|... .. . ...
56|... .. . ...|D#5 00 . V02|... .. . ...|... .. . ...|... .. . ...
57|... .. . ...|D#2 00 . V01|... .. . ...|... .. . ...|... .. . ...
58|... .. . ...|F-4 00 . V02|... .. . ...|E-2 02 . ...|C-3 00 . ...
59|... .. . ...|D#2 00 . V00|... .. . ...|... .. . ...|... .. . ...
5a|... .. . ...|F-5 00 . V02|... .. . ...|... .. . ...|... .. . ...
5b|... .. . ...|D#2 00 . V00|... .. . ...|... .. . ...|... .. . ...
5c|... .. 2 ...|G-4 00 . V02|... .. . ...|F#2 02 . ...|... .. . ...
5d|... .. . ...|D#2 00 . V01|... .. . ...|... .. . ...|... .. . ...
5e|... .. . ...|G-5 00 . V02|... .. . ...|... .. . ...|... .. . ...
5f|... .. . ...|D#2 00 . V01|... .. . ...|... .. . ...|... .. . ...
60|C-4 00 6 ...|A#4 00 4 V02|... .. . ...|E-2 02 . ...|C-3 00 . ...
61|... .. . ...|D#2 00 . V00|... .. . ...|... .. . ...|... .. . ...
62|... .. . ...|A#5 00 . V02|... .. . ...|... .. . ...|... .. . ...
63|... .. . ...|D#2 00 . V00|... .. . ...|... .. . ...|... .. . ...
64|... .. . ...|A-4 00 . V02|... .. . ...|F#2 02 . ...|... .. . ...
65|... .. . ...|D#2 00 . V01|... .. . ...|... .. . ...|... .. . ...
66|... .. . ...|A-5 00 . V02|... .. . ...|... .. . ...|... .. . ...
67|... .. . ...|D#2 00 . V01|... .. . ...|... .. . ...|... .. . ...
68|... .. . ...|F-4 00 . V02|... .. . ...|F#2 02 . ...|... .. . ...
69|... .. . ...|D#2 00 . V00|... .. . ...|... .. . ...|... .. . ...
6a|... .. . ...|F-5 00 . V02|... .. . ...|... .. . ...|... .. . ...
6b|... .. . ...|D#2 00 . V00|... .. . ...|... .. . ...|... .. . ...
6c|... .. 2 ...|D#4 00 . V02|--- .. . ...|F#2 02 . ...|... .. . ...
6d|... .. . ...|D#2 00 . V01|... .. . ...|... .. . ...|... .. . ...
6e|... .. . ...|D#5 00 . V02|... .. . ...|... .. . ...|... .. . ...
6f|... .. . ...|D#2 00 . V01|... .. . ...|... .. . ...|... .. . ...
70|C-4 00 6 ...|D#3 00 . V02|D#2 00 . ...|E-2 03 . ...|C#3 00 . ...
71|... .. . ...|D#2 00 . V00|... .. . ...|... .. . ...|... .. . ...
72|... .. . ...|D#4 00 . V02|... .. . ...|... .. . ...|... .. . ...
73|... .. . ...|D#2 00 . V00|... .. . ...|... .. . ...|... .. . ...
74|... .. . Q32|D#4 00 . V02|--- .. . ...|F#2 02 . ...|... .. . ...
75|... .. . ...|D#2 00 . V01|... .. . ...|... .. . ...|... .. . ...
76|... .. . ...|D#5 00 . V02|... .. . ...|F#2 02 . ...|... .. . ...
77|... .. . ...|D#2 00 . V01|... .. . ...|... .. . ...|... .. . ...
78|... .. . ...|F-4 00 . V02|F-2 00 . ...|E-2 03 . ...|C#3 00 . ...
79|... .. . ...|D#2 00 . V00|... .. . ...|... .. . ...|... .. . ...
7a|... .. . ...|F-5 00 . V02|... .. . ...|... .. . ...|... .. . ...
7b|... .. . ...|D#2 00 . V00|... .. . ...|... .. . ...|... .. . ...
7c|... .. 2 ...|G-4 00 . V02|--- .. . ...|E-2 03 . ...|C#3 00 . ...
7d|... .. . ...|D#2 00 . V01|... .. . ...|... .. . ...|... .. . ...
7e|... .. . ...|G-5 00 . V02|... .. . ...|... .. . ...|... .. . ...
7f|... .. . ...|D#2 00 . V01|... .. . ...|... .. . ...|... .. . ...

[Frame28]
00|G-3 00 6 V02|A#4 00 4 V02|G-2 00 . ...|C#2 06 a ...|C-3 00 . F03
01|... .. . ...|G-2 00 . V00|... .. . ...|... .. . ...|... .. . ...
02|... .. . ...|A#5 00 . V02|... .. . ...|... .. . ...|... .. . ...
03|... .. . ...|G-2 00 . V00|... .. . ...|... .. . ...|... .. . ...
04|... .. . ...|A-4 00 . V02|... .. . ...|... .. . ...|... .. . ...
05|... .. . ...|G-2 00 . V01|... .. . ...|... .. . ...|... .. . ...
06|... .. . ...|A-5 00 . V02|... .. . ...|... .. . ...|... .. . ...
07|... .. . ...|G-2 00 . V01|... .. . ...|... .. . ...|... .. . ...
08|... .. . ...|F-4 00 . V02|... .. . ...|F#2 02 . ...|... .. . ...
09|... .. . ...|G-2 00 . V00|... .. . ...|... .. . ...|... .. . ...
0a|... .. . ...|F-5 00 . V02|... .. . ...|... .. . ...|... .. . ...
0b|... .. . ...|G-2 00 . V00|... .. . ...|... .. . ...|... .. . ...
0c|... .. . ...|G-4 00 . V02|... .. . ...|F#2 02 . ...|... .. . ...
0d|... .. . ...|G-2 00 . V01|... .. . ...|... .. . ...|... .. . ...
0e|... .. . ...|G-5 00 . V02|... .. . ...|... .. . ...|... .. . ...
0f|... .. . ...|G-2 00 . V01|... .. . ...|... .. . ...|... .. . ...
10|... .. . 473|C-4 00 . V02|... .. . ...|F#2 02 . ...|... .. . ...
11|... .. . ...|G-2 00 . V00|... .. . ...|... .. . ...|... .. . ...
12|... .. . ...|C-5 00 . V02|... .. . ...|F#2 02 . ...|... .. . ...
13|... .. . ...|G-2 00 . V00|... .. . ...|... .. . ...|... .. . ...
14|... .. 2 ...|D-4 00 . V02|... .. . ...|F#2 02 . ...|... .. . ...
15|... .. . ...|G-2 00 . V01|... .. . ...|... .. . ...|... .. . ...
16|... .. . ...|D-5 00 . V02|... .. . ...|... .. . ...|... .. . ...
17|... .. . ...|G-2 00 . V01|... .. . ...|... .. . ...|... .. . ...
18|A#3 00 6 400|F-4 00 . V02|--- .. . ...|E-2 02 . ...|C-3 00 . ...
19|... .. . ...|G-2 00 . V00|... .. . ...|... .. . ...|... .. . ...
1a|... .. . ...|F-5 00 . V02|... .. . ...|... .. . ...|... .. . ...
1b|... .. . ...|G-2 00 . V00|... .. . ...|... .. . ...|... .. . ...
1c|A-3 00 . ...|G-4 00 . V02|D-2 00 . G04|F#2 02 . ...|... .. . ...
1d|... .. . ...|G-2 00 . V01|... .. . ...|... .. . ...|... .. . ...
1e|... .. . ...|G-5 00 . V02|... .. . S04|... .. . ...|... .. . ...
1f|... .. . ...|G-2 00 . V01|... .. . ...|... .. . ...|... .. . ...
20|G-3 00 . ...|A#4 00 . V02|G-2 00 . ...|E-2 02 . ...|C-3 00 . ...
21|... .. . ...|G-2 00 . V00|... .. . ...|... .. . ...|... .. . ...
22|... .. . ...|A#5 00 . V02|... .. . ...|... .. . ...|... .. . ...
23|... .. . ...|G-2 00 . V00|... .. . ...|... .. . ...|... .. . ...
24|... .. . ...|A-4 00 . V02|--- .. . ...|F#2 02 . ...|... .. . ...
25|... .. . ...|G-2 00 . V01|... .. . ...|... .. . ...|... .. . ...
26|... .. . ...|A-5 00 . V02|... .. . ...|... .. . ...|... .. . ...
27|... .. . ...|G-2 00 . V01|... .. . ...|... .. . ...|... .. . ...
28|... .. . ...|F-4 00 . V02|G-2 00 . ...|F#2 02 . ...|... .. . ...
29|... .. . ...|G-2 00 . V00|... .. . ...|... .. . ...|... .. . ...
2a|... .. . ...|F-5 00 . V02|... .. . ...|... .. . ...|... .. . ...
2b|... .. . ...|G-2 00 . V00|... .. . ...|... .. . ...|... .. . ...
2c|... .. . ...|G-4 00 . V02|... .. . ...|F#2 02 . ...|... .. . ...
2d|... .. . ...|G-2 00 . V01|... .. . ...|... .. . ...|... .. . ...
2e|... .. . ...|G-5 00 . V02|... .. . ...|... .. . ...|... .. . ...
2f|... .. . ...|G-2 00 . V01|... .. . ...|... .. . ...|... .. . ...
30|... .. . 473|C-4 00 . V02|... .. . ...|E-2 03 . ...|C#3 00 . ...
31|... .. . ...|G-2 00 . V00|... .. . ...|... .. . ...|... .. . ...
32|... .. . ...|C-5 00 . V02|... .. . ...|... .. . ...|... .. . ...
33|... .. . ...|G-2 00 . V00|... .. . ...|... .. . ...|... .. . ...
34|... .. . ...|D-4 00 . V02|--- .. . ...|F#2 02 . ...|... .. . ...
35|... .. . ...|G-2 00 . V01|... .. . ...|... .. . ...|... .. . ...
36|... .. . ...|D-5 00 . V02|... .. . ...|F#2 02 . ...|... .. . ...
37|... .. . ...|G-2 00 . V01|... .. . ...|... .. . ...|... .. . ...
38|... .. . ...|F-4 00 . V02|D-3 00 . ...|F#2 02 . ...|... .. . ...
39|... .. . ...|G-2 00 . V00|... .. . ...|... .. . ...|... .. . ...
3a|... .. . ...|F-5 00 . V02|... .. . ...|... .. . ...|... .. . ...
3b|... .. . ...|G-2 00 . V00|... .. . ...|... .. . ...|... .. . ...
3c|... .. 2 ...|G-4 00 . V02|--- .. . ...|F#2 02 . ...|... .. . ...
3d|... .. . ...|G-2 00 . V01|... .. . ...|... .. . ...|... .. . ...
3e|... .. . ...|G-5 00 . V02|... .. . ...|... .. . ...|... .. . ...
3f|... .. . ...|G-2 00 . V01|... .. . ...|... .. . ...|... .. . ...
40|G-3 00 6 Q22|A#4 00 . V02|G-2 00 . ...|E-2 02 . ...|C-3 00 . ...
41|... .. . ...|G-2 00 . V00|... .. . ...|... .. . ...|... .. . ...
42|... .. . ...|A#5 00 . V02|... .. . ...|... .. . ...|... .. . ...
43|... .. . ...|G-2 00 . V00|... .. . ...|... .. . ...|... .. . ...
44|... .. . ...|A-4 00 . V02|... .. . ...|F#2 02 . ...|... .. . ...
45|... .. . ...|G-2 00 . V01|... .. . ...|... .. . ...|... .. . ...
46|... .. . ...|A-5 00 . V02|... .. . ...|... .. . ...|... .. . ...
47|... .. . ...|G-2 00 . V01|... .. . ...|... .. . ...|... .. . ...
48|... .. . ...|F-4 00 . V02|... .. . ...|F#2 02 . ...|... .. . ...
49|... .. . ...|G-2 00 . V00|... .. . ...|... .. . ...|... .. . ...
4a|... .. . ...|F-5 00 . V02|... .. . ...|... .. . ...|... .. . ...
4b|... .. . ...|G-2 00 . V00|... .. . ...|... .. . ...|... .. . ...
4c|... .. 2 ...|G-4 00 . V02|... .. . ...|F#2 02 . ...|... .. . ...
4d|... .. . ...|G-2 00 . V01|... .. . ...|... .. . ...|... .. . ...
4e|... .. . ...|G-5 00 . V02|... .. . ...|... .. . ...|... .. . ...
4f|... .. . ...|G-2 00 . V01|... .. . ...|... .. . ...|... .. . ...
50|A#3 00 6 ...|C-4 00 . V02|... .. . ...|F#2 02 . ...|... .. . ...
51|... .. . ...|G-2 00 . V00|... .. . ...|... .. . ...|... .. . ...
52|... .. . ...|C-5 00 . V02|... .. . ...|F#2 02 . ...|... .. . ...
53|... .. . ...|G-2 00 . V00|... .. . ...|... .. . ...|... .. . ...
54|... .. . ...|D-4 00 . V02|... .. . ...|F#2 02 . ...|... .. . ...
55|... .. . ...|G-2 00 . V01|... .. . ...|... .. . ...|... .. . ...
56|... .. . ...|D-5 00 . V02|... .. . ...|... .. . ...|... .. . ...
57|... .. . ...|G-2 00 . V01|... .. . ...|... .. . ...|... .. . ...
58|... .. . ...|F-4 00 . V02|--- .. . ...|E-2 02 . ...|C-3 00 . ...
59|... .. . ...|G-2 00 . V00|... .. . ...|... .. . ...|... .. . ...
5a|... .. . ...|F-5 00 . V02|... .. . ...|... .. . ...|... .. . ...
5b|... .. . ...|G-2 00 . V00|... .. . ...|... .. . ...|... .. . ...
5c|... .. 2 ...|G-4 00 . V02|G-1 00 . G04|F#2 02 . ...|... .. . ...
5d|... .. . ...|G-2 00 . V01|... .. . ...|... .. . ...|... .. . ...
5e|... .. . ...|G-5 00 . V02|... .. . S04|... .. . ...|... .. . ...
5f|... .. . ...|G-2 00 . V01|... .. . ...|... .. . ...|... .. . ...
60|C-4 00 6 ...|A#4 00 . V02|G-2 00 . ...|E-2 02 . ...|C-3 00 . ...
61|... .. . ...|G-2 00 . V00|... .. . ...|... .. . ...|... .. . ...
62|... .. . ...|A#5 00 . V02|... .. . ...|... .. . ...|... .. . ...
63|... .. . ...|G-2 00 . V00|... .. . ...|... .. . ...|... .. . ...
64|... .. . ...|A-4 00 . V02|... .. . ...|F#2 02 . ...|D-3 00 . ...
65|... .. . ...|G-2 00 . V01|... .. . ...|... .. . ...|... .. . ...
66|... .. . ...|A-5 00 . V02|... .. . ...|... .. . ...|... .. . ...
67|... .. . ...|G-2 00 . V01|... .. . ...|... .. . ...|... .. . ...
68|... .. . ...|F-4 00 . V02|... .. . ...|F#2 02 . ...|D-3 00 . ...
69|... .. . ...|G-2 00 . V00|... .. . ...|... .. . ...|... .. . ...
6a|... .. . ...|F-5 00 . V02|... .. . ...|... .. . ...|... .. . ...
6b|... .. . ...|G-2 00 . V00|... .. . ...|... .. . ...|... .. . ...
6c|... .. 2 ...|G-4 00 . V02|--- .. . ...|F#2 02 . ...|D#3 00 . ...
6d|... .. . ...|G-2 00 . V01|... .. . ...|... .. . ...|... .. . ...
6e|... .. . ...|G-5 00 . V02|... .. . ...|... .. . ...|... .. . ...
6f|... .. . ...|G-2 00 . V01|... .. . ...|... .. . ...|... .. . ...
70|C-4 00 6 ...|C-4 00 . V02|F-2 00 . ...|E-2 03 . ...|C#3 00 . ...
71|... .. . ...|G-2 00 . V00|... .. . ...|... .. . ...|... .. . ...
72|... .. . ...|C-5 00 . V02|... .. . ...|... .. . ...|... .. . ...
73|... .. . ...|G-2 00 . V00|... .. . ...|... .. . ...|... .. . ...
74|... .. . Q32|D-4 00 . V02|... .. . ...|F#2 02 . ...|D#3 00 . ...
75|... .. . ...|G-2 00 . V01|... .. . ...|... .. . ...|... .. . ...
76|... .. . ...|D-5 00 . V02|... .. . ...|F#2 02 . ...|D#3 00 . ...
77|... .. . ...|G-2 00 . V01|... .. . ...|... .. . ...|... .. . ...
78|... .. . ...|F-4 00 . V02|... .. . ...|E-2 03 . ...|C#3 00 . ...
79|... .. . ...|G-2 00 . V00|... .. . ...|... .. . ...|... .. . ...
7a|... .. . ...|F-5 00 . V02|... .. . ...|... .. . ...|... .. . ...
7b|... .. . ...|G-2 00 . V00|... .. . ...|... .. . ...|... .. . ...
7c|... .. 2 ...|G-4 00 . V02|--- .. . ...|E-2 03 . ...|C#3 00 . ...
7d|... .. . ...|G-2 00 . V01|... .. . ...|... .. . ...|... .. . ...
7e|... .. . ...|G-5 00 . V02|... .. . ...|... .. . ...|... .. . ...
7f|... .. . ...|G-2 00 . V01|... .. . ...|... .. . ...|... .. . ...

[Frame29]
00|G-3 00 6 V02|A#4 00 4 V02|D#2 00 . ...|C#2 06 a ...|C-3 00 . F03
01|... .. . ...|D#2 00 . V00|... .. . ...|... .. . ...|... .. . ...
02|... .. . ...|A#5 00 . V02|... .. . ...|... .. . ...|... .. . ...
03|... .. . ...|D#2 00 . V00|... .. . ...|... .. . ...|... .. . ...
04|... .. . ...|A-4 00 . V02|... .. . ...|... .. . ...|... .. . ...
05|... .. . ...|D#2 00 . V01|... .. . ...|... .. . ...|... .. . ...
06|... .. . ...|A-5 00 . V02|... .. . ...|... .. . ...|... .. . ...
07|... .. . ...|D#2 00 . V01|... .. . ...|... .. . ...|... .. . ...
08|... .. . ...|F-4 00 . V02|... .. . ...|F#2 02 . ...|... .. . ...
09|... .. . ...|D#2 00 . V00|... .. . ...|... .. . ...|... .. . ...
0a|... .. . ...|F-5 00 . V02|... .. . ...|... .. . ...|... .. . ...
0b|... .. . ...|D#2 00 . V00|... .. . ...|... .. . ...|... .. . ...
0c|... .. . ...|D#4 00 . V02|... .. . ...|F#2 02 . ...|... .. . ...
0d|... .. . ...|D#2 00 . V01|... .. . ...|... .. . ...|... .. . ...
0e|... .. . ...|D#5 00 . V02|... .. . ...|... .. . ...|... .. . ...
0f|... .. . ...|D#2 00 . V01|... .. . ...|... .. . ...|... .. . ...
10|... .. . 473|D#3 00 . V02|... .. . ...|F#2 02 . ...|... .. . ...
11|... .. . ...|D#2 00 . V00|... .. . ...|... .. . ...|... .. . ...
12|... .. . ...|D#4 00 . V02|... .. . ...|F#2 02 . ...|... .. . ...
13|... .. . ...|D#2 00 . V00|... .. . ...|... .. . ...|... .. . ...
14|... .. 2 ...|D#4 00 . V02|... .. . ...|F#2 02 . ...|... .. . ...
15|... .. . ...|D#2 00 . V01|... .. . ...|... .. . ...|... .. . ...
16|... .. . ...|D#5 00 . V02|... .. . ...|... .. . ...|... .. . ...
17|... .. . ...|D#2 00 . V01|... .. . ...|... .. . ...|... .. . ...
18|A#3 00 6 400|F-4 00 . V02|--- .. . ...|E-2 02 . ...|C-3 00 . ...
19|... .. . ...|D#2 00 . V00|... .. . ...|... .. . ...|... .. . ...
1a|... .. . ...|F-5 00 . V02|... .. . ...|... .. . ...|... .. . ...
1b|... .. . ...|D#2 00 . V00|... .. . ...|... .. . ...|... .. . ...
1c|A-3 00 . ...|G-4 00 . V02|A#1 00 . G04|F#2 02 . ...|... .. . ...
1d|... .. . ...|D#2 00 . V01|... .. . ...|... .. . ...|... .. . ...
1e|... .. . ...|G-5 00 . V02|... .. . S04|... .. . ...|... .. . ...
1f|... .. . ...|D#2 00 . V01|... .. . ...|... .. . ...|... .. . ...
20|G-3 00 . ...|A#4 00 4 V02|D#2 00 . ...|E-2 02 . ...|C-3 00 . ...
21|... .. . ...|D#2 00 . V00|... .. . ...|... .. . ...|... .. . ...
22|... .. . ...|A#5 00 . V02|... .. . ...|... .. . ...|... .. . ...
23|... .. . ...|D#2 00 . V00|... .. . ...|... .. . ...|... .. . ...
24|... .. . ...|A-4 00 . V02|--- .. . ...|F#2 02 . ...|... .. . ...
25|... .. . ...|D#2 00 . V01|... .. . ...|... .. . ...|... .. . ...
26|... .. . ...|A-5 00 . V02|... .. . ...|... .. . ...|... .. . ...
27|... .. . ...|D#2 00 . V01|... .. . ...|... .. . ...|... .. . ...
28|... .. . ...|F-4 00 . V02|D#2 00 . ...|F#2 02 . ...|... .. . ...
29|... .. . ...|D#2 00 . V00|... .. . ...|... .. . ...|... .. . ...
2a|... .. . ...|F-5 00 . V02|... .. . ...|... .. . ...|... .. . ...
2b|... .. . ...|D#2 00 . V00|... .. . ...|... .. . ...|... .. . ...
2c|... .. . ...|D#4 00 . V02|... .. . ...|F#2 02 . ...|... .. . ...
2d|... .. . ...|D#2 00 . V01|... .. . ...|... .. . ...|... .. . ...
2e|... .. . ...|D#5 00 . V02|... .. . ...|... .. . ...|... .. . ...
2f|... .. . ...|D#2 00 . V01|... .. . ...|... .. . ...|... .. . ...
30|... .. . 473|D#3 00 . V02|... .. . ...|E-2 03 . ...|C#3 00 . ...
31|... .. . ...|D#2 00 . V00|... .. . ...|... .. . ...|... .. . ...
32|... .. . ...|D#4 00 . V02|... .. . ...|... .. . ...|... .. . ...
33|... .. . ...|D#2 00 . V00|... .. . ...|... .. . ...|... .. . ...
34|... .. . ...|D#4 00 . V02|--- .. . ...|F#2 02 . ...|... .. . ...
35|... .. . ...|D#2 00 . V01|... .. . ...|... .. . ...|... .. . ...
36|... .. . ...|D#5 00 . V02|... .. . ...|F#2 02 . ...|... .. . ...
37|... .. . ...|D#2 00 . V01|... .. . ...|... .. . ...|... .. . ...
38|... .. . ...|F-4 00 . V02|D-3 00 . ...|F#2 02 . ...|... .. . ...
39|... .. . ...|D#2 00 . V00|... .. . ...|... .. . ...|... .. . ...
3a|... .. . ...|F-5 00 . V02|... .. . ...|... .. . ...|... .. . ...
3b|... .. . ...|D#2 00 . V00|... .. . ...|... .. . ...|... .. . ...
3c|... .. 2 ...|G-4 00 . V02|D#3 00 . ...|F#2 02 . ...|... .. . ...
3d|... .. . ...|D#2 00 . V01|... .. . ...|... .. . ...|... .. . ...
3e|... .. . ...|G-5 00 . V02|... .. . ...|... .. . ...|... .. . ...
3f|... .. . ...|D#2 00 . V01|... .. . ...|... .. . ...|... .. . ...
40|G-3 00 6 Q22|A#4 00 4 V02|D#2 00 . ...|E-2 02 . ...|C-3 00 . ...
41|... .. . ...|D#2 00 . V00|... .. . ...|... .. . ...|... .. . ...
42|... .. . ...|A#5 00 . V02|... .. . ...|... .. . ...|... .. . ...
43|... .. . ...|D#2 00 . V00|... .. . ...|... .. . ...|... .. . ...
44|... .. . ...|A-4 00 . V02|... .. . ...|F#2 02 . ...|... .. . ...
45|... .. . ...|D#2 00 . V01|... .. . ...|... .. . ...|... .. . ...
46|... .. . ...|A-5 00 . V02|... .. . ...|... .. . ...|... .. . ...
47|... .. . ...|D#2 00 . V01|... .. . ...|... .. . ...|... .. . ...
48|... .. . ...|F-4 00 . V02|... .. . ...|F#2 02 . ...|... .. . ...
49|... .. . ...|D#2 00 . V00|... .. . ...|... .. . ...|... .. . ...
4a|... .. . ...|F-5 00 . V02|... .. . ...|... .. . ...|... .. . ...
4b|... .. . ...|D#2 00 . V00|... .. . ...|... .. . ...|... .. . ...
4c|... .. 2 ...|D#4 00 . V02|... .. . ...|F#2 02 . ...|... .. . ...
4d|... .. . ...|D#2 00 . V01|... .. . ...|... .. . ...|... .. . ...
4e|... .. . ...|D#5 00 . V02|... .. . ...|... .. . ...|... .. . ...
4f|... .. . ...|D#2 00 . V01|... .. . ...|... .. . ...|... .. . ...
50|A#3 00 6 ...|D#3 00 . V02|... .. . ...|F#2 02 . ...|... .. . ...
51|... .. . ...|D#2 00 . V00|... .. . ...|... .. . ...|... .. . ...
52|... .. . ...|D#4 00 . V02|... .. . ...|F#2 02 . ...|... .. . ...
53|... .. . ...|D#2 00 . V00|... .. . ...|... .. . ...|... .. . ...
54|... .. . ...|D#4 00 . V02|... .. . ...|F#2 02 . ...|... .. . ...
55|... .. . ...|D#2 00 . V01|... .. . ...|... .. . ...|... .. . ...
56|... .. . ...|D#5 00 . V02|... .. . ...|... .. . ...|... .. . ...
57|... .. . ...|D#2 00 . V01|... .. . ...|... .. . ...|... .. . ...
58|... .. . ...|F-4 00 . V02|--- .. . ...|E-2 02 . ...|C-3 00 . ...
59|... .. . ...|D#2 00 . V00|... .. . ...|... .. . ...|... .. . ...
5a|... .. . ...|F-5 00 . V02|... .. . ...|... .. . ...|... .. . ...
5b|... .. . ...|D#2 00 . V00|... .. . ...|... .. . ...|... .. . ...
5c|... .. 2 ...|G-4 00 . V02|A#1 00 . G04|F#2 02 . ...|... .. . ...
5d|... .. . ...|D#2 00 . V01|... .. . ...|... .. . ...|... .. . ...
5e|... .. . ...|G-5 00 . V02|... .. . S04|... .. . ...|... .. . ...
5f|... .. . ...|D#2 00 . V01|... .. . ...|... .. . ...|... .. . ...
60|C-4 00 6 ...|A#4 00 4 V02|D#2 00 . ...|E-2 02 . ...|C-3 00 . ...
61|... .. . ...|D#2 00 . V00|... .. . ...|... .. . ...|... .. . ...
62|... .. . ...|A#5 00 . V02|... .. . ...|... .. . ...|... .. . ...
63|... .. . ...|D#2 00 . V00|... .. . ...|... .. . ...|... .. . ...
64|... .. . ...|A-4 00 . V02|... .. . ...|F#2 02 . ...|... .. . ...
65|... .. . ...|D#2 00 . V01|... .. . ...|... .. . ...|... .. . ...
66|... .. . ...|A-5 00 . V02|... .. . ...|... .. . ...|... .. . ...
67|... .. . ...|D#2 00 . V01|... .. . ...|... .. . ...|... .. . ...
68|... .. . ...|F-4 00 . V02|... .. . ...|F#2 02 . ...|... .. . ...
69|... .. . ...|D#2 00 . V00|... .. . ...|... .. . ...|... .. . ...
6a|... .. . ...|F-5 00 . V02|... .. . ...|... .. . ...|... .. . ...
6b|... .. . ...|D#2 00 . V00|... .. . ...|... .. . ...|... .. . ...
6c|... .. 2 ...|D#4 00 . V02|--- .. . ...|F#2 02 . ...|... .. . ...
6d|... .. . ...|D#2 00 . V01|... .. . ...|... .. . ...|... .. . ...
6e|... .. . ...|D#5 00 . V02|... .. . ...|... .. . ...|... .. . ...
6f|... .. . ...|D#2 00 . V01|... .. . ...|... .. . ...|... .. . ...
70|C-4 00 6 ...|D#3 00 . V02|F-2 00 . ...|E-2 03 . ...|C#3 00 . ...
71|... .. . ...|D#2 00 . V00|... .. . ...|... .. . ...|... .. . ...
72|... .. . ...|D#4 00 . V02|... .. . ...|... .. . ...|... .. . ...
73|... .. . ...|D#2 00 . V00|... .. . ...|... .. . ...|... .. . ...
74|... .. . Q32|D#4 00 . V02|... .. . ...|F#2 02 . ...|... .. . ...
75|... .. . ...|D#2 00 . V01|... .. . ...|... .. . ...|... .. . ...
76|... .. . ...|D#5 00 . V02|... .. . ...|F#2 02 . ...|... .. . ...
77|... .. . ...|D#2 00 . V01|... .. . ...|... .. . ...|... .. . ...
78|... .. . ...|F-4 00 . V02|... .. . ...|E-2 03 . ...|C#3 00 . ...
79|... .. . ...|D#2 00 . V00|... .. . ...|... .. . ...|... .. . ...
7a|... .. . ...|F-5 00 . V02|... .. . ...|... .. . ...|... .. . ...
7b|... .. . ...|D#2 00 . V00|... .. . ...|... .. . ...|... .. . ...
7c|... .. 2 ...|G-4 00 . V02|--- .. . ...|E-2 03 . ...|C#3 00 . ...
7d|... .. . ...|D#2 00 . V01|... .. . ...|... .. . ...|... .. . ...
7e|... .. . ...|G-5 00 . V02|... .. . ...|... .. . ...|... .. . ...
7f|... .. . ...|D#2 00 . V01|... .. . ...|... .. . ...|... .. . ...

[Frame30]
00|G-3 00 6 V02|A#4 00 4 V02|G-2 00 . ...|C#2 06 a ...|C-3 00 . F03
01|... .. . ...|G-2 00 . V00|... .. . ...|... .. . ...|... .. . ...
02|... .. . ...|A#5 00 . V02|... .. . ...|... .. . ...|... .. . ...
03|... .. . ...|G-2 00 . V00|... .. . ...|... .. . ...|... .. . ...
04|... .. . ...|A-4 00 . V02|... .. . ...|... .. . ...|... .. . ...
05|... .. . ...|G-2 00 . V01|... .. . ...|... .. . ...|... .. . ...
06|... .. . ...|A-5 00 . V02|... .. . ...|... .. . ...|... .. . ...
07|... .. . ...|G-2 00 . V01|... .. . ...|... .. . ...|... .. . ...
08|... .. . ...|F-4 00 . V02|... .. . ...|F#2 02 . ...|... .. . ...
09|... .. . ...|G-2 00 . V00|... .. . ...|... .. . ...|... .. . ...
0a|... .. . ...|F-5 00 . V02|... .. . ...|... .. . ...|... .. . ...
0b|... .. . ...|G-2 00 . V00|... .. . ...|... .. . ...|... .. . ...
0c|... .. . ...|G-4 00 . V02|... .. . ...|F#2 02 . ...|... .. . ...
0d|... .. . ...|G-2 00 . V01|... .. . ...|... .. . ...|... .. . ...
0e|... .. . ...|G-5 00 . V02|... .. . ...|... .. . ...|... .. . ...
0f|... .. . ...|G-2 00 . V01|... .. . ...|... .. . ...|... .. . ...
10|... .. . 473|C-4 00 . V02|... .. . ...|F#2 02 . ...|... .. . ...
11|... .. . ...|G-2 00 . V00|... .. . ...|... .. . ...|... .. . ...
12|... .. . ...|C-5 00 . V02|... .. . ...|F#2 02 . ...|... .. . ...
13|... .. . ...|G-2 00 . V00|... .. . ...|... .. . ...|... .. . ...
14|... .. 2 ...|D-4 00 . V02|... .. . ...|F#2 02 . ...|... .. . ...
15|... .. . ...|G-2 00 . V01|... .. . ...|... .. . ...|... .. . ...
16|... .. . ...|D-5 00 . V02|... .. . ...|... .. . ...|... .. . ...
17|... .. . ...|G-2 00 . V01|... .. . ...|... .. . ...|... .. . ...
18|A#3 00 6 400|F-4 00 . V02|--- .. . ...|E-2 02 . ...|C-3 00 . ...
19|... .. . ...|G-2 00 . V00|... .. . ...|... .. . ...|... .. . ...
1a|... .. . ...|F-5 00 . V02|... .. . ...|... .. . ...|... .. . ...
1b|... .. . ...|G-2 00 . V00|... .. . ...|... .. . ...|... .. . ...
1c|A-3 00 . ...|G-4 00 . V02|D-2 00 . G04|F#2 02 . ...|... .. . ...
1d|... .. . ...|G-2 00 . V01|... .. . ...|... .. . ...|... .. . ...
1e|... .. . ...|G-5 00 . V02|... .. . S04|... .. . ...|... .. . ...
1f|... .. . ...|G-2 00 . V01|... .. . ...|... .. . ...|... .. . ...
20|G-3 00 . ...|A#4 00 . V02|G-2 00 . ...|E-2 02 . ...|C-3 00 . ...
21|... .. . ...|G-2 00 . V00|... .. . ...|... .. . ...|... .. . ...
22|... .. . ...|A#5 00 . V02|... .. . ...|... .. . ...|... .. . ...
23|... .. . ...|G-2 00 . V00|... .. . ...|... .. . ...|... .. . ...
24|... .. . ...|A-4 00 . V02|--- .. . ...|F#2 02 . ...|... .. . ...
25|... .. . ...|G-2 00 . V01|... .. . ...|... .. . ...|... .. . ...
26|... .. . ...|A-5 00 . V02|... .. . ...|... .. . ...|... .. . ...
27|... .. . ...|G-2 00 . V01|... .. . ...|... .. . ...|... .. . ...
28|... .. . ...|F-4 00 . V02|G-2 00 . ...|F#2 02 . ...|... .. . ...
29|... .. . ...|G-2 00 . V00|... .. . ...|... .. . ...|... .. . ...
2a|... .. . ...|F-5 00 . V02|... .. . ...|... .. . ...|... .. . ...
2b|... .. . ...|G-2 00 . V00|... .. . ...|... .. . ...|... .. . ...
2c|... .. . ...|G-4 00 . V02|... .. . ...|F#2 02 . ...|... .. . ...
2d|... .. . ...|G-2 00 . V01|... .. . ...|... .. . ...|... .. . ...
2e|... .. . ...|G-5 00 . V02|... .. . ...|... .. . ...|... .. . ...
2f|... .. . ...|G-2 00 . V01|... .. . ...|... .. . ...|... .. . ...
30|... .. . 473|C-4 00 . V02|... .. . ...|E-2 03 . ...|C#3 00 . ...
31|... .. . ...|G-2 00 . V00|... .. . ...|... .. . ...|... .. . ...
32|... .. . ...|C-5 00 . V02|... .. . ...|... .. . ...|... .. . ...
33|... .. . ...|G-2 00 . V00|... .. . ...|... .. . ...|... .. . ...
34|... .. . ...|D-4 00 . V02|--- .. . ...|F#2 02 . ...|... .. . ...
35|... .. . ...|G-2 00 . V01|... .. . ...|... .. . ...|... .. . ...
36|... .. . ...|D-5 00 . V02|... .. . ...|F#2 02 . ...|... .. . ...
37|... .. . ...|G-2 00 . V01|... .. . ...|... .. . ...|... .. . ...
38|... .. . ...|F-4 00 . V02|D-3 00 . ...|F#2 02 . ...|... .. . ...
39|... .. . ...|G-2 00 . V00|... .. . ...|... .. . ...|... .. . ...
3a|... .. . ...|F-5 00 . V02|... .. . ...|... .. . ...|... .. . ...
3b|... .. . ...|G-2 00 . V00|... .. . ...|... .. . ...|... .. . ...
3c|... .. 2 ...|G-4 00 . V02|--- .. . ...|F#2 02 . ...|... .. . ...
3d|... .. . ...|G-2 00 . V01|... .. . ...|... .. . ...|... .. . ...
3e|... .. . ...|G-5 00 . V02|... .. . ...|... .. . ...|... .. . ...
3f|... .. . ...|G-2 00 . V01|... .. . ...|... .. . ...|... .. . ...
40|G-3 00 6 Q22|A#4 00 . V02|G-2 00 . ...|E-2 02 . ...|C-3 00 . ...
41|... .. . ...|G-2 00 . V00|... .. . ...|... .. . ...|... .. . ...
42|... .. . ...|A#5 00 . V02|... .. . ...|... .. . ...|... .. . ...
43|... .. . ...|G-2 00 . V00|... .. . ...|... .. . ...|... .. . ...
44|... .. . ...|A-4 00 . V02|... .. . ...|F#2 02 . ...|... .. . ...
45|... .. . ...|G-2 00 . V01|... .. . ...|... .. . ...|... .. . ...
46|... .. . ...|A-5 00 . V02|... .. . ...|... .. . ...|... .. . ...
47|... .. . ...|G-2 00 . V01|... .. . ...|... .. . ...|... .. . ...
48|... .. . ...|F-4 00 . V02|... .. . ...|F#2 02 . ...|... .. . ...
49|... .. . ...|G-2 00 . V00|... .. . ...|... .. . ...|... .. . ...
4a|... .. . ...|F-5 00 . V02|... .. . ...|... .. . ...|... .. . ...
4b|... .. . ...|G-2 00 . V00|... .. . ...|... .. . ...|... .. . ...
4c|... .. 2 ...|G-4 00 . V02|... .. . ...|F#2 02 . ...|... .. . ...
4d|... .. . ...|G-2 00 . V01|... .. . ...|... .. . ...|... .. . ...
4e|... .. . ...|G-5 00 . V02|... .. . ...|... .. . ...|... .. . ...
4f|... .. . ...|G-2 00 . V01|... .. . ...|... .. . ...|... .. . ...
50|A#3 00 6 ...|C-4 00 . V02|... .. . ...|F#2 02 . ...|... .. . ...
51|... .. . ...|G-2 00 . V00|... .. . ...|... .. . ...|... .. . ...
52|... .. . ...|C-5 00 . V02|... .. . ...|F#2 02 . ...|... .. . ...
53|... .. . ...|G-2 00 . V00|... .. . ...|... .. . ...|... .. . ...
54|... .. . ...|D-4 00 . V02|... .. . ...|F#2 02 . ...|... .. . ...
55|... .. . ...|G-2 00 . V01|... .. . ...|... .. . ...|... .. . ...
56|... .. . ...|D-5 00 . V02|... .. . ...|... .. . ...|... .. . ...
57|... .. . ...|G-2 00 . V01|... .. . ...|... .. . ...|... .. . ...
58|... .. . ...|F-4 00 . V02|--- .. . ...|E-2 02 . ...|C-3 00 . ...
59|... .. . ...|G-2 00 . V00|... .. . ...|... .. . ...|... .. . ...
5a|... .. . ...|F-5 00 . V02|... .. . ...|... .. . ...|... .. . ...
5b|... .. . ...|G-2 00 . V00|... .. . ...|... .. . ...|... .. . ...
5c|... .. 2 ...|G-4 00 . V02|G-1 00 . G04|F#2 02 . ...|... .. . ...
5d|... .. . ...|G-2 00 . V01|... .. . ...|... .. . ...|... .. . ...
5e|... .. . ...|G-5 00 . V02|... .. . S04|... .. . ...|... .. . ...
5f|... .. . ...|G-2 00 . V01|... .. . ...|... .. . ...|... .. . ...
60|C-4 00 6 ...|A#4 00 . V02|G-2 00 . ...|E-2 02 . ...|C-3 00 . ...
61|... .. . ...|G-2 00 . V00|... .. . ...|... .. . ...|... .. . ...
62|... .. . ...|A#5 00 . V02|... .. . ...|... .. . ...|... .. . ...
63|... .. . ...|G-2 00 . V00|... .. . ...|... .. . ...|... .. . ...
64|... .. . ...|A-4 00 . V02|... .. . ...|F#2 02 . ...|D-3 00 . ...
65|... .. . ...|G-2 00 . V01|... .. . ...|... .. . ...|... .. . ...
66|... .. . ...|A-5 00 . V02|... .. . ...|... .. . ...|... .. . ...
67|... .. . ...|G-2 00 . V01|... .. . ...|... .. . ...|... .. . ...
68|... .. . ...|F-4 00 . V02|... .. . ...|F#2 02 . ...|D-3 00 . ...
69|... .. . ...|G-2 00 . V00|... .. . ...|... .. . ...|... .. . ...
6a|... .. . ...|F-5 00 . V02|... .. . ...|... .. . ...|... .. . ...
6b|... .. . ...|G-2 00 . V00|... .. . ...|... .. . ...|... .. . ...
6c|... .. 2 ...|G-4 00 . V02|--- .. . ...|F#2 02 . ...|D#3 00 . ...
6d|... .. . ...|G-2 00 . V01|... .. . ...|... .. . ...|... .. . ...
6e|... .. . ...|G-5 00 . V02|... .. . ...|... .. . ...|... .. . ...
6f|... .. . ...|G-2 00 . V01|... .. . ...|... .. . ...|... .. . ...
70|C-4 00 6 ...|C-4 00 . V02|F-2 00 . ...|E-2 03 . ...|C#3 00 . ...
71|... .. . ...|G-2 00 . V00|... .. . ...|... .. . ...|... .. . ...
72|... .. . ...|C-5 00 . V02|... .. . ...|... .. . ...|... .. . ...
73|... .. . ...|G-2 00 . V00|... .. . ...|... .. . ...|... .. . ...
74|... .. . Q32|D-4 00 . V02|... .. . ...|F#2 02 . ...|D#3 00 . ...
75|... .. . ...|G-2 00 . V01|... .. . ...|... .. . ...|... .. . ...
76|... .. . ...|D-5 00 . V02|... .. . ...|F#2 02 . ...|D#3 00 . ...
77|... .. . ...|G-2 00 . V01|... .. . ...|... .. . ...|... .. . ...
78|... .. . ...|F-4 00 . V02|... .. . ...|E-2 03 . ...|C#3 00 . ...
79|... .. . ...|G-2 00 . V00|... .. . ...|... .. . ...|... .. . ...
7a|... .. . ...|F-5 00 . V02|... .. . ...|... .. . ...|... .. . ...
7b|... .. . ...|G-2 00 . V00|... .. . ...|... .. . ...|... .. . ...
7c|... .. 2 ...|G-4 00 . V02|--- .. . ...|E-2 03 . ...|C#3 00 . ...
7d|... .. . ...|G-2 00 . V01|... .. . ...|... .. . ...|... .. . ...
7e|... .. . ...|G-5 00 . V02|... .. . ...|... .. . ...|... .. . ...
7f|... .. . ...|G-2 00 . V01|... .. . ...|... .. . ...|... .. . ...

[Frame31]
00|D#4 00 1 V02|G-3 00 1 V01|D#1 00 . ...|C#2 06 a ...|C-3 00 . F03
01|... .. 2 ...|... .. . ...|... .. . ...|... .. . ...|... .. . ...
02|... .. . ...|... .. . ...|... .. . ...|... .. . ...|... .. . ...
03|... .. 3 ...|... .. . ...|... .. . ...|... .. . ...|... .. . ...
04|... .. 4 ...|... .. 2 ...|... .. . ...|... .. . ...|... .. . ...
05|... .. . ...|... .. . ...|... .. . ...|... .. . ...|... .. . ...
06|... .. 5 ...|... .. . ...|... .. . ...|... .. . ...|... .. . ...
07|... .. . ...|... .. . ...|... .. . ...|... .. . ...|... .. . ...
08|... .. 6 442|... .. 3 ...|... .. . ...|A-1 00 2 ...|... .. . ...
09|... .. . ...|... .. . ...|... .. . ...|... .. . ...|... .. . ...
0a|... .. . ...|... .. . ...|... .. . ...|... .. . ...|... .. . ...
0b|... .. . ...|... .. . ...|... .. . ...|... .. . ...|... .. . ...
0c|... .. . ...|... .. . ...|... .. . ...|... .. . ...|... .. . ...
0d|... .. . ...|... .. . ...|... .. . ...|... .. . ...|... .. . ...
0e|... .. . ...|... .. . ...|... .. . ...|... .. . ...|... .. . ...
0f|... .. . ...|... .. . ...|... .. . ...|... .. . ...|... .. . ...
10|... .. . ...|A#4 09 c A06|... .. . ...|... .. 3 ...|... .. . ...
11|... .. . ...|... .. . ...|... .. . ...|... .. . ...|... .. . ...
12|... .. . ...|... .. . ...|... .. . ...|... .. . ...|... .. . ...
13|... .. . ...|... .. . ...|... .. . ...|... .. . ...|... .. . ...
14|... .. . ...|... .. . ...|... .. . ...|... .. . ...|... .. . ...
15|... .. . ...|... .. . ...|... .. . ...|... .. . ...|... .. . ...
16|... .. . ...|... .. . ...|... .. . ...|... .. . ...|... .. . ...
17|... .. . ...|... .. . ...|... .. . ...|... .. . ...|... .. . ...
18|... .. 5 ...|G-3 00 2 A00|... .. . ...|... .. 4 ...|... .. . ...
19|... .. . ...|... .. . ...|... .. . ...|... .. . ...|... .. . ...
1a|... .. . ...|... .. . ...|... .. . ...|... .. . ...|... .. . ...
1b|... .. . ...|... .. . ...|... .. . ...|... .. . ...|... .. . ...
1c|... .. . ...|... .. . ...|... .. . ...|... .. . ...|... .. . ...
1d|... .. . ...|... .. . ...|... .. . ...|... .. . ...|... .. . ...
1e|... .. . ...|... .. . ...|... .. . ...|... .. . ...|... .. . ...
1f|... .. . ...|... .. . ...|... .. . ...|... .. . ...|... .. . ...
20|... .. 4 ...|A-4 09 c A06|... .. . ...|... .. 5 ...|... .. . ...
21|... .. . ...|... .. . ...|... .. . ...|... .. . ...|... .. . ...
22|... .. . ...|... .. . ...|... .. . ...|... .. . ...|... .. . ...
23|... .. . ...|... .. . ...|... .. . ...|... .. . ...|... .. . ...
24|... .. . ...|... .. . ...|... .. . ...|... .. . ...|... .. . ...
25|... .. . ...|... .. . ...|... .. . ...|... .. . ...|... .. . ...
26|... .. . ...|... .. . ...|... .. . ...|... .. . ...|... .. . ...
27|... .. . ...|... .. . ...|... .. . ...|... .. . ...|... .. . ...
28|... .. 3 ...|G-3 00 1 A00|... .. . ...|... .. 4 ...|... .. . ...
29|... .. . ...|... .. . ...|... .. . ...|... .. . ...|... .. . ...
2a|... .. . ...|... .. . ...|... .. . ...|... .. . ...|... .. . ...
2b|... .. . ...|... .. . ...|... .. . ...|... .. . ...|... .. . ...
2c|... .. . ...|... .. . ...|... .. . ...|... .. . ...|... .. . ...
2d|... .. . ...|... .. . ...|... .. . ...|... .. . ...|... .. . ...
2e|... .. . ...|... .. . ...|... .. . ...|... .. . ...|... .. . ...
2f|... .. . ...|... .. . ...|... .. . ...|... .. . ...|... .. . ...
30|... .. 2 ...|F-4 09 c A06|... .. . ...|... .. 3 ...|... .. . ...
31|... .. . ...|... .. . ...|... .. . ...|... .. . ...|... .. . ...
32|... .. . ...|... .. . ...|... .. . ...|... .. . ...|... .. . ...
33|... .. . ...|... .. . ...|... .. . ...|... .. . ...|... .. . ...
34|... .. . ...|... .. . ...|... .. . ...|... .. . ...|... .. . ...
35|... .. . ...|... .. . ...|... .. . ...|... .. . ...|... .. . ...
36|... .. . ...|... .. . ...|... .. . ...|... .. . ...|... .. . ...
37|... .. . ...|... .. . ...|... .. . ...|... .. . ...|... .. . ...
38|... .. 1 ...|... .. . ...|... .. . ...|... .. 2 ...|... .. . ...
39|... .. . ...|... .. . ...|... .. . ...|... .. . ...|... .. . ...
3a|... .. . ...|... .. . ...|... .. . ...|... .. . ...|... .. . ...
3b|... .. . ...|... .. . ...|... .. . ...|... .. . ...|... .. . ...
3c|... .. . ...|... .. . ...|... .. . ...|... .. . ...|... .. . ...
3d|... .. . ...|... .. . ...|... .. . ...|... .. . ...|... .. . ...
3e|... .. . ...|... .. . ...|... .. . ...|... .. . ...|... .. . ...
3f|... .. . ...|... .. . ...|... .. . ...|... .. . ...|... .. . ...
40|... .. . ...|G-4 09 c ...|D#2 00 . ...|F#1 00 1 ...|... .. . ...
41|... .. . ...|... .. . ...|... .. . ...|... .. . ...|... .. . ...
42|... .. . ...|... .. . ...|... .. . ...|... .. . ...|... .. . ...
43|... .. . ...|... .. . ...|... .. . ...|... .. . ...|... .. . ...
44|... .. . ...|... .. . ...|... .. . ...|... .. . ...|... .. . ...
45|... .. . ...|... .. . ...|... .. . ...|... .. . ...|... .. . ...
46|... .. . ...|... .. . ...|... .. . ...|... .. . ...|... .. . ...
47|... .. . ...|... .. . ...|... .. . ...|... .. . ...|... .. . ...
48|... .. 2 ...|G-3 00 1 A00|... .. . ...|... .. 2 ...|... .. . F03
49|... .. . ...|... .. . ...|... .. . ...|... .. . ...|... .. . ...
4a|... .. . ...|... .. . ...|... .. . ...|... .. . ...|... .. . F04
4b|... .. . ...|... .. . ...|... .. . ...|... .. . ...|... .. . ...
4c|... .. . ...|... .. . ...|... .. . ...|... .. . ...|... .. . F03
4d|... .. . ...|... .. . ...|... .. . ...|... .. . ...|... .. . ...
4e|... .. . ...|... .. . ...|... .. . ...|... .. . ...|... .. . F04
4f|... .. . ...|... .. . ...|... .. . ...|... .. . ...|... .. . ...
50|... .. 3 ...|D-5 09 c A06|... .. . ...|... .. 3 ...|... .. . ...
51|... .. . ...|... .. . ...|... .. . ...|... .. . ...|... .. . ...
52|... .. . ...|... .. . ...|... .. . ...|... .. . ...|... .. . ...
53|... .. . ...|... .. . ...|... .. . ...|... .. . ...|... .. . ...
54|... .. . ...|... .. . ...|... .. . ...|... .. . ...|... .. . F05
55|... .. . ...|... .. . ...|... .. . ...|... .. . ...|... .. . ...
56|... .. . ...|G-3 00 2 A00|... .. . ...|... .. . ...|... .. . ...
57|... .. . ...|... .. . ...|... .. . ...|... .. . ...|... .. . ...
58|... .. 4 ...|... .. . ...|... .. . ...|... .. 4 ...|... .. . ...
59|... .. . ...|... .. . ...|... .. . ...|... .. . ...|... .. . ...
5a|... .. . ...|... .. . ...|... .. . ...|... .. . ...|... .. . ...
5b|... .. . ...|... .. . ...|... .. . ...|... .. . ...|... .. . ...
5c|... .. . ...|... .. . ...|... .. . ...|... .. . ...|... .. . F06
5d|... .. . ...|... .. . ...|... .. . ...|... .. . ...|... .. . ...
5e|... .. . ...|... .. . ...|... .. . ...|... .. . ...|... .. . ...
5f|... .. . ...|... .. . ...|... .. . ...|... .. . ...|... .. . ...
60|... .. 5 ...|G-4 09 c A06|... .. . ...|... .. 5 ...|... .. . ...
61|... .. . ...|... .. . ...|... .. . ...|... .. . ...|... .. . ...
62|... .. . ...|... .. . ...|... .. . ...|... .. . ...|... .. . ...
63|... .. . ...|... .. . ...|... .. . ...|... .. . ...|... .. . ...
64|... .. . ...|... .. . ...|... .. . ...|... .. . ...|... .. . ...
65|... .. . ...|G-3 00 3 A00|... .. . ...|... .. . ...|... .. . ...
66|... .. . ...|... .. . ...|... .. . ...|... .. . ...|... .. . ...
67|... .. . ...|... .. . ...|... .. . ...|... .. . ...|... .. . ...
68|... .. 6 ...|... .. . ...|... .. . ...|... .. 4 ...|... .. . ...
69|... .. . ...|... .. . ...|... .. . ...|... .. . ...|... .. . ...
6a|... .. . ...|... .. . ...|... .. . ...|... .. . ...|... .. . ...
6b|... .. . ...|... .. . ...|... .. . ...|... .. . ...|... .. . ...
6c|... .. . ...|... .. . ...|... .. . ...|... .. . ...|... .. . ...
6d|... .. . ...|... .. . ...|... .. . ...|... .. . ...|... .. . ...
6e|... .. . ...|... .. . ...|... .. . ...|... .. . ...|... .. . ...
6f|... .. . ...|... .. . ...|... .. . ...|... .. . ...|... .. . ...
70|... .. 5 ...|C-5 09 c A06|... .. . ...|... .. 3 ...|... .. . F07
71|... .. . ...|... .. . ...|... .. . ...|... .. . ...|... .. . ...
72|... .. . ...|... .. . ...|... .. . ...|... .. . ...|... .. . ...
73|... .. 4 ...|... .. . ...|... .. . ...|... .. . ...|... .. . ...
74|... .. . ...|G-3 00 1 A00|... .. . ...|... .. . ...|... .. . ...
75|... .. 3 ...|... .. . ...|... .. . ...|... .. . ...|... .. . ...
76|... .. . ...|... .. . ...|... .. . ...|... .. . ...|... .. . ...
77|... .. 2 ...|... .. . ...|... .. . ...|... .. . ...|... .. . ...
78|... .. . ...|... .. . ...|... .. . ...|... .. 2 ...|... .. . F0f
79|... .. 1 ...|... .. . ...|... .. . ...|... .. 1 ...|... .. . ...
7a|... .. . ...|... .. 0 ...|... .. . ...|... .. . ...|... .. . ...
7b|... .. . ...|... .. . ...|--- .. . ...|... .. 0 ...|... .. . ...
7c|... .. . ...|... .. . ...|... .. . ...|... .. . ...|... .. . ...
7d|... .. 0 ...|... .. . ...|... .. . ...|... .. . ...|... .. . ...
7e|... .. . ...|... .. . ...|... .. . ...|... .. . ...|... .. . ...
7f|... .. . ...|... .. . ...|... .. . ...|... .. . ...|... .. . ...

[Frame32]
00|... .. . ...|... .. . ...|... .. . ...|C#2 06 a ...|C-3 00 . F02
01|... .. . ...|... .. . ...|... .. . ...|... .. . ...|... .. . ...
02|... .. . ...|... .. . ...|... .. . ...|... .. . ...|... .. . ...
03|... .. . ...|... .. . ...|... .. . ...|... .. . ...|... .. . ...
04|... .. . ...|... .. . ...|... .. . ...|... .. . ...|C#3 00 . ...
05|... .. . ...|... .. . ...|... .. . ...|... .. . ...|... .. . ...
06|... .. . ...|... .. . ...|... .. . ...|... .. . ...|... .. . ...
07|... .. . ...|... .. . ...|... .. . ...|... .. . ...|... .. . ...
08|... .. . ...|... .. . ...|... .. . ...|E-2 02 . ...|C-3 00 . ...
09|... .. . ...|... .. . ...|... .. . ...|... .. . ...|... .. . ...
0a|... .. . ...|... .. . ...|... .. . ...|E-2 02 . ...|C-3 00 . ...
0b|... .. . ...|... .. . ...|... .. . ...|... .. . ...|... .. . ...
0c|... .. . ...|... .. . ...|... .. . ...|E-2 03 . ...|C#3 00 . ...
0d|... .. . ...|... .. . ...|... .. . ...|... .. . ...|... .. . ...
0e|... .. . ...|... .. . ...|... .. . ...|... .. . ...|... .. . ...
0f|... .. . ...|... .. . ...|... .. . ...|... .. . ...|... .. . ...
10|... .. . ...|... .. . ...|... .. . ...|C#2 06 . ...|C-3 00 . ...
11|... .. . ...|... .. . ...|... .. . ...|... .. . ...|... .. . ...
12|... .. . ...|... .. . ...|... .. . ...|... .. . ...|... .. . ...
13|... .. . ...|... .. . ...|... .. . ...|... .. . ...|... .. . ...
14|... .. . ...|... .. . ...|... .. . ...|... .. . ...|C-3 00 . ...
15|... .. . ...|... .. . ...|... .. . ...|... .. . ...|... .. . ...
16|... .. . ...|... .. . ...|... .. . ...|... .. . ...|... .. . ...
17|... .. . ...|... .. . ...|... .. . ...|... .. . ...|... .. . ...
18|... .. . ...|... .. . ...|... .. . ...|C#2 06 . ...|D-3 00 . ...
19|... .. . ...|... .. . ...|... .. . ...|... .. . ...|... .. . ...
1a|... .. . ...|... .. . ...|... .. . ...|... .. . ...|... .. . ...
1b|... .. . ...|... .. . ...|... .. . ...|... .. . ...|... .. . ...
1c|... .. . ...|... .. . ...|... .. . ...|... .. . ...|D-3 00 . ...
1d|... .. . ...|... .. . ...|... .. . ...|... .. . ...|... .. . ...
1e|... .. . ...|... .. . ...|... .. . ...|... .. . ...|D-3 00 . ...
1f|... .. . ...|... .. . ...|... .. . ...|... .. . ...|... .. . ...
20|... .. . ...|... .. . ...|... .. . ...|F#2 02 . ...|D#3 00 . ...
21|... .. . ...|... .. . ...|... .. . ...|... .. . ...|... .. . ...
22|... .. . ...|... .. . ...|... .. . ...|... .. . ...|... .. . ...
23|... .. . ...|... .. . ...|... .. . ...|... .. . ...|... .. . ...
24|... .. . ...|... .. . ...|... .. . ...|F#2 02 . ...|D#3 00 . ...
25|... .. . ...|... .. . ...|... .. . ...|... .. . ...|... .. . ...
26|... .. . ...|... .. . ...|... .. . ...|... .. . ...|... .. . ...
27|... .. . ...|... .. . ...|... .. . ...|... .. . ...|... .. . ...
28|... .. . ...|... .. . ...|... .. . ...|F#2 02 . ...|D#3 00 . ...
29|... .. . ...|... .. . ...|... .. . ...|... .. . ...|... .. . ...
2a|... .. . ...|... .. . ...|... .. . ...|F#2 02 . ...|D#3 00 . ...
2b|... .. . ...|... .. . ...|... .. . ...|... .. . ...|... .. . ...
2c|... .. . ...|... .. . ...|... .. . ...|E-2 02 . ...|C-3 00 . ...
2d|... .. . ...|... .. . ...|... .. . ...|... .. . ...|... .. . ...
2e|... .. . ...|... .. . ...|... .. . ...|... .. . ...|... .. . ...
2f|... .. . ...|... .. . ...|... .. . ...|... .. . ...|... .. . ...
30|... .. . ...|... .. . ...|... .. . ...|C#2 06 . ...|C-3 00 . ...
31|... .. . ...|... .. . ...|... .. . ...|... .. . ...|... .. . ...
32|... .. . ...|... .. . ...|... .. . ...|... .. . ...|C-3 00 . ...
33|... .. . ...|... .. . ...|... .. . ...|... .. . ...|... .. . ...
34|... .. . ...|... .. . ...|... .. . ...|... .. . ...|C#3 00 . ...
35|... .. . ...|... .. . ...|... .. . ...|... .. . ...|... .. . ...
36|... .. . ...|... .. . ...|... .. . ...|... .. . ...|... .. . ...
37|... .. . ...|... .. . ...|... .. . ...|... .. . ...|... .. . ...
38|... .. . ...|... .. . ...|... .. . ...|E-2 03 . ...|C#3 00 . ...
39|... .. . ...|... .. . ...|... .. . ...|... .. . ...|... .. . ...
3a|... .. . ...|... .. . ...|... .. . ...|E-2 03 . ...|C#3 00 . ...
3b|... .. . ...|... .. . ...|... .. . ...|... .. . ...|... .. . ...
3c|... .. . ...|... .. . ...|... .. . ...|E-2 03 . ...|C#3 00 . ...
3d|... .. . ...|... .. . ...|... .. . ...|... .. . ...|... .. . ...
3e|... .. . ...|... .. . ...|... .. . ...|E-2 03 . ...|C#3 00 . ...
3f|... .. . ...|... .. . ...|... .. . ...|... .. . ...|... .. . ...
40|... .. . ...|... .. . ...|... .. . ...|E-2 02 . ...|C-3 00 . ...
41|... .. . ...|... .. . ...|... .. . ...|... .. . ...|... .. . ...
42|... .. . ...|... .. . ...|... .. . ...|... .. . ...|... .. . ...
43|... .. . ...|... .. . ...|... .. . ...|... .. . ...|... .. . ...
44|... .. . ...|... .. . ...|... .. . ...|E-2 03 . ...|C#3 00 . ...
45|... .. . ...|... .. . ...|... .. . ...|... .. . ...|... .. . ...
46|... .. . ...|... .. . ...|... .. . ...|... .. . ...|... .. . ...
47|... .. . ...|... .. . ...|... .. . ...|... .. . ...|... .. . ...
48|... .. . ...|... .. . ...|... .. . ...|E-2 02 . ...|C-3 00 . ...
49|... .. . ...|... .. . ...|... .. . ...|... .. . ...|... .. . ...
4a|... .. . ...|... .. . ...|... .. . ...|... .. . ...|... .. . ...
4b|... .. . ...|... .. . ...|... .. . ...|... .. . ...|... .. . ...
4c|... .. . ...|... .. . ...|... .. . ...|E-2 02 . ...|C-3 00 . ...
4d|... .. . ...|... .. . ...|... .. . ...|... .. . ...|... .. . ...
4e|... .. . ...|... .. . ...|... .. . ...|... .. . ...|... .. . ...
4f|... .. . ...|... .. . ...|... .. . ...|... .. . ...|... .. . ...
50|... .. . ...|... .. . ...|... .. . ...|C#2 06 . ...|C#3 00 . ...
51|... .. . ...|... .. . ...|... .. . ...|... .. . ...|... .. . ...
52|... .. . ...|... .. . ...|... .. . ...|... .. . ...|... .. . ...
53|... .. . ...|... .. . ...|... .. . ...|... .. . ...|... .. . ...
54|... .. . ...|... .. . ...|... .. . ...|... .. . ...|... .. . ...
55|... .. . ...|... .. . ...|... .. . ...|... .. . ...|... .. . ...
56|... .. . ...|... .. . ...|... .. . ...|... .. . ...|... .. . ...
57|... .. . ...|... .. . ...|... .. . ...|... .. . ...|... .. . ...
58|... .. . ...|... .. . ...|... .. . ...|F#2 02 . ...|... .. . ...
59|... .. . ...|... .. . ...|... .. . ...|... .. . ...|... .. . ...
5a|... .. . ...|... .. . ...|... .. . ...|... .. . ...|... .. . ...
5b|... .. . ...|... .. . ...|... .. . ...|... .. . ...|... .. . ...
5c|... .. . ...|... .. . ...|... .. . ...|... .. . ...|... .. . ...
5d|... .. . ...|... .. . ...|... .. . ...|... .. . ...|... .. . ...
5e|... .. . ...|... .. . ...|... .. . ...|... .. . ...|... .. . ...
5f|... .. . ...|... .. . ...|... .. . ...|... .. . ...|... .. . ...
60|... .. . ...|... .. . ...|... .. . ...|F#2 02 . ...|... .. . ...
61|... .. . ...|... .. . ...|... .. . ...|... .. . ...|... .. . ...
62|... .. . ...|... .. . ...|... .. . ...|... .. . ...|... .. . ...
63|... .. . ...|... .. . ...|... .. . ...|... .. . ...|... .. . ...
64|... .. . ...|... .. . ...|... .. . ...|... .. . ...|... .. . ...
65|... .. . ...|... .. . ...|... .. . ...|... .. . ...|... .. . ...
66|... .. . ...|... .. . ...|... .. . ...|... .. . ...|... .. . ...
67|... .. . ...|... .. . ...|... .. . ...|... .. . ...|... .. . ...
68|... .. . ...|... .. . ...|... .. . ...|... .. . ...|... .. . ...
69|... .. . ...|... .. . ...|... .. . ...|... .. . ...|... .. . ...
6a|... .. . ...|... .. . ...|... .. . ...|... .. . ...|... .. . ...
6b|... .. . ...|... .. . ...|... .. . ...|... .. . ...|... .. . ...
6c|... .. . ...|... .. . ...|... .. . ...|... .. . ...|... .. . ...
6d|... .. . ...|... .. . ...|... .. . ...|... .. . ...|... .. . ...
6e|... .. . ...|... .. . ...|... .. . ...|... .. . ...|... .. . ...
6f|... .. . ...|... .. . ...|... .. . ...|... .. . ...|... .. . ...
70|... .. . ...|... .. . ...|... .. . ...|... .. . ...|... .. . ...
71|... .. . ...|... .. . ...|... .. . ...|... .. . ...|... .. . ...
72|... .. . ...|... .. . ...|... .. . ...|... .. . ...|... .. . ...
73|... .. . ...|... .. . ...|... .. . ...|... .. . ...|... .. . ...
74|... .. . ...|... .. . ...|... .. . ...|... .. . ...|... .. . ...
75|... .. . ...|... .. . ...|... .. . ...|... .. . ...|... .. . ...
76|... .. . ...|... .. . ...|... .. . ...|... .. . ...|... .. . ...
77|... .. . ...|... .. . ...|... .. . ...|... .. . ...|... .. . ...
78|... .. . ...|... .. . ...|... .. . ...|... .. . ...|... .. . ...
79|... .. . ...|... .. . ...|... .. . ...|... .. . ...|... .. . ...
7a|... .. . ...|... .. . ...|... .. . ...|... .. . ...|... .. . ...
7b|... .. . ...|... .. . ...|... .. . ...|... .. . ...|... .. . ...
7c|... .. . ...|... .. . ...|... .. . ...|... .. . ...|... .. . ...
7d|... .. . ...|... .. . ...|... .. . ...|... .. . ...|... .. . ...
7e|... .. . ...|... .. . ...|... .. . ...|... .. . ...|... .. . ...
7f|... .. . ...|... .. . ...|... .. . ...|... .. . ...|... .. . ...

[Frame33]
00|A-2 04 6 400|... .. . ...|A-2 00 . ...|C#2 06 a ...|C-3 00 . ...
01|... .. . ...|... .. . ...|... .. . ...|... .. . ...|... .. . ...
02|G-2 04 . ...|... .. . ...|... .. . ...|... .. . ...|... .. . ...
03|... .. . ...|A-2 04 2 ...|... .. . ...|... .. . ...|... .. . ...
04|A-2 04 . ...|C-5 00 5 V01|... .. . ...|... .. . ...|C#3 00 . ...
05|... .. . ...|A-4 00 . V00|... .. . ...|... .. . ...|... .. . ...
06|C-3 04 . ...|E-4 00 . V00|... .. . ...|... .. . ...|... .. . ...
07|... .. . ...|C-5 00 . V02|... .. . ...|... .. . ...|... .. . ...
08|A-2 04 . ...|A-4 00 1 V01|A-3 00 . ...|E-2 02 . ...|C-3 00 . ...
09|... .. . ...|E-4 00 . V00|... .. . ...|... .. . ...|... .. . ...
0a|C-3 04 . ...|C-5 00 . V00|... .. . ...|F#2 02 . ...|... .. . ...
0b|... .. . ...|A-4 00 . V02|... .. . ...|... .. . ...|... .. . ...
0c|D-3 04 . ...|C-5 00 5 V01|A-2 00 . ...|E-2 03 . ...|C#3 00 . ...
0d|... .. . ...|A-4 00 . V00|... .. . ...|... .. . ...|... .. . ...
0e|C-3 04 . ...|E-4 00 . V00|... .. . ...|F#2 02 . ...|... .. . ...
0f|... .. . ...|C-5 00 . V02|... .. . ...|... .. . ...|... .. . ...
10|D-3 04 . ...|A-4 00 1 V01|--- .. . ...|E-2 02 . ...|C-3 00 . ...
11|... .. . ...|E-4 00 . V00|... .. . ...|... .. . ...|... .. . ...
12|E-3 04 . ...|C-5 00 . V00|... .. . ...|F#2 02 . ...|... .. . ...
13|... .. . ...|A-4 00 . V02|... .. . ...|... .. . ...|... .. . ...
14|D-3 04 . ...|B-4 00 5 V01|A-2 00 . ...|E-2 03 . ...|C#3 00 . ...
15|... .. . ...|G-4 00 . V00|... .. . ...|... .. . ...|... .. . ...
16|E-3 04 . ...|E-4 00 . V00|... .. . ...|E-2 02 . ...|C-3 00 . ...
17|... .. . ...|B-4 00 . V02|... .. . ...|... .. . ...|... .. . ...
18|G-3 04 . ...|G-4 00 1 V01|A-3 00 . ...|F#2 02 . ...|... .. . ...
19|... .. . ...|E-4 00 . V00|... .. . ...|... .. . ...|... .. . ...
1a|E-3 04 . ...|B-4 00 . V00|... .. . ...|E-2 02 . ...|C-3 00 . ...
1b|... .. . ...|G-4 00 . V02|... .. . ...|... .. . ...|... .. . ...
1c|G-3 04 . ...|C-5 00 5 V01|E-2 00 . ...|E-2 03 . ...|C#3 00 . ...
1d|... .. . ...|A-4 00 . V00|... .. . ...|... .. . ...|... .. . ...
1e|A-3 04 . ...|E-4 00 . V00|... .. . ...|F#2 02 . ...|... .. . ...
1f|... .. . ...|C-5 00 . V02|... .. . ...|... .. . ...|... .. . ...
20|G-3 04 . ...|A-4 00 1 V01|A-2 00 . ...|E-2 02 . ...|C-3 00 . ...
21|... .. . ...|E-4 00 . V00|... .. . ...|... .. . ...|... .. . ...
22|A-3 04 . ...|C-5 00 . V00|... .. . ...|F#2 02 . ...|... .. . ...
23|... .. . ...|A-4 00 . V02|... .. . ...|... .. . ...|... .. . ...
24|C-4 04 . ...|C-5 00 5 V01|... .. . ...|E-2 03 . ...|C#3 00 . ...
25|... .. . ...|A-4 00 . V00|... .. . ...|... .. . ...|... .. . ...
26|A-3 04 . ...|E-4 00 . V00|... .. . ...|F#2 02 . ...|... .. . ...
27|... .. . ...|C-5 00 . V02|... .. . ...|... .. . ...|... .. . ...
28|C-4 04 . ...|A-4 00 1 V01|A-3 00 . ...|E-2 02 . ...|C-3 00 . ...
29|... .. . ...|E-4 00 . V00|... .. . ...|... .. . ...|... .. . ...
2a|D-4 04 . ...|C-5 00 . V00|... .. . ...|F#2 02 . ...|... .. . ...
2b|... .. . ...|A-4 00 . V02|... .. . ...|... .. . ...|... .. . ...
2c|C-4 04 . ...|C-5 00 5 V01|A-2 00 . ...|E-2 03 . ...|C#3 00 . ...
2d|... .. . ...|A-4 00 . V00|... .. . ...|... .. . ...|... .. . ...
2e|D-4 04 . ...|E-4 00 . V00|... .. . ...|E-2 02 . ...|C-3 00 . ...
2f|... .. . ...|C-5 00 . V02|... .. . ...|... .. . ...|... .. . ...
30|E-4 04 . ...|A-4 00 1 V01|--- .. . ...|F#2 02 . ...|... .. . ...
31|... .. . ...|E-4 00 . V00|... .. . ...|... .. . ...|... .. . ...
32|D-4 04 . ...|C-5 00 . V00|... .. . ...|E-2 02 . ...|C-3 00 . ...
33|... .. . ...|A-4 00 . V02|... .. . ...|... .. . ...|... .. . ...
34|E-4 04 . ...|B-4 00 5 V01|A-2 00 . ...|E-2 03 . ...|C#3 00 . ...
35|... .. . ...|G-4 00 . V00|... .. . ...|... .. . ...|... .. . ...
36|G-4 04 . ...|E-4 00 1 V00|... .. . ...|E-2 02 . ...|C-3 00 . ...
37|... .. . ...|B-4 00 . V02|... .. . ...|... .. . ...|... .. . ...
38|E-4 04 . ...|B-4 00 5 V01|A-3 00 . ...|E-2 03 . ...|C#3 00 . ...
39|... .. . ...|G-4 00 . V00|... .. . ...|... .. . ...|... .. . ...
3a|G-4 04 . ...|E-4 00 1 V00|... .. . ...|F#2 02 . ...|... .. . ...
3b|... .. . ...|B-4 00 . V02|... .. . ...|... .. . ...|... .. . ...
3c|C-5 04 . ...|C-5 00 5 V01|E-2 00 . ...|E-2 03 . ...|C#3 00 . ...
3d|... .. . ...|A-4 00 . V00|... .. . ...|... .. . ...|... .. . ...
3e|D-5 04 . ...|E-4 00 . V00|... .. . ...|E-2 03 . ...|C#3 00 . ...
3f|... .. . ...|C-5 00 . V02|... .. . ...|... .. . ...|... .. . ...
40|D#5 04 . ...|A-4 00 1 V01|A-2 00 . ...|E-2 02 . ...|C-3 00 . ...
41|... .. . ...|E-4 00 . V00|... .. . ...|... .. . ...|... .. . ...
42|... .. . ...|C-5 00 . V00|... .. . ...|F#2 02 . ...|... .. . ...
43|... .. . ...|A-4 00 . V02|... .. . ...|... .. . ...|... .. . ...
44|... .. . ...|C-5 00 5 V01|... .. . ...|E-2 03 . ...|C#3 00 . ...
45|... .. . ...|A-4 00 . V00|... .. . ...|... .. . ...|... .. . ...
46|... .. . ...|E-4 00 . V00|... .. . ...|F#2 02 . ...|... .. . ...
47|... .. . ...|C-5 00 . V02|... .. . ...|... .. . ...|... .. . ...
48|... .. . Q01|A-4 00 1 V01|A-3 00 . ...|E-2 02 . ...|C-3 00 . ...
49|... .. . ...|E-4 00 . V00|... .. . ...|... .. . ...|... .. . ...
4a|... .. . ...|C-5 00 . V00|... .. . ...|F#2 02 . ...|... .. . ...
4b|... .. . ...|A-4 00 . V02|... .. . ...|... .. . ...|... .. . ...
4c|... .. . 474|C-5 00 5 V01|A-2 00 . ...|E-2 03 . ...|C#3 00 . ...
4d|... .. . ...|A-4 00 . V00|... .. . ...|... .. . ...|... .. . ...
4e|... .. . ...|E-4 00 . V00|... .. . ...|F#2 02 . ...|... .. . ...
4f|... .. . ...|C-5 00 . V02|... .. . ...|... .. . ...|... .. . ...
50|G-5 04 . 400|A-4 00 1 V01|--- .. . ...|E-2 02 . ...|C-3 00 . ...
51|... .. . ...|E-4 00 . V00|... .. . ...|... .. . ...|... .. . ...
52|... .. . ...|C-5 00 . V00|... .. . ...|F#2 02 . ...|... .. . ...
53|... .. . ...|A-4 00 . V02|... .. . ...|... .. . ...|... .. . ...
54|E-5 04 . ...|B-4 00 5 V01|A-2 00 . ...|E-2 03 . ...|C#3 00 . ...
55|... .. . ...|G-4 00 . V00|... .. . ...|... .. . ...|... .. . ...
56|... .. . ...|E-4 00 . V00|... .. . ...|E-2 02 . ...|C-3 00 . ...
57|... .. . ...|B-4 00 . V02|... .. . ...|... .. . ...|... .. . ...
58|G-5 04 . ...|G-4 00 1 V01|A-3 00 . ...|F#2 02 . ...|... .. . ...
59|... .. . ...|E-4 00 . V00|... .. . ...|... .. . ...|... .. . ...
5a|... .. . ...|B-4 00 . V00|... .. . ...|E-2 02 . ...|C-3 00 . ...
5b|... .. . ...|G-4 00 . V02|... .. . ...|... .. . ...|... .. . ...
5c|... .. . ...|C-5 00 5 V01|E-2 00 . ...|E-2 03 . ...|C#3 00 . ...
5d|... .. . ...|A-4 00 . V00|... .. . ...|... .. . ...|... .. . ...
5e|... .. . ...|E-4 00 . V00|... .. . ...|F#2 02 . ...|... .. . ...
5f|... .. . ...|C-5 00 . V02|... .. . ...|... .. . ...|... .. . ...
60|G-5 04 . ...|A-4 00 1 V01|A-2 00 . ...|E-2 02 . ...|C-3 00 . ...
61|... .. . ...|E-4 00 . V00|... .. . ...|... .. . ...|... .. . ...
62|... .. . ...|C-5 00 . V00|... .. . ...|F#2 02 . ...|... .. . ...
63|... .. . ...|A-4 00 . V02|... .. . ...|... .. . ...|... .. . ...
64|... .. . ...|C-5 00 5 V01|... .. . ...|E-2 03 . ...|C#3 00 . ...
65|... .. . ...|A-4 00 . V00|... .. . ...|... .. . ...|... .. . ...
66|... .. . ...|E-4 00 . V00|... .. . ...|F#2 02 . ...|... .. . ...
67|... .. . ...|C-5 00 . V02|... .. . ...|... .. . ...|... .. . ...
68|... .. . Q02|A-4 00 1 V01|A-3 00 . ...|E-2 02 . ...|C-3 00 . ...
69|... .. . ...|E-4 00 . V00|... .. . ...|... .. . ...|... .. . ...
6a|... .. . ...|C-5 00 . V00|... .. . ...|F#2 02 . ...|... .. . ...
6b|... .. . ...|A-4 00 . V02|... .. . ...|... .. . ...|... .. . ...
6c|... .. . ...|C-5 00 5 V01|A-2 00 . ...|E-2 03 . ...|C#3 00 . ...
6d|... .. . ...|A-4 00 . V00|... .. . ...|... .. . ...|... .. . ...
6e|... .. . ...|E-4 00 . V00|... .. . ...|E-2 02 . ...|C-3 00 . ...
6f|... .. . ...|C-5 00 . V02|... .. . ...|... .. . ...|... .. . ...
70|... .. . 474|A-4 00 1 V01|--- .. . ...|F#2 02 . ...|... .. . ...
71|... .. . ...|E-4 00 . V00|... .. . ...|... .. . ...|... .. . ...
72|... .. . ...|C-5 00 . V00|... .. . ...|E-2 02 . ...|C-3 00 . ...
73|... .. . ...|A-4 00 . V02|... .. . ...|... .. . ...|... .. . ...
74|... .. . ...|B-4 00 5 V01|A-2 00 . ...|E-2 03 . ...|C#3 00 . ...
75|... .. . ...|G-4 00 . V00|... .. . ...|... .. . ...|... .. . ...
76|... .. . ...|E-4 00 1 V00|... .. . ...|E-2 02 . ...|C-3 00 . ...
77|... .. . ...|B-4 00 . V02|... .. . ...|... .. . ...|... .. . ...
78|... .. 2 ...|B-4 00 5 V01|A-3 00 . ...|E-2 03 . ...|C#3 00 . ...
79|... .. . ...|G-4 00 . V00|... .. . ...|... .. . ...|... .. . ...
7a|... .. . ...|E-4 00 1 V00|... .. . ...|F#2 02 . ...|... .. . ...
7b|... .. . ...|B-4 00 . V02|... .. . ...|... .. . ...|... .. . ...
7c|... .. . ...|C-5 00 5 V01|E-2 00 . ...|E-2 03 . ...|C#3 00 . ...
7d|... .. . ...|A-4 00 . V00|... .. . ...|... .. . ...|... .. . ...
7e|... .. . ...|E-4 00 . V00|... .. . ...|E-2 03 . ...|C#3 00 . ...
7f|... .. . ...|C-5 00 . V02|... .. . ...|... .. . ...|... .. . ...

[Frame34]
00|... .. 0 ...|A-4 00 1 V01|A-2 00 . ...|C#2 06 a ...|C-3 00 . ...
01|... .. . ...|E-4 00 . V00|... .. . ...|... .. . ...|... .. . ...
02|... .. . ...|C-5 00 . V00|... .. . ...|... .. . ...|... .. . ...
03|... .. . ...|A-4 00 . V02|... .. . ...|... .. . ...|... .. . ...
04|... .. . ...|C-5 00 5 V01|... .. . ...|... .. . ...|C#3 00 . ...
05|... .. . ...|A-4 00 . V00|... .. . ...|... .. . ...|... .. . ...
06|... .. . ...|E-4 00 . V00|... .. . ...|... .. . ...|... .. . ...
07|... .. . ...|C-5 00 . V02|... .. . ...|... .. . ...|... .. . ...
08|A-5 04 6 400|A-4 00 1 V01|A-3 00 . ...|E-2 02 . ...|C-3 00 . ...
09|... .. . ...|E-4 00 . V00|... .. . ...|... .. . ...|... .. . ...
0a|... .. . ...|C-5 00 . V00|... .. . ...|F#2 02 . ...|... .. . ...
0b|... .. . ...|A-4 00 . V02|... .. . ...|... .. . ...|... .. . ...
0c|G-5 04 . ...|C-5 00 5 V01|A-2 00 . ...|E-2 03 . ...|C#3 00 . ...
0d|... .. . ...|A-4 00 . V00|... .. . ...|... .. . ...|... .. . ...
0e|... .. . ...|E-4 00 . V00|... .. . ...|F#2 02 . ...|... .. . ...
0f|... .. . ...|C-5 00 . V02|... .. . ...|... .. . ...|... .. . ...
10|D#5 04 . ...|A-4 00 1 V01|--- .. . ...|E-2 02 . ...|C-3 00 . ...
11|... .. . ...|E-4 00 . V00|... .. . ...|... .. . ...|... .. . ...
12|... .. . ...|C-5 00 . V00|... .. . ...|F#2 02 . ...|... .. . ...
13|... .. . ...|A-4 00 . V02|... .. . ...|... .. . ...|... .. . ...
14|D-5 04 . ...|B-4 00 5 V01|A-2 00 . ...|E-2 03 . ...|C#3 00 . ...
15|... .. . ...|G-4 00 . V00|... .. . ...|... .. . ...|... .. . ...
16|... .. . ...|E-4 00 . V00|... .. . ...|E-2 02 . ...|C-3 00 . ...
17|... .. . ...|B-4 00 . V02|... .. . ...|... .. . ...|... .. . ...
18|C-5 04 . ...|G-4 00 1 V01|A-3 00 . ...|F#2 02 . ...|... .. . ...
19|... .. . ...|E-4 00 . V00|... .. . ...|... .. . ...|... .. . ...
1a|... .. . ...|B-4 00 . V00|... .. . ...|E-2 02 . ...|C-3 00 . ...
1b|... .. . ...|G-4 00 . V02|... .. . ...|... .. . ...|... .. . ...
1c|A-4 04 . ...|C-5 00 5 V01|E-2 00 . ...|E-2 03 . ...|C#3 00 . ...
1d|... .. . ...|A-4 00 . V00|... .. . ...|... .. . ...|... .. . ...
1e|... .. . ...|E-4 00 . V00|... .. . ...|F#2 02 . ...|... .. . ...
1f|... .. . ...|C-5 00 . V02|... .. . ...|... .. . ...|... .. . ...
20|G-4 04 . ...|A-4 00 1 V01|A-2 00 . ...|E-2 02 . ...|C-3 00 . ...
21|... .. . ...|E-4 00 . V00|... .. . ...|... .. . ...|... .. . ...
22|... .. . ...|C-5 00 . V00|... .. . ...|F#2 02 . ...|... .. . ...
23|... .. . ...|A-4 00 . V02|... .. . ...|... .. . ...|... .. . ...
24|... .. . Q42|C-5 00 5 V01|... .. . ...|E-2 03 . ...|C#3 00 . ...
25|... .. . ...|A-4 00 . V00|... .. . ...|... .. . ...|... .. . ...
26|... .. . ...|E-4 00 . V00|... .. . ...|F#2 02 . ...|... .. . ...
27|... .. . ...|C-5 00 . V02|... .. . ...|... .. . ...|... .. . ...
28|... .. 2 ...|A-4 00 1 V01|A-3 00 . ...|E-2 02 . ...|C-3 00 . ...
29|... .. . ...|E-4 00 . V00|... .. . ...|... .. . ...|... .. . ...
2a|... .. . ...|C-5 00 . V00|... .. . ...|F#2 02 . ...|... .. . ...
2b|... .. . ...|A-4 00 . V02|... .. . ...|... .. . ...|... .. . ...
2c|G-4 04 6 ...|C-5 00 5 V01|A-2 00 . ...|E-2 03 . ...|C#3 00 . ...
2d|... .. . ...|A-4 00 . V00|... .. . ...|... .. . ...|... .. . ...
2e|... .. . ...|E-4 00 . V00|... .. . ...|E-2 02 . ...|C-3 00 . ...
2f|... .. . ...|C-5 00 . V02|... .. . ...|... .. . ...|... .. . ...
30|... .. . Q42|A-4 00 1 V01|--- .. . ...|F#2 02 . ...|... .. . ...
31|... .. . ...|E-4 00 . V00|... .. . ...|... .. . ...|... .. . ...
32|... .. . ...|C-5 00 . V00|... .. . ...|E-2 02 . ...|C-3 00 . ...
33|... .. . ...|A-4 00 . V02|... .. . ...|... .. . ...|... .. . ...
34|A-4 04 . ...|B-4 00 5 V01|A-2 00 . ...|E-2 03 . ...|C#3 00 . ...
35|... .. . ...|G-4 00 . V00|... .. . ...|... .. . ...|... .. . ...
36|... .. 2 ...|E-4 00 1 V00|... .. . ...|E-2 02 . ...|C-3 00 . ...
37|... .. . ...|B-4 00 . V02|... .. . ...|... .. . ...|... .. . ...
38|C-5 04 6 ...|B-4 00 5 V01|A-3 00 . ...|E-2 03 . ...|C#3 00 . ...
39|... .. . ...|G-4 00 . V00|... .. . ...|... .. . ...|... .. . ...
3a|... .. . ...|E-4 00 1 V00|... .. . ...|F#2 02 . ...|... .. . ...
3b|... .. . ...|B-4 00 . V02|... .. . ...|... .. . ...|... .. . ...
3c|D-5 04 . ...|C-5 00 5 V01|E-2 00 . ...|E-2 03 . ...|C#3 00 . ...
3d|... .. . ...|A-4 00 . V00|... .. . ...|... .. . ...|... .. . ...
3e|... .. . ...|E-4 00 . V00|... .. . ...|E-2 03 . ...|C#3 00 . ...
3f|... .. . ...|C-5 00 . V02|... .. . ...|... .. . ...|... .. . ...
40|C-6 04 . ...|A-4 00 1 V01|A-2 00 . ...|E-2 02 . ...|C-3 00 . ...
41|A-5 04 . ...|E-4 00 . V00|... .. . ...|... .. . ...|... .. . ...
42|E-5 04 . ...|C-5 00 . V00|... .. . ...|F#2 02 . ...|... .. . ...
43|C-5 04 . ...|A-4 00 . V02|... .. . ...|... .. . ...|... .. . ...
44|A-4 04 . ...|C-5 00 5 V01|... .. . ...|E-2 03 . ...|C#3 00 . ...
45|E-4 04 . ...|A-4 00 . V00|... .. . ...|... .. . ...|... .. . ...
46|C-4 04 . ...|E-4 00 . V00|... .. . ...|F#2 02 . ...|... .. . ...
47|A-3 04 . ...|C-5 00 . V02|... .. . ...|... .. . ...|... .. . ...
48|D-6 04 . ...|A-4 00 1 V01|A-3 00 . ...|E-2 02 . ...|C-3 00 . ...
49|A-5 04 . ...|E-4 00 . V00|... .. . ...|... .. . ...|... .. . ...
4a|E-5 04 . ...|C-5 00 . V00|... .. . ...|F#2 02 . ...|... .. . ...
4b|D-5 04 . ...|A-4 00 . V02|... .. . ...|... .. . ...|... .. . ...
4c|A-4 04 . ...|C-5 00 5 V01|A-2 00 . ...|E-2 03 . ...|C#3 00 . ...
4d|F-4 04 . ...|A-4 00 . V00|... .. . ...|... .. . ...|... .. . ...
4e|D-4 04 . ...|E-4 00 . V00|... .. . ...|F#2 02 . ...|... .. . ...
4f|A-3 04 . ...|C-5 00 . V02|... .. . ...|... .. . ...|... .. . ...
50|C-6 04 . ...|A-4 00 1 V01|--- .. . ...|E-2 02 . ...|C-3 00 . ...
51|A-5 04 . ...|E-4 00 . V00|... .. . ...|... .. . ...|... .. . ...
52|E-5 04 . ...|C-5 00 . V00|... .. . ...|F#2 02 . ...|... .. . ...
53|C-5 04 . ...|A-4 00 . V02|... .. . ...|... .. . ...|... .. . ...
54|A-4 04 . ...|B-4 00 5 V01|A-2 00 . ...|E-2 03 . ...|C#3 00 . ...
55|E-4 04 . ...|G-4 00 . V00|... .. . ...|... .. . ...|... .. . ...
56|C-4 04 . ...|E-4 00 . V00|... .. . ...|E-2 02 . ...|C-3 00 . ...
57|A-3 04 . ...|B-4 00 . V02|... .. . ...|... .. . ...|... .. . ...
58|D-6 04 . ...|G-4 00 1 V01|A-3 00 . ...|F#2 02 . ...|... .. . ...
59|A-5 04 . ...|E-4 00 . V00|... .. . ...|... .. . ...|... .. . ...
5a|E-5 04 . ...|B-4 00 . V00|... .. . ...|E-2 02 . ...|C-3 00 . ...
5b|D-5 04 . ...|G-4 00 . V02|... .. . ...|... .. . ...|... .. . ...
5c|A-4 04 . ...|C-5 00 5 V01|E-2 00 . ...|E-2 03 . ...|C#3 00 . ...
5d|F-4 04 . ...|A-4 00 . V00|... .. . ...|... .. . ...|... .. . ...
5e|D-4 04 . ...|E-4 00 . V00|... .. . ...|F#2 02 . ...|... .. . ...
5f|A-3 04 . ...|C-5 00 . V02|... .. . ...|... .. . ...|... .. . ...
60|G-2 04 . ...|A-4 00 1 V01|A-2 00 . ...|E-2 02 . ...|C-3 00 . ...
61|... .. . ...|E-4 00 . V00|... .. . ...|... .. . ...|... .. . ...
62|A-2 04 . ...|C-5 00 . V00|... .. . ...|F#2 02 . ...|... .. . ...
63|... .. 2 ...|A-4 00 . V02|... .. . ...|... .. . ...|... .. . ...
64|A-2 04 6 ...|C-5 00 5 V01|... .. . ...|E-2 03 . ...|C#3 00 . ...
65|... .. 2 ...|A-4 00 . V00|... .. . ...|... .. . ...|... .. . ...
66|A-2 04 6 ...|E-4 00 . V00|... .. . ...|F#2 02 . ...|... .. . ...
67|... .. 2 ...|C-5 00 . V02|... .. . ...|... .. . ...|... .. . ...
68|C-3 04 6 ...|A-4 00 1 V01|A-3 00 . ...|E-2 02 . ...|C-3 00 . ...
69|... .. . ...|E-4 00 . V00|... .. . ...|... .. . ...|... .. . ...
6a|A-2 04 . ...|C-5 00 . V00|... .. . ...|F#2 02 . ...|... .. . ...
6b|... .. 2 ...|A-4 00 . V02|... .. . ...|... .. . ...|... .. . ...
6c|A-2 04 6 ...|C-5 00 5 V01|A-2 00 . ...|E-2 03 . ...|C#3 00 . ...
6d|... .. 2 ...|A-4 00 . V00|... .. . ...|... .. . ...|... .. . ...
6e|A-2 04 6 ...|E-4 00 . V00|... .. . ...|E-2 02 . ...|C-3 00 . ...
6f|... .. 2 ...|C-5 00 . V02|... .. . ...|... .. . ...|... .. . ...
70|G-2 04 6 ...|A-4 00 1 V01|--- .. . ...|F#2 02 . ...|... .. . ...
71|... .. . ...|E-4 00 . V00|... .. . ...|... .. . ...|... .. . ...
72|A-2 04 . ...|C-5 00 . V00|... .. . ...|E-2 02 . ...|C-3 00 . ...
73|... .. 2 ...|A-4 00 . V02|... .. . ...|... .. . ...|... .. . ...
74|A-2 04 6 ...|B-4 00 5 V01|A-2 00 . ...|E-2 03 . ...|C#3 00 . ...
75|... .. 2 ...|G-4 00 . V00|... .. . ...|... .. . ...|... .. . ...
76|A-2 04 6 ...|E-4 00 1 V00|... .. . ...|E-2 02 . ...|C-3 00 . ...
77|... .. 2 ...|B-4 00 . V02|... .. . ...|... .. . ...|... .. . ...
78|C-3 04 6 ...|B-4 00 5 V01|A-3 00 . ...|E-2 03 . ...|C#3 00 . ...
79|... .. . ...|G-4 00 . V00|... .. . ...|... .. . ...|... .. . ...
7a|A-2 04 . ...|E-4 00 1 V00|... .. . ...|F#2 02 . ...|... .. . ...
7b|... .. 2 ...|B-4 00 . V02|... .. . ...|... .. . ...|... .. . ...
7c|D#3 04 6 ...|C-5 00 5 V01|E-2 00 . ...|E-2 03 . ...|C#3 00 . ...
7d|... .. . ...|A-4 00 . V00|... .. . ...|... .. . ...|... .. . ...
7e|A-2 04 . ...|E-4 00 . V00|... .. . ...|E-2 03 . ...|C#3 00 . ...
7f|... .. . ...|C-5 00 . V02|... .. . ...|... .. . ...|... .. . ...

[Frame35]
00|F-5 04 6 ...|D-5 00 1 V01|D-3 00 . ...|C#2 06 a ...|C-3 00 . ...
01|... .. . ...|A-4 00 . V00|... .. . ...|... .. . ...|... .. . ...
02|... .. . ...|F-5 00 . V00|... .. . ...|... .. . ...|... .. . ...
03|... .. . ...|D-5 00 . V02|... .. . ...|... .. . ...|... .. . ...
04|D-5 04 . ...|F-5 00 5 V01|... .. . ...|... .. . ...|C#3 00 . ...
05|... .. . ...|D-5 00 . V00|... .. . ...|... .. . ...|... .. . ...
06|... .. . ...|A-4 00 . V00|... .. . ...|... .. . ...|... .. . ...
07|... .. . ...|F-5 00 . V02|... .. . ...|... .. . ...|... .. . ...
08|F-5 04 . ...|D-5 00 1 V01|D-4 00 . ...|E-2 02 . ...|C-3 00 . ...
09|... .. . ...|A-4 00 . V00|... .. . ...|... .. . ...|... .. . ...
0a|... .. . ...|F-5 00 . V00|... .. . ...|F#2 02 . ...|... .. . ...
0b|... .. . ...|D-5 00 . V02|... .. . ...|... .. . ...|... .. . ...
0c|G-5 04 . ...|F-5 00 5 V01|D-3 00 . ...|E-2 03 . ...|C#3 00 . ...
0d|... .. . ...|D-5 00 . V00|... .. . ...|... .. . ...|... .. . ...
0e|... .. . ...|A-4 00 . V00|... .. . ...|F#2 02 . ...|... .. . ...
0f|... .. . ...|F-5 00 . V02|... .. . ...|... .. . ...|... .. . ...
10|G#5 04 . ...|D-5 00 1 V01|--- .. . ...|E-2 02 . ...|C-3 00 . ...
11|... .. . ...|A-4 00 . V00|... .. . ...|... .. . ...|... .. . ...
12|G-5 04 . G01|F-5 00 . V00|... .. . ...|F#2 02 . ...|... .. . ...
13|... .. . ...|D-5 00 . V02|... .. . ...|... .. . ...|... .. . ...
14|F-5 04 . G02|E-5 00 5 V01|D-3 00 . ...|E-2 03 . ...|C#3 00 . ...
15|... .. . ...|C-5 00 . V00|... .. . ...|... .. . ...|... .. . ...
16|... .. . ...|A-4 00 . V00|... .. . ...|E-2 02 . ...|C-3 00 . ...
17|... .. . ...|E-5 00 . V02|... .. . ...|... .. . ...|... .. . ...
18|G-5 04 . ...|C-5 00 1 V01|D-4 00 . ...|F#2 02 . ...|... .. . ...
19|... .. . ...|A-4 00 . V00|... .. . ...|... .. . ...|... .. . ...
1a|F-5 04 . G01|E-5 00 . V00|... .. . ...|E-2 02 . ...|C-3 00 . ...
1b|... .. . ...|C-5 00 . V02|... .. . ...|... .. . ...|... .. . ...
1c|D-5 04 . G02|F-5 00 5 V01|A-2 00 . ...|E-2 03 . ...|C#3 00 . ...
1d|... .. . ...|D-5 00 . V00|... .. . ...|... .. . ...|... .. . ...
1e|... .. . ...|A-4 00 . V00|... .. . ...|F#2 02 . ...|... .. . ...
1f|... .. . ...|F-5 00 . V02|... .. . ...|... .. . ...|... .. . ...
20|C-5 04 . ...|D-5 00 1 V01|D-3 00 . ...|E-2 02 . ...|C-3 00 . ...
21|... .. . ...|A-4 00 . V00|... .. . ...|... .. . ...|... .. . ...
22|A-4 04 . G01|F-5 00 . V00|... .. . ...|F#2 02 . ...|... .. . ...
23|... .. . ...|D-5 00 . V02|... .. . ...|... .. . ...|... .. . ...
24|G-4 04 . G02|F-5 00 5 V01|... .. . ...|E-2 03 . ...|C#3 00 . ...
25|... .. . ...|D-5 00 . V00|... .. . ...|... .. . ...|... .. . ...
26|... .. . ...|A-4 00 . V00|... .. . ...|F#2 02 . ...|... .. . ...
27|... .. . ...|F-5 00 . V02|... .. . ...|... .. . ...|... .. . ...
28|F-4 04 . ...|D-5 00 1 V01|D-4 00 . ...|E-2 02 . ...|C-3 00 . ...
29|... .. . ...|A-4 00 . V00|... .. . ...|... .. . ...|... .. . ...
2a|G-4 04 . G01|F-5 00 . V00|... .. . ...|F#2 02 . ...|... .. . ...
2b|... .. . ...|D-5 00 . V02|... .. . ...|... .. . ...|... .. . ...
2c|F-4 04 . G02|F-5 00 5 V01|D-3 00 . ...|E-2 03 . ...|C#3 00 . ...
2d|... .. . ...|D-5 00 . V00|... .. . ...|... .. . ...|... .. . ...
2e|... .. . ...|A-4 00 . V00|... .. . ...|E-2 02 . ...|C-3 00 . ...
2f|... .. . ...|F-5 00 . V02|... .. . ...|... .. . ...|... .. . ...
30|D-4 04 . ...|D-5 00 1 V01|--- .. . ...|F#2 02 . ...|... .. . ...
31|... .. . ...|A-4 00 . V00|... .. . ...|... .. . ...|... .. . ...
32|... .. . ...|F-5 00 . V00|... .. . ...|E-2 02 . ...|C-3 00 . ...
33|... .. . ...|D-5 00 . V02|... .. . ...|... .. . ...|... .. . ...
34|C-4 04 . ...|E-5 00 5 V01|D-3 00 . ...|E-2 03 . ...|C#3 00 . ...
35|... .. . ...|C-5 00 . V00|... .. . ...|... .. . ...|... .. . ...
36|... .. . ...|A-4 00 1 V00|... .. . ...|E-2 02 . ...|C-3 00 . ...
37|... .. . ...|E-5 00 . V02|... .. . ...|... .. . ...|... .. . ...
38|D-4 04 . ...|E-5 00 5 V01|D-4 00 . ...|E-2 03 . ...|C#3 00 . ...
39|... .. . ...|C-5 00 . V00|... .. . ...|... .. . ...|... .. . ...
3a|... .. . ...|A-4 00 1 V00|... .. . ...|F#2 02 . ...|... .. . ...
3b|... .. . ...|E-5 00 . V02|... .. . ...|... .. . ...|... .. . ...
3c|F-4 04 . ...|F-5 00 5 V01|A-2 00 . ...|E-2 03 . ...|C#3 00 . ...
3d|... .. . ...|D-5 00 . V00|... .. . ...|... .. . ...|... .. . ...
3e|... .. . ...|A-4 00 . V00|... .. . ...|E-2 03 . ...|C#3 00 . ...
3f|... .. . ...|F-5 00 . V02|... .. . ...|... .. . ...|... .. . ...
40|G-4 04 . ...|D-5 00 1 V01|D-3 00 . ...|E-2 02 . ...|C-3 00 . ...
41|... .. . ...|A-4 00 . V00|... .. . ...|... .. . ...|... .. . ...
42|... .. . ...|F-5 00 . V00|... .. . ...|F#2 02 . ...|... .. . ...
43|... .. . ...|D-5 00 . V02|... .. . ...|... .. . ...|... .. . ...
44|F-4 04 . ...|F-5 00 5 V01|... .. . ...|E-2 03 . ...|C#3 00 . ...
45|... .. . ...|D-5 00 . V00|... .. . ...|... .. . ...|... .. . ...
46|... .. . ...|A-4 00 . V00|... .. . ...|F#2 02 . ...|... .. . ...
47|... .. . ...|F-5 00 . V02|... .. . ...|... .. . ...|... .. . ...
48|G-4 04 . ...|D-5 00 1 V01|D-4 00 . ...|E-2 02 . ...|C-3 00 . ...
49|... .. . ...|A-4 00 . V00|... .. . ...|... .. . ...|... .. . ...
4a|... .. . ...|F-5 00 . V00|... .. . ...|F#2 02 . ...|... .. . ...
4b|... .. . ...|D-5 00 . V02|... .. . ...|... .. . ...|... .. . ...
4c|A-4 04 . ...|F-5 00 5 V01|D-3 00 . ...|E-2 03 . ...|C#3 00 . ...
4d|... .. . ...|D-5 00 . V00|... .. . ...|... .. . ...|... .. . ...
4e|... .. . ...|A-4 00 . V00|... .. . ...|F#2 02 . ...|... .. . ...
4f|... .. . ...|F-5 00 . V02|... .. . ...|... .. . ...|... .. . ...
50|D-5 04 . ...|D-5 00 1 V01|--- .. . ...|E-2 02 . ...|C-3 00 . ...
51|... .. . ...|A-4 00 . V00|... .. . ...|... .. . ...|... .. . ...
52|... .. . ...|F-5 00 . V00|... .. . ...|F#2 02 . ...|... .. . ...
53|... .. . ...|D-5 00 . V02|... .. . ...|... .. . ...|... .. . ...
54|D-4 04 . ...|E-5 00 5 V01|D-3 00 . ...|E-2 03 . ...|C#3 00 . ...
55|... .. . ...|C-5 00 . V00|... .. . ...|... .. . ...|... .. . ...
56|... .. . ...|A-4 00 . V00|... .. . ...|E-2 02 . ...|C-3 00 . ...
57|... .. . ...|E-5 00 . V02|... .. . ...|... .. . ...|... .. . ...
58|D-5 04 . ...|C-5 00 1 V01|D-4 00 . ...|F#2 02 . ...|... .. . ...
59|... .. . ...|A-4 00 . V00|... .. . ...|... .. . ...|... .. . ...
5a|... .. . ...|E-5 00 . V00|... .. . ...|E-2 02 . ...|C-3 00 . ...
5b|... .. . ...|C-5 00 . V02|... .. . ...|... .. . ...|... .. . ...
5c|C-5 04 . ...|F-5 00 5 V01|A-2 00 . ...|E-2 03 . ...|C#3 00 . ...
5d|... .. . ...|D-5 00 . V00|... .. . ...|... .. . ...|... .. . ...
5e|... .. . ...|A-4 00 . V00|... .. . ...|F#2 02 . ...|... .. . ...
5f|... .. . ...|F-5 00 . V02|... .. . ...|... .. . ...|... .. . ...
60|D-4 04 . ...|D-5 00 1 V01|D-3 00 . ...|E-2 02 . ...|C-3 00 . ...
61|... .. . ...|A-4 00 . V00|... .. . ...|... .. . ...|... .. . ...
62|... .. . ...|F-5 00 . V00|... .. . ...|F#2 02 . ...|... .. . ...
63|... .. . ...|D-5 00 . V02|... .. . ...|... .. . ...|... .. . ...
64|C-5 04 . ...|F-5 00 5 V01|... .. . ...|E-2 03 . ...|C#3 00 . ...
65|... .. . ...|D-5 00 . V00|... .. . ...|... .. . ...|... .. . ...
66|... .. . ...|A-4 00 . V00|... .. . ...|F#2 02 . ...|... .. . ...
67|... .. . ...|F-5 00 . V02|... .. . ...|... .. . ...|... .. . ...
68|A-4 04 . ...|D-5 00 1 V01|D-4 00 . ...|E-2 02 . ...|C-3 00 . ...
69|... .. . ...|A-4 00 . V00|... .. . ...|... .. . ...|... .. . ...
6a|... .. . ...|F-5 00 . V00|... .. . ...|F#2 02 . ...|... .. . ...
6b|... .. . ...|D-5 00 . V02|... .. . ...|... .. . ...|... .. . ...
6c|D-4 04 . ...|F-5 00 5 V01|D-3 00 . ...|E-2 03 . ...|C#3 00 . ...
6d|... .. . ...|D-5 00 . V00|... .. . ...|... .. . ...|... .. . ...
6e|... .. . ...|A-4 00 . V00|... .. . ...|E-2 02 . ...|C-3 00 . ...
6f|... .. . ...|F-5 00 . V02|... .. . ...|... .. . ...|... .. . ...
70|A-4 04 . ...|D-5 00 1 V01|--- .. . ...|F#2 02 . ...|... .. . ...
71|... .. . ...|A-4 00 . V00|... .. . ...|... .. . ...|... .. . ...
72|... .. . ...|F-5 00 . V00|... .. . ...|E-2 02 . ...|C-3 00 . ...
73|... .. . ...|D-5 00 . V02|... .. . ...|... .. . ...|... .. . ...
74|G-4 04 . ...|E-5 00 5 V01|D-3 00 . ...|E-2 03 . ...|C#3 00 . ...
75|... .. . ...|C-5 00 . V00|... .. . ...|... .. . ...|... .. . ...
76|... .. . ...|A-4 00 1 V00|... .. . ...|E-2 02 . ...|C-3 00 . ...
77|... .. . ...|E-5 00 . V02|... .. . ...|... .. . ...|... .. . ...
78|D-4 04 . ...|E-5 00 5 V01|D-4 00 . ...|E-2 03 . ...|C#3 00 . ...
79|... .. . ...|C-5 00 . V00|... .. . ...|... .. . ...|... .. . ...
7a|... .. . ...|A-4 00 1 V00|... .. . ...|F#2 02 . ...|... .. . ...
7b|... .. . ...|E-5 00 . V02|... .. . ...|... .. . ...|... .. . ...
7c|G-4 04 . ...|F-5 00 5 V01|A-2 00 . ...|E-2 03 . ...|C#3 00 . ...
7d|... .. . ...|D-5 00 . V00|... .. . ...|... .. . ...|... .. . ...
7e|... .. . ...|A-4 00 . V00|... .. . ...|E-2 03 . ...|C#3 00 . ...
7f|... .. . ...|F-5 00 . V02|... .. . ...|... .. . ...|... .. . ...

[Frame36]
00|F-4 00 6 V01|D#5 00 1 V01|D#3 00 . ...|C#2 06 a ...|C-3 00 . ...
01|... .. . ...|A#4 00 . V00|... .. . ...|... .. . ...|... .. . ...
02|... .. . Q02|G-4 00 . V00|... .. . ...|... .. . ...|... .. . ...
03|... .. . ...|D#5 00 . V02|... .. . ...|... .. . ...|... .. . ...
04|... .. . ...|G-4 00 5 V01|... .. . ...|... .. . ...|C#3 00 . ...
05|... .. . ...|D#5 00 . V00|... .. . ...|... .. . ...|... .. . ...
06|... .. . ...|A#4 00 . V00|... .. . ...|... .. . ...|... .. . ...
07|... .. . ...|G-4 00 . V02|... .. . ...|... .. . ...|... .. . ...
08|... .. . ...|D#5 00 1 V01|D#4 00 . ...|E-2 02 . ...|C-3 00 . ...
09|... .. . ...|A#4 00 . V00|... .. . ...|... .. . ...|... .. . ...
0a|... .. . ...|G-4 00 . V00|... .. . ...|F#2 02 . ...|... .. . ...
0b|... .. . ...|D#5 00 . V02|... .. . ...|... .. . ...|... .. . ...
0c|... .. . ...|G-4 00 5 V01|D#3 00 . ...|E-2 03 . ...|C#3 00 . ...
0d|... .. . ...|D#5 00 . V00|... .. . ...|... .. . ...|... .. . ...
0e|... .. . ...|A#4 00 . V00|... .. . ...|F#2 02 . ...|... .. . ...
0f|... .. . ...|G-4 00 . V02|... .. . ...|... .. . ...|... .. . ...
10|... .. . R12|D#5 00 1 V01|--- .. . ...|E-2 02 . ...|C-3 00 . ...
11|... .. . ...|A#4 00 . V00|... .. . ...|... .. . ...|... .. . ...
12|... .. . ...|G-4 00 . V00|... .. . ...|F#2 02 . ...|... .. . ...
13|... .. . ...|D#5 00 . V02|... .. . ...|... .. . ...|... .. . ...
14|... .. . ...|F-5 00 5 V01|D#3 00 . ...|E-2 03 . ...|C#3 00 . ...
15|... .. . ...|C-5 00 . V00|... .. . ...|... .. . ...|... .. . ...
16|... .. . ...|A-4 00 . V00|... .. . ...|E-2 02 . ...|C-3 00 . ...
17|... .. . ...|F-5 00 . V02|... .. . ...|... .. . ...|... .. . ...
18|... .. . ...|C-5 00 1 V01|D#4 00 . ...|F#2 02 . ...|... .. . ...
19|... .. . ...|A-4 00 . V00|... .. . ...|... .. . ...|... .. . ...
1a|... .. . ...|F-5 00 . V00|... .. . ...|E-2 02 . ...|C-3 00 . ...
1b|... .. . ...|C-5 00 . V02|... .. . ...|... .. . ...|... .. . ...
1c|... .. . ...|G-5 00 5 V01|A#2 00 . ...|E-2 03 . ...|C#3 00 . ...
1d|... .. . ...|D#5 00 . V00|... .. . ...|... .. . ...|... .. . ...
1e|... .. . ...|A#4 00 . V00|... .. . ...|F#2 02 . ...|... .. . ...
1f|... .. . ...|G-5 00 . V02|... .. . ...|... .. . ...|... .. . ...
20|... .. . Q24|D#5 00 1 V01|D#3 00 . ...|E-2 02 . ...|C-3 00 . ...
21|... .. . ...|A#4 00 . V00|... .. . ...|... .. . ...|... .. . ...
22|... .. . ...|G-5 00 . V00|... .. . ...|F#2 02 . ...|... .. . ...
23|... .. . ...|D#5 00 . V02|... .. . ...|... .. . ...|... .. . ...
24|... .. . ...|G-4 00 5 V01|... .. . ...|E-2 03 . ...|C#3 00 . ...
25|... .. . ...|D#5 00 . V00|... .. . ...|... .. . ...|... .. . ...
26|... .. . ...|A#4 00 . V00|... .. . ...|F#2 02 . ...|... .. . ...
27|... .. . ...|G-4 00 . V02|... .. . ...|... .. . ...|... .. . ...
28|... .. . ...|D#5 00 1 V01|D#4 00 . ...|E-2 02 . ...|C-3 00 . ...
29|... .. . ...|A#4 00 . V00|... .. . ...|... .. . ...|... .. . ...
2a|... .. . ...|G-4 00 . V00|... .. . ...|F#2 02 . ...|... .. . ...
2b|... .. . ...|D#5 00 . V02|... .. . ...|... .. . ...|... .. . ...
2c|... .. . ...|G-4 00 5 V01|D#3 00 . ...|E-2 03 . ...|C#3 00 . ...
2d|... .. . ...|D#5 00 . V00|... .. . ...|... .. . ...|... .. . ...
2e|... .. . ...|A#4 00 . V00|... .. . ...|E-2 02 . ...|C-3 00 . ...
2f|... .. . ...|G-4 00 . V02|... .. . ...|... .. . ...|... .. . ...
30|... .. . R12|D#5 00 1 V01|--- .. . ...|F#2 02 . ...|... .. . ...
31|... .. . ...|A#4 00 . V00|... .. . ...|... .. . ...|... .. . ...
32|... .. . ...|G-4 00 . V00|... .. . ...|E-2 02 . ...|C-3 00 . ...
33|... .. . ...|D#5 00 . V02|... .. . ...|... .. . ...|... .. . ...
34|... .. . ...|F-5 00 5 V01|D#3 00 . ...|E-2 03 . ...|C#3 00 . ...
35|... .. . ...|C-5 00 . V00|... .. . ...|... .. . ...|... .. . ...
36|... .. . ...|A-4 00 1 V00|... .. . ...|E-2 02 . ...|C-3 00 . ...
37|... .. . ...|F-5 00 . V02|... .. . ...|... .. . ...|... .. . ...
38|... .. . ...|F-5 00 5 V01|D#4 00 . ...|E-2 03 . ...|C#3 00 . ...
39|... .. . ...|C-5 00 . V00|... .. . ...|... .. . ...|... .. . ...
3a|... .. . ...|A-4 00 1 V00|... .. . ...|F#2 02 . ...|... .. . ...
3b|... .. . ...|F-5 00 . V02|... .. . ...|... .. . ...|... .. . ...
3c|... .. . ...|G-4 00 5 V01|A#2 00 . ...|E-2 03 . ...|C#3 00 . ...
3d|... .. . ...|D#5 00 . V00|... .. . ...|... .. . ...|... .. . ...
3e|... .. . ...|A#4 00 . V00|... .. . ...|E-2 03 . ...|C#3 00 . ...
3f|... .. . ...|G-4 00 . V02|... .. . ...|... .. . ...|... .. . ...
40|... .. . Q23|D#5 00 1 V01|D#3 00 . ...|E-2 02 . ...|C-3 00 . ...
41|... .. . ...|A#4 00 . V00|... .. . ...|... .. . ...|... .. . ...
42|... .. . ...|G-4 00 . V00|... .. . ...|F#2 02 . ...|... .. . ...
43|... .. . ...|D#5 00 . V02|... .. . ...|... .. . ...|... .. . ...
44|... .. . ...|G-4 00 5 V01|... .. . ...|E-2 03 . ...|C#3 00 . ...
45|... .. . ...|D#5 00 . V00|... .. . ...|... .. . ...|... .. . ...
46|... .. . ...|A#4 00 . V00|... .. . ...|F#2 02 . ...|... .. . ...
47|... .. . ...|G-4 00 . V02|... .. . ...|... .. . ...|... .. . ...
48|... .. . ...|D#5 00 1 V01|D#4 00 . ...|E-2 02 . ...|C-3 00 . ...
49|... .. . ...|A#4 00 . V00|... .. . ...|... .. . ...|... .. . ...
4a|... .. . ...|G-4 00 . V00|... .. . ...|F#2 02 . ...|... .. . ...
4b|... .. . ...|D#5 00 . V02|... .. . ...|... .. . ...|... .. . ...
4c|... .. . ...|G-4 00 5 V01|D#3 00 . ...|E-2 03 . ...|C#3 00 . ...
4d|... .. . ...|D#5 00 . V00|... .. . ...|... .. . ...|... .. . ...
4e|... .. . ...|A#4 00 . V00|... .. . ...|F#2 02 . ...|... .. . ...
4f|... .. . ...|G-4 00 . V02|... .. . ...|... .. . ...|... .. . ...
50|... .. . R01|D#5 00 1 V01|--- .. . ...|E-2 02 . ...|C-3 00 . ...
51|... .. . ...|A#4 00 . V00|... .. . ...|... .. . ...|... .. . ...
52|... .. . ...|G-4 00 . V00|... .. . ...|F#2 02 . ...|... .. . ...
53|... .. . ...|D#5 00 . V02|... .. . ...|... .. . ...|... .. . ...
54|... .. . ...|F-5 00 5 V01|D#3 00 . ...|E-2 03 . ...|C#3 00 . ...
55|... .. . ...|C-5 00 . V00|... .. . ...|... .. . ...|... .. . ...
56|... .. . ...|A-4 00 . V00|... .. . ...|E-2 02 . ...|C-3 00 . ...
57|... .. . ...|F-5 00 . V02|... .. . ...|... .. . ...|... .. . ...
58|... .. . ...|C-5 00 1 V01|D#4 00 . ...|F#2 02 . ...|... .. . ...
59|... .. . ...|A-4 00 . V00|... .. . ...|... .. . ...|... .. . ...
5a|... .. . ...|F-5 00 . V00|... .. . ...|E-2 02 . ...|C-3 00 . ...
5b|... .. . ...|C-5 00 . V02|... .. . ...|... .. . ...|... .. . ...
5c|... .. . ...|G-5 00 5 V01|A#2 00 . ...|E-2 03 . ...|C#3 00 . ...
5d|... .. . ...|D#5 00 . V00|... .. . ...|... .. . ...|... .. . ...
5e|... .. . ...|A#4 00 . V00|... .. . ...|F#2 02 . ...|... .. . ...
5f|... .. . ...|G-5 00 . V02|... .. . ...|... .. . ...|... .. . ...
60|... .. . Q23|D#5 00 1 V01|D#3 00 . ...|E-2 02 . ...|C-3 00 . ...
61|... .. . ...|A#4 00 . V00|... .. . ...|... .. . ...|... .. . ...
62|... .. . ...|G-5 00 . V00|... .. . ...|F#2 02 . ...|... .. . ...
63|... .. . ...|D#5 00 . V02|... .. . ...|... .. . ...|... .. . ...
64|... .. . ...|G-4 00 5 V01|... .. . ...|E-2 03 . ...|C#3 00 . ...
65|... .. . ...|D#5 00 . V00|... .. . ...|... .. . ...|... .. . ...
66|... .. . ...|A#4 00 . V00|... .. . ...|F#2 02 . ...|... .. . ...
67|... .. . ...|G-4 00 . V02|... .. . ...|... .. . ...|... .. . ...
68|... .. . ...|D#5 00 1 V01|D#4 00 . ...|E-2 02 . ...|C-3 00 . ...
69|... .. . ...|A#4 00 . V00|... .. . ...|... .. . ...|... .. . ...
6a|... .. . ...|G-4 00 . V00|... .. . ...|F#2 02 . ...|... .. . ...
6b|... .. . ...|D#5 00 . V02|... .. . ...|... .. . ...|... .. . ...
6c|... .. . ...|G-4 00 5 V01|D#3 00 . ...|E-2 03 . ...|C#3 00 . ...
6d|... .. . ...|D#5 00 . V00|... .. . ...|... .. . ...|... .. . ...
6e|... .. . ...|A#4 00 . V00|... .. . ...|E-2 02 . ...|C-3 00 . ...
6f|... .. . ...|G-4 00 . V02|... .. . ...|... .. . ...|... .. . ...
70|... .. . R12|D#5 00 1 V01|--- .. . ...|F#2 02 . ...|... .. . ...
71|... .. . ...|A#4 00 . V00|... .. . ...|... .. . ...|... .. . ...
72|... .. . ...|G-4 00 . V00|... .. . ...|E-2 02 . ...|C-3 00 . ...
73|... .. . ...|D#5 00 . V02|... .. . ...|... .. . ...|... .. . ...
74|... .. . ...|F-5 00 5 V01|D#3 00 . ...|E-2 03 . ...|C#3 00 . ...
75|... .. . ...|C-5 00 . V00|... .. . ...|... .. . ...|... .. . ...
76|... .. . ...|A-4 00 1 V00|... .. . ...|E-2 02 . ...|C-3 00 . ...
77|... .. . ...|F-5 00 . V02|... .. . ...|... .. . ...|... .. . ...
78|... .. . ...|F-5 00 5 V01|D#4 00 . ...|E-2 03 . ...|C#3 00 . ...
79|... .. . ...|C-5 00 . V00|... .. . ...|... .. . ...|... .. . ...
7a|... .. . ...|A-4 00 1 V00|... .. . ...|F#2 02 . ...|... .. . ...
7b|... .. . ...|F-5 00 . V02|... .. . ...|... .. . ...|... .. . ...
7c|... .. . ...|G-4 00 5 V01|A#2 00 . ...|E-2 03 . ...|C#3 00 . ...
7d|... .. . ...|D#5 00 . V00|... .. . ...|... .. . ...|... .. . ...
7e|... .. . ...|A#4 00 . V00|... .. . ...|E-2 03 . ...|C#3 00 . ...
7f|... .. . ...|G-4 00 . V02|... .. . ...|... .. . ...|... .. . ...

[Frame37]
00|A#4 00 6 Q24|A-4 00 4 Q01|F-3 00 . ...|C#2 06 a ...|C-3 00 . ...
01|... .. . ...|... .. . ...|... .. . ...|... .. . ...|... .. . ...
02|... .. . ...|... .. . ...|... .. . ...|... .. . ...|... .. . ...
03|... .. . ...|... .. . ...|... .. . ...|... .. . ...|... .. . ...
04|... .. . ...|... .. . ...|... .. . ...|... .. . ...|... .. . ...
05|... .. . ...|... .. . ...|... .. . ...|... .. . ...|... .. . ...
06|... .. . ...|... .. . ...|... .. . ...|... .. . ...|... .. . ...
07|... .. . ...|... .. . ...|... .. . ...|... .. . ...|... .. . ...
08|... .. . ...|... .. . ...|... .. . ...|F#2 02 . ...|... .. . ...
09|... .. . ...|... .. . ...|... .. . ...|... .. . ...|... .. . ...
0a|... .. . ...|... .. . ...|... .. . ...|... .. . ...|... .. . ...
0b|... .. . ...|... .. . ...|... .. . ...|... .. . ...|... .. . ...
0c|... .. . ...|... .. . ...|... .. . ...|... .. . ...|... .. . ...
0d|... .. . ...|... .. . ...|... .. . ...|... .. . ...|... .. . ...
0e|... .. . ...|... .. . ...|... .. . ...|... .. . ...|... .. . ...
0f|... .. . ...|... .. . ...|... .. . ...|... .. . ...|... .. . ...
10|... .. . 472|... .. . ...|... .. . ...|F#2 02 . ...|... .. . ...
11|... .. . ...|... .. . ...|... .. . ...|... .. . ...|... .. . ...
12|... .. . ...|... .. . ...|... .. . ...|... .. . ...|... .. . ...
13|... .. . ...|... .. . ...|... .. . ...|... .. . ...|... .. . ...
14|... .. . ...|... .. . ...|... .. . ...|... .. . ...|... .. . ...
15|... .. . ...|... .. . ...|... .. . ...|... .. . ...|... .. . ...
16|... .. . ...|... .. . ...|... .. . ...|... .. . ...|... .. . ...
17|... .. . ...|... .. . ...|... .. . ...|... .. . ...|... .. . ...
18|... .. . ...|... .. . ...|... .. . ...|... .. . ...|... .. . ...
19|... .. . ...|... .. . ...|... .. . ...|... .. . ...|... .. . ...
1a|... .. . ...|... .. . ...|... .. . ...|... .. . ...|... .. . ...
1b|... .. . ...|... .. . ...|... .. . ...|... .. . ...|... .. . ...
1c|... .. . ...|... .. . ...|... .. . ...|... .. . ...|... .. . ...
1d|... .. . ...|... .. . ...|... .. . ...|... .. . ...|... .. . ...
1e|... .. . ...|... .. . ...|... .. . ...|... .. . ...|... .. . ...
1f|... .. . ...|... .. . ...|... .. . ...|... .. . ...|... .. . ...
20|C-5 00 . 400|A-4 00 . ...|C-3 00 . ...|E-2 02 . ...|C-3 00 . ...
21|... .. . ...|... .. . ...|... .. . ...|... .. . ...|... .. . ...
22|... .. . ...|... .. . ...|... .. . ...|... .. . ...|... .. . ...
23|... .. . ...|... .. . ...|... .. . ...|... .. . ...|... .. . ...
24|... .. . ...|... .. . ...|... .. . ...|... .. . ...|... .. . ...
25|... .. . ...|... .. . ...|... .. . ...|... .. . ...|... .. . ...
26|... .. . ...|... .. . ...|... .. . ...|... .. . ...|... .. . ...
27|... .. . ...|... .. . ...|... .. . ...|... .. . ...|... .. . ...
28|... .. . ...|... .. . ...|... .. . ...|F#2 02 . ...|... .. . ...
29|... .. . ...|... .. . ...|... .. . ...|... .. . ...|... .. . ...
2a|... .. . ...|... .. . ...|... .. . ...|... .. . ...|... .. . ...
2b|... .. . ...|... .. . ...|... .. . ...|... .. . ...|... .. . ...
2c|... .. . ...|... .. . ...|... .. . ...|... .. . ...|... .. . ...
2d|... .. . ...|... .. . ...|... .. . ...|... .. . ...|... .. . ...
2e|... .. . ...|... .. . ...|... .. . ...|... .. . ...|... .. . ...
2f|... .. . ...|... .. . ...|... .. . ...|... .. . ...|... .. . ...
30|A#4 00 . ...|G-4 00 . ...|... .. . ...|F#2 02 . ...|... .. . ...
31|... .. . ...|... .. . ...|... .. . ...|... .. . ...|... .. . ...
32|... .. . ...|... .. . ...|... .. . ...|... .. . ...|... .. . ...
33|... .. . ...|... .. . ...|... .. . ...|... .. . ...|... .. . ...
34|... .. . ...|... .. . ...|... .. . ...|... .. . ...|... .. . ...
35|... .. . ...|... .. . ...|... .. . ...|... .. . ...|... .. . ...
36|... .. . ...|... .. . ...|... .. . ...|... .. . ...|... .. . ...
37|... .. . ...|... .. . ...|... .. . ...|... .. . ...|... .. . ...
38|... .. . ...|... .. . ...|... .. . ...|F#2 02 . ...|... .. . ...
39|... .. . ...|... .. . ...|... .. . ...|... .. . ...|... .. . ...
3a|... .. . ...|... .. . ...|... .. . ...|... .. . ...|... .. . ...
3b|... .. . ...|... .. . ...|... .. . ...|... .. . ...|... .. . ...
3c|... .. . ...|... .. . ...|... .. . ...|... .. . ...|... .. . ...
3d|... .. . ...|... .. . ...|... .. . ...|... .. . ...|... .. . ...
3e|... .. . ...|... .. . ...|... .. . ...|... .. . ...|... .. . ...
3f|... .. . ...|... .. . ...|... .. . ...|... .. . ...|... .. . ...
40|A-4 00 . ...|F-4 00 . ...|F-2 00 . ...|C#2 06 . ...|C-3 00 . ...
41|... .. . ...|... .. . ...|... .. . ...|... .. . ...|... .. . ...
42|... .. . ...|... .. . ...|... .. . ...|... .. . ...|... .. . ...
43|... .. . ...|... .. . ...|... .. . ...|... .. . ...|... .. . ...
44|... .. . ...|... .. . ...|... .. . ...|... .. . ...|... .. . ...
45|... .. . ...|... .. . ...|... .. . ...|... .. . ...|... .. . ...
46|... .. . ...|... .. . ...|... .. . ...|... .. . ...|... .. . ...
47|... .. . ...|... .. . ...|... .. . ...|... .. . ...|... .. . ...
48|... .. . ...|... .. . ...|... .. . ...|... .. . ...|... .. . ...
49|... .. . ...|... .. . ...|... .. . ...|... .. . ...|... .. . ...
4a|... .. . ...|... .. . ...|... .. . ...|... .. . ...|... .. . ...
4b|... .. . ...|... .. . ...|... .. . ...|... .. . ...|... .. . ...
4c|... .. . ...|... .. . ...|... .. . ...|... .. . ...|... .. . ...
4d|... .. . ...|... .. . ...|... .. . ...|... .. . ...|... .. . ...
4e|... .. . ...|... .. . ...|... .. . ...|... .. . ...|... .. . ...
4f|... .. . ...|... .. . ...|... .. . ...|... .. . ...|... .. . ...
50|... .. . 472|... .. . ...|... .. . ...|... .. . ...|... .. . ...
51|... .. . ...|... .. . ...|... .. . ...|... .. . ...|... .. . ...
52|... .. . ...|... .. . ...|... .. . ...|... .. . ...|... .. . ...
53|... .. . ...|... .. . ...|... .. . ...|... .. . ...|... .. . ...
54|... .. . ...|... .. . ...|... .. . ...|... .. . ...|... .. . ...
55|... .. . ...|... .. . ...|... .. . ...|... .. . ...|... .. . ...
56|... .. . ...|... .. . ...|... .. . ...|... .. . ...|... .. . ...
57|... .. . ...|... .. . ...|... .. . ...|... .. . ...|... .. . ...
58|... .. . ...|... .. . ...|... .. . ...|... .. . ...|... .. . ...
59|... .. . ...|... .. . ...|... .. . ...|... .. . ...|... .. . ...
5a|... .. . ...|... .. . ...|... .. . ...|... .. . ...|... .. . ...
5b|... .. . ...|... .. . ...|... .. . ...|... .. . ...|... .. . ...
5c|... .. . ...|... .. . ...|... .. . ...|... .. . ...|... .. . ...
5d|... .. . ...|... .. . ...|... .. . ...|... .. . ...|... .. . ...
5e|... .. . ...|... .. . ...|... .. . ...|... .. . ...|... .. . ...
5f|... .. . ...|... .. . ...|... .. . ...|... .. . ...|... .. . ...
60|... .. . ...|... .. . ...|... .. . ...|... .. . ...|... .. . ...
61|... .. . ...|... .. . ...|... .. . ...|... .. . ...|... .. . ...
62|... .. . ...|... .. . ...|... .. . ...|... .. . ...|... .. . ...
63|... .. . ...|... .. . ...|... .. . ...|... .. . ...|... .. . ...
64|... .. . ...|... .. . ...|... .. . ...|... .. . ...|... .. . ...
65|... .. . ...|... .. . ...|... .. . ...|... .. . ...|... .. . ...
66|... .. . ...|... .. . ...|... .. . ...|... .. . ...|... .. . ...
67|... .. . ...|... .. . ...|... .. . ...|... .. . ...|... .. . ...
68|... .. . ...|... .. . ...|... .. . ...|... .. . ...|... .. . ...
69|... .. . ...|... .. . ...|... .. . ...|... .. . ...|... .. . ...
6a|... .. . ...|... .. . ...|... .. . ...|... .. . ...|... .. . ...
6b|... .. . ...|... .. . ...|... .. . ...|... .. . ...|... .. . ...
6c|... .. . ...|... .. . ...|... .. . ...|... .. . ...|... .. . ...
6d|... .. . ...|... .. . ...|... .. . ...|... .. . ...|... .. . ...
6e|... .. . ...|... .. . ...|... .. . ...|... .. . ...|... .. . ...
6f|... .. . ...|... .. . ...|... .. . ...|... .. . ...|... .. . ...
70|... .. 5 ...|... .. 3 ...|... .. . ...|... .. . ...|... .. . ...
71|... .. . ...|... .. . ...|... .. . ...|... .. . ...|... .. . ...
72|... .. . ...|... .. . ...|... .. . ...|... .. . ...|... .. . ...
73|... .. . ...|... .. . ...|... .. . ...|... .. . ...|... .. . ...
74|... .. . ...|... .. . ...|... .. . ...|... .. . ...|... .. . ...
75|... .. . ...|... .. . ...|... .. . ...|... .. . ...|... .. . ...
76|... .. . ...|... .. . ...|... .. . ...|... .. . ...|... .. . ...
77|... .. . ...|... .. . ...|... .. . ...|... .. . ...|... .. . ...
78|... .. . ...|... .. . ...|--- .. . ...|... .. . ...|... .. . ...
79|... .. . ...|... .. . ...|... .. . ...|... .. . ...|... .. . ...
7a|... .. . ...|... .. . ...|... .. . ...|... .. . ...|... .. . ...
7b|... .. . ...|... .. . ...|... .. . ...|... .. . ...|... .. . ...
7c|... .. . ...|... .. . ...|... .. . ...|... .. . ...|... .. . ...
7d|... .. . ...|... .. . ...|... .. . ...|... .. . ...|... .. . ...
7e|... .. . ...|... .. . ...|... .. . ...|... .. . ...|... .. . ...
7f|... .. . ...|... .. . ...|... .. . ...|... .. . ...|... .. . ...

[Frame38]
00|... .. 4 ...|... .. . ...|... .. . ...|C#2 01 a ...|... .. . ...
01|... .. . ...|... .. . ...|... .. . ...|... .. . ...|... .. . ...
02|... .. . ...|... .. . ...|... .. . ...|... .. . ...|... .. . ...
03|... .. . ...|... .. . ...|... .. . ...|... .. . ...|... .. . ...
04|... .. . ...|... .. . ...|... .. . ...|... .. . ...|... .. . ...
05|... .. . ...|... .. . ...|... .. . ...|... .. . ...|... .. . ...
06|... .. . ...|... .. . ...|... .. . ...|... .. . ...|... .. . ...
07|... .. . ...|... .. . ...|... .. . ...|... .. . ...|... .. . ...
08|... .. . ...|... .. 2 ...|... .. . ...|F#2 02 . ...|... .. . ...
09|... .. . ...|... .. . ...|... .. . ...|... .. . ...|... .. . ...
0a|... .. . ...|... .. . ...|... .. . ...|... .. . ...|... .. . ...
0b|... .. . ...|... .. . ...|... .. . ...|... .. . ...|... .. . ...
0c|... .. . ...|... .. . ...|... .. . ...|... .. . ...|... .. . ...
0d|... .. . ...|... .. . ...|... .. . ...|... .. . ...|... .. . ...
0e|... .. . ...|... .. . ...|... .. . ...|... .. . ...|... .. . ...
0f|... .. . ...|... .. . ...|... .. . ...|... .. . ...|... .. . ...
10|... .. 3 ...|... .. . ...|... .. . ...|C#2 01 . ...|... .. . ...
11|... .. . ...|... .. . ...|... .. . ...|... .. . ...|... .. . ...
12|... .. . ...|... .. . ...|... .. . ...|... .. . ...|... .. . ...
13|... .. . ...|... .. . ...|... .. . ...|... .. . ...|... .. . ...
14|... .. . ...|... .. . ...|... .. . ...|... .. . ...|... .. . ...
15|... .. . ...|... .. . ...|... .. . ...|... .. . ...|... .. . ...
16|... .. . ...|... .. . ...|... .. . ...|... .. . ...|... .. . ...
17|... .. . ...|... .. . ...|... .. . ...|... .. . ...|... .. . ...
18|... .. 2 ...|... .. 1 ...|... .. . ...|F#2 02 . ...|... .. . ...
19|... .. . ...|... .. . ...|... .. . ...|... .. . ...|... .. . ...
1a|... .. . ...|... .. . ...|... .. . ...|... .. . ...|... .. . ...
1b|... .. . ...|... .. . ...|... .. . ...|... .. . ...|... .. . ...
1c|... .. . ...|... .. . ...|... .. . ...|... .. . ...|... .. . ...
1d|... .. . ...|... .. . ...|... .. . ...|... .. . ...|... .. . ...
1e|... .. . ...|... .. . ...|... .. . ...|... .. . ...|... .. . ...
1f|... .. . ...|... .. . ...|... .. . ...|... .. . ...|... .. . ...
20|... .. 1 ...|... .. 0 ...|... .. . ...|E-2 02 . ...|C-3 00 . ...
21|... .. . ...|... .. . ...|... .. . ...|... .. . ...|... .. . ...
22|... .. . ...|... .. . ...|... .. . ...|... .. . ...|... .. . ...
23|... .. . ...|... .. . ...|... .. . ...|... .. . ...|... .. . ...
24|... .. . ...|... .. . ...|... .. . ...|... .. . ...|... .. . ...
25|... .. . ...|... .. . ...|... .. . ...|... .. . ...|... .. . ...
26|... .. . ...|... .. . ...|... .. . ...|... .. . ...|... .. . ...
27|... .. . ...|... .. . ...|... .. . ...|... .. . ...|... .. . ...
28|D-4 00 6 V01|... .. . ...|... .. . ...|E-2 03 . ...|C#3 00 . ...
29|... .. . ...|... .. . ...|... .. . ...|... .. . ...|... .. . ...
2a|... .. . ...|... .. . ...|... .. . ...|... .. . ...|... .. . ...
2b|... .. . ...|D-4 00 2 V01|... .. . ...|... .. . ...|... .. . ...
2c|F-4 00 . ...|... .. . ...|... .. . ...|E-2 02 . ...|C-3 00 . ...
2d|... .. . ...|... .. . ...|... .. . ...|... .. . ...|... .. . ...
2e|... .. . ...|... .. . ...|... .. . ...|... .. . ...|... .. . ...
2f|... .. . ...|F-4 00 . ...|... .. . ...|... .. . ...|... .. . ...
30|... .. . ...|... .. . ...|... .. . ...|F#2 02 . ...|... .. . ...
31|... .. . ...|... .. . ...|... .. . ...|... .. . ...|... .. . ...
32|... .. . ...|... .. . ...|... .. . ...|... .. . ...|... .. . ...
33|... .. . ...|... .. . ...|... .. . ...|... .. . ...|... .. . ...
34|D-4 00 . ...|... .. . ...|... .. . ...|E-2 02 . ...|C-3 00 . ...
35|... .. . ...|... .. . ...|... .. . ...|... .. . ...|... .. . ...
36|... .. . ...|... .. . ...|... .. . ...|... .. . ...|... .. . ...
37|... .. . ...|D-4 00 . ...|... .. . ...|... .. . ...|... .. . ...
38|F-4 00 . ...|... .. . ...|... .. . ...|E-2 03 . ...|C#3 00 . ...
39|... .. . ...|... .. . ...|... .. . ...|... .. . ...|... .. . ...
3a|... .. . ...|... .. . ...|... .. . ...|... .. . ...|... .. . ...
3b|... .. . ...|F-4 00 . ...|... .. . ...|... .. . ...|... .. . ...
3c|G-4 00 . ...|... .. . ...|... .. . ...|E-2 03 . ...|C#3 00 . ...
3d|... .. . ...|... .. . ...|... .. . ...|... .. . ...|... .. . ...
3e|... .. . ...|... .. . ...|... .. . ...|E-2 03 . ...|C#3 00 . ...
3f|... .. . ...|G-4 00 . ...|... .. . ...|... .. . ...|... .. . D00
40|... .. . ...|... .. . ...|... .. . ...|... .. . ...|... .. . ...
41|... .. . ...|... .. . ...|... .. . ...|... .. . ...|... .. . ...
42|... .. . ...|... .. . ...|... .. . ...|... .. . ...|... .. . ...
43|... .. . ...|... .. . ...|... .. . ...|... .. . ...|... .. . ...
44|... .. . ...|... .. . ...|... .. . ...|... .. . ...|... .. . ...
45|... .. . ...|... .. . ...|... .. . ...|... .. . ...|... .. . ...
46|... .. . ...|... .. . ...|... .. . ...|... .. . ...|... .. . ...
47|... .. . ...|... .. . ...|... .. . ...|... .. . ...|... .. . ...
48|... .. . ...|... .. . ...|... .. . ...|... .. . ...|... .. . ...
49|... .. . ...|... .. . ...|... .. . ...|... .. . ...|... .. . ...
4a|... .. . ...|... .. . ...|... .. . ...|... .. . ...|... .. . ...
4b|... .. . ...|... .. . ...|... .. . ...|... .. . ...|... .. . ...
4c|... .. . ...|... .. . ...|... .. . ...|... .. . ...|... .. . ...
4d|... .. . ...|... .. . ...|... .. . ...|... .. . ...|... .. . ...
4e|... .. . ...|... .. . ...|... .. . ...|... .. . ...|... .. . ...
4f|... .. . ...|... .. . ...|... .. . ...|... .. . ...|... .. . ...
50|... .. . ...|... .. . ...|... .. . ...|... .. . ...|... .. . ...
51|... .. . ...|... .. . ...|... .. . ...|... .. . ...|... .. . ...
52|... .. . ...|... .. . ...|... .. . ...|... .. . ...|... .. . ...
53|... .. . ...|... .. . ...|... .. . ...|... .. . ...|... .. . ...
54|... .. . ...|... .. . ...|... .. . ...|... .. . ...|... .. . ...
55|... .. . ...|... .. . ...|... .. . ...|... .. . ...|... .. . ...
56|... .. . ...|... .. . ...|... .. . ...|... .. . ...|... .. . ...
57|... .. . ...|... .. . ...|... .. . ...|... .. . ...|... .. . ...
58|... .. . ...|... .. . ...|... .. . ...|... .. . ...|... .. . ...
59|... .. . ...|... .. . ...|... .. . ...|... .. . ...|... .. . ...
5a|... .. . ...|... .. . ...|... .. . ...|... .. . ...|... .. . ...
5b|... .. . ...|... .. . ...|... .. . ...|... .. . ...|... .. . ...
5c|... .. . ...|... .. . ...|... .. . ...|... .. . ...|... .. . ...
5d|... .. . ...|... .. . ...|... .. . ...|... .. . ...|... .. . ...
5e|... .. . ...|... .. . ...|... .. . ...|... .. . ...|... .. . ...
5f|... .. . ...|... .. . ...|... .. . ...|... .. . ...|... .. . ...
60|... .. . ...|... .. . ...|... .. . ...|... .. . ...|... .. . ...
61|... .. . ...|... .. . ...|... .. . ...|... .. . ...|... .. . ...
62|... .. . ...|... .. . ...|... .. . ...|... .. . ...|... .. . ...
63|... .. . ...|... .. . ...|... .. . ...|... .. . ...|... .. . ...
64|... .. . ...|... .. . ...|... .. . ...|... .. . ...|... .. . ...
65|... .. . ...|... .. . ...|... .. . ...|... .. . ...|... .. . ...
66|... .. . ...|... .. . ...|... .. . ...|... .. . ...|... .. . ...
67|... .. . ...|... .. . ...|... .. . ...|... .. . ...|... .. . ...
68|... .. . ...|... .. . ...|... .. . ...|... .. . ...|... .. . ...
69|... .. . ...|... .. . ...|... .. . ...|... .. . ...|... .. . ...
6a|... .. . ...|... .. . ...|... .. . ...|... .. . ...|... .. . ...
6b|... .. . ...|... .. . ...|... .. . ...|... .. . ...|... .. . ...
6c|... .. . ...|... .. . ...|... .. . ...|... .. . ...|... .. . ...
6d|... .. . ...|... .. . ...|... .. . ...|... .. . ...|... .. . ...
6e|... .. . ...|... .. . ...|... .. . ...|... .. . ...|... .. . ...
6f|... .. . ...|... .. . ...|... .. . ...|... .. . ...|... .. . ...
70|... .. . ...|... .. . ...|... .. . ...|... .. . ...|... .. . ...
71|... .. . ...|... .. . ...|... .. . ...|... .. . ...|... .. . ...
72|... .. . ...|... .. . ...|... .. . ...|... .. . ...|... .. . ...
73|... .. . ...|... .. . ...|... .. . ...|... .. . ...|... .. . ...
74|... .. . ...|... .. . ...|... .. . ...|... .. . ...|... .. . ...
75|... .. . ...|... .. . ...|... .. . ...|... .. . ...|... .. . ...
76|... .. . ...|... .. . ...|... .. . ...|... .. . ...|... .. . ...
77|... .. . ...|... .. . ...|... .. . ...|... .. . ...|... .. . ...
78|... .. . ...|... .. . ...|... .. . ...|... .. . ...|... .. . ...
79|... .. . ...|... .. . ...|... .. . ...|... .. . ...|... .. . ...
7a|... .. . ...|... .. . ...|... .. . ...|... .. . ...|... .. . ...
7b|... .. . ...|... .. . ...|... .. . ...|... .. . ...|... .. . ...
7c|... .. . ...|... .. . ...|... .. . ...|... .. . ...|... .. . ...
7d|... .. . ...|... .. . ...|... .. . ...|... .. . ...|... .. . ...
7e|... .. . ...|... .. . ...|... .. . ...|... .. . ...|... .. . ...
7f|... .. . ...|... .. . ...|... .. . ...|... .. . ...|... .. . ...

[Frame39]
00|G-4 00 6 Q22|G-2 00 6 V00|G-3 00 . ...|C#2 06 a ...|C-3 00 . ...
01|... .. . ...|... .. 2 ...|... .. . ...|... .. . ...|... .. . ...
02|... .. . ...|G-3 00 3 V01|... .. . ...|... .. . ...|... .. . ...
03|... .. . ...|... .. 1 ...|... .. . ...|... .. . ...|... .. . ...
04|... .. . ...|A#2 00 6 V00|D-3 00 . ...|... .. . ...|... .. . ...
05|... .. . ...|... .. 2 ...|... .. . ...|... .. . ...|... .. . ...
06|... .. . ...|A#3 00 3 V01|... .. . ...|... .. . ...|... .. . ...
07|... .. . ...|... .. 1 ...|... .. . ...|... .. . ...|... .. . ...
08|... .. 2 ...|A#2 00 6 V00|G-1 00 . ...|E-2 03 . ...|C#3 00 . ...
09|... .. . ...|... .. 2 ...|... .. . ...|... .. . ...|... .. . ...
0a|... .. . ...|A#3 00 3 V01|... .. . ...|... .. . ...|... .. . ...
0b|... .. . ...|... .. 1 ...|... .. . ...|... .. . ...|... .. . ...
0c|D-4 00 6 ...|G-2 00 6 V00|G-3 00 . ...|F#2 02 . ...|... .. . ...
0d|... .. . ...|... .. 2 ...|... .. . ...|... .. . ...|... .. . ...
0e|... .. . ...|G-3 00 3 V01|... .. . ...|... .. . ...|... .. . ...
0f|... .. . ...|... .. 1 ...|... .. . ...|... .. . ...|... .. . ...
10|... .. . ...|C#3 00 6 V00|G-1 00 . ...|E-2 02 . ...|C-3 00 . ...
11|... .. . ...|C#4 00 3 G01|... .. . ...|... .. . ...|... .. . ...
12|... .. . ...|C-3 00 6 G01|... .. . ...|... .. . ...|... .. . ...
13|... .. . ...|C-4 00 3 G01|... .. . ...|... .. . ...|... .. . ...
14|... .. . ...|A#2 00 6 G02|A#3 00 . ...|F#2 02 . ...|... .. . ...
15|... .. . ...|A#3 00 3 G01|... .. . ...|... .. . ...|... .. . ...
16|... .. . ...|... .. 1 ...|... .. . ...|... .. . ...|... .. . ...
17|... .. . ...|... .. . ...|... .. . ...|... .. . ...|... .. . ...
18|... .. . ...|F-2 00 6 V00|G-1 00 . ...|E-2 03 . ...|C#3 00 . ...
19|... .. . ...|... .. 2 ...|... .. . ...|... .. . ...|... .. . ...
1a|... .. . ...|F-3 00 3 V01|... .. . ...|... .. . ...|... .. . ...
1b|... .. . ...|... .. 1 ...|... .. . ...|... .. . ...|... .. . ...
1c|... .. . 473|D-2 00 6 V00|B-3 00 . ...|F#2 02 . ...|... .. . ...
1d|... .. . ...|... .. 2 ...|C-4 00 . ...|... .. . ...|... .. . ...
1e|... .. . ...|D-3 00 3 V01|... .. . ...|... .. . ...|... .. . ...
1f|... .. . ...|... .. 1 ...|... .. . ...|... .. . ...|... .. . ...
20|... .. . ...|F-2 00 6 V00|... .. . ...|E-2 02 . ...|C-3 00 . ...
21|... .. . ...|... .. 2 ...|... .. . ...|... .. . ...|... .. . ...
22|... .. . ...|F-3 00 3 V01|... .. . ...|... .. . ...|... .. . ...
23|... .. . ...|... .. 1 ...|... .. . ...|... .. . ...|... .. . ...
24|... .. . ...|G-2 00 6 V00|C#4 00 . ...|F#2 02 . ...|... .. . ...
25|... .. . ...|... .. 2 ...|... .. . ...|... .. . ...|... .. . ...
26|... .. . ...|G-3 00 3 V01|... .. . ...|F#2 02 . ...|... .. . ...
27|... .. . ...|... .. 1 ...|... .. . ...|... .. . ...|... .. . ...
28|... .. 2 ...|G-2 00 6 V00|C-4 00 . ...|E-2 03 . ...|C#3 00 . ...
29|... .. . ...|... .. 2 ...|... .. . ...|... .. . ...|... .. . ...
2a|... .. . ...|G-3 00 3 V01|... .. . ...|... .. . ...|... .. . ...
2b|... .. . ...|... .. 1 ...|... .. . ...|... .. . ...|... .. . ...
2c|F-4 00 6 400|F-2 00 6 V00|A#3 00 . ...|E-2 02 . ...|C-3 00 . ...
2d|... .. . ...|... .. 2 ...|... .. . ...|... .. . ...|... .. . ...
2e|... .. . ...|F-3 00 3 V01|... .. . ...|... .. . ...|... .. . ...
2f|... .. . ...|... .. 1 ...|... .. . ...|... .. . ...|... .. . ...
30|... .. . ...|A#2 00 6 V00|G-1 00 . ...|F#2 02 . ...|... .. . ...
31|... .. . ...|... .. 2 ...|... .. . ...|... .. . ...|... .. . ...
32|... .. . ...|A#3 00 3 V01|... .. . ...|... .. . ...|... .. . ...
33|... .. . ...|... .. 1 ...|... .. . ...|... .. . ...|... .. . ...
34|... .. . ...|F-2 00 6 V00|G-3 00 . ...|E-2 02 . ...|C-3 00 . ...
35|... .. . ...|... .. 2 ...|... .. . ...|... .. . ...|... .. . ...
36|... .. . ...|F-3 00 3 V01|... .. . ...|... .. . ...|... .. . ...
37|... .. . ...|... .. 1 ...|... .. . ...|... .. . ...|... .. . ...
38|G-4 00 . ...|G-2 00 6 V00|F-3 00 . ...|E-2 03 . ...|C#3 00 . ...
39|... .. . ...|... .. 2 ...|... .. . ...|... .. . ...|... .. . ...
3a|... .. . ...|G-3 00 3 V01|... .. . ...|... .. . ...|... .. . ...
3b|... .. . ...|... .. 1 ...|... .. . ...|... .. . ...|... .. . ...
3c|... .. . ...|D-2 00 6 V00|G-3 00 . ...|F#2 02 . ...|... .. . ...
3d|... .. . ...|... .. 2 ...|... .. . ...|... .. . ...|... .. . ...
3e|... .. . ...|D-3 00 3 V01|... .. . ...|F#2 02 . ...|... .. . ...
3f|... .. . ...|... .. 1 ...|... .. . S01|... .. . ...|... .. . ...
40|A-4 00 . ...|G-2 00 6 V00|G-3 00 . ...|E-2 02 . ...|C-3 00 . ...
41|... .. . ...|... .. 2 ...|... .. . ...|... .. . ...|... .. . ...
42|... .. . ...|G-3 00 3 V01|... .. . ...|... .. . ...|... .. . ...
43|... .. . ...|... .. 1 ...|... .. . ...|... .. . ...|... .. . ...
44|... .. . ...|A#2 00 6 V00|D-3 00 . ...|F#2 02 . ...|... .. . ...
45|... .. . ...|... .. 2 ...|... .. . ...|... .. . ...|... .. . ...
46|... .. . ...|A#3 00 3 V01|... .. . ...|... .. . ...|... .. . ...
47|... .. . ...|... .. 1 ...|... .. . ...|... .. . ...|... .. . ...
48|... .. . ...|A#2 00 6 V00|G-1 00 . ...|E-2 03 . ...|C#3 00 . ...
49|... .. . ...|... .. 2 ...|... .. . ...|... .. . ...|... .. . ...
4a|... .. . ...|A#3 00 3 V01|... .. . ...|... .. . ...|... .. . ...
4b|... .. . ...|... .. 1 ...|... .. . ...|... .. . ...|... .. . ...
4c|A#4 00 . ...|G-2 00 6 V00|G-3 00 . ...|E-2 02 . ...|C-3 00 . ...
4d|... .. . ...|... .. 2 ...|... .. . ...|... .. . ...|... .. . ...
4e|... .. . ...|G-3 00 3 V01|... .. . ...|... .. . ...|... .. . ...
4f|... .. . ...|... .. 1 ...|... .. . ...|... .. . ...|... .. . ...
50|... .. . ...|C#3 00 6 V00|G-1 00 . ...|F#2 02 . ...|... .. . ...
51|... .. . ...|C#4 00 3 G01|... .. . ...|... .. . ...|... .. . ...
52|... .. . ...|C-3 00 6 G01|... .. . ...|... .. . ...|... .. . ...
53|... .. . ...|C-4 00 3 G01|... .. . ...|... .. . ...|... .. . ...
54|... .. . ...|A#2 00 6 G02|A#3 00 . ...|F#2 02 . ...|... .. . ...
55|... .. . ...|A#3 00 3 G01|... .. . ...|... .. . ...|... .. . ...
56|... .. . ...|... .. 1 ...|... .. . ...|F#2 02 . ...|... .. . ...
57|... .. . ...|... .. . ...|... .. . ...|... .. . ...|... .. . ...
58|A-4 00 . ...|F-2 00 6 V00|G-1 00 . ...|E-2 03 . ...|C#3 00 . ...
59|... .. . ...|... .. 2 ...|... .. . ...|... .. . ...|... .. . ...
5a|... .. . ...|F-3 00 3 V01|... .. . ...|... .. . ...|... .. . ...
5b|... .. . ...|... .. 1 ...|... .. . ...|... .. . ...|... .. . ...
5c|... .. . ...|D-2 00 6 V00|B-3 00 . ...|F#2 02 . ...|... .. . ...
5d|... .. . ...|... .. 2 ...|C-4 00 . ...|... .. . ...|... .. . ...
5e|... .. . ...|D-3 00 3 V01|... .. . ...|... .. . ...|... .. . ...
5f|... .. . ...|... .. 1 ...|... .. . ...|... .. . ...|... .. . ...
60|... .. . ...|F-2 00 6 V00|... .. . ...|E-2 02 . ...|C-3 00 . ...
61|... .. . ...|... .. 2 ...|... .. . ...|... .. . ...|... .. . ...
62|... .. . ...|F-3 00 3 V01|... .. . ...|... .. . ...|... .. . ...
63|... .. . ...|... .. 1 ...|... .. . ...|... .. . ...|... .. . ...
64|G-4 00 . ...|G-2 00 6 V00|C#4 00 . ...|F#2 02 . ...|... .. . ...
65|... .. . ...|... .. 2 ...|... .. . ...|... .. . ...|... .. . ...
66|... .. . ...|G-3 00 3 V01|... .. . ...|... .. . ...|... .. . ...
67|... .. . ...|... .. 1 ...|... .. . ...|... .. . ...|... .. . ...
68|... .. . ...|G-2 00 6 V00|C-4 00 . ...|E-2 03 . ...|C#3 00 . ...
69|... .. . ...|... .. 2 ...|... .. . ...|... .. . ...|... .. . ...
6a|... .. . ...|G-3 00 3 V01|... .. . ...|... .. . ...|... .. . ...
6b|... .. . ...|... .. 1 ...|... .. . ...|... .. . ...|... .. . ...
6c|... .. . ...|F-2 00 6 V00|A#3 00 . ...|E-2 02 . ...|C-3 00 . ...
6d|... .. . ...|... .. 2 ...|... .. . ...|... .. . ...|... .. . ...
6e|... .. . ...|F-3 00 3 V01|... .. . ...|... .. . ...|... .. . ...
6f|... .. . ...|... .. 1 ...|... .. . ...|... .. . ...|... .. . ...
70|F-4 00 . ...|A#2 00 6 V00|G-1 00 . ...|F#2 02 . ...|... .. . ...
71|... .. . ...|... .. 2 ...|... .. . ...|... .. . ...|... .. . ...
72|... .. . ...|A#3 00 3 V01|... .. . ...|F#2 02 . ...|... .. . ...
73|... .. . ...|... .. 1 ...|... .. . ...|... .. . ...|... .. . ...
74|... .. 2 ...|F-2 00 6 V00|G-3 00 . ...|E-2 02 . ...|C-3 00 . ...
75|... .. . ...|... .. 2 ...|... .. . ...|... .. . ...|... .. . ...
76|... .. . ...|F-3 00 3 V01|... .. . ...|... .. . ...|... .. . ...
77|... .. . ...|... .. 1 ...|... .. . ...|... .. . ...|... .. . ...
78|G-4 00 6 ...|G-2 00 6 V00|F-3 00 . ...|E-2 03 . ...|C#3 00 . ...
79|... .. . ...|... .. 2 ...|... .. . ...|... .. . ...|... .. . ...
7a|... .. . ...|G-3 00 3 V01|... .. . ...|... .. . ...|... .. . ...
7b|... .. . ...|... .. 1 ...|... .. . ...|... .. . ...|... .. . ...
7c|... .. 2 ...|D-2 00 6 V00|G-3 00 . ...|E-2 03 . ...|C#3 00 . ...
7d|... .. . ...|... .. 2 ...|... .. . ...|... .. . ...|... .. . ...
7e|... .. . ...|D-3 00 3 V01|... .. . ...|E-2 03 . ...|C#3 00 . ...
7f|... .. . ...|... .. 1 ...|... .. . S01|... .. . ...|... .. . ...

[Frame40]
00|G-4 00 6 Q22|G-2 00 6 V00|G-3 00 . ...|C#2 06 a ...|C-3 00 . ...
01|... .. . ...|... .. 2 ...|... .. . ...|... .. . ...|... .. . ...
02|... .. . ...|G-3 00 3 V01|... .. . ...|... .. . ...|... .. . ...
03|... .. . ...|... .. 1 ...|... .. . ...|... .. . ...|... .. . ...
04|... .. . ...|A#2 00 6 V00|D-3 00 . ...|... .. . ...|... .. . ...
05|... .. . ...|... .. 2 ...|... .. . ...|... .. . ...|... .. . ...
06|... .. . ...|A#3 00 3 V01|... .. . ...|... .. . ...|... .. . ...
07|... .. . ...|... .. 1 ...|... .. . ...|... .. . ...|... .. . ...
08|... .. 2 ...|A#2 00 6 V00|G-1 00 . ...|E-2 03 . ...|C#3 00 . ...
09|... .. . ...|... .. 2 ...|... .. . ...|... .. . ...|... .. . ...
0a|... .. . ...|A#3 00 3 V01|... .. . ...|... .. . ...|... .. . ...
0b|... .. . ...|... .. 1 ...|... .. . ...|... .. . ...|... .. . ...
0c|D-4 00 6 ...|G-2 00 6 V00|G-3 00 . ...|F#2 02 . ...|... .. . ...
0d|... .. . ...|... .. 2 ...|... .. . ...|... .. . ...|... .. . ...
0e|... .. . ...|G-3 00 3 V01|... .. . ...|... .. . ...|... .. . ...
0f|... .. . ...|... .. 1 ...|... .. . ...|... .. . ...|... .. . ...
10|... .. . ...|C#3 00 6 V00|G-1 00 . ...|E-2 02 . ...|C-3 00 . ...
11|... .. . ...|C#4 00 3 G01|... .. . ...|... .. . ...|... .. . ...
12|... .. . ...|C-3 00 6 G01|... .. . ...|... .. . ...|... .. . ...
13|... .. . ...|C-4 00 3 G01|... .. . ...|... .. . ...|... .. . ...
14|... .. . ...|A#2 00 6 G02|A#3 00 . ...|F#2 02 . ...|... .. . ...
15|... .. . ...|A#3 00 3 G01|... .. . ...|... .. . ...|... .. . ...
16|... .. . ...|... .. 1 ...|... .. . ...|... .. . ...|... .. . ...
17|... .. . ...|... .. . ...|... .. . ...|... .. . ...|... .. . ...
18|... .. . ...|F-2 00 6 V00|G-1 00 . ...|E-2 03 . ...|C#3 00 . ...
19|... .. . ...|... .. 2 ...|... .. . ...|... .. . ...|... .. . ...
1a|... .. . ...|F-3 00 3 V01|... .. . ...|... .. . ...|... .. . ...
1b|... .. . ...|... .. 1 ...|... .. . ...|... .. . ...|... .. . ...
1c|... .. . 473|D-2 00 6 V00|B-3 00 . ...|F#2 02 . ...|... .. . ...
1d|... .. . ...|... .. 2 ...|C-4 00 . ...|... .. . ...|... .. . ...
1e|... .. . ...|D-3 00 3 V01|... .. . ...|... .. . ...|... .. . ...
1f|... .. . ...|... .. 1 ...|... .. . ...|... .. . ...|... .. . ...
20|... .. . ...|F-2 00 6 V00|... .. . ...|E-2 02 . ...|C-3 00 . ...
21|... .. . ...|... .. 2 ...|... .. . ...|... .. . ...|... .. . ...
22|... .. . ...|F-3 00 3 V01|... .. . ...|... .. . ...|... .. . ...
23|... .. . ...|... .. 1 ...|... .. . ...|... .. . ...|... .. . ...
24|... .. . ...|G-2 00 6 V00|C#4 00 . ...|F#2 02 . ...|... .. . ...
25|... .. . ...|... .. 2 ...|... .. . ...|... .. . ...|... .. . ...
26|... .. . ...|G-3 00 3 V01|... .. . ...|F#2 02 . ...|... .. . ...
27|... .. . ...|... .. 1 ...|... .. . ...|... .. . ...|... .. . ...
28|... .. 2 ...|G-2 00 6 V00|C-4 00 . ...|E-2 03 . ...|C#3 00 . ...
29|... .. . ...|... .. 2 ...|... .. . ...|... .. . ...|... .. . ...
2a|... .. . ...|G-3 00 3 V01|... .. . ...|... .. . ...|... .. . ...
2b|... .. . ...|... .. 1 ...|... .. . ...|... .. . ...|... .. . ...
2c|D-4 00 6 400|F-2 00 6 V00|A#3 00 . ...|E-2 02 . ...|C-3 00 . ...
2d|... .. . ...|... .. 2 ...|... .. . ...|... .. . ...|... .. . ...
2e|... .. . ...|F-3 00 3 V01|... .. . ...|... .. . ...|... .. . ...
2f|... .. . ...|... .. 1 ...|... .. . ...|... .. . ...|... .. . ...
30|... .. . ...|A#2 00 6 V00|G-1 00 . ...|F#2 02 . ...|... .. . ...
31|... .. . ...|... .. 2 ...|... .. . ...|... .. . ...|... .. . ...
32|... .. . ...|A#3 00 3 V01|... .. . ...|... .. . ...|... .. . ...
33|... .. . ...|... .. 1 ...|... .. . ...|... .. . ...|... .. . ...
34|... .. . ...|F-2 00 6 V00|G-3 00 . ...|E-2 02 . ...|C-3 00 . ...
35|... .. . ...|... .. 2 ...|... .. . ...|... .. . ...|... .. . ...
36|... .. . ...|F-3 00 3 V01|... .. . ...|... .. . ...|... .. . ...
37|... .. . ...|... .. 1 ...|... .. . ...|... .. . ...|... .. . ...
38|F-4 00 . ...|G-2 00 6 V00|F-3 00 . ...|E-2 03 . ...|C#3 00 . ...
39|... .. . ...|... .. 2 ...|... .. . ...|... .. . ...|... .. . ...
3a|... .. . ...|G-3 00 3 V01|... .. . ...|... .. . ...|... .. . ...
3b|... .. . ...|... .. 1 ...|... .. . ...|... .. . ...|... .. . ...
3c|... .. . ...|D-2 00 6 V00|G-3 00 . ...|F#2 02 . ...|... .. . ...
3d|... .. . ...|... .. 2 ...|... .. . ...|... .. . ...|... .. . ...
3e|... .. . ...|D-3 00 3 V01|... .. . ...|F#2 02 . ...|... .. . ...
3f|... .. . ...|... .. 1 ...|... .. . ...|... .. . ...|... .. . ...
40|A#3 00 . ...|G-3 00 5 V02|F-3 00 . ...|C#2 06 . ...|C-3 00 . ...
41|... .. . ...|A#2 00 . V00|... .. . ...|... .. . ...|... .. . ...
42|... .. . ...|G-4 00 . V01|... .. . ...|... .. . ...|... .. . ...
43|... .. . ...|A#2 00 . V00|... .. . ...|... .. . ...|... .. . ...
44|... .. . ...|D-3 00 . V02|... .. . ...|... .. . ...|... .. . ...
45|... .. . ...|A#2 00 . V00|... .. . ...|... .. . ...|... .. . ...
46|... .. . ...|D-4 00 . V01|... .. . ...|... .. . ...|... .. . ...
47|... .. . ...|A#2 00 . V00|... .. . ...|... .. . ...|... .. . ...
48|... .. 2 ...|G-3 00 . V02|F-2 00 . ...|F#2 02 . ...|... .. . ...
49|... .. . ...|A#2 00 . V00|... .. . ...|... .. . ...|... .. . ...
4a|... .. . ...|G-4 00 . V01|... .. . ...|... .. . ...|... .. . ...
4b|... .. . ...|A#2 00 . V00|... .. . ...|... .. . ...|... .. . ...
4c|C-4 00 6 ...|A-3 00 . V02|F#3 00 . ...|E-2 02 . ...|C-3 00 . ...
4d|... .. . ...|C-3 00 . V00|... .. . ...|... .. . ...|... .. . ...
4e|... .. . ...|A-4 00 . V01|... .. . ...|... .. . ...|... .. . ...
4f|... .. . ...|C-3 00 . V00|... .. . ...|... .. . ...|... .. . ...
50|... .. . ...|D-3 00 . V02|... .. . ...|F#2 02 . ...|... .. . ...
51|... .. . ...|C-3 00 . V00|... .. . ...|... .. . ...|... .. . ...
52|... .. . ...|D-4 00 . V01|... .. . ...|... .. . ...|... .. . ...
53|... .. . ...|C-3 00 . V00|... .. . ...|... .. . ...|... .. . ...
54|... .. 2 ...|A-3 00 . V02|F#2 00 . ...|F#2 02 . ...|... .. . ...
55|... .. . ...|C-3 00 . V00|... .. . ...|... .. . ...|... .. . ...
56|... .. . ...|A-4 00 . V01|... .. . ...|... .. . ...|... .. . ...
57|... .. . ...|C-3 00 . V00|... .. . ...|... .. . ...|... .. . ...
58|G-3 00 6 ...|A-4 00 4 Q01|G-3 00 . ...|C#2 06 . ...|C#3 00 . ...
59|... .. . ...|... .. . ...|... .. . ...|... .. . ...|... .. . ...
5a|... .. . ...|... .. . ...|... .. . ...|... .. . ...|... .. . ...
5b|... .. . ...|... .. . ...|... .. . ...|... .. . ...|... .. . ...
5c|... .. . ...|... .. . ...|... .. . ...|... .. . ...|... .. . ...
5d|... .. . ...|... .. . ...|... .. . ...|... .. . ...|... .. . ...
5e|... .. . ...|... .. . ...|... .. . ...|... .. . ...|... .. . ...
5f|... .. . ...|... .. . ...|... .. . ...|... .. . ...|... .. . ...
60|... .. . ...|... .. . ...|G-1 00 . ...|F#2 02 . ...|... .. . ...
61|... .. . ...|... .. . ...|... .. . ...|... .. . ...|... .. . ...
62|... .. . ...|... .. . ...|... .. . ...|... .. . ...|... .. . ...
63|... .. . ...|... .. . ...|... .. . ...|... .. . ...|... .. . ...
64|... .. . ...|... .. . ...|D-3 00 . ...|E-2 03 . ...|C#3 00 . ...
65|... .. . ...|... .. . ...|... .. . ...|... .. . ...|... .. . ...
66|... .. . ...|... .. . ...|... .. . ...|E-2 03 . ...|C#3 00 . ...
67|... .. . ...|... .. . ...|... .. . ...|... .. . ...|... .. . ...
68|... .. . 473|A-4 00 . ...|G-3 00 . ...|E-2 03 . ...|C#3 00 . ...
69|... .. . ...|... .. . ...|... .. . ...|... .. . ...|... .. . ...
6a|... .. . ...|... .. . ...|... .. . ...|... .. . ...|... .. . ...
6b|... .. . ...|... .. . ...|... .. . ...|... .. . ...|... .. . ...
6c|... .. . ...|A#4 00 . ...|A#3 00 . ...|F#2 02 . ...|D-3 00 . ...
6d|... .. . ...|... .. . ...|... .. . ...|... .. . ...|... .. . ...
6e|... .. . ...|A-4 00 . ...|... .. . ...|... .. . ...|... .. . ...
6f|... .. . ...|... .. . ...|... .. . ...|... .. . ...|... .. . ...
70|... .. 5 ...|G-4 00 . ...|B-3 00 . ...|F#2 02 . ...|D#3 00 . ...
71|... .. . ...|... .. . ...|C-4 00 . ...|... .. . ...|... .. . ...
72|... .. . ...|... .. . ...|... .. . ...|... .. . ...|... .. . ...
73|... .. . ...|... .. . ...|... .. . ...|... .. . ...|... .. . ...
74|... .. 4 ...|... .. . ...|C#4 00 . ...|E-2 02 . ...|C-3 00 . ...
75|... .. . ...|... .. . ...|... .. . ...|... .. . ...|... .. . ...
76|... .. . ...|... .. . ...|... .. . ...|... .. . ...|... .. . ...
77|... .. . ...|... .. . ...|... .. . ...|... .. . ...|... .. . ...
78|... .. 3 ...|F-4 00 . ...|C-4 00 . ...|E-2 03 . ...|C#3 00 . ...
79|... .. . ...|... .. . ...|... .. . ...|... .. . ...|... .. . ...
7a|... .. . ...|... .. . ...|... .. . ...|... .. . ...|... .. . ...
7b|... .. . ...|... .. . ...|... .. . ...|... .. . ...|... .. . ...
7c|... .. 2 ...|... .. . ...|A#3 00 . ...|E-2 03 . ...|C#3 00 . ...
7d|... .. . ...|... .. . ...|... .. . ...|... .. . ...|... .. . ...
7e|... .. 1 ...|... .. . ...|... .. . ...|E-2 03 . ...|C#3 00 . ...
7f|... .. . ...|... .. . ...|... .. . ...|... .. . ...|... .. . ...

[Frame41]
00|F-4 00 6 Q22|C-4 00 4 Q22|D#3 00 . ...|C#2 06 a ...|C-3 00 . ...
01|... .. . ...|... .. . ...|... .. . ...|... .. . ...|... .. . ...
02|... .. . ...|... .. . ...|... .. . ...|... .. . ...|... .. . ...
03|... .. . ...|... .. . ...|... .. . ...|... .. . ...|... .. . ...
04|... .. . ...|... .. . ...|... .. . ...|... .. . ...|... .. . ...
05|... .. . ...|... .. . ...|... .. . ...|... .. . ...|... .. . ...
06|... .. . ...|... .. . ...|... .. . ...|... .. . ...|... .. . ...
07|... .. . ...|... .. . ...|... .. . ...|... .. . ...|... .. . ...
08|... .. . ...|... .. . ...|D#2 00 . ...|E-2 03 . ...|C#3 00 . ...
09|... .. . ...|... .. . ...|... .. . ...|... .. . ...|... .. . ...
0a|... .. . ...|... .. . ...|... .. . ...|... .. . ...|... .. . ...
0b|... .. . ...|... .. . ...|... .. . ...|... .. . ...|... .. . ...
0c|A-4 00 . ...|F-4 00 . ...|D#3 00 . ...|C#2 06 . ...|C-3 00 . ...
0d|... .. . ...|... .. . ...|... .. . ...|... .. . ...|... .. . ...
0e|... .. . ...|... .. . ...|... .. . ...|... .. . ...|... .. . ...
0f|... .. . ...|... .. . ...|... .. . ...|... .. . ...|... .. . ...
10|... .. . ...|... .. . ...|... .. . ...|... .. . ...|... .. . ...
11|... .. . ...|... .. . ...|... .. . ...|... .. . ...|... .. . ...
12|... .. . ...|... .. . ...|... .. . ...|... .. . ...|... .. . ...
13|... .. . ...|... .. . ...|... .. . ...|... .. . ...|... .. . ...
14|... .. . ...|... .. . ...|A#2 00 . ...|E-2 03 . ...|C#3 00 . ...
15|... .. . ...|... .. . ...|... .. . ...|... .. . ...|... .. . ...
16|... .. . ...|... .. . ...|... .. . ...|E-2 03 . ...|C#3 00 . ...
17|... .. . ...|... .. . ...|... .. . ...|... .. . ...|... .. . ...
18|A#4 00 . ...|G-4 00 . ...|D#3 00 . ...|E-2 03 . ...|C#3 00 . ...
19|... .. . ...|... .. . ...|... .. . ...|... .. . ...|... .. . ...
1a|... .. . ...|... .. . ...|... .. . ...|... .. . ...|... .. . ...
1b|... .. . ...|... .. . ...|... .. . ...|... .. . ...|... .. . ...
1c|... .. 2 ...|... .. 1 ...|... .. . ...|E-2 03 . ...|C#3 00 . ...
1d|... .. . ...|... .. . ...|... .. . ...|... .. . ...|... .. . ...
1e|... .. . ...|... .. . ...|... .. . ...|... .. . ...|... .. . ...
1f|... .. . ...|... .. . ...|... .. . ...|... .. . ...|... .. . ...
20|A-4 00 6 Q01|F-4 00 4 Q22|G-3 00 . ...|C#2 06 . ...|C-3 00 . ...
21|... .. . ...|... .. . ...|... .. . ...|... .. . ...|... .. . ...
22|... .. . ...|... .. . ...|... .. . ...|... .. . ...|... .. . ...
23|... .. . ...|... .. . ...|... .. . ...|... .. . ...|... .. . ...
24|... .. . ...|... .. . ...|... .. . ...|... .. . ...|... .. . ...
25|... .. . ...|... .. . ...|... .. . ...|... .. . ...|... .. . ...
26|... .. . ...|... .. . ...|... .. . ...|... .. . ...|... .. . ...
27|... .. . ...|... .. . ...|... .. . ...|... .. . ...|... .. . ...
28|G-4 00 . 400|D-4 00 . ...|G-2 00 . ...|E-2 03 . ...|C#3 00 . ...
29|... .. . ...|... .. . ...|... .. . ...|... .. . ...|... .. . ...
2a|... .. . ...|... .. . ...|... .. . ...|... .. . ...|... .. . ...
2b|... .. . ...|... .. . ...|... .. . ...|... .. . ...|... .. . ...
2c|... .. 2 ...|... .. 1 ...|G-3 00 . ...|C#2 06 . ...|C-3 00 . ...
2d|... .. . ...|... .. . ...|... .. . ...|... .. . ...|... .. . ...
2e|... .. . ...|... .. . ...|... .. . ...|... .. . ...|... .. . ...
2f|... .. . ...|... .. . ...|... .. . ...|... .. . ...|... .. . ...
30|A#4 00 6 ...|G-4 00 4 ...|... .. . ...|... .. . ...|... .. . ...
31|... .. . ...|... .. . ...|... .. . ...|... .. . ...|... .. . ...
32|... .. . ...|... .. . ...|... .. . ...|... .. . ...|... .. . ...
33|... .. . ...|... .. . ...|... .. . ...|... .. . ...|... .. . ...
34|... .. . ...|... .. . ...|D-3 00 . ...|E-2 02 . ...|C-3 00 . ...
35|... .. . ...|... .. . ...|... .. . ...|... .. . ...|... .. . ...
36|... .. . ...|... .. . ...|... .. . ...|... .. . ...|... .. . ...
37|... .. . ...|... .. . ...|... .. . ...|... .. . ...|... .. . ...
38|D-5 00 . ...|A#4 00 . ...|G-3 00 . ...|E-2 03 . ...|C#3 00 . ...
39|... .. . ...|... .. . ...|... .. . ...|... .. . ...|... .. . ...
3a|... .. . ...|... .. . ...|... .. . ...|... .. . ...|... .. . ...
3b|... .. . ...|... .. . ...|... .. . ...|... .. . ...|... .. . ...
3c|... .. 2 ...|... .. 1 ...|... .. . ...|F#2 02 . ...|... .. . ...
3d|... .. . ...|... .. . ...|... .. . ...|... .. . ...|... .. . ...
3e|... .. . ...|... .. . ...|... .. . ...|... .. . ...|... .. . ...
3f|... .. . ...|... .. . ...|... .. . ...|... .. . ...|... .. . ...
40|C-5 00 6 Q22|A-4 00 4 Q01|F-3 00 . ...|C#2 06 . ...|C-3 00 . ...
41|... .. . ...|... .. . ...|... .. . ...|... .. . ...|... .. . ...
42|... .. . ...|... .. . ...|... .. . ...|... .. . ...|... .. . ...
43|... .. . ...|... .. . ...|... .. . ...|... .. . ...|... .. . ...
44|... .. . ...|... .. . ...|... .. . ...|... .. . ...|... .. . ...
45|... .. . ...|... .. . ...|... .. . ...|... .. . ...|... .. . ...
46|... .. 2 ...|... .. 1 ...|... .. . ...|... .. . ...|... .. . ...
47|... .. . ...|... .. . ...|... .. . ...|... .. . ...|... .. . ...
48|D-5 00 6 ...|A#4 00 4 ...|F-2 00 . ...|E-2 03 . ...|C#3 00 . ...
49|... .. . ...|... .. . ...|... .. . ...|... .. . ...|... .. . ...
4a|... .. . ...|... .. . ...|... .. . ...|... .. . ...|... .. . ...
4b|... .. . ...|... .. . ...|... .. . ...|... .. . ...|... .. . ...
4c|C-5 00 . ...|A-4 00 . ...|F-3 00 . ...|E-2 02 . ...|C-3 00 . ...
4d|... .. . ...|... .. . ...|... .. . ...|... .. . ...|... .. . ...
4e|... .. . ...|... .. . ...|... .. . ...|... .. . ...|... .. . ...
4f|... .. . ...|... .. . ...|... .. . ...|... .. . ...|... .. . ...
50|... .. 2 ...|... .. 1 ...|... .. . ...|F#2 02 . ...|... .. . ...
51|... .. . ...|... .. . ...|... .. . ...|... .. . ...|... .. . ...
52|... .. . ...|... .. . ...|... .. . ...|F#2 02 . ...|... .. . ...
53|... .. . ...|... .. . ...|... .. . ...|... .. . ...|... .. . ...
54|A#4 00 6 ...|G-4 00 4 ...|C-3 00 . ...|F#2 02 . ...|... .. . ...
55|... .. . ...|... .. . ...|... .. . ...|... .. . ...|... .. . ...
56|... .. . ...|... .. . ...|... .. . ...|... .. . ...|... .. . ...
57|... .. . ...|... .. . ...|... .. . ...|... .. . ...|... .. . ...
58|... .. 2 ...|... .. 1 ...|F-3 00 . ...|E-2 03 . ...|C#3 00 . ...
59|... .. . ...|... .. . ...|... .. . ...|... .. . ...|... .. . ...
5a|... .. . ...|... .. . ...|... .. . ...|... .. . ...|... .. . ...
5b|... .. . ...|... .. . ...|... .. . ...|... .. . ...|... .. . ...
5c|G-4 00 6 Q22|D#4 00 4 Q22|... .. . ...|F#2 02 . ...|... .. . ...
5d|... .. . ...|... .. . ...|... .. . ...|... .. . ...|... .. . ...
5e|... .. . ...|... .. . ...|... .. . ...|... .. . ...|... .. . ...
5f|... .. . ...|... .. . ...|... .. . ...|... .. . ...|... .. . ...
60|... .. . ...|... .. . ...|D#3 00 . ...|E-2 02 . ...|C-3 00 . ...
61|... .. . ...|... .. . ...|... .. . ...|... .. . ...|... .. . ...
62|... .. . ...|... .. . ...|... .. . ...|... .. . ...|... .. . ...
63|... .. . ...|... .. . ...|... .. . ...|... .. . ...|... .. . ...
64|... .. . 473|... .. . ...|... .. . ...|F#2 02 . ...|... .. . ...
65|... .. . ...|... .. . ...|... .. . ...|... .. . ...|... .. . ...
66|... .. . ...|... .. . ...|... .. . ...|... .. . ...|... .. . ...
67|... .. . ...|... .. . ...|... .. . ...|... .. . ...|... .. . ...
68|... .. 2 ...|... .. 1 ...|D#2 00 . ...|E-2 03 . ...|C#3 00 . ...
69|... .. . ...|... .. . ...|... .. . ...|... .. . ...|... .. . ...
6a|... .. . ...|... .. . ...|... .. . ...|... .. . ...|... .. . ...
6b|... .. . ...|... .. . ...|... .. . ...|... .. . ...|... .. . ...
6c|G-4 00 6 400|D-4 00 4 ...|D#3 00 . ...|E-2 02 . ...|C-3 00 . ...
6d|... .. . ...|... .. . ...|... .. . ...|... .. . ...|... .. . ...
6e|... .. . ...|... .. . ...|... .. . ...|... .. . ...|... .. . ...
6f|... .. . ...|... .. . ...|... .. . ...|... .. . ...|... .. . ...
70|... .. . ...|... .. . ...|... .. . ...|F#2 02 . ...|D-3 00 . ...
71|... .. . ...|... .. . ...|... .. . ...|... .. . ...|... .. . ...
72|... .. . ...|... .. . ...|... .. . ...|F#2 02 . ...|D-3 00 . ...
73|... .. . ...|... .. . ...|... .. . ...|... .. . ...|... .. . ...
74|... .. . 473|... .. . ...|A#2 00 . ...|F#2 02 . ...|D#3 00 . ...
75|... .. . ...|... .. . ...|... .. . ...|... .. . ...|... .. . ...
76|... .. . ...|... .. . ...|... .. . ...|... .. . ...|... .. . ...
77|... .. . ...|... .. . ...|... .. . ...|... .. . ...|... .. . ...
78|... .. . ...|... .. . ...|D#3 00 . ...|F#2 02 . ...|D#3 00 . ...
79|... .. . ...|... .. . ...|... .. . ...|... .. . ...|... .. . ...
7a|... .. . ...|... .. . ...|... .. . ...|... .. . ...|... .. . ...
7b|... .. . ...|... .. . ...|... .. . ...|... .. . ...|... .. . ...
7c|... .. . ...|... .. . ...|... .. . ...|E-2 03 . ...|C#3 00 . ...
7d|... .. . ...|... .. . ...|... .. . ...|... .. . ...|... .. . ...
7e|... .. . ...|... .. . ...|... .. . ...|E-2 03 . ...|C#3 00 . ...
7f|... .. . ...|... .. . ...|... .. . ...|... .. . ...|... .. . ...

[Frame42]
00|... .. 2 ...|G-2 00 6 V00|G-3 00 . ...|C#2 06 a ...|C-3 00 . ...
01|... .. . ...|... .. 2 ...|... .. . ...|... .. . ...|... .. . ...
02|... .. . ...|G-3 00 3 V01|... .. . ...|... .. . ...|... .. . ...
03|... .. . ...|... .. 1 ...|... .. . ...|... .. . ...|... .. . ...
04|... .. 1 ...|A#2 00 6 V00|... .. . ...|... .. . ...|... .. . ...
05|... .. . ...|... .. 2 ...|... .. . ...|... .. . ...|... .. . ...
06|... .. . ...|A#3 00 3 V01|... .. . ...|... .. . ...|... .. . ...
07|... .. . ...|... .. 1 ...|... .. . ...|... .. . ...|... .. . ...
08|A-4 00 6 Q01|A#2 00 6 V00|G-2 00 . ...|E-2 03 . ...|C#3 00 . ...
09|... .. . ...|... .. 2 ...|... .. . ...|... .. . ...|... .. . ...
0a|... .. . ...|A#3 00 3 V01|... .. . ...|... .. . ...|... .. . ...
0b|... .. . ...|... .. 1 ...|... .. . ...|... .. . ...|... .. . ...
0c|... .. 2 ...|G-2 00 6 V00|G-3 00 . ...|F#2 02 . ...|... .. . ...
0d|... .. . ...|... .. 2 ...|... .. . ...|... .. . ...|... .. . ...
0e|... .. . ...|G-3 00 3 V01|... .. . ...|F#2 02 . ...|... .. . ...
0f|... .. . ...|... .. 1 ...|... .. . ...|... .. . ...|... .. . ...
10|A#4 00 6 ...|C#3 00 6 V00|... .. . ...|E-2 02 . ...|C-3 00 . ...
11|... .. . ...|C#4 00 3 G01|... .. . ...|... .. . ...|... .. . ...
12|... .. . ...|C-3 00 6 G01|... .. . ...|... .. . ...|... .. . ...
13|... .. . ...|C-4 00 3 G01|... .. . ...|... .. . ...|... .. . ...
14|A-4 00 . ...|A#2 00 6 G02|D-3 00 . ...|F#2 02 . ...|... .. . ...
15|... .. . ...|A#3 00 3 G01|... .. . ...|... .. . ...|... .. . ...
16|... .. . ...|... .. 1 ...|... .. . ...|... .. . ...|... .. . ...
17|... .. . ...|... .. . ...|... .. . ...|... .. . ...|... .. . ...
18|... .. 2 ...|F-2 00 6 V00|G-3 00 . ...|E-2 03 . ...|C#3 00 . ...
19|... .. . ...|... .. 2 ...|... .. . ...|... .. . ...|... .. . ...
1a|... .. . ...|F-3 00 3 V01|... .. . ...|... .. . ...|... .. . ...
1b|... .. . ...|... .. 1 ...|... .. . ...|... .. . ...|... .. . ...
1c|F-4 00 6 ...|D-2 00 6 V00|... .. . ...|F#2 02 . ...|... .. . ...
1d|... .. . ...|... .. 2 ...|... .. . ...|... .. . ...|... .. . ...
1e|... .. . ...|D-3 00 3 V01|... .. . ...|... .. . ...|... .. . ...
1f|... .. . ...|... .. 1 ...|... .. . ...|... .. . ...|... .. . ...
20|... .. . ...|D-2 00 6 V00|A-3 00 . ...|E-2 02 . ...|C-3 00 . ...
21|... .. . ...|... .. 2 ...|... .. . ...|... .. . ...|... .. . ...
22|... .. . ...|D-3 00 3 V01|... .. . ...|... .. . ...|... .. . ...
23|... .. . ...|... .. 1 ...|... .. . ...|... .. . ...|... .. . ...
24|... .. . 473|F-2 00 6 V00|... .. . ...|E-2 02 . ...|C-3 00 . ...
25|... .. . ...|... .. 2 ...|... .. . ...|... .. . ...|... .. . ...
26|... .. . ...|F-3 00 3 V01|... .. . ...|... .. . ...|... .. . ...
27|... .. . ...|... .. 1 ...|... .. . ...|... .. . ...|... .. . ...
28|... .. 2 ...|F-2 00 6 V00|A-2 00 . ...|E-2 03 . ...|C#3 00 . ...
29|... .. . ...|... .. 2 ...|... .. . ...|... .. . ...|... .. . ...
2a|... .. . ...|F-3 00 3 V01|... .. . ...|... .. . ...|... .. . ...
2b|... .. . ...|... .. 1 ...|... .. . ...|... .. . ...|... .. . ...
2c|G-4 00 6 400|D-2 00 6 V00|A-3 00 . ...|E-2 02 . ...|C-3 00 . ...
2d|... .. . ...|... .. 2 ...|... .. . ...|... .. . ...|... .. . ...
2e|... .. . ...|D-3 00 3 V01|... .. . ...|... .. . ...|... .. . ...
2f|... .. . ...|... .. 1 ...|... .. . ...|... .. . ...|... .. . ...
30|... .. . ...|A-2 00 6 V00|... .. . ...|F#2 02 . ...|... .. . ...
31|... .. . ...|... .. 2 ...|... .. . ...|... .. . ...|... .. . ...
32|... .. . ...|A-3 00 3 V01|... .. . ...|F#2 02 . ...|... .. . ...
33|... .. . ...|... .. 1 ...|... .. . ...|... .. . ...|... .. . ...
34|... .. . ...|D-2 00 6 V00|D-3 00 . ...|E-2 02 . ...|C-3 00 . ...
35|... .. . ...|... .. 2 ...|... .. . ...|... .. . ...|... .. . ...
36|... .. . ...|D-3 00 3 V01|... .. . ...|... .. . ...|... .. . ...
37|... .. . ...|... .. 1 ...|... .. . ...|... .. . ...|... .. . ...
38|A-4 00 . ...|F-2 00 6 V00|A-3 00 . ...|E-2 03 . ...|C#3 00 . ...
39|... .. . ...|... .. 2 ...|... .. . ...|... .. . ...|... .. . ...
3a|... .. . ...|F-3 00 3 V01|... .. . ...|... .. . ...|... .. . ...
3b|... .. . ...|... .. 1 ...|... .. . ...|... .. . ...|... .. . ...
3c|... .. . ...|D-2 00 6 V00|... .. . ...|E-2 03 . ...|C#3 00 . ...
3d|... .. . ...|... .. 2 ...|... .. . ...|... .. . ...|... .. . ...
3e|... .. . ...|D-3 00 3 V01|... .. . ...|E-2 03 . ...|C#3 00 . ...
3f|... .. . ...|... .. 1 ...|... .. . ...|... .. . ...|... .. . ...
40|G-4 00 . ...|G-2 00 6 V00|G-3 00 . ...|E-2 02 . ...|C-3 00 . ...
41|... .. . ...|... .. 2 ...|... .. . ...|... .. . ...|... .. . ...
42|... .. . ...|G-3 00 3 V01|... .. . ...|... .. . ...|... .. . ...
43|... .. . ...|... .. 1 ...|... .. . ...|... .. . ...|... .. . ...
44|... .. . ...|A#2 00 6 V00|D-3 00 . ...|F#2 02 . ...|... .. . ...
45|... .. . ...|... .. 2 ...|... .. . ...|... .. . ...|... .. . ...
46|... .. . ...|A#3 00 3 V01|... .. . ...|... .. . ...|... .. . ...
47|... .. . ...|... .. 1 ...|... .. . ...|... .. . ...|... .. . ...
48|... .. . ...|A#2 00 6 V00|G-1 00 . ...|E-2 03 . ...|C#3 00 . ...
49|... .. . ...|... .. 2 ...|... .. . ...|... .. . ...|... .. . ...
4a|... .. . ...|A#3 00 3 V01|... .. . ...|... .. . ...|... .. . ...
4b|... .. . ...|... .. 1 ...|... .. . ...|... .. . ...|... .. . ...
4c|... .. . ...|G-2 00 6 V00|G-3 00 . ...|F#2 02 . ...|... .. . ...
4d|... .. . ...|... .. 2 ...|... .. . ...|... .. . ...|... .. . ...
4e|... .. . ...|G-3 00 3 V01|... .. . ...|... .. . ...|... .. . ...
4f|... .. . ...|... .. 1 ...|... .. . ...|... .. . ...|... .. . ...
50|... .. . 473|C#3 00 6 V00|G-1 00 . ...|F#2 02 . ...|... .. . ...
51|... .. . ...|C#4 00 3 G01|... .. . ...|... .. . ...|... .. . ...
52|... .. . ...|C-3 00 6 G01|... .. . ...|F#2 02 . ...|... .. . ...
53|... .. . ...|C-4 00 3 G01|... .. . ...|... .. . ...|... .. . ...
54|... .. . ...|A#2 00 6 G02|A#3 00 . ...|E-2 02 . ...|C-3 00 . ...
55|... .. . ...|A#3 00 3 G01|... .. . ...|... .. . ...|... .. . ...
56|... .. . ...|... .. 1 ...|... .. . ...|... .. . ...|... .. . ...
57|... .. . ...|... .. . ...|... .. . ...|... .. . ...|... .. . ...
58|... .. . ...|F-2 00 6 V00|G-1 00 . ...|E-2 03 . ...|C#3 00 . ...
59|... .. . ...|... .. 2 ...|... .. . ...|... .. . ...|... .. . ...
5a|... .. . ...|F-3 00 3 V01|... .. . ...|... .. . ...|... .. . ...
5b|... .. . ...|... .. 1 ...|... .. . ...|... .. . ...|... .. . ...
5c|... .. . ...|D-2 00 6 V00|B-3 00 . ...|F#2 02 . ...|... .. . ...
5d|... .. . ...|... .. 2 ...|C-4 00 . ...|... .. . ...|... .. . ...
5e|... .. . ...|D-3 00 3 V01|... .. . ...|... .. . ...|... .. . ...
5f|... .. . ...|... .. 1 ...|... .. . ...|... .. . ...|... .. . ...
60|... .. 5 ...|F-2 00 6 V00|... .. . ...|E-2 02 . ...|C-3 00 . ...
61|... .. . ...|... .. 2 ...|... .. . ...|... .. . ...|... .. . ...
62|... .. . ...|F-3 00 3 V01|... .. . ...|... .. . ...|... .. . ...
63|... .. . ...|... .. 1 ...|... .. . ...|... .. . ...|... .. . ...
64|... .. . ...|G-2 00 6 V00|C#4 00 . ...|E-2 02 . ...|C-3 00 . ...
65|... .. . ...|... .. 2 ...|... .. . ...|... .. . ...|... .. . ...
66|... .. . ...|G-3 00 3 V01|... .. . ...|... .. . ...|... .. . ...
67|... .. . ...|... .. 1 ...|... .. . ...|... .. . ...|... .. . ...
68|... .. 4 ...|G-2 00 6 V00|C-4 00 . ...|E-2 03 . ...|C#3 00 . ...
69|... .. . ...|... .. 2 ...|... .. . ...|... .. . ...|... .. . ...
6a|... .. . ...|G-3 00 3 V01|... .. . ...|... .. . ...|... .. . ...
6b|... .. . ...|... .. 1 ...|... .. . ...|... .. . ...|... .. . ...
6c|... .. . ...|F-2 00 6 V00|A#3 00 . ...|E-2 02 . ...|C-3 00 . ...
6d|... .. . ...|... .. 2 ...|... .. . ...|... .. . ...|... .. . ...
6e|... .. . ...|F-3 00 3 V01|... .. . ...|... .. . ...|... .. . ...
6f|... .. . ...|... .. 1 ...|... .. . ...|... .. . ...|... .. . ...
70|... .. 3 ...|A#2 00 6 V00|G-1 00 . ...|F#2 02 . ...|... .. . ...
71|... .. . ...|... .. 2 ...|... .. . ...|... .. . ...|... .. . ...
72|... .. . ...|A#3 00 3 V01|... .. . ...|F#2 02 . ...|... .. . ...
73|... .. . ...|... .. 1 ...|... .. . ...|... .. . ...|... .. . ...
74|... .. . ...|F-2 00 6 V00|G-3 00 . ...|E-2 02 . ...|C-3 00 . ...
75|... .. . ...|... .. 2 ...|... .. . ...|... .. . ...|... .. . ...
76|... .. . ...|F-3 00 3 V01|... .. . ...|... .. . ...|... .. . ...
77|... .. . ...|... .. 1 ...|... .. . ...|... .. . ...|... .. . ...
78|... .. 2 ...|G-2 00 6 V00|F-3 00 . ...|E-2 03 . ...|C#3 00 . ...
79|... .. . ...|... .. 2 ...|... .. . ...|... .. . ...|... .. . ...
7a|... .. . ...|G-3 00 3 V01|... .. . ...|... .. . ...|... .. . ...
7b|... .. . ...|... .. 1 ...|... .. . ...|... .. . ...|... .. . ...
7c|... .. 1 ...|D-2 00 6 V00|G-3 00 . ...|E-2 03 . ...|C#3 00 . ...
7d|... .. . ...|... .. 2 ...|... .. . ...|... .. . ...|... .. . ...
7e|... .. . ...|D-3 00 3 V01|... .. . ...|E-2 03 . ...|C#3 00 . ...
7f|... .. . ...|... .. 1 ...|... .. . S01|... .. . ...|... .. . ...

[Frame43]
00|C#5 00 5 V01|C#2 00 8 V00|C#4 00 . ...|E-2 02 . ...|C-3 00 . ...
01|A#4 00 . V02|... .. . ...|... .. . ...|... .. . ...|... .. . ...
02|G-4 00 . ...|... .. . ...|... .. . ...|... .. . ...|... .. . ...
03|C#5 00 . V00|... .. . ...|... .. . ...|... .. . ...|... .. . ...
04|A#4 00 . V01|... .. . ...|... .. . ...|... .. . ...|... .. . ...
05|G-4 00 . V02|... .. . ...|... .. . ...|... .. . ...|... .. . ...
06|C#5 00 . ...|... .. . ...|... .. . ...|... .. . ...|... .. . ...
07|A#4 00 . V00|... .. . ...|... .. . ...|... .. . ...|... .. . ...
08|G-4 00 1 V01|... .. 3 ...|--- .. . ...|E-2 03 . ...|C#3 00 . ...
09|C#5 00 . V02|... .. . ...|... .. . ...|... .. . ...|... .. . ...
0a|A#4 00 . ...|... .. . ...|... .. . ...|... .. . ...|... .. . ...
0b|G-4 00 . V00|... .. . ...|... .. . ...|... .. . ...|... .. . ...
0c|C-5 00 5 V01|C-2 00 8 ...|C-4 00 . ...|E-2 02 . ...|C-3 00 . ...
0d|A#4 00 . V02|... .. . ...|... .. . ...|... .. . ...|... .. . ...
0e|G-4 00 . ...|... .. . ...|... .. . ...|... .. . ...|... .. . ...
0f|C-5 00 . V00|... .. . ...|... .. . ...|... .. . ...|... .. . ...
10|A#4 00 1 V01|... .. 3 ...|--- .. . ...|F#2 02 . ...|... .. . ...
11|G-4 00 . V02|... .. . ...|... .. . ...|... .. . ...|... .. . ...
12|C-5 00 . ...|... .. . ...|... .. . ...|... .. . ...|... .. . ...
13|A#4 00 . V00|... .. . ...|... .. . ...|... .. . ...|... .. . ...
14|A#4 00 5 V01|A#1 00 8 ...|A#3 00 . ...|E-2 03 . ...|C#3 00 . ...
15|G-4 00 . V02|... .. . ...|... .. . ...|... .. . ...|... .. . ...
16|D-4 00 . ...|... .. . ...|... .. . ...|... .. . ...|... .. . ...
17|A#4 00 . V00|... .. . ...|... .. . ...|... .. . ...|... .. . ...
18|G-4 00 1 V01|... .. 3 ...|--- .. . ...|E-2 03 . ...|C#3 00 . ...
19|D-4 00 . V02|... .. . ...|... .. . ...|... .. . ...|... .. . ...
1a|A#4 00 . ...|... .. . ...|... .. . ...|... .. . ...|... .. . ...
1b|G-4 00 . V00|... .. . ...|... .. . ...|... .. . ...|... .. . ...
1c|G-4 00 5 V01|G-1 00 8 ...|G-3 00 . ...|C#2 06 . ...|C-3 00 . ...
1d|D-4 00 . V02|... .. . ...|... .. . ...|... .. . ...|... .. . ...
1e|A#3 00 . ...|... .. . ...|... .. . ...|... .. . ...|... .. . ...
1f|G-4 00 . V00|... .. . ...|... .. . ...|... .. . ...|... .. . ...
20|D-4 00 . V01|... .. . ...|... .. . ...|... .. . ...|... .. . ...
21|A#3 00 . V02|... .. . ...|... .. . ...|... .. . ...|... .. . ...
22|G-4 00 . ...|... .. . ...|... .. . ...|... .. . ...|... .. . ...
23|D-4 00 . V00|... .. . ...|... .. . ...|... .. . ...|... .. . ...
24|A#3 00 1 V01|... .. 3 ...|--- .. . ...|... .. . ...|... .. . ...
25|G-4 00 . V02|... .. . ...|... .. . ...|... .. . ...|... .. . ...
26|D-4 00 . ...|... .. . ...|... .. . ...|... .. . ...|... .. . ...
27|A#3 00 . V00|... .. . ...|... .. . ...|... .. . ...|... .. . ...
28|D-4 00 6 V01|... .. 0 ...|... .. . ...|F#2 02 . ...|... .. . ...
29|... .. . ...|... .. . ...|... .. . ...|... .. . ...|... .. . ...
2a|... .. . ...|... .. . ...|... .. . ...|... .. . ...|... .. . ...
2b|... .. . ...|D-4 00 2 V01|... .. . ...|... .. . ...|... .. . ...
2c|F-4 00 . ...|... .. . ...|... .. . ...|E-2 02 . ...|C-3 00 . ...
2d|... .. . ...|... .. . ...|... .. . ...|... .. . ...|... .. . ...
2e|... .. . ...|... .. . ...|... .. . ...|... .. . ...|... .. . ...
2f|... .. . ...|F-4 00 . ...|... .. . ...|... .. . ...|... .. . ...
30|... .. . ...|... .. . ...|... .. . ...|F#2 02 . ...|... .. . ...
31|... .. . ...|... .. . ...|... .. . ...|... .. . ...|... .. . ...
32|... .. . ...|... .. . ...|... .. . ...|... .. . ...|... .. . ...
33|... .. . ...|... .. . ...|... .. . ...|... .. . ...|... .. . ...
34|D-4 00 . ...|... .. . ...|... .. . ...|F#2 02 . ...|D-3 00 . ...
35|... .. . ...|... .. . ...|... .. . ...|... .. . ...|... .. . ...
36|... .. . ...|... .. . ...|... .. . ...|F#2 02 . ...|D-3 00 . ...
37|... .. . ...|D-4 00 . ...|... .. . ...|... .. . ...|... .. . ...
38|F-4 00 . ...|... .. . ...|... .. . ...|F#2 02 . ...|D#3 00 . ...
39|... .. . ...|... .. . ...|... .. . ...|... .. . ...|... .. . ...
3a|... .. . ...|... .. . ...|... .. . ...|... .. . ...|... .. . ...
3b|... .. . ...|F-4 00 . ...|... .. . ...|... .. . ...|... .. . ...
3c|G-4 00 . ...|... .. . ...|... .. . ...|E-2 03 . ...|C#3 00 . ...
3d|... .. . ...|... .. . ...|... .. . ...|... .. . ...|... .. . ...
3e|... .. . ...|... .. . ...|... .. . ...|E-2 03 . ...|C#3 00 . ...
3f|... .. . ...|G-4 00 . ...|... .. . ...|... .. . ...|... .. . D00
40|... .. . ...|... .. . ...|... .. . ...|... .. . ...|... .. . ...
41|... .. . ...|... .. . ...|... .. . ...|... .. . ...|... .. . ...
42|... .. . ...|... .. . ...|... .. . ...|... .. . ...|... .. . ...
43|... .. . ...|... .. . ...|... .. . ...|... .. . ...|... .. . ...
44|... .. . ...|... .. . ...|... .. . ...|... .. . ...|... .. . ...
45|... .. . ...|... .. . ...|... .. . ...|... .. . ...|... .. . ...
46|... .. . ...|... .. . ...|... .. . ...|... .. . ...|... .. . ...
47|... .. . ...|... .. . ...|... .. . ...|... .. . ...|... .. . ...
48|... .. . ...|... .. . ...|... .. . ...|... .. . ...|... .. . ...
49|... .. . ...|... .. . ...|... .. . ...|... .. . ...|... .. . ...
4a|... .. . ...|... .. . ...|... .. . ...|... .. . ...|... .. . ...
4b|... .. . ...|... .. . ...|... .. . ...|... .. . ...|... .. . ...
4c|... .. . ...|... .. . ...|... .. . ...|... .. . ...|... .. . ...
4d|... .. . ...|... .. . ...|... .. . ...|... .. . ...|... .. . ...
4e|... .. . ...|... .. . ...|... .. . ...|... .. . ...|... .. . ...
4f|... .. . ...|... .. . ...|... .. . ...|... .. . ...|... .. . ...
50|... .. . ...|... .. . ...|... .. . ...|... .. . ...|... .. . ...
51|... .. . ...|... .. . ...|... .. . ...|... .. . ...|... .. . ...
52|... .. . ...|... .. . ...|... .. . ...|... .. . ...|... .. . ...
53|... .. . ...|... .. . ...|... .. . ...|... .. . ...|... .. . ...
54|... .. . ...|... .. . ...|... .. . ...|... .. . ...|... .. . ...
55|... .. . ...|... .. . ...|... .. . ...|... .. . ...|... .. . ...
56|... .. . ...|... .. . ...|... .. . ...|... .. . ...|... .. . ...
57|... .. . ...|... .. . ...|... .. . ...|... .. . ...|... .. . ...
58|... .. . ...|... .. . ...|... .. . ...|... .. . ...|... .. . ...
59|... .. . ...|... .. . ...|... .. . ...|... .. . ...|... .. . ...
5a|... .. . ...|... .. . ...|... .. . ...|... .. . ...|... .. . ...
5b|... .. . ...|... .. . ...|... .. . ...|... .. . ...|... .. . ...
5c|... .. . ...|... .. . ...|... .. . ...|... .. . ...|... .. . ...
5d|... .. . ...|... .. . ...|... .. . ...|... .. . ...|... .. . ...
5e|... .. . ...|... .. . ...|... .. . ...|... .. . ...|... .. . ...
5f|... .. . ...|... .. . ...|... .. . ...|... .. . ...|... .. . ...
60|... .. . ...|... .. . ...|... .. . ...|... .. . ...|... .. . ...
61|... .. . ...|... .. . ...|... .. . ...|... .. . ...|... .. . ...
62|... .. . ...|... .. . ...|... .. . ...|... .. . ...|... .. . ...
63|... .. . ...|... .. . ...|... .. . ...|... .. . ...|... .. . ...
64|... .. . ...|... .. . ...|... .. . ...|... .. . ...|... .. . ...
65|... .. . ...|... .. . ...|... .. . ...|... .. . ...|... .. . ...
66|... .. . ...|... .. . ...|... .. . ...|... .. . ...|... .. . ...
67|... .. . ...|... .. . ...|... .. . ...|... .. . ...|... .. . ...
68|... .. . ...|... .. . ...|... .. . ...|... .. . ...|... .. . ...
69|... .. . ...|... .. . ...|... .. . ...|... .. . ...|... .. . ...
6a|... .. . ...|... .. . ...|... .. . ...|... .. . ...|... .. . ...
6b|... .. . ...|... .. . ...|... .. . ...|... .. . ...|... .. . ...
6c|... .. . ...|... .. . ...|... .. . ...|... .. . ...|... .. . ...
6d|... .. . ...|... .. . ...|... .. . ...|... .. . ...|... .. . ...
6e|... .. . ...|... .. . ...|... .. . ...|... .. . ...|... .. . ...
6f|... .. . ...|... .. . ...|... .. . ...|... .. . ...|... .. . ...
70|... .. . ...|... .. . ...|... .. . ...|... .. . ...|... .. . ...
71|... .. . ...|... .. . ...|... .. . ...|... .. . ...|... .. . ...
72|... .. . ...|... .. . ...|... .. . ...|... .. . ...|... .. . ...
73|... .. . ...|... .. . ...|... .. . ...|... .. . ...|... .. . ...
74|... .. . ...|... .. . ...|... .. . ...|... .. . ...|... .. . ...
75|... .. . ...|... .. . ...|... .. . ...|... .. . ...|... .. . ...
76|... .. . ...|... .. . ...|... .. . ...|... .. . ...|... .. . ...
77|... .. . ...|... .. . ...|... .. . ...|... .. . ...|... .. . ...
78|... .. . ...|... .. . ...|... .. . ...|... .. . ...|... .. . ...
79|... .. . ...|... .. . ...|... .. . ...|... .. . ...|... .. . ...
7a|... .. . ...|... .. . ...|... .. . ...|... .. . ...|... .. . ...
7b|... .. . ...|... .. . ...|... .. . ...|... .. . ...|... .. . ...
7c|... .. . ...|... .. . ...|... .. . ...|... .. . ...|... .. . ...
7d|... .. . ...|... .. . ...|... .. . ...|... .. . ...|... .. . ...
7e|... .. . ...|... .. . ...|... .. . ...|... .. . ...|... .. . ...
7f|... .. . ...|... .. . ...|... .. . ...|... .. . ...|... .. . ...

[Frame44]
00|G-4 00 6 Q22|G-2 00 6 V00|G-3 00 . ...|C#2 06 a ...|C-3 00 . ...
01|... .. . ...|... .. 2 ...|... .. . ...|... .. . ...|... .. . ...
02|... .. . ...|G-3 00 3 V01|... .. . ...|... .. . ...|... .. . ...
03|... .. . ...|... .. 1 ...|... .. . ...|... .. . ...|... .. . ...
04|... .. . ...|A#2 00 6 V00|D-3 00 . ...|... .. . ...|... .. . ...
05|... .. . ...|... .. 2 ...|... .. . ...|... .. . ...|... .. . ...
06|... .. . ...|A#3 00 3 V01|... .. . ...|... .. . ...|... .. . ...
07|... .. . ...|... .. 1 ...|... .. . ...|... .. . ...|... .. . ...
08|... .. 2 ...|A#2 00 6 V00|G-1 00 . ...|E-2 03 . ...|C#3 00 . ...
09|... .. . ...|... .. 2 ...|... .. . ...|... .. . ...|... .. . ...
0a|... .. . ...|A#3 00 3 V01|... .. . ...|... .. . ...|... .. . ...
0b|... .. . ...|... .. 1 ...|... .. . ...|... .. . ...|... .. . ...
0c|D-4 00 6 ...|G-2 00 6 V00|G-3 00 . ...|F#2 02 . ...|... .. . ...
0d|... .. . ...|... .. 2 ...|... .. . ...|... .. . ...|... .. . ...
0e|... .. . ...|G-3 00 3 V01|... .. . ...|... .. . ...|... .. . ...
0f|... .. . ...|... .. 1 ...|... .. . ...|... .. . ...|... .. . ...
10|... .. . ...|C#3 00 6 V00|G-1 00 . ...|E-2 02 . ...|C-3 00 . ...
11|... .. . ...|C#4 00 3 G01|... .. . ...|... .. . ...|... .. . ...
12|... .. . ...|C-3 00 6 G01|... .. . ...|... .. . ...|... .. . ...
13|... .. . ...|C-4 00 3 G01|... .. . ...|... .. . ...|... .. . ...
14|... .. . ...|A#2 00 6 G02|A#3 00 . ...|F#2 02 . ...|... .. . ...
15|... .. . ...|A#3 00 3 G01|... .. . ...|... .. . ...|... .. . ...
16|... .. . ...|... .. 1 ...|... .. . ...|... .. . ...|... .. . ...
17|... .. . ...|... .. . ...|... .. . ...|... .. . ...|... .. . ...
18|... .. . ...|F-2 00 6 V00|G-1 00 . ...|E-2 03 . ...|C#3 00 . ...
19|... .. . ...|... .. 2 ...|... .. . ...|... .. . ...|... .. . ...
1a|... .. . ...|F-3 00 3 V01|... .. . ...|... .. . ...|... .. . ...
1b|... .. . ...|... .. 1 ...|... .. . ...|... .. . ...|... .. . ...
1c|... .. . 473|D-2 00 6 V00|B-3 00 . ...|F#2 02 . ...|... .. . ...
1d|... .. . ...|... .. 2 ...|C-4 00 . ...|... .. . ...|... .. . ...
1e|... .. . ...|D-3 00 3 V01|... .. . ...|... .. . ...|... .. . ...
1f|... .. . ...|... .. 1 ...|... .. . ...|... .. . ...|... .. . ...
20|... .. . ...|F-2 00 6 V00|... .. . ...|E-2 02 . ...|C-3 00 . ...
21|... .. . ...|... .. 2 ...|... .. . ...|... .. . ...|... .. . ...
22|... .. . ...|F-3 00 3 V01|... .. . ...|... .. . ...|... .. . ...
23|... .. . ...|... .. 1 ...|... .. . ...|... .. . ...|... .. . ...
24|... .. . ...|G-2 00 6 V00|C#4 00 . ...|F#2 02 . ...|... .. . ...
25|... .. . ...|... .. 2 ...|... .. . ...|... .. . ...|... .. . ...
26|... .. . ...|G-3 00 3 V01|... .. . ...|F#2 02 . ...|... .. . ...
27|... .. . ...|... .. 1 ...|... .. . ...|... .. . ...|... .. . ...
28|... .. 2 ...|G-2 00 6 V00|C-4 00 . ...|E-2 03 . ...|C#3 00 . ...
29|... .. . ...|... .. 2 ...|... .. . ...|... .. . ...|... .. . ...
2a|... .. . ...|G-3 00 3 V01|... .. . ...|... .. . ...|... .. . ...
2b|... .. . ...|... .. 1 ...|... .. . ...|... .. . ...|... .. . ...
2c|F-4 00 6 400|F-2 00 6 V00|A#3 00 . ...|E-2 02 . ...|C-3 00 . ...
2d|... .. . ...|... .. 2 ...|... .. . ...|... .. . ...|... .. . ...
2e|... .. . ...|F-3 00 3 V01|... .. . ...|... .. . ...|... .. . ...
2f|... .. . ...|... .. 1 ...|... .. . ...|... .. . ...|... .. . ...
30|... .. . ...|A#2 00 6 V00|G-1 00 . ...|F#2 02 . ...|... .. . ...
31|... .. . ...|... .. 2 ...|... .. . ...|... .. . ...|... .. . ...
32|... .. . ...|A#3 00 3 V01|... .. . ...|... .. . ...|... .. . ...
33|... .. . ...|... .. 1 ...|... .. . ...|... .. . ...|... .. . ...
34|... .. . ...|F-2 00 6 V00|G-3 00 . ...|E-2 02 . ...|C-3 00 . ...
35|... .. . ...|... .. 2 ...|... .. . ...|... .. . ...|... .. . ...
36|... .. . ...|F-3 00 3 V01|... .. . ...|... .. . ...|... .. . ...
37|... .. . ...|... .. 1 ...|... .. . ...|... .. . ...|... .. . ...
38|G-4 00 . ...|G-2 00 6 V00|F-3 00 . ...|E-2 03 . ...|C#3 00 . ...
39|... .. . ...|... .. 2 ...|... .. . ...|... .. . ...|... .. . ...
3a|... .. . ...|G-3 00 3 V01|... .. . ...|... .. . ...|... .. . ...
3b|... .. . ...|... .. 1 ...|... .. . ...|... .. . ...|... .. . ...
3c|... .. . ...|D-2 00 6 V00|G-3 00 . ...|F#2 02 . ...|... .. . ...
3d|... .. . ...|... .. 2 ...|... .. . ...|... .. . ...|... .. . ...
3e|... .. . ...|D-3 00 3 V01|... .. . ...|F#2 02 . ...|... .. . ...
3f|... .. . ...|... .. 1 ...|... .. . S01|... .. . ...|... .. . ...
40|A-4 00 . ...|G-2 00 6 V00|G-3 00 . ...|E-2 02 . ...|C-3 00 . ...
41|... .. . ...|... .. 2 ...|... .. . ...|... .. . ...|... .. . ...
42|... .. . ...|G-3 00 3 V01|... .. . ...|... .. . ...|... .. . ...
43|... .. . ...|... .. 1 ...|... .. . ...|... .. . ...|... .. . ...
44|... .. . ...|A#2 00 6 V00|D-3 00 . ...|F#2 02 . ...|... .. . ...
45|... .. . ...|... .. 2 ...|... .. . ...|... .. . ...|... .. . ...
46|... .. . ...|A#3 00 3 V01|... .. . ...|... .. . ...|... .. . ...
47|... .. . ...|... .. 1 ...|... .. . ...|... .. . ...|... .. . ...
48|... .. . ...|A#2 00 6 V00|G-1 00 . ...|E-2 03 . ...|C#3 00 . ...
49|... .. . ...|... .. 2 ...|... .. . ...|... .. . ...|... .. . ...
4a|... .. . ...|A#3 00 3 V01|... .. . ...|... .. . ...|... .. . ...
4b|... .. . ...|... .. 1 ...|... .. . ...|... .. . ...|... .. . ...
4c|A#4 00 . ...|G-2 00 6 V00|G-3 00 . ...|E-2 02 . ...|C-3 00 . ...
4d|... .. . ...|... .. 2 ...|... .. . ...|... .. . ...|... .. . ...
4e|... .. . ...|G-3 00 3 V01|... .. . ...|... .. . ...|... .. . ...
4f|... .. . ...|... .. 1 ...|... .. . ...|... .. . ...|... .. . ...
50|... .. . ...|C#3 00 6 V00|G-1 00 . ...|F#2 02 . ...|... .. . ...
51|... .. . ...|C#4 00 3 G01|... .. . ...|... .. . ...|... .. . ...
52|... .. . ...|C-3 00 6 G01|... .. . ...|... .. . ...|... .. . ...
53|... .. . ...|C-4 00 3 G01|... .. . ...|... .. . ...|... .. . ...
54|... .. . ...|A#2 00 6 G02|A#3 00 . ...|F#2 02 . ...|... .. . ...
55|... .. . ...|A#3 00 3 G01|... .. . ...|... .. . ...|... .. . ...
56|... .. . ...|... .. 1 ...|... .. . ...|F#2 02 . ...|... .. . ...
57|... .. . ...|... .. . ...|... .. . ...|... .. . ...|... .. . ...
58|A-4 00 . ...|F-2 00 6 V00|G-1 00 . ...|E-2 03 . ...|C#3 00 . ...
59|... .. . ...|... .. 2 ...|... .. . ...|... .. . ...|... .. . ...
5a|... .. . ...|F-3 00 3 V01|... .. . ...|... .. . ...|... .. . ...
5b|... .. . ...|... .. 1 ...|... .. . ...|... .. . ...|... .. . ...
5c|... .. . ...|D-2 00 6 V00|B-3 00 . ...|F#2 02 . ...|... .. . ...
5d|... .. . ...|... .. 2 ...|C-4 00 . ...|... .. . ...|... .. . ...
5e|... .. . ...|D-3 00 3 V01|... .. . ...|... .. . ...|... .. . ...
5f|... .. . ...|... .. 1 ...|... .. . ...|... .. . ...|... .. . ...
60|... .. . ...|F-2 00 6 V00|... .. . ...|E-2 02 . ...|C-3 00 . ...
61|... .. . ...|... .. 2 ...|... .. . ...|... .. . ...|... .. . ...
62|... .. . ...|F-3 00 3 V01|... .. . ...|... .. . ...|... .. . ...
63|... .. . ...|... .. 1 ...|... .. . ...|... .. . ...|... .. . ...
64|G-4 00 . ...|G-2 00 6 V00|C#4 00 . ...|F#2 02 . ...|... .. . ...
65|... .. . ...|... .. 2 ...|... .. . ...|... .. . ...|... .. . ...
66|... .. . ...|G-3 00 3 V01|... .. . ...|... .. . ...|... .. . ...
67|... .. . ...|... .. 1 ...|... .. . ...|... .. . ...|... .. . ...
68|... .. . ...|G-2 00 6 V00|C-4 00 . ...|E-2 03 . ...|C#3 00 . ...
69|... .. . ...|... .. 2 ...|... .. . ...|... .. . ...|... .. . ...
6a|... .. . ...|G-3 00 3 V01|... .. . ...|... .. . ...|... .. . ...
6b|... .. . ...|... .. 1 ...|... .. . ...|... .. . ...|... .. . ...
6c|... .. . ...|F-2 00 6 V00|A#3 00 . ...|E-2 02 . ...|C-3 00 . ...
6d|... .. . ...|... .. 2 ...|... .. . ...|... .. . ...|... .. . ...
6e|... .. . ...|F-3 00 3 V01|... .. . ...|... .. . ...|... .. . ...
6f|... .. . ...|... .. 1 ...|... .. . ...|... .. . ...|... .. . ...
70|F-4 00 . ...|A#2 00 6 V00|G-1 00 . ...|F#2 02 . ...|... .. . ...
71|... .. . ...|... .. 2 ...|... .. . ...|... .. . ...|... .. . ...
72|... .. . ...|A#3 00 3 V01|... .. . ...|F#2 02 . ...|... .. . ...
73|... .. . ...|... .. 1 ...|... .. . ...|... .. . ...|... .. . ...
74|... .. 2 ...|F-2 00 6 V00|G-3 00 . ...|E-2 02 . ...|C-3 00 . ...
75|... .. . ...|... .. 2 ...|... .. . ...|... .. . ...|... .. . ...
76|... .. . ...|F-3 00 3 V01|... .. . ...|... .. . ...|... .. . ...
77|... .. . ...|... .. 1 ...|... .. . ...|... .. . ...|... .. . ...
78|G-4 00 6 ...|G-2 00 6 V00|F-3 00 . ...|E-2 03 . ...|C#3 00 . ...
79|... .. . ...|... .. 2 ...|... .. . ...|... .. . ...|... .. . ...
7a|... .. . ...|G-3 00 3 V01|... .. . ...|... .. . ...|... .. . ...
7b|... .. . ...|... .. 1 ...|... .. . ...|... .. . ...|... .. . ...
7c|... .. 2 ...|D-2 00 6 V00|G-3 00 . ...|E-2 03 . ...|C#3 00 . ...
7d|... .. . ...|... .. 2 ...|... .. . ...|... .. . ...|... .. . ...
7e|... .. . ...|D-3 00 3 V01|... .. . ...|E-2 03 . ...|C#3 00 . ...
7f|... .. . ...|... .. 1 ...|... .. . S01|... .. . ...|... .. . ...

[Frame45]
00|G-4 00 6 Q22|G-2 00 6 V00|G-3 00 . ...|C#2 06 a ...|C-3 00 . ...
01|... .. . ...|... .. 2 ...|... .. . ...|... .. . ...|... .. . ...
02|... .. . ...|G-3 00 3 V01|... .. . ...|... .. . ...|... .. . ...
03|... .. . ...|... .. 1 ...|... .. . ...|... .. . ...|... .. . ...
04|... .. . ...|A#2 00 6 V00|D-3 00 . ...|... .. . ...|... .. . ...
05|... .. . ...|... .. 2 ...|... .. . ...|... .. . ...|... .. . ...
06|... .. . ...|A#3 00 3 V01|... .. . ...|... .. . ...|... .. . ...
07|... .. . ...|... .. 1 ...|... .. . ...|... .. . ...|... .. . ...
08|... .. 2 ...|A#2 00 6 V00|G-1 00 . ...|E-2 03 . ...|C#3 00 . ...
09|... .. . ...|... .. 2 ...|... .. . ...|... .. . ...|... .. . ...
0a|... .. . ...|A#3 00 3 V01|... .. . ...|... .. . ...|... .. . ...
0b|... .. . ...|... .. 1 ...|... .. . ...|... .. . ...|... .. . ...
0c|D-4 00 6 ...|G-2 00 6 V00|G-3 00 . ...|F#2 02 . ...|... .. . ...
0d|... .. . ...|... .. 2 ...|... .. . ...|... .. . ...|... .. . ...
0e|... .. . ...|G-3 00 3 V01|... .. . ...|... .. . ...|... .. . ...
0f|... .. . ...|... .. 1 ...|... .. . ...|... .. . ...|... .. . ...
10|... .. . ...|C#3 00 6 V00|G-1 00 . ...|E-2 02 . ...|C-3 00 . ...
11|... .. . ...|C#4 00 3 G01|... .. . ...|... .. . ...|... .. . ...
12|... .. . ...|C-3 00 6 G01|... .. . ...|... .. . ...|... .. . ...
13|... .. . ...|C-4 00 3 G01|... .. . ...|... .. . ...|... .. . ...
14|... .. . ...|A#2 00 6 G02|A#3 00 . ...|F#2 02 . ...|... .. . ...
15|... .. . ...|A#3 00 3 G01|... .. . ...|... .. . ...|... .. . ...
16|... .. . ...|... .. 1 ...|... .. . ...|... .. . ...|... .. . ...
17|... .. . ...|... .. . ...|... .. . ...|... .. . ...|... .. . ...
18|... .. . ...|F-2 00 6 V00|G-1 00 . ...|E-2 03 . ...|C#3 00 . ...
19|... .. . ...|... .. 2 ...|... .. . ...|... .. . ...|... .. . ...
1a|... .. . ...|F-3 00 3 V01|... .. . ...|... .. . ...|... .. . ...
1b|... .. . ...|... .. 1 ...|... .. . ...|... .. . ...|... .. . ...
1c|... .. . 473|D-2 00 6 V00|B-3 00 . ...|F#2 02 . ...|... .. . ...
1d|... .. . ...|... .. 2 ...|C-4 00 . ...|... .. . ...|... .. . ...
1e|... .. . ...|D-3 00 3 V01|... .. . ...|... .. . ...|... .. . ...
1f|... .. . ...|... .. 1 ...|... .. . ...|... .. . ...|... .. . ...
20|... .. . ...|F-2 00 6 V00|... .. . ...|E-2 02 . ...|C-3 00 . ...
21|... .. . ...|... .. 2 ...|... .. . ...|... .. . ...|... .. . ...
22|... .. . ...|F-3 00 3 V01|... .. . ...|... .. . ...|... .. . ...
23|... .. . ...|... .. 1 ...|... .. . ...|... .. . ...|... .. . ...
24|... .. . ...|G-2 00 6 V00|C#4 00 . ...|F#2 02 . ...|... .. . ...
25|... .. . ...|... .. 2 ...|... .. . ...|... .. . ...|... .. . ...
26|... .. . ...|G-3 00 3 V01|... .. . ...|F#2 02 . ...|... .. . ...
27|... .. . ...|... .. 1 ...|... .. . ...|... .. . ...|... .. . ...
28|... .. 2 ...|G-2 00 6 V00|C-4 00 . ...|E-2 03 . ...|C#3 00 . ...
29|... .. . ...|... .. 2 ...|... .. . ...|... .. . ...|... .. . ...
2a|... .. . ...|G-3 00 3 V01|... .. . ...|... .. . ...|... .. . ...
2b|... .. . ...|... .. 1 ...|... .. . ...|... .. . ...|... .. . ...
2c|D-4 00 6 400|F-2 00 6 V00|A#3 00 . ...|E-2 02 . ...|C-3 00 . ...
2d|... .. . ...|... .. 2 ...|... .. . ...|... .. . ...|... .. . ...
2e|... .. . ...|F-3 00 3 V01|... .. . ...|... .. . ...|... .. . ...
2f|... .. . ...|... .. 1 ...|... .. . ...|... .. . ...|... .. . ...
30|... .. . ...|A#2 00 6 V00|G-1 00 . ...|F#2 02 . ...|... .. . ...
31|... .. . ...|... .. 2 ...|... .. . ...|... .. . ...|... .. . ...
32|... .. . ...|A#3 00 3 V01|... .. . ...|... .. . ...|... .. . ...
33|... .. . ...|... .. 1 ...|... .. . ...|... .. . ...|... .. . ...
34|... .. . ...|F-2 00 6 V00|G-3 00 . ...|E-2 02 . ...|C-3 00 . ...
35|... .. . ...|... .. 2 ...|... .. . ...|... .. . ...|... .. . ...
36|... .. . ...|F-3 00 3 V01|... .. . ...|... .. . ...|... .. . ...
37|... .. . ...|... .. 1 ...|... .. . ...|... .. . ...|... .. . ...
38|F-4 00 . ...|G-2 00 6 V00|F-3 00 . ...|E-2 03 . ...|C#3 00 . ...
39|... .. . ...|... .. 2 ...|... .. . ...|... .. . ...|... .. . ...
3a|... .. . ...|G-3 00 3 V01|... .. . ...|... .. . ...|... .. . ...
3b|... .. . ...|... .. 1 ...|... .. . ...|... .. . ...|... .. . ...
3c|... .. . ...|D-2 00 6 V00|G-3 00 . ...|F#2 02 . ...|... .. . ...
3d|... .. . ...|... .. 2 ...|... .. . ...|... .. . ...|... .. . ...
3e|... .. . ...|D-3 00 3 V01|... .. . ...|F#2 02 . ...|... .. . ...
3f|... .. . ...|... .. 1 ...|... .. . ...|... .. . ...|... .. . ...
40|A#3 00 . ...|G-3 00 5 V02|F-3 00 . ...|C#2 06 . ...|C-3 00 . ...
41|... .. . ...|A#2 00 . V00|... .. . ...|... .. . ...|... .. . ...
42|... .. . ...|G-4 00 . V01|... .. . ...|... .. . ...|... .. . ...
43|... .. . ...|A#2 00 . V00|... .. . ...|... .. . ...|... .. . ...
44|... .. . ...|D-3 00 . V02|... .. . ...|... .. . ...|... .. . ...
45|... .. . ...|A#2 00 . V00|... .. . ...|... .. . ...|... .. . ...
46|... .. . ...|D-4 00 . V01|... .. . ...|... .. . ...|... .. . ...
47|... .. . ...|A#2 00 . V00|... .. . ...|... .. . ...|... .. . ...
48|... .. 2 ...|G-3 00 . V02|F-2 00 . ...|F#2 02 . ...|... .. . ...
49|... .. . ...|A#2 00 . V00|... .. . ...|... .. . ...|... .. . ...
4a|... .. . ...|G-4 00 . V01|... .. . ...|... .. . ...|... .. . ...
4b|... .. . ...|A#2 00 . V00|... .. . ...|... .. . ...|... .. . ...
4c|C-4 00 6 ...|A-3 00 . V02|F#3 00 . ...|E-2 02 . ...|C-3 00 . ...
4d|... .. . ...|C-3 00 . V00|... .. . ...|... .. . ...|... .. . ...
4e|... .. . ...|A-4 00 . V01|... .. . ...|... .. . ...|... .. . ...
4f|... .. . ...|C-3 00 . V00|... .. . ...|... .. . ...|... .. . ...
50|... .. . ...|D-3 00 . V02|... .. . ...|F#2 02 . ...|... .. . ...
51|... .. . ...|C-3 00 . V00|... .. . ...|... .. . ...|... .. . ...
52|... .. . ...|D-4 00 . V01|... .. . ...|... .. . ...|... .. . ...
53|... .. . ...|C-3 00 . V00|... .. . ...|... .. . ...|... .. . ...
54|... .. 2 ...|A-3 00 . V02|F#2 00 . ...|F#2 02 . ...|... .. . ...
55|... .. . ...|C-3 00 . V00|... .. . ...|... .. . ...|... .. . ...
56|... .. . ...|A-4 00 . V01|... .. . ...|... .. . ...|... .. . ...
57|... .. . ...|C-3 00 . V00|... .. . ...|... .. . ...|... .. . ...
58|G-3 00 6 ...|A-4 00 4 Q01|G-3 00 . ...|C#2 06 . ...|C#3 00 . ...
59|... .. . ...|... .. . ...|... .. . ...|... .. . ...|... .. . ...
5a|... .. . ...|... .. . ...|... .. . ...|... .. . ...|... .. . ...
5b|... .. . ...|... .. . ...|... .. . ...|... .. . ...|... .. . ...
5c|... .. . ...|... .. . ...|... .. . ...|... .. . ...|... .. . ...
5d|... .. . ...|... .. . ...|... .. . ...|... .. . ...|... .. . ...
5e|... .. . ...|... .. . ...|... .. . ...|... .. . ...|... .. . ...
5f|... .. . ...|... .. . ...|... .. . ...|... .. . ...|... .. . ...
60|... .. . ...|... .. . ...|G-1 00 . ...|F#2 02 . ...|... .. . ...
61|... .. . ...|... .. . ...|... .. . ...|... .. . ...|... .. . ...
62|... .. . ...|... .. . ...|... .. . ...|... .. . ...|... .. . ...
63|... .. . ...|... .. . ...|... .. . ...|... .. . ...|... .. . ...
64|... .. . ...|... .. . ...|D-3 00 . ...|E-2 03 . ...|C#3 00 . ...
65|... .. . ...|... .. . ...|... .. . ...|... .. . ...|... .. . ...
66|... .. . ...|... .. . ...|... .. . ...|E-2 03 . ...|C#3 00 . ...
67|... .. . ...|... .. . ...|... .. . ...|... .. . ...|... .. . ...
68|... .. . 473|A-4 00 . ...|G-3 00 . ...|E-2 03 . ...|C#3 00 . ...
69|... .. . ...|... .. . ...|... .. . ...|... .. . ...|... .. . ...
6a|... .. . ...|... .. . ...|... .. . ...|... .. . ...|... .. . ...
6b|... .. . ...|... .. . ...|... .. . ...|... .. . ...|... .. . ...
6c|... .. . ...|A#4 00 . ...|A#3 00 . ...|F#2 02 . ...|D-3 00 . ...
6d|... .. . ...|... .. . ...|... .. . ...|... .. . ...|... .. . ...
6e|... .. . ...|A-4 00 . ...|... .. . ...|... .. . ...|... .. . ...
6f|... .. . ...|... .. . ...|... .. . ...|... .. . ...|... .. . ...
70|... .. 5 ...|G-4 00 . ...|B-3 00 . ...|F#2 02 . ...|D#3 00 . ...
71|... .. . ...|... .. . ...|C-4 00 . ...|... .. . ...|... .. . ...
72|... .. . ...|... .. . ...|... .. . ...|... .. . ...|... .. . ...
73|... .. . ...|... .. . ...|... .. . ...|... .. . ...|... .. . ...
74|... .. 4 ...|... .. . ...|C#4 00 . ...|E-2 02 . ...|C-3 00 . ...
75|... .. . ...|... .. . ...|... .. . ...|... .. . ...|... .. . ...
76|... .. . ...|... .. . ...|... .. . ...|... .. . ...|... .. . ...
77|... .. . ...|... .. . ...|... .. . ...|... .. . ...|... .. . ...
78|... .. 3 ...|F-4 00 . ...|C-4 00 . ...|E-2 03 . ...|C#3 00 . ...
79|... .. . ...|... .. . ...|... .. . ...|... .. . ...|... .. . ...
7a|... .. . ...|... .. . ...|... .. . ...|... .. . ...|... .. . ...
7b|... .. . ...|... .. . ...|... .. . ...|... .. . ...|... .. . ...
7c|... .. 2 ...|... .. . ...|A#3 00 . ...|E-2 03 . ...|C#3 00 . ...
7d|... .. . ...|... .. . ...|... .. . ...|... .. . ...|... .. . ...
7e|... .. 1 ...|... .. . ...|... .. . ...|E-2 03 . ...|C#3 00 . ...
7f|... .. . ...|... .. . ...|... .. . ...|... .. . ...|... .. . ...

[Frame46]
00|F-4 00 6 Q22|C-4 00 4 Q22|D#3 00 . ...|C#2 06 a ...|C-3 00 . ...
01|... .. . ...|... .. . ...|... .. . ...|... .. . ...|... .. . ...
02|... .. . ...|... .. . ...|... .. . ...|... .. . ...|... .. . ...
03|... .. . ...|... .. . ...|... .. . ...|... .. . ...|... .. . ...
04|... .. . ...|... .. . ...|... .. . ...|... .. . ...|... .. . ...
05|... .. . ...|... .. . ...|... .. . ...|... .. . ...|... .. . ...
06|... .. . ...|... .. . ...|... .. . ...|... .. . ...|... .. . ...
07|... .. . ...|... .. . ...|... .. . ...|... .. . ...|... .. . ...
08|... .. . ...|... .. . ...|D#2 00 . ...|E-2 03 . ...|C#3 00 . ...
09|... .. . ...|... .. . ...|... .. . ...|... .. . ...|... .. . ...
0a|... .. . ...|... .. . ...|... .. . ...|... .. . ...|... .. . ...
0b|... .. . ...|... .. . ...|... .. . ...|... .. . ...|... .. . ...
0c|A-4 00 . ...|F-4 00 . ...|D#3 00 . ...|C#2 06 . ...|C-3 00 . ...
0d|... .. . ...|... .. . ...|... .. . ...|... .. . ...|... .. . ...
0e|... .. . ...|... .. . ...|... .. . ...|... .. . ...|... .. . ...
0f|... .. . ...|... .. . ...|... .. . ...|... .. . ...|... .. . ...
10|... .. . ...|... .. . ...|... .. . ...|... .. . ...|... .. . ...
11|... .. . ...|... .. . ...|... .. . ...|... .. . ...|... .. . ...
12|... .. . ...|... .. . ...|... .. . ...|... .. . ...|... .. . ...
13|... .. . ...|... .. . ...|... .. . ...|... .. . ...|... .. . ...
14|... .. . ...|... .. . ...|A#2 00 . ...|E-2 03 . ...|C#3 00 . ...
15|... .. . ...|... .. . ...|... .. . ...|... .. . ...|... .. . ...
16|... .. . ...|... .. . ...|... .. . ...|E-2 03 . ...|C#3 00 . ...
17|... .. . ...|... .. . ...|... .. . ...|... .. . ...|... .. . ...
18|A#4 00 . ...|G-4 00 . ...|D#3 00 . ...|E-2 03 . ...|C#3 00 . ...
19|... .. . ...|... .. . ...|... .. . ...|... .. . ...|... .. . ...
1a|... .. . ...|... .. . ...|... .. . ...|... .. . ...|... .. . ...
1b|... .. . ...|... .. . ...|... .. . ...|... .. . ...|... .. . ...
1c|... .. 2 ...|... .. 1 ...|... .. . ...|E-2 03 . ...|C#3 00 . ...
1d|... .. . ...|... .. . ...|... .. . ...|... .. . ...|... .. . ...
1e|... .. . ...|... .. . ...|... .. . ...|... .. . ...|... .. . ...
1f|... .. . ...|... .. . ...|... .. . ...|... .. . ...|... .. . ...
20|A-4 00 6 Q01|F-4 00 4 Q22|G-3 00 . ...|C#2 06 . ...|C-3 00 . ...
21|... .. . ...|... .. . ...|... .. . ...|... .. . ...|... .. . ...
22|... .. . ...|... .. . ...|... .. . ...|... .. . ...|... .. . ...
23|... .. . ...|... .. . ...|... .. . ...|... .. . ...|... .. . ...
24|... .. . ...|... .. . ...|... .. . ...|... .. . ...|... .. . ...
25|... .. . ...|... .. . ...|... .. . ...|... .. . ...|... .. . ...
26|... .. . ...|... .. . ...|... .. . ...|... .. . ...|... .. . ...
27|... .. . ...|... .. . ...|... .. . ...|... .. . ...|... .. . ...
28|G-4 00 . 400|D-4 00 . ...|G-2 00 . ...|E-2 03 . ...|C#3 00 . ...
29|... .. . ...|... .. . ...|... .. . ...|... .. . ...|... .. . ...
2a|... .. . ...|... .. . ...|... .. . ...|... .. . ...|... .. . ...
2b|... .. . ...|... .. . ...|... .. . ...|... .. . ...|... .. . ...
2c|... .. 2 ...|... .. 1 ...|G-3 00 . ...|C#2 06 . ...|C-3 00 . ...
2d|... .. . ...|... .. . ...|... .. . ...|... .. . ...|... .. . ...
2e|... .. . ...|... .. . ...|... .. . ...|... .. . ...|... .. . ...
2f|... .. . ...|... .. . ...|... .. . ...|... .. . ...|... .. . ...
30|A#4 00 6 ...|G-4 00 4 ...|... .. . ...|... .. . ...|... .. . ...
31|... .. . ...|... .. . ...|... .. . ...|... .. . ...|... .. . ...
32|... .. . ...|... .. . ...|... .. . ...|... .. . ...|... .. . ...
33|... .. . ...|... .. . ...|... .. . ...|... .. . ...|... .. . ...
34|... .. . ...|... .. . ...|D-3 00 . ...|E-2 02 . ...|C-3 00 . ...
35|... .. . ...|... .. . ...|... .. . ...|... .. . ...|... .. . ...
36|... .. . ...|... .. . ...|... .. . ...|... .. . ...|... .. . ...
37|... .. . ...|... .. . ...|... .. . ...|... .. . ...|... .. . ...
38|D-5 00 . ...|A#4 00 . ...|G-3 00 . ...|E-2 03 . ...|C#3 00 . ...
39|... .. . ...|... .. . ...|... .. . ...|... .. . ...|... .. . ...
3a|... .. . ...|... .. . ...|... .. . ...|... .. . ...|... .. . ...
3b|... .. . ...|... .. . ...|... .. . ...|... .. . ...|... .. . ...
3c|... .. 2 ...|... .. 1 ...|... .. . ...|F#2 02 . ...|... .. . ...
3d|... .. . ...|... .. . ...|... .. . ...|... .. . ...|... .. . ...
3e|... .. . ...|... .. . ...|... .. . ...|... .. . ...|... .. . ...
3f|... .. . ...|... .. . ...|... .. . ...|... .. . ...|... .. . ...
40|C-5 00 6 Q22|A-4 00 4 Q01|F-3 00 . ...|C#2 06 . ...|C-3 00 . ...
41|... .. . ...|... .. . ...|... .. . ...|... .. . ...|... .. . ...
42|... .. . ...|... .. . ...|... .. . ...|... .. . ...|... .. . ...
43|... .. . ...|... .. . ...|... .. . ...|... .. . ...|... .. . ...
44|... .. . ...|... .. . ...|... .. . ...|... .. . ...|... .. . ...
45|... .. . ...|... .. . ...|... .. . ...|... .. . ...|... .. . ...
46|... .. 2 ...|... .. 1 ...|... .. . ...|... .. . ...|... .. . ...
47|... .. . ...|... .. . ...|... .. . ...|... .. . ...|... .. . ...
48|D-5 00 6 ...|A#4 00 4 ...|F-2 00 . ...|E-2 03 . ...|C#3 00 . ...
49|... .. . ...|... .. . ...|... .. . ...|... .. . ...|... .. . ...
4a|... .. . ...|... .. . ...|... .. . ...|... .. . ...|... .. . ...
4b|... .. . ...|... .. . ...|... .. . ...|... .. . ...|... .. . ...
4c|C-5 00 . ...|A-4 00 . ...|F-3 00 . ...|E-2 02 . ...|C-3 00 . ...
4d|... .. . ...|... .. . ...|... .. . ...|... .. . ...|... .. . ...
4e|... .. . ...|... .. . ...|... .. . ...|... .. . ...|... .. . ...
4f|... .. . ...|... .. . ...|... .. . ...|... .. . ...|... .. . ...
50|... .. 2 ...|... .. 1 ...|... .. . ...|F#2 02 . ...|... .. . ...
51|... .. . ...|... .. . ...|... .. . ...|... .. . ...|... .. . ...
52|... .. . ...|... .. . ...|... .. . ...|F#2 02 . ...|... .. . ...
53|... .. . ...|... .. . ...|... .. . ...|... .. . ...|... .. . ...
54|A#4 00 6 ...|G-4 00 4 ...|C-3 00 . ...|F#2 02 . ...|... .. . ...
55|... .. . ...|... .. . ...|... .. . ...|... .. . ...|... .. . ...
56|... .. . ...|... .. . ...|... .. . ...|... .. . ...|... .. . ...
57|... .. . ...|... .. . ...|... .. . ...|... .. . ...|... .. . ...
58|... .. 2 ...|... .. 1 ...|F-3 00 . ...|E-2 03 . ...|C#3 00 . ...
59|... .. . ...|... .. . ...|... .. . ...|... .. . ...|... .. . ...
5a|... .. . ...|... .. . ...|... .. . ...|... .. . ...|... .. . ...
5b|... .. . ...|... .. . ...|... .. . ...|... .. . ...|... .. . ...
5c|G-4 00 6 Q22|D#4 00 4 Q22|... .. . ...|F#2 02 . ...|... .. . ...
5d|... .. . ...|... .. . ...|... .. . ...|... .. . ...|... .. . ...
5e|... .. . ...|... .. . ...|... .. . ...|... .. . ...|... .. . ...
5f|... .. . ...|... .. . ...|... .. . ...|... .. . ...|... .. . ...
60|... .. . ...|... .. . ...|D#3 00 . ...|E-2 02 . ...|C-3 00 . ...
61|... .. . ...|... .. . ...|... .. . ...|... .. . ...|... .. . ...
62|... .. . ...|... .. . ...|... .. . ...|... .. . ...|... .. . ...
63|... .. . ...|... .. . ...|... .. . ...|... .. . ...|... .. . ...
64|... .. . 473|... .. . ...|... .. . ...|F#2 02 . ...|... .. . ...
65|... .. . ...|... .. . ...|... .. . ...|... .. . ...|... .. . ...
66|... .. . ...|... .. . ...|... .. . ...|... .. . ...|... .. . ...
67|... .. . ...|... .. . ...|... .. . ...|... .. . ...|... .. . ...
68|... .. 2 ...|... .. 1 ...|D#2 00 . ...|E-2 03 . ...|C#3 00 . ...
69|... .. . ...|... .. . ...|... .. . ...|... .. . ...|... .. . ...
6a|... .. . ...|... .. . ...|... .. . ...|... .. . ...|... .. . ...
6b|... .. . ...|... .. . ...|... .. . ...|... .. . ...|... .. . ...
6c|G-4 00 6 400|D-4 00 4 ...|D#3 00 . ...|E-2 02 . ...|C-3 00 . ...
6d|... .. . ...|... .. . ...|... .. . ...|... .. . ...|... .. . ...
6e|... .. . ...|... .. . ...|... .. . ...|... .. . ...|... .. . ...
6f|... .. . ...|... .. . ...|... .. . ...|... .. . ...|... .. . ...
70|... .. . ...|... .. . ...|... .. . ...|F#2 02 . ...|D-3 00 . ...
71|... .. . ...|... .. . ...|... .. . ...|... .. . ...|... .. . ...
72|... .. . ...|... .. . ...|... .. . ...|F#2 02 . ...|D-3 00 . ...
73|... .. . ...|... .. . ...|... .. . ...|... .. . ...|... .. . ...
74|... .. . 473|... .. . ...|A#2 00 . ...|F#2 02 . ...|D#3 00 . ...
75|... .. . ...|... .. . ...|... .. . ...|... .. . ...|... .. . ...
76|... .. . ...|... .. . ...|... .. . ...|... .. . ...|... .. . ...
77|... .. . ...|... .. . ...|... .. . ...|... .. . ...|... .. . ...
78|... .. . ...|... .. . ...|D#3 00 . ...|F#2 02 . ...|D#3 00 . ...
79|... .. . ...|... .. . ...|... .. . ...|... .. . ...|... .. . ...
7a|... .. . ...|... .. . ...|... .. . ...|... .. . ...|... .. . ...
7b|... .. . ...|... .. . ...|... .. . ...|... .. . ...|... .. . ...
7c|... .. . ...|... .. . ...|... .. . ...|E-2 03 . ...|C#3 00 . ...
7d|... .. . ...|... .. . ...|... .. . ...|... .. . ...|... .. . ...
7e|... .. . ...|... .. . ...|... .. . ...|E-2 03 . ...|C#3 00 . ...
7f|... .. . ...|... .. . ...|... .. . ...|... .. . ...|... .. . ...

[Frame47]
00|... .. 2 ...|G-2 00 6 V00|G-3 00 . ...|C#2 06 a ...|C-3 00 . ...
01|... .. . ...|... .. 2 ...|... .. . ...|... .. . ...|... .. . ...
02|... .. . ...|G-3 00 3 V01|... .. . ...|... .. . ...|... .. . ...
03|... .. . ...|... .. 1 ...|... .. . ...|... .. . ...|... .. . ...
04|... .. 1 ...|A#2 00 6 V00|... .. . ...|... .. . ...|... .. . ...
05|... .. . ...|... .. 2 ...|... .. . ...|... .. . ...|... .. . ...
06|... .. . ...|A#3 00 3 V01|... .. . ...|... .. . ...|... .. . ...
07|... .. . ...|... .. 1 ...|... .. . ...|... .. . ...|... .. . ...
08|A-4 00 6 Q01|A#2 00 6 V00|G-2 00 . ...|E-2 03 . ...|C#3 00 . ...
09|... .. . ...|... .. 2 ...|... .. . ...|... .. . ...|... .. . ...
0a|... .. . ...|A#3 00 3 V01|... .. . ...|... .. . ...|... .. . ...
0b|... .. . ...|... .. 1 ...|... .. . ...|... .. . ...|... .. . ...
0c|... .. 2 ...|G-2 00 6 V00|G-3 00 . ...|F#2 02 . ...|... .. . ...
0d|... .. . ...|... .. 2 ...|... .. . ...|... .. . ...|... .. . ...
0e|... .. . ...|G-3 00 3 V01|... .. . ...|F#2 02 . ...|... .. . ...
0f|... .. . ...|... .. 1 ...|... .. . ...|... .. . ...|... .. . ...
10|A#4 00 6 ...|C#3 00 6 V00|... .. . ...|E-2 02 . ...|C-3 00 . ...
11|... .. . ...|C#4 00 3 G01|... .. . ...|... .. . ...|... .. . ...
12|... .. . ...|C-3 00 6 G01|... .. . ...|... .. . ...|... .. . ...
13|... .. . ...|C-4 00 3 G01|... .. . ...|... .. . ...|... .. . ...
14|A-4 00 . ...|A#2 00 6 G02|D-3 00 . ...|F#2 02 . ...|... .. . ...
15|... .. . ...|A#3 00 3 G01|... .. . ...|... .. . ...|... .. . ...
16|... .. . ...|... .. 1 ...|... .. . ...|... .. . ...|... .. . ...
17|... .. . ...|... .. . ...|... .. . ...|... .. . ...|... .. . ...
18|... .. 2 ...|F-2 00 6 V00|G-3 00 . ...|E-2 03 . ...|C#3 00 . ...
19|... .. . ...|... .. 2 ...|... .. . ...|... .. . ...|... .. . ...
1a|... .. . ...|F-3 00 3 V01|... .. . ...|... .. . ...|... .. . ...
1b|... .. . ...|... .. 1 ...|... .. . ...|... .. . ...|... .. . ...
1c|F-4 00 6 ...|D-2 00 6 V00|... .. . ...|F#2 02 . ...|... .. . ...
1d|... .. . ...|... .. 2 ...|... .. . ...|... .. . ...|... .. . ...
1e|... .. . ...|D-3 00 3 V01|... .. . ...|... .. . ...|... .. . ...
1f|... .. . ...|... .. 1 ...|... .. . ...|... .. . ...|... .. . ...
20|... .. . ...|D-2 00 6 V00|A-3 00 . ...|E-2 02 . ...|C-3 00 . ...
21|... .. . ...|... .. 2 ...|... .. . ...|... .. . ...|... .. . ...
22|... .. . ...|D-3 00 3 V01|... .. . ...|... .. . ...|... .. . ...
23|... .. . ...|... .. 1 ...|... .. . ...|... .. . ...|... .. . ...
24|... .. . 473|F-2 00 6 V00|... .. . ...|E-2 02 . ...|C-3 00 . ...
25|... .. . ...|... .. 2 ...|... .. . ...|... .. . ...|... .. . ...
26|... .. . ...|F-3 00 3 V01|... .. . ...|... .. . ...|... .. . ...
27|... .. . ...|... .. 1 ...|... .. . ...|... .. . ...|... .. . ...
28|... .. 2 ...|F-2 00 6 V00|A-2 00 . ...|E-2 03 . ...|C#3 00 . ...
29|... .. . ...|... .. 2 ...|... .. . ...|... .. . ...|... .. . ...
2a|... .. . ...|F-3 00 3 V01|... .. . ...|... .. . ...|... .. . ...
2b|... .. . ...|... .. 1 ...|... .. . ...|... .. . ...|... .. . ...
2c|G-4 00 6 400|D-2 00 6 V00|A-3 00 . ...|E-2 02 . ...|C-3 00 . ...
2d|... .. . ...|... .. 2 ...|... .. . ...|... .. . ...|... .. . ...
2e|... .. . ...|D-3 00 3 V01|... .. . ...|... .. . ...|... .. . ...
2f|... .. . ...|... .. 1 ...|... .. . ...|... .. . ...|... .. . ...
30|... .. . ...|A-2 00 6 V00|... .. . ...|F#2 02 . ...|... .. . ...
31|... .. . ...|... .. 2 ...|... .. . ...|... .. . ...|... .. . ...
32|... .. . ...|A-3 00 3 V01|... .. . ...|F#2 02 . ...|... .. . ...
33|... .. . ...|... .. 1 ...|... .. . ...|... .. . ...|... .. . ...
34|... .. . ...|D-2 00 6 V00|D-3 00 . ...|E-2 02 . ...|C-3 00 . ...
35|... .. . ...|... .. 2 ...|... .. . ...|... .. . ...|... .. . ...
36|... .. . ...|D-3 00 3 V01|... .. . ...|... .. . ...|... .. . ...
37|... .. . ...|... .. 1 ...|... .. . ...|... .. . ...|... .. . ...
38|A-4 00 . ...|F-2 00 6 V00|A-3 00 . ...|E-2 03 . ...|C#3 00 . ...
39|... .. . ...|... .. 2 ...|... .. . ...|... .. . ...|... .. . ...
3a|... .. . ...|F-3 00 3 V01|... .. . ...|... .. . ...|... .. . ...
3b|... .. . ...|... .. 1 ...|... .. . ...|... .. . ...|... .. . ...
3c|... .. . ...|D-2 00 6 V00|... .. . ...|E-2 03 . ...|C#3 00 . ...
3d|... .. . ...|... .. 2 ...|... .. . ...|... .. . ...|... .. . ...
3e|... .. . ...|D-3 00 3 V01|... .. . ...|E-2 03 . ...|C#3 00 . ...
3f|... .. . ...|... .. 1 ...|... .. . ...|... .. . ...|... .. . ...
40|G-4 00 . ...|G-2 00 6 V00|G-3 00 . ...|E-2 02 . ...|C-3 00 . ...
41|... .. . ...|... .. 2 ...|... .. . ...|... .. . ...|... .. . ...
42|... .. . ...|G-3 00 3 V01|... .. . ...|... .. . ...|... .. . ...
43|... .. . ...|... .. 1 ...|... .. . ...|... .. . ...|... .. . ...
44|... .. . ...|A#2 00 6 V00|D-3 00 . ...|F#2 02 . ...|... .. . ...
45|... .. . ...|... .. 2 ...|... .. . ...|... .. . ...|... .. . ...
46|... .. . ...|A#3 00 3 V01|... .. . ...|... .. . ...|... .. . ...
47|... .. . ...|... .. 1 ...|... .. . ...|... .. . ...|... .. . ...
48|... .. . ...|A#2 00 6 V00|G-1 00 . ...|E-2 03 . ...|C#3 00 . ...
49|... .. . ...|... .. 2 ...|... .. . ...|... .. . ...|... .. . ...
4a|... .. . ...|A#3 00 3 V01|... .. . ...|... .. . ...|... .. . ...
4b|... .. . ...|... .. 1 ...|... .. . ...|... .. . ...|... .. . ...
4c|... .. . ...|G-2 00 6 V00|G-3 00 . ...|F#2 02 . ...|... .. . ...
4d|... .. . ...|... .. 2 ...|... .. . ...|... .. . ...|... .. . ...
4e|... .. . ...|G-3 00 3 V01|... .. . ...|... .. . ...|... .. . ...
4f|... .. . ...|... .. 1 ...|... .. . ...|... .. . ...|... .. . ...
50|... .. . 473|C#3 00 6 V00|G-1 00 . ...|F#2 02 . ...|... .. . ...
51|... .. . ...|C#4 00 3 G01|... .. . ...|... .. . ...|... .. . ...
52|... .. . ...|C-3 00 6 G01|... .. . ...|F#2 02 . ...|... .. . ...
53|... .. . ...|C-4 00 3 G01|... .. . ...|... .. . ...|... .. . ...
54|... .. . ...|A#2 00 6 G02|A#3 00 . ...|E-2 02 . ...|C-3 00 . ...
55|... .. . ...|A#3 00 3 G01|... .. . ...|... .. . ...|... .. . ...
56|... .. . ...|... .. 1 ...|... .. . ...|... .. . ...|... .. . ...
57|... .. . ...|... .. . ...|... .. . ...|... .. . ...|... .. . ...
58|... .. . ...|F-2 00 6 V00|G-1 00 . ...|E-2 03 . ...|C#3 00 . ...
59|... .. . ...|... .. 2 ...|... .. . ...|... .. . ...|... .. . ...
5a|... .. . ...|F-3 00 3 V01|... .. . ...|... .. . ...|... .. . ...
5b|... .. . ...|... .. 1 ...|... .. . ...|... .. . ...|... .. . ...
5c|... .. . ...|D-2 00 6 V00|B-3 00 . ...|F#2 02 . ...|... .. . ...
5d|... .. . ...|... .. 2 ...|C-4 00 . ...|... .. . ...|... .. . ...
5e|... .. . ...|D-3 00 3 V01|... .. . ...|... .. . ...|... .. . ...
5f|... .. . ...|... .. 1 ...|... .. . ...|... .. . ...|... .. . ...
60|... .. 5 ...|F-2 00 6 V00|... .. . ...|E-2 02 . ...|C-3 00 . ...
61|... .. . ...|... .. 2 ...|... .. . ...|... .. . ...|... .. . ...
62|... .. . ...|F-3 00 3 V01|... .. . ...|... .. . ...|... .. . ...
63|... .. . ...|... .. 1 ...|... .. . ...|... .. . ...|... .. . ...
64|... .. . ...|G-2 00 6 V00|C#4 00 . ...|E-2 02 . ...|C-3 00 . ...
65|... .. . ...|... .. 2 ...|... .. . ...|... .. . ...|... .. . ...
66|... .. . ...|G-3 00 3 V01|... .. . ...|... .. . ...|... .. . ...
67|... .. . ...|... .. 1 ...|... .. . ...|... .. . ...|... .. . ...
68|... .. 4 ...|G-2 00 6 V00|C-4 00 . ...|E-2 03 . ...|C#3 00 . ...
69|... .. . ...|... .. 2 ...|... .. . ...|... .. . ...|... .. . ...
6a|... .. . ...|G-3 00 3 V01|... .. . ...|... .. . ...|... .. . ...
6b|... .. . ...|... .. 1 ...|... .. . ...|... .. . ...|... .. . ...
6c|... .. . ...|F-2 00 6 V00|A#3 00 . ...|E-2 02 . ...|C-3 00 . ...
6d|... .. . ...|... .. 2 ...|... .. . ...|... .. . ...|... .. . ...
6e|... .. . ...|F-3 00 3 V01|... .. . ...|... .. . ...|... .. . ...
6f|... .. . ...|... .. 1 ...|... .. . ...|... .. . ...|... .. . ...
70|... .. 3 ...|A#2 00 6 V00|G-1 00 . ...|F#2 02 . ...|... .. . ...
71|... .. . ...|... .. 2 ...|... .. . ...|... .. . ...|... .. . ...
72|... .. . ...|A#3 00 3 V01|... .. . ...|F#2 02 . ...|... .. . ...
73|... .. . ...|... .. 1 ...|... .. . ...|... .. . ...|... .. . ...
74|... .. . ...|F-2 00 6 V00|G-3 00 . ...|E-2 02 . ...|C-3 00 . ...
75|... .. . ...|... .. 2 ...|... .. . ...|... .. . ...|... .. . ...
76|... .. . ...|F-3 00 3 V01|... .. . ...|... .. . ...|... .. . ...
77|... .. . ...|... .. 1 ...|... .. . ...|... .. . ...|... .. . ...
78|... .. 2 ...|G-2 00 6 V00|F-3 00 . ...|E-2 03 . ...|C#3 00 . ...
79|... .. . ...|... .. 2 ...|... .. . ...|... .. . ...|... .. . ...
7a|... .. . ...|G-3 00 3 V01|... .. . ...|... .. . ...|... .. . ...
7b|... .. . ...|... .. 1 ...|... .. . ...|... .. . ...|... .. . ...
7c|... .. 1 ...|D-2 00 6 V00|G-3 00 . ...|E-2 03 . ...|C#3 00 . ...
7d|... .. . ...|... .. 2 ...|... .. . ...|... .. . ...|... .. . ...
7e|... .. . ...|D-3 00 3 V01|... .. . ...|E-2 03 . ...|C#3 00 . ...
7f|... .. . ...|... .. 1 ...|... .. . S01|... .. . ...|... .. . ...

[Frame48]
00|C#5 00 5 V01|C#2 00 8 V00|C#4 00 . ...|C#2 06 a ...|C-3 00 . ...
01|A#4 00 . V02|... .. . ...|... .. . ...|... .. . ...|... .. . ...
02|G-4 00 . ...|... .. . ...|... .. . ...|... .. . ...|... .. . ...
03|C#5 00 . V00|... .. . ...|... .. . ...|... .. . ...|... .. . ...
04|A#4 00 1 V01|... .. 3 ...|--- .. . ...|... .. . ...|... .. . ...
05|G-4 00 . V02|... .. . ...|... .. . ...|... .. . ...|... .. . ...
06|C#5 00 . ...|... .. . ...|... .. . ...|... .. . ...|... .. . ...
07|A#4 00 . V00|... .. . ...|... .. . ...|... .. . ...|... .. . ...
08|... .. 0 ...|... .. 0 ...|... .. . ...|F#2 02 . ...|... .. . ...
09|... .. . ...|... .. . ...|... .. . ...|... .. . ...|... .. . ...
0a|... .. . ...|... .. . ...|... .. . ...|... .. . ...|... .. . ...
0b|... .. . ...|... .. . ...|... .. . ...|... .. . ...|... .. . ...
0c|... .. . ...|... .. . ...|... .. . ...|... .. . ...|... .. . ...
0d|... .. . ...|... .. . ...|... .. . ...|... .. . ...|... .. . ...
0e|... .. . ...|... .. . ...|... .. . ...|... .. . ...|... .. . ...
0f|... .. . ...|... .. . ...|... .. . ...|... .. . ...|... .. . ...
10|... .. . ...|... .. . ...|... .. . ...|... .. . ...|... .. . ...
11|... .. . ...|... .. . ...|... .. . ...|... .. . ...|... .. . ...
12|... .. . ...|... .. . ...|... .. . ...|... .. . ...|... .. . ...
13|... .. . ...|... .. . ...|... .. . ...|... .. . ...|... .. . ...
14|... .. . ...|... .. . ...|... .. . ...|... .. . ...|... .. . ...
15|... .. . ...|... .. . ...|... .. . ...|... .. . ...|... .. . ...
16|... .. . ...|... .. . ...|... .. . ...|... .. . ...|... .. . ...
17|... .. . ...|... .. . ...|... .. . ...|... .. . ...|... .. . ...
18|... .. . ...|... .. . ...|... .. . ...|... .. . ...|... .. . ...
19|... .. . ...|... .. . ...|... .. . ...|... .. . ...|... .. . ...
1a|... .. . ...|... .. . ...|... .. . ...|... .. . ...|... .. . ...
1b|... .. . ...|... .. . ...|... .. . ...|... .. . ...|... .. . ...
1c|... .. . ...|... .. . ...|... .. . ...|... .. . ...|... .. . ...
1d|... .. . ...|... .. . ...|... .. . ...|... .. . ...|... .. . ...
1e|... .. . ...|... .. . ...|... .. . ...|... .. . ...|... .. . ...
1f|... .. . ...|... .. . ...|... .. . ...|... .. . ...|... .. . ...
20|D-5 00 5 V01|D-2 00 8 V00|D-4 00 . ...|C#2 06 a ...|C-3 00 . ...
21|B-4 00 . V02|... .. . ...|... .. . ...|... .. . ...|... .. . ...
22|G#4 00 . ...|... .. . ...|... .. . ...|... .. . ...|... .. . ...
23|D-5 00 . V00|... .. . ...|... .. . ...|... .. . ...|... .. . ...
24|B-4 00 1 V01|... .. 3 ...|--- .. . ...|... .. . ...|... .. . ...
25|G#4 00 . V02|... .. . ...|... .. . ...|... .. . ...|... .. . ...
26|D-5 00 . ...|... .. . ...|... .. . ...|... .. . ...|... .. . ...
27|B-4 00 . V00|... .. . ...|... .. . ...|... .. . ...|... .. . ...
28|... .. 0 ...|... .. 0 ...|... .. . ...|F#2 02 . ...|... .. . ...
29|... .. . ...|... .. . ...|... .. . ...|... .. . ...|... .. . ...
2a|... .. . ...|... .. . ...|... .. . ...|... .. . ...|... .. . ...
2b|... .. . ...|... .. . ...|... .. . ...|... .. . ...|... .. . ...
2c|... .. . ...|... .. . ...|... .. . ...|... .. . ...|... .. . ...
2d|... .. . ...|... .. . ...|... .. . ...|... .. . ...|... .. . ...
2e|... .. . ...|... .. . ...|... .. . ...|... .. . ...|... .. . ...
2f|... .. . ...|... .. . ...|... .. . ...|... .. . ...|... .. . ...
30|... .. . ...|... .. . ...|... .. . ...|F#2 02 . ...|... .. . ...
31|... .. . ...|... .. . ...|... .. . ...|... .. . ...|... .. . ...
32|... .. . ...|... .. . ...|... .. . ...|... .. . ...|... .. . ...
33|... .. . ...|... .. . ...|... .. . ...|... .. . ...|... .. . ...
34|... .. . ...|... .. . ...|... .. . ...|... .. . ...|... .. . ...
35|... .. . ...|... .. . ...|... .. . ...|... .. . ...|... .. . ...
36|... .. . ...|... .. . ...|... .. . ...|... .. . ...|... .. . ...
37|... .. . ...|... .. . ...|... .. . ...|... .. . ...|... .. . ...
38|... .. . ...|... .. . ...|... .. . ...|F#2 02 . ...|... .. . ...
39|... .. . ...|... .. . ...|... .. . ...|... .. . ...|... .. . ...
3a|... .. . ...|... .. . ...|... .. . ...|... .. . ...|... .. . ...
3b|... .. . ...|... .. . ...|... .. . ...|... .. . ...|... .. . ...
3c|... .. . ...|... .. . ...|... .. . ...|F#2 02 . ...|... .. . ...
3d|... .. . ...|... .. . ...|... .. . ...|... .. . ...|... .. . ...
3e|... .. . ...|... .. . ...|... .. . ...|F#2 02 . ...|... .. . ...
3f|... .. . ...|... .. . ...|... .. . ...|... .. . ...|... .. . D00
40|... .. . ...|... .. . ...|... .. . ...|... .. . ...|... .. . ...
41|... .. . ...|... .. . ...|... .. . ...|... .. . ...|... .. . ...
42|... .. . ...|... .. . ...|... .. . ...|... .. . ...|... .. . ...
43|... .. . ...|... .. . ...|... .. . ...|... .. . ...|... .. . ...
44|... .. . ...|... .. . ...|... .. . ...|... .. . ...|... .. . ...
45|... .. . ...|... .. . ...|... .. . ...|... .. . ...|... .. . ...
46|... .. . ...|... .. . ...|... .. . ...|... .. . ...|... .. . ...
47|... .. . ...|... .. . ...|... .. . ...|... .. . ...|... .. . ...
48|... .. . ...|... .. . ...|... .. . ...|... .. . ...|... .. . ...
49|... .. . ...|... .. . ...|... .. . ...|... .. . ...|... .. . ...
4a|... .. . ...|... .. . ...|... .. . ...|... .. . ...|... .. . ...
4b|... .. . ...|... .. . ...|... .. . ...|... .. . ...|... .. . ...
4c|... .. . ...|... .. . ...|... .. . ...|... .. . ...|... .. . ...
4d|... .. . ...|... .. . ...|... .. . ...|... .. . ...|... .. . ...
4e|... .. . ...|... .. . ...|... .. . ...|... .. . ...|... .. . ...
4f|... .. . ...|... .. . ...|... .. . ...|... .. . ...|... .. . ...
50|... .. . ...|... .. . ...|... .. . ...|... .. . ...|... .. . ...
51|... .. . ...|... .. . ...|... .. . ...|... .. . ...|... .. . ...
52|... .. . ...|... .. . ...|... .. . ...|... .. . ...|... .. . ...
53|... .. . ...|... .. . ...|... .. . ...|... .. . ...|... .. . ...
54|... .. . ...|... .. . ...|... .. . ...|... .. . ...|... .. . ...
55|... .. . ...|... .. . ...|... .. . ...|... .. . ...|... .. . ...
56|... .. . ...|... .. . ...|... .. . ...|... .. . ...|... .. . ...
57|... .. . ...|... .. . ...|... .. . ...|... .. . ...|... .. . ...
58|... .. . ...|... .. . ...|... .. . ...|... .. . ...|... .. . ...
59|... .. . ...|... .. . ...|... .. . ...|... .. . ...|... .. . ...
5a|... .. . ...|... .. . ...|... .. . ...|... .. . ...|... .. . ...
5b|... .. . ...|... .. . ...|... .. . ...|... .. . ...|... .. . ...
5c|... .. . ...|... .. . ...|... .. . ...|... .. . ...|... .. . ...
5d|... .. . ...|... .. . ...|... .. . ...|... .. . ...|... .. . ...
5e|... .. . ...|... .. . ...|... .. . ...|... .. . ...|... .. . ...
5f|... .. . ...|... .. . ...|... .. . ...|... .. . ...|... .. . ...
60|... .. . ...|... .. . ...|... .. . ...|... .. . ...|... .. . ...
61|... .. . ...|... .. . ...|... .. . ...|... .. . ...|... .. . ...
62|... .. . ...|... .. . ...|... .. . ...|... .. . ...|... .. . ...
63|... .. . ...|... .. . ...|... .. . ...|... .. . ...|... .. . ...
64|... .. . ...|... .. . ...|... .. . ...|... .. . ...|... .. . ...
65|... .. . ...|... .. . ...|... .. . ...|... .. . ...|... .. . ...
66|... .. . ...|... .. . ...|... .. . ...|... .. . ...|... .. . ...
67|... .. . ...|... .. . ...|... .. . ...|... .. . ...|... .. . ...
68|... .. . ...|... .. . ...|... .. . ...|... .. . ...|... .. . ...
69|... .. . ...|... .. . ...|... .. . ...|... .. . ...|... .. . ...
6a|... .. . ...|... .. . ...|... .. . ...|... .. . ...|... .. . ...
6b|... .. . ...|... .. . ...|... .. . ...|... .. . ...|... .. . ...
6c|... .. . ...|... .. . ...|... .. . ...|... .. . ...|... .. . ...
6d|... .. . ...|... .. . ...|... .. . ...|... .. . ...|... .. . ...
6e|... .. . ...|... .. . ...|... .. . ...|... .. . ...|... .. . ...
6f|... .. . ...|... .. . ...|... .. . ...|... .. . ...|... .. . ...
70|... .. . ...|... .. . ...|... .. . ...|... .. . ...|... .. . ...
71|... .. . ...|... .. . ...|... .. . ...|... .. . ...|... .. . ...
72|... .. . ...|... .. . ...|... .. . ...|... .. . ...|... .. . ...
73|... .. . ...|... .. . ...|... .. . ...|... .. . ...|... .. . ...
74|... .. . ...|... .. . ...|... .. . ...|... .. . ...|... .. . ...
75|... .. . ...|... .. . ...|... .. . ...|... .. . ...|... .. . ...
76|... .. . ...|... .. . ...|... .. . ...|... .. . ...|... .. . ...
77|... .. . ...|... .. . ...|... .. . ...|... .. . ...|... .. . ...
78|... .. . ...|... .. . ...|... .. . ...|... .. . ...|... .. . ...
79|... .. . ...|... .. . ...|... .. . ...|... .. . ...|... .. . ...
7a|... .. . ...|... .. . ...|... .. . ...|... .. . ...|... .. . ...
7b|... .. . ...|... .. . ...|... .. . ...|... .. . ...|... .. . ...
7c|... .. . ...|... .. . ...|... .. . ...|... .. . ...|... .. . ...
7d|... .. . ...|... .. . ...|... .. . ...|... .. . ...|... .. . ...
7e|... .. . ...|... .. . ...|... .. . ...|... .. . ...|... .. . ...
7f|... .. . ...|... .. . ...|... .. . ...|... .. . ...|... .. . ...

[Frame49]
00|C#5 00 5 V01|C#2 00 8 V00|C#4 00 . ...|C#2 06 a ...|C-3 00 . ...
01|A#4 00 . V02|... .. . ...|... .. . ...|... .. . ...|... .. . ...
02|G-4 00 . ...|... .. . ...|... .. . ...|... .. . ...|... .. . ...
03|C#5 00 . V00|... .. . ...|... .. . ...|... .. . ...|... .. . ...
04|C#4 0a . ...|C#2 0a 5 ...|C#2 0b . ...|... .. . ...|... .. . ...
05|... .. . ...|... .. . ...|... .. . ...|... .. . ...|... .. . ...
06|... .. . ...|... .. . ...|... .. . ...|... .. . ...|... .. . ...
07|... .. . ...|... .. . ...|... .. . ...|... .. . ...|... .. . ...
08|F-4 0a . ...|F-2 0a . ...|F-2 0b . ...|... .. . ...|... .. . ...
09|... .. . ...|... .. . ...|... .. . ...|... .. . ...|... .. . ...
0a|... .. . ...|... .. . ...|... .. . ...|... .. . ...|... .. . ...
0b|... .. . ...|... .. . ...|... .. . ...|... .. . ...|... .. . ...
0c|G-4 0a . ...|G-2 0a . ...|G-2 0b . ...|... .. . ...|... .. . ...
0d|... .. . ...|... .. . ...|... .. . ...|... .. . ...|... .. . ...
0e|... .. . ...|... .. . ...|... .. . ...|... .. . ...|... .. . ...
0f|... .. . ...|... .. . ...|... .. . ...|... .. . ...|... .. . ...
10|G#4 0a . ...|G#2 0a . ...|G#2 0b . ...|... .. . ...|... .. . ...
11|... .. . ...|... .. . ...|... .. . ...|... .. . ...|... .. . ...
12|... .. . ...|... .. . ...|... .. . ...|... .. . ...|... .. . ...
13|... .. . ...|... .. . ...|... .. . ...|... .. . ...|... .. . ...
14|A#4 0a . ...|A#2 0a . ...|A#2 0b . ...|... .. . ...|... .. . ...
15|... .. . ...|... .. . ...|... .. . ...|... .. . ...|... .. . ...
16|... .. . ...|... .. . ...|... .. . ...|... .. . ...|... .. . ...
17|... .. . ...|... .. . ...|... .. . ...|... .. . ...|... .. . ...
18|B-4 0a . ...|B-2 0a . ...|B-2 0b . ...|... .. . ...|... .. . ...
19|... .. . ...|... .. . ...|... .. . ...|... .. . ...|... .. . ...
1a|... .. . ...|... .. . ...|... .. . ...|... .. . ...|... .. . ...
1b|... .. . ...|... .. . ...|... .. . ...|... .. . ...|... .. . ...
1c|C-5 0a . ...|C-3 0a . ...|C-3 0b . ...|... .. . ...|... .. . ...
1d|... .. . ...|... .. . ...|... .. . ...|... .. . ...|... .. . ...
1e|... .. . ...|... .. . ...|... .. . ...|... .. . ...|... .. . ...
1f|... .. . ...|... .. . ...|... .. . ...|... .. . ...|... .. . ...
20|D-5 00 5 V01|D-2 00 8 V00|D-4 00 . ...|C#2 06 a ...|C-3 00 . ...
21|B-4 00 . V02|... .. . ...|... .. . ...|... .. . ...|... .. . ...
22|G#4 00 . ...|... .. . ...|... .. . ...|... .. . ...|... .. . ...
23|D-5 00 . V00|... .. . ...|... .. . ...|... .. . ...|... .. . ...
24|B-4 00 1 V01|... .. 3 ...|--- .. . ...|... .. . ...|... .. . ...
25|G#4 00 . V02|... .. . ...|... .. . ...|... .. . ...|... .. . ...
26|D-5 00 . ...|... .. . ...|... .. . ...|... .. . ...|... .. . ...
27|B-4 00 . V00|... .. . ...|... .. . ...|... .. . ...|... .. . ...
28|... .. 0 ...|... .. 0 ...|... .. . ...|F#2 02 . ...|... .. . ...
29|... .. . ...|... .. . ...|... .. . ...|... .. . ...|... .. . ...
2a|... .. . ...|... .. . ...|... .. . ...|... .. . ...|... .. . ...
2b|... .. . ...|... .. . ...|... .. . ...|... .. . ...|... .. . ...
2c|... .. . ...|... .. . ...|... .. . ...|F#2 02 . ...|... .. . ...
2d|... .. . ...|... .. . ...|... .. . ...|... .. . ...|... .. . ...
2e|... .. . ...|... .. . ...|... .. . ...|... .. . ...|... .. . ...
2f|... .. . ...|... .. . ...|... .. . ...|... .. . ...|... .. . ...
30|... .. . ...|... .. . ...|... .. . ...|F#2 02 . ...|... .. . ...
31|... .. . ...|... .. . ...|... .. . ...|... .. . ...|... .. . ...
32|... .. . ...|... .. . ...|... .. . ...|... .. . ...|... .. . ...
33|... .. . ...|... .. . ...|... .. . ...|... .. . ...|... .. . ...
34|... .. . ...|... .. . ...|... .. . ...|... .. . ...|... .. . ...
35|... .. . ...|... .. . ...|... .. . ...|... .. . ...|... .. . ...
36|... .. . ...|... .. . ...|... .. . ...|... .. . ...|... .. . ...
37|... .. . ...|... .. . ...|... .. . ...|... .. . ...|... .. . ...
38|... .. . ...|... .. . ...|... .. . ...|E-2 02 . ...|C-3 00 . ...
39|... .. . ...|... .. . ...|... .. . ...|... .. . ...|... .. . ...
3a|... .. . ...|... .. . ...|... .. . ...|... .. . ...|... .. . ...
3b|... .. . ...|... .. . ...|... .. . ...|... .. . ...|... .. . ...
3c|... .. . ...|... .. . ...|... .. . ...|E-2 03 . ...|C#3 00 . ...
3d|... .. . ...|... .. . ...|... .. . ...|... .. . ...|... .. . ...
3e|... .. . ...|... .. . ...|... .. . ...|E-2 03 . ...|C#3 00 . ...
3f|... .. . ...|... .. . ...|... .. . ...|... .. . ...|... .. . D00
40|... .. . ...|... .. . ...|... .. . ...|... .. . ...|... .. . ...
41|... .. . ...|... .. . ...|... .. . ...|... .. . ...|... .. . ...
42|... .. . ...|... .. . ...|... .. . ...|... .. . ...|... .. . ...
43|... .. . ...|... .. . ...|... .. . ...|... .. . ...|... .. . ...
44|... .. . ...|... .. . ...|... .. . ...|... .. . ...|... .. . ...
45|... .. . ...|... .. . ...|... .. . ...|... .. . ...|... .. . ...
46|... .. . ...|... .. . ...|... .. . ...|... .. . ...|... .. . ...
47|... .. . ...|... .. . ...|... .. . ...|... .. . ...|... .. . ...
48|... .. . ...|... .. . ...|... .. . ...|... .. . ...|... .. . ...
49|... .. . ...|... .. . ...|... .. . ...|... .. . ...|... .. . ...
4a|... .. . ...|... .. . ...|... .. . ...|... .. . ...|... .. . ...
4b|... .. . ...|... .. . ...|... .. . ...|... .. . ...|... .. . ...
4c|... .. . ...|... .. . ...|... .. . ...|... .. . ...|... .. . ...
4d|... .. . ...|... .. . ...|... .. . ...|... .. . ...|... .. . ...
4e|... .. . ...|... .. . ...|... .. . ...|... .. . ...|... .. . ...
4f|... .. . ...|... .. . ...|... .. . ...|... .. . ...|... .. . ...
50|... .. . ...|... .. . ...|... .. . ...|... .. . ...|... .. . ...
51|... .. . ...|... .. . ...|... .. . ...|... .. . ...|... .. . ...
52|... .. . ...|... .. . ...|... .. . ...|... .. . ...|... .. . ...
53|... .. . ...|... .. . ...|... .. . ...|... .. . ...|... .. . ...
54|... .. . ...|... .. . ...|... .. . ...|... .. . ...|... .. . ...
55|... .. . ...|... .. . ...|... .. . ...|... .. . ...|... .. . ...
56|... .. . ...|... .. . ...|... .. . ...|... .. . ...|... .. . ...
57|... .. . ...|... .. . ...|... .. . ...|... .. . ...|... .. . ...
58|... .. . ...|... .. . ...|... .. . ...|... .. . ...|... .. . ...
59|... .. . ...|... .. . ...|... .. . ...|... .. . ...|... .. . ...
5a|... .. . ...|... .. . ...|... .. . ...|... .. . ...|... .. . ...
5b|... .. . ...|... .. . ...|... .. . ...|... .. . ...|... .. . ...
5c|... .. . ...|... .. . ...|... .. . ...|... .. . ...|... .. . ...
5d|... .. . ...|... .. . ...|... .. . ...|... .. . ...|... .. . ...
5e|... .. . ...|... .. . ...|... .. . ...|... .. . ...|... .. . ...
5f|... .. . ...|... .. . ...|... .. . ...|... .. . ...|... .. . ...
60|... .. . ...|... .. . ...|... .. . ...|... .. . ...|... .. . ...
61|... .. . ...|... .. . ...|... .. . ...|... .. . ...|... .. . ...
62|... .. . ...|... .. . ...|... .. . ...|... .. . ...|... .. . ...
63|... .. . ...|... .. . ...|... .. . ...|... .. . ...|... .. . ...
64|... .. . ...|... .. . ...|... .. . ...|... .. . ...|... .. . ...
65|... .. . ...|... .. . ...|... .. . ...|... .. . ...|... .. . ...
66|... .. . ...|... .. . ...|... .. . ...|... .. . ...|... .. . ...
67|... .. . ...|... .. . ...|... .. . ...|... .. . ...|... .. . ...
68|... .. . ...|... .. . ...|... .. . ...|... .. . ...|... .. . ...
69|... .. . ...|... .. . ...|... .. . ...|... .. . ...|... .. . ...
6a|... .. . ...|... .. . ...|... .. . ...|... .. . ...|... .. . ...
6b|... .. . ...|... .. . ...|... .. . ...|... .. . ...|... .. . ...
6c|... .. . ...|... .. . ...|... .. . ...|... .. . ...|... .. . ...
6d|... .. . ...|... .. . ...|... .. . ...|... .. . ...|... .. . ...
6e|... .. . ...|... .. . ...|... .. . ...|... .. . ...|... .. . ...
6f|... .. . ...|... .. . ...|... .. . ...|... .. . ...|... .. . ...
70|... .. . ...|... .. . ...|... .. . ...|... .. . ...|... .. . ...
71|... .. . ...|... .. . ...|... .. . ...|... .. . ...|... .. . ...
72|... .. . ...|... .. . ...|... .. . ...|... .. . ...|... .. . ...
73|... .. . ...|... .. . ...|... .. . ...|... .. . ...|... .. . ...
74|... .. . ...|... .. . ...|... .. . ...|... .. . ...|... .. . ...
75|... .. . ...|... .. . ...|... .. . ...|... .. . ...|... .. . ...
76|... .. . ...|... .. . ...|... .. . ...|... .. . ...|... .. . ...
77|... .. . ...|... .. . ...|... .. . ...|... .. . ...|... .. . ...
78|... .. . ...|... .. . ...|... .. . ...|... .. . ...|... .. . ...
79|... .. . ...|... .. . ...|... .. . ...|... .. . ...|... .. . ...
7a|... .. . ...|... .. . ...|... .. . ...|... .. . ...|... .. . ...
7b|... .. . ...|... .. . ...|... .. . ...|... .. . ...|... .. . ...
7c|... .. . ...|... .. . ...|... .. . ...|... .. . ...|... .. . ...
7d|... .. . ...|... .. . ...|... .. . ...|... .. . ...|... .. . ...
7e|... .. . ...|... .. . ...|... .. . ...|... .. . ...|... .. . ...
7f|... .. . ...|... .. . ...|... .. . ...|... .. . ...|... .. . ...

[Frame50]
00|F-5 00 5 V00|F-1 00 8 V00|F-2 00 . ...|C#2 06 . ...|C-3 00 . ...
01|D-5 00 . V01|... .. . ...|... .. . ...|... .. . ...|... .. . ...
02|A#4 00 . V00|... .. . ...|... .. . ...|... .. . ...|... .. . ...
03|G-4 00 . V02|... .. . ...|... .. . ...|... .. . ...|... .. . ...
04|F-4 00 . V00|... .. . ...|... .. . ...|... .. . ...|... .. . ...
05|D-4 00 . V01|... .. . ...|... .. . ...|... .. . ...|... .. . ...
06|A#3 00 . V00|... .. . ...|... .. . ...|... .. . ...|... .. . ...
07|G-3 00 . V02|... .. . ...|... .. . ...|... .. . ...|... .. . ...
08|F-3 00 . V00|... .. 3 ...|F-1 00 . ...|E-2 03 . ...|C#3 00 . ...
09|D-3 00 . V01|... .. . ...|... .. . ...|... .. . ...|... .. . ...
0a|A#2 00 . V00|... .. . ...|... .. . ...|... .. . ...|... .. . ...
0b|G-2 00 . V02|... .. . ...|... .. . ...|... .. . ...|... .. . ...
0c|F-2 00 . V00|F#1 00 8 ...|F#2 00 . ...|E-2 02 . ...|C-3 00 . ...
0d|D-2 00 . V01|... .. . ...|... .. . ...|... .. . ...|... .. . ...
0e|A#1 00 . V00|... .. . ...|... .. . ...|... .. . ...|... .. . ...
0f|G-1 00 . V02|... .. . ...|... .. . ...|... .. . ...|... .. . ...
10|F-1 00 . V00|... .. . ...|... .. . ...|F#2 02 . ...|D-3 00 . ...
11|D-1 00 . V01|... .. . ...|... .. . ...|... .. . ...|... .. . ...
12|A#0 00 . V00|... .. . ...|... .. . ...|F#2 02 . ...|D-3 00 . ...
13|G-0 00 . V02|... .. . ...|... .. . ...|... .. . ...|... .. . ...
14|F-0 00 . V00|... .. 3 ...|F#1 00 . ...|F#2 02 . ...|D#3 00 . ...
15|D-0 00 . V01|... .. . ...|... .. . ...|... .. . ...|... .. . ...
16|A#0 00 . V00|... .. . ...|... .. . ...|... .. . ...|... .. . ...
17|G-0 00 . V02|... .. . ...|... .. . ...|... .. . ...|... .. . ...
18|G-5 00 . V00|G-1 00 8 ...|G-2 00 . ...|C#2 06 . ...|C-3 00 . ...
19|D-5 00 . V01|... .. . ...|... .. . ...|... .. . ...|... .. . ...
1a|A#4 00 . V00|... .. . ...|... .. . ...|... .. . ...|... .. . ...
1b|G-5 00 . V02|... .. . ...|... .. . ...|... .. . ...|... .. . ...
1c|D-5 00 . V00|... .. . ...|... .. . ...|... .. . ...|... .. . ...
1d|A#4 00 . V01|... .. . ...|... .. . ...|... .. . ...|... .. . ...
1e|G-5 00 . V00|... .. . ...|... .. . ...|... .. . ...|... .. . ...
1f|D-5 00 . V02|... .. . ...|... .. . ...|... .. . ...|... .. . ...
20|A#4 00 3 V00|... .. 3 ...|--- .. . ...|... .. . ...|... .. . ...
21|G-5 00 . V01|... .. . ...|... .. . ...|... .. . ...|... .. . ...
22|D-5 00 . V00|... .. . ...|... .. . ...|... .. . ...|... .. . ...
23|A#4 00 . V02|... .. . ...|... .. . ...|... .. . ...|... .. . ...
24|D-2 00 6 V01|... .. 0 ...|... .. . ...|... .. . ...|... .. . ...
25|... .. . ...|... .. . ...|... .. . ...|... .. . ...|... .. . ...
26|... .. . ...|... .. . ...|... .. . ...|... .. . ...|... .. . ...
27|... .. . ...|D-2 00 2 V01|... .. . ...|... .. . ...|... .. . ...
28|G-2 00 . ...|... .. . ...|... .. . ...|... .. . ...|... .. . ...
29|... .. . ...|... .. . ...|... .. . ...|... .. . ...|... .. . ...
2a|... .. . ...|... .. . ...|... .. . ...|... .. . ...|... .. . ...
2b|... .. . ...|G-2 00 . ...|... .. . ...|... .. . ...|... .. . ...
2c|A#2 00 . ...|... .. . ...|... .. . ...|... .. . ...|... .. . ...
2d|... .. . ...|... .. . ...|... .. . ...|... .. . ...|... .. . ...
2e|... .. . ...|... .. . ...|... .. . ...|... .. . ...|... .. . ...
2f|... .. . ...|A#2 00 . ...|... .. . ...|... .. . ...|... .. . ...
30|C-3 00 . ...|... .. . ...|... .. . ...|... .. . ...|... .. . ...
31|... .. . ...|... .. . ...|... .. . ...|... .. . ...|... .. . ...
32|... .. . ...|... .. . ...|... .. . ...|... .. . ...|... .. . ...
33|... .. . ...|C-3 00 . ...|... .. . ...|... .. . ...|... .. . ...
34|C#3 00 . ...|... .. . ...|... .. . ...|... .. . ...|... .. . ...
35|... .. . ...|... .. . ...|... .. . ...|... .. . ...|... .. . ...
36|... .. . ...|... .. . ...|... .. . ...|... .. . ...|... .. . ...
37|... .. . ...|C#3 00 . ...|... .. . ...|... .. . ...|... .. . ...
38|C-3 00 . ...|... .. . ...|... .. . ...|... .. . ...|... .. . ...
39|C#3 00 . G01|... .. . ...|... .. . ...|... .. . ...|... .. . ...
3a|C-3 00 . G02|... .. . ...|... .. . ...|... .. . ...|... .. . ...
3b|... .. . ...|C-3 00 . ...|... .. . ...|... .. . ...|... .. . ...
3c|A#2 00 . ...|C#3 00 . G01|... .. . ...|... .. . ...|... .. . ...
3d|... .. . ...|C-3 00 . G02|... .. . ...|... .. . ...|... .. . ...
3e|... .. . ...|... .. . ...|... .. . ...|... .. . ...|... .. . ...
3f|... .. . ...|A#2 00 . ...|... .. . ...|... .. . ...|... .. . D00
40|... .. . ...|... .. . ...|... .. . ...|... .. . ...|... .. . ...
41|... .. . ...|... .. . ...|... .. . ...|... .. . ...|... .. . ...
42|... .. . ...|... .. . ...|... .. . ...|... .. . ...|... .. . ...
43|... .. . ...|... .. . ...|... .. . ...|... .. . ...|... .. . ...
44|... .. . ...|... .. . ...|... .. . ...|... .. . ...|... .. . ...
45|... .. . ...|... .. . ...|... .. . ...|... .. . ...|... .. . ...
46|... .. . ...|... .. . ...|... .. . ...|... .. . ...|... .. . ...
47|... .. . ...|... .. . ...|... .. . ...|... .. . ...|... .. . ...
48|... .. . ...|... .. . ...|... .. . ...|... .. . ...|... .. . ...
49|... .. . ...|... .. . ...|... .. . ...|... .. . ...|... .. . ...
4a|... .. . ...|... .. . ...|... .. . ...|... .. . ...|... .. . ...
4b|... .. . ...|... .. . ...|... .. . ...|... .. . ...|... .. . ...
4c|... .. . ...|... .. . ...|... .. . ...|... .. . ...|... .. . ...
4d|... .. . ...|... .. . ...|... .. . ...|... .. . ...|... .. . ...
4e|... .. . ...|... .. . ...|... .. . ...|... .. . ...|... .. . ...
4f|... .. . ...|... .. . ...|... .. . ...|... .. . ...|... .. . ...
50|... .. . ...|... .. . ...|... .. . ...|... .. . ...|... .. . ...
51|... .. . ...|... .. . ...|... .. . ...|... .. . ...|... .. . ...
52|... .. . ...|... .. . ...|... .. . ...|... .. . ...|... .. . ...
53|... .. . ...|... .. . ...|... .. . ...|... .. . ...|... .. . ...
54|... .. . ...|... .. . ...|... .. . ...|... .. . ...|... .. . ...
55|... .. . ...|... .. . ...|... .. . ...|... .. . ...|... .. . ...
56|... .. . ...|... .. . ...|... .. . ...|... .. . ...|... .. . ...
57|... .. . ...|... .. . ...|... .. . ...|... .. . ...|... .. . ...
58|... .. . ...|... .. . ...|... .. . ...|... .. . ...|... .. . ...
59|... .. . ...|... .. . ...|... .. . ...|... .. . ...|... .. . ...
5a|... .. . ...|... .. . ...|... .. . ...|... .. . ...|... .. . ...
5b|... .. . ...|... .. . ...|... .. . ...|... .. . ...|... .. . ...
5c|... .. . ...|... .. . ...|... .. . ...|... .. . ...|... .. . ...
5d|... .. . ...|... .. . ...|... .. . ...|... .. . ...|... .. . ...
5e|... .. . ...|... .. . ...|... .. . ...|... .. . ...|... .. . ...
5f|... .. . ...|... .. . ...|... .. . ...|... .. . ...|... .. . ...
60|... .. . ...|... .. . ...|... .. . ...|... .. . ...|... .. . ...
61|... .. . ...|... .. . ...|... .. . ...|... .. . ...|... .. . ...
62|... .. . ...|... .. . ...|... .. . ...|... .. . ...|... .. . ...
63|... .. . ...|... .. . ...|... .. . ...|... .. . ...|... .. . ...
64|... .. . ...|... .. . ...|... .. . ...|... .. . ...|... .. . ...
65|... .. . ...|... .. . ...|... .. . ...|... .. . ...|... .. . ...
66|... .. . ...|... .. . ...|... .. . ...|... .. . ...|... .. . ...
67|... .. . ...|... .. . ...|... .. . ...|... .. . ...|... .. . ...
68|... .. . ...|... .. . ...|... .. . ...|... .. . ...|... .. . ...
69|... .. . ...|... .. . ...|... .. . ...|... .. . ...|... .. . ...
6a|... .. . ...|... .. . ...|... .. . ...|... .. . ...|... .. . ...
6b|... .. . ...|... .. . ...|... .. . ...|... .. . ...|... .. . ...
6c|... .. . ...|... .. . ...|... .. . ...|... .. . ...|... .. . ...
6d|... .. . ...|... .. . ...|... .. . ...|... .. . ...|... .. . ...
6e|... .. . ...|... .. . ...|... .. . ...|... .. . ...|... .. . ...
6f|... .. . ...|... .. . ...|... .. . ...|... .. . ...|... .. . ...
70|... .. . ...|... .. . ...|... .. . ...|... .. . ...|... .. . ...
71|... .. . ...|... .. . ...|... .. . ...|... .. . ...|... .. . ...
72|... .. . ...|... .. . ...|... .. . ...|... .. . ...|... .. . ...
73|... .. . ...|... .. . ...|... .. . ...|... .. . ...|... .. . ...
74|... .. . ...|... .. . ...|... .. . ...|... .. . ...|... .. . ...
75|... .. . ...|... .. . ...|... .. . ...|... .. . ...|... .. . ...
76|... .. . ...|... .. . ...|... .. . ...|... .. . ...|... .. . ...
77|... .. . ...|... .. . ...|... .. . ...|... .. . ...|... .. . ...
78|... .. . ...|... .. . ...|... .. . ...|... .. . ...|... .. . ...
79|... .. . ...|... .. . ...|... .. . ...|... .. . ...|... .. . ...
7a|... .. . ...|... .. . ...|... .. . ...|... .. . ...|... .. . ...
7b|... .. . ...|... .. . ...|... .. . ...|... .. . ...|... .. . ...
7c|... .. . ...|... .. . ...|... .. . ...|... .. . ...|... .. . ...
7d|... .. . ...|... .. . ...|... .. . ...|... .. . ...|... .. . ...
7e|... .. . ...|... .. . ...|... .. . ...|... .. . ...|... .. . ...
7f|... .. . ...|... .. . ...|... .. . ...|... .. . ...|... .. . ...

[Frame51]
00|F-5 00 5 V00|F-1 00 8 V00|F-2 00 . ...|C#2 06 . ...|C-3 00 . ...
01|D-5 00 . V01|... .. . ...|... .. . ...|... .. . ...|... .. . ...
02|A#4 00 . V00|... .. . ...|... .. . ...|... .. . ...|... .. . ...
03|G-4 00 . V02|... .. . ...|... .. . ...|... .. . ...|... .. . ...
04|F-4 00 . V00|... .. . ...|... .. . ...|... .. . ...|... .. . ...
05|D-4 00 . V01|... .. . ...|... .. . ...|... .. . ...|... .. . ...
06|A#3 00 . V00|... .. . ...|... .. . ...|... .. . ...|... .. . ...
07|G-3 00 . V02|... .. . ...|... .. . ...|... .. . ...|... .. . ...
08|F-3 00 . V00|... .. 3 ...|F-1 00 . ...|E-2 03 . ...|C#3 00 . ...
09|D-3 00 . V01|... .. . ...|... .. . ...|... .. . ...|... .. . ...
0a|A#2 00 . V00|... .. . ...|... .. . ...|... .. . ...|... .. . ...
0b|G-2 00 . V02|... .. . ...|... .. . ...|... .. . ...|... .. . ...
0c|F-2 00 . V00|F#1 00 8 ...|F#2 00 . ...|E-2 02 . ...|C-3 00 . ...
0d|D-2 00 . V01|... .. . ...|... .. . ...|... .. . ...|... .. . ...
0e|A#1 00 . V00|... .. . ...|... .. . ...|... .. . ...|... .. . ...
0f|G-1 00 . V02|... .. . ...|... .. . ...|... .. . ...|... .. . ...
10|F-1 00 . V00|... .. . ...|... .. . ...|F#2 02 . ...|D-3 00 . ...
11|D-1 00 . V01|... .. . ...|... .. . ...|... .. . ...|... .. . ...
12|A#0 00 . V00|... .. . ...|... .. . ...|F#2 02 . ...|D-3 00 . ...
13|G-0 00 . V02|... .. . ...|... .. . ...|... .. . ...|... .. . ...
14|F-0 00 . V00|... .. 3 ...|F#1 00 . ...|F#2 02 . ...|D#3 00 . ...
15|D-0 00 . V01|... .. . ...|... .. . ...|... .. . ...|... .. . ...
16|A#0 00 . V00|... .. . ...|... .. . ...|... .. . ...|... .. . ...
17|G-0 00 . V02|... .. . ...|... .. . ...|... .. . ...|... .. . ...
18|G-5 00 . V00|G-1 00 8 ...|G-2 00 . ...|C#2 06 . ...|C-3 00 . ...
19|D-5 00 . V01|... .. . ...|... .. . ...|... .. . ...|... .. . ...
1a|A#4 00 . V00|... .. . ...|... .. . ...|... .. . ...|... .. . ...
1b|G-5 00 . V02|... .. . ...|... .. . ...|... .. . ...|... .. . ...
1c|D-5 00 . V00|... .. . ...|... .. . ...|... .. . ...|... .. . ...
1d|A#4 00 . V01|... .. . ...|... .. . ...|... .. . ...|... .. . ...
1e|G-5 00 . V00|... .. . ...|... .. . ...|... .. . ...|... .. . ...
1f|D-5 00 . V02|... .. . ...|... .. . ...|... .. . ...|... .. . ...
20|A#4 00 3 V00|... .. 3 ...|--- .. . ...|... .. . ...|... .. . ...
21|G-5 00 . V01|... .. . ...|... .. . ...|... .. . ...|... .. . ...
22|D-5 00 . V00|... .. . ...|... .. . ...|... .. . ...|... .. . ...
23|A#4 00 . V02|... .. . ...|... .. . ...|... .. . ...|... .. . ...
24|G-3 00 6 V01|... .. 0 ...|... .. . ...|... .. . ...|... .. . Zbf
25|... .. . ...|... .. . ...|... .. . ...|... .. . ...|... .. . ...
26|... .. . ...|... .. . ...|... .. . ...|... .. . ...|... .. . ...
27|... .. . ...|G-3 00 2 V01|... .. . ...|... .. . ...|... .. . ...
28|F-3 00 . ...|... .. . ...|... .. . ...|... .. . ...|... .. . ...
29|... .. . ...|... .. . ...|... .. . ...|... .. . ...|... .. . ...
2a|... .. . ...|... .. . ...|... .. . ...|... .. . ...|... .. . ...
2b|... .. . ...|F-3 00 . ...|... .. . ...|... .. . ...|... .. . ...
2c|D-3 00 . ...|... .. . ...|... .. . ...|... .. . ...|... .. . ...
2d|... .. . ...|... .. . ...|... .. . ...|... .. . ...|... .. . ...
2e|... .. . ...|... .. . ...|... .. . ...|... .. . ...|... .. . ...
2f|... .. . ...|D-3 00 . ...|... .. . ...|... .. . ...|... .. . ...
30|C-3 00 . ...|... .. . ...|... .. . ...|... .. . ...|... .. . ...
31|... .. . ...|... .. . ...|... .. . ...|... .. . ...|... .. . ...
32|... .. . ...|... .. . ...|... .. . ...|... .. . ...|... .. . ...
33|... .. . ...|C-3 00 . ...|... .. . ...|... .. . ...|... .. . ...
34|C#3 00 . ...|... .. . ...|... .. . ...|... .. . ...|... .. . ...
35|... .. . ...|... .. . ...|... .. . ...|... .. . ...|... .. . ...
36|C-3 00 . ...|... .. . ...|... .. . ...|... .. . ...|... .. . ...
37|... .. . ...|C#3 00 . ...|... .. . ...|... .. . ...|... .. . ...
38|A#2 00 . ...|... .. . ...|... .. . ...|... .. . ...|... .. . ...
39|... .. . ...|C-3 00 . ...|... .. . ...|... .. . ...|... .. . ...
3a|... .. . ...|... .. . ...|... .. . ...|... .. . ...|... .. . ...
3b|... .. . ...|A#2 00 . ...|... .. . ...|... .. . ...|... .. . ...
3c|F-2 00 . ...|... .. . ...|... .. . ...|... .. . ...|... .. . ...
3d|... .. . ...|... .. . ...|... .. . ...|... .. . ...|... .. . ...
3e|... .. . ...|... .. . ...|... .. . ...|... .. . ...|... .. . ...
3f|... .. . ...|F-2 00 . ...|... .. . ...|... .. . ...|... .. . ...
40|... .. . ...|... .. . ...|... .. . ...|... .. . ...|... .. . ...
41|... .. . ...|... .. . ...|... .. . ...|... .. . ...|... .. . ...
42|... .. . ...|... .. . ...|... .. . ...|... .. . ...|... .. . ...
43|... .. . ...|... .. . ...|... .. . ...|... .. . ...|... .. . ...
44|... .. . ...|... .. . ...|... .. . ...|... .. . ...|... .. . ...
45|... .. . ...|... .. . ...|... .. . ...|... .. . ...|... .. . ...
46|... .. . ...|... .. . ...|... .. . ...|... .. . ...|... .. . ...
47|... .. . ...|... .. . ...|... .. . ...|... .. . ...|... .. . ...
48|... .. . ...|... .. . ...|... .. . ...|... .. . ...|... .. . ...
49|... .. . ...|... .. . ...|... .. . ...|... .. . ...|... .. . ...
4a|... .. . ...|... .. . ...|... .. . ...|... .. . ...|... .. . ...
4b|... .. . ...|... .. . ...|... .. . ...|... .. . ...|... .. . ...
4c|... .. . ...|... .. . ...|... .. . ...|... .. . ...|... .. . ...
4d|... .. . ...|... .. . ...|... .. . ...|... .. . ...|... .. . ...
4e|... .. . ...|... .. . ...|... .. . ...|... .. . ...|... .. . ...
4f|... .. . ...|... .. . ...|... .. . ...|... .. . ...|... .. . ...
50|... .. . ...|... .. . ...|... .. . ...|... .. . ...|... .. . ...
51|... .. . ...|... .. . ...|... .. . ...|... .. . ...|... .. . ...
52|... .. . ...|... .. . ...|... .. . ...|... .. . ...|... .. . ...
53|... .. . ...|... .. . ...|... .. . ...|... .. . ...|... .. . ...
54|... .. . ...|... .. . ...|... .. . ...|... .. . ...|... .. . ...
55|... .. . ...|... .. . ...|... .. . ...|... .. . ...|... .. . ...
56|... .. . ...|... .. . ...|... .. . ...|... .. . ...|... .. . ...
57|... .. . ...|... .. . ...|... .. . ...|... .. . ...|... .. . ...
58|... .. . ...|... .. . ...|... .. . ...|... .. . ...|... .. . ...
59|... .. . ...|... .. . ...|... .. . ...|... .. . ...|... .. . ...
5a|... .. . ...|... .. . ...|... .. . ...|... .. . ...|... .. . ...
5b|... .. . ...|... .. . ...|... .. . ...|... .. . ...|... .. . ...
5c|... .. . ...|... .. . ...|... .. . ...|... .. . ...|... .. . ...
5d|... .. . ...|... .. . ...|... .. . ...|... .. . ...|... .. . ...
5e|... .. . ...|... .. . ...|... .. . ...|... .. . ...|... .. . ...
5f|... .. . ...|... .. . ...|... .. . ...|... .. . ...|... .. . ...
60|... .. . ...|... .. . ...|... .. . ...|... .. . ...|... .. . ...
61|... .. . ...|... .. . ...|... .. . ...|... .. . ...|... .. . ...
62|... .. . ...|... .. . ...|... .. . ...|... .. . ...|... .. . ...
63|... .. . ...|... .. . ...|... .. . ...|... .. . ...|... .. . ...
64|... .. . ...|... .. . ...|... .. . ...|... .. . ...|... .. . ...
65|... .. . ...|... .. . ...|... .. . ...|... .. . ...|... .. . ...
66|... .. . ...|... .. . ...|... .. . ...|... .. . ...|... .. . ...
67|... .. . ...|... .. . ...|... .. . ...|... .. . ...|... .. . ...
68|... .. . ...|... .. . ...|... .. . ...|... .. . ...|... .. . ...
69|... .. . ...|... .. . ...|... .. . ...|... .. . ...|... .. . ...
6a|... .. . ...|... .. . ...|... .. . ...|... .. . ...|... .. . ...
6b|... .. . ...|... .. . ...|... .. . ...|... .. . ...|... .. . ...
6c|... .. . ...|... .. . ...|... .. . ...|... .. . ...|... .. . ...
6d|... .. . ...|... .. . ...|... .. . ...|... .. . ...|... .. . ...
6e|... .. . ...|... .. . ...|... .. . ...|... .. . ...|... .. . ...
6f|... .. . ...|... .. . ...|... .. . ...|... .. . ...|... .. . ...
70|... .. . ...|... .. . ...|... .. . ...|... .. . ...|... .. . ...
71|... .. . ...|... .. . ...|... .. . ...|... .. . ...|... .. . ...
72|... .. . ...|... .. . ...|... .. . ...|... .. . ...|... .. . ...
73|... .. . ...|... .. . ...|... .. . ...|... .. . ...|... .. . ...
74|... .. . ...|... .. . ...|... .. . ...|... .. . ...|... .. . ...
75|... .. . ...|... .. . ...|... .. . ...|... .. . ...|... .. . ...
76|... .. . ...|... .. . ...|... .. . ...|... .. . ...|... .. . ...
77|... .. . ...|... .. . ...|... .. . ...|... .. . ...|... .. . ...
78|... .. . ...|... .. . ...|... .. . ...|... .. . ...|... .. . ...
79|... .. . ...|... .. . ...|... .. . ...|... .. . ...|... .. . ...
7a|... .. . ...|... .. . ...|... .. . ...|... .. . ...|... .. . ...
7b|... .. . ...|... .. . ...|... .. . ...|... .. . ...|... .. . ...
7c|... .. . ...|... .. . ...|... .. . ...|... .. . ...|... .. . ...
7d|... .. . ...|... .. . ...|... .. . ...|... .. . ...|... .. . ...
7e|... .. . ...|... .. . ...|... .. . ...|... .. . ...|... .. . ...
7f|... .. . ...|... .. . ...|... .. . ...|... .. . ...|... .. . ...

[Frame52]
00|... .. 3 ...|... .. . ...|F#3 00 . ...|C#2 01 6 ...|... .. . ...
01|... .. . ...|... .. . ...|... .. . ...|... .. . ...|... .. . ...
02|... .. . ...|... .. . ...|... .. . ...|... .. . ...|... .. . ...
03|... .. . ...|... .. 0 ...|... .. . ...|... .. . ...|... .. . ...
04|... .. 0 ...|... .. . ...|G#3 00 . ...|... .. . ...|... .. . ...
05|... .. . ...|... .. . ...|... .. . ...|... .. . ...|... .. . ...
06|... .. . ...|... .. . ...|... .. . ...|... .. . ...|... .. . ...
07|... .. . ...|... .. . ...|... .. . ...|... .. . ...|... .. . ...
08|... .. . ...|... .. . ...|F#3 00 . ...|... .. . ...|... .. . ...
09|... .. . ...|... .. . ...|... .. . ...|... .. . ...|... .. . ...
0a|... .. . ...|... .. . ...|... .. . ...|... .. . ...|... .. . ...
0b|... .. . ...|... .. . ...|... .. . ...|... .. . ...|... .. . ...
0c|... .. . ...|... .. . ...|G#3 00 . ...|... .. . ...|... .. . ...
0d|... .. . ...|... .. . ...|... .. . ...|... .. . ...|... .. . ...
0e|... .. . ...|... .. . ...|... .. . ...|... .. . ...|... .. . ...
0f|... .. . ...|... .. . ...|... .. . ...|... .. . ...|... .. . ...
10|... .. . ...|... .. . ...|F#3 00 . ...|C#2 01 . ...|... .. . ...
11|... .. . ...|... .. . ...|... .. . ...|... .. . ...|... .. . ...
12|... .. . ...|... .. . ...|... .. . ...|... .. . ...|... .. . ...
13|... .. . ...|... .. . ...|... .. . ...|... .. . ...|... .. . ...
14|... .. . ...|... .. . ...|G#3 00 . ...|... .. . ...|... .. . ...
15|... .. . ...|... .. . ...|... .. . ...|... .. . ...|... .. . ...
16|... .. . ...|... .. . ...|... .. . ...|... .. . ...|... .. . ...
17|... .. . ...|... .. . ...|... .. . ...|... .. . ...|... .. . ...
18|... .. . ...|... .. . ...|F#3 00 . ...|... .. . ...|... .. . ...
19|... .. . ...|... .. . ...|... .. . ...|... .. . ...|... .. . ...
1a|... .. . ...|... .. . ...|... .. . ...|... .. . ...|... .. . ...
1b|... .. . ...|... .. . ...|... .. . ...|... .. . ...|... .. . ...
1c|... .. . ...|... .. . ...|G#3 00 . ...|... .. . ...|... .. . ...
1d|... .. . ...|... .. . ...|... .. . ...|... .. . ...|... .. . ...
1e|... .. . ...|... .. . ...|... .. . ...|... .. . ...|... .. . ...
1f|... .. . ...|... .. . ...|... .. . ...|... .. . ...|... .. . ...
20|... .. . ...|A-2 00 4 V00|F#3 00 . ...|C#2 01 . ...|... .. . ...
21|... .. . ...|... .. . ...|... .. . ...|... .. . ...|... .. . ...
22|... .. . ...|... .. . ...|... .. . ...|... .. . ...|... .. . ...
23|... .. . ...|... .. . ...|... .. . ...|... .. . ...|... .. . ...
24|... .. . ...|B-2 00 . ...|G#3 00 . ...|... .. . ...|... .. . ...
25|... .. . ...|... .. . ...|... .. . ...|... .. . ...|... .. . ...
26|... .. . ...|... .. . ...|... .. . ...|... .. . ...|... .. . ...
27|... .. . ...|... .. . ...|... .. . ...|... .. . ...|... .. . ...
28|... .. . ...|A-2 00 . ...|F#3 00 . ...|... .. . ...|... .. . ...
29|... .. . ...|... .. . ...|... .. . ...|... .. . ...|... .. . ...
2a|... .. . ...|... .. . ...|... .. . ...|... .. . ...|... .. . ...
2b|... .. . ...|... .. . ...|... .. . ...|... .. . ...|... .. . ...
2c|... .. . ...|B-2 00 . ...|G#3 00 . ...|... .. . ...|... .. . ...
2d|... .. . ...|... .. . ...|... .. . ...|... .. . ...|... .. . ...
2e|... .. . ...|... .. . ...|... .. . ...|... .. . ...|... .. . ...
2f|... .. . ...|... .. . ...|... .. . ...|... .. . ...|... .. . ...
30|... .. . ...|A-2 00 . ...|F#3 00 . ...|C#2 01 . ...|... .. . ...
31|... .. . ...|... .. . ...|... .. . ...|... .. . ...|... .. . ...
32|... .. . ...|... .. . ...|... .. . ...|... .. . ...|... .. . ...
33|... .. . ...|... .. . ...|... .. . ...|... .. . ...|... .. . ...
34|... .. . ...|B-2 00 . ...|G#3 00 . ...|... .. . ...|... .. . ...
35|... .. . ...|... .. . ...|... .. . ...|... .. . ...|... .. . ...
36|... .. . ...|... .. . ...|... .. . ...|... .. . ...|... .. . ...
37|... .. . ...|... .. . ...|... .. . ...|... .. . ...|... .. . ...
38|... .. . ...|A-2 00 . ...|F#3 00 . ...|C#2 01 . ...|... .. . ...
39|... .. . ...|... .. . ...|... .. . ...|... .. . ...|... .. . ...
3a|... .. . ...|... .. . ...|... .. . ...|... .. . ...|... .. . ...
3b|... .. . ...|... .. . ...|... .. . ...|... .. . ...|... .. . ...
3c|... .. . ...|B-2 00 . ...|G#3 00 . ...|... .. . ...|... .. . ...
3d|... .. . ...|... .. . ...|... .. . ...|... .. . ...|... .. . ...
3e|... .. . ...|... .. . ...|... .. . ...|... .. . ...|... .. . ...
3f|... .. . ...|... .. . ...|... .. . ...|... .. . ...|... .. . ...
40|C-3 00 4 V00|A-2 00 5 ...|F#3 00 . ...|C#2 01 . ...|... .. . ...
41|... .. . ...|... .. . ...|... .. . ...|... .. . ...|... .. . ...
42|... .. . ...|... .. . ...|... .. . ...|... .. . ...|... .. . ...
43|... .. . ...|... .. . ...|... .. . ...|... .. . ...|... .. . ...
44|D-3 00 . ...|B-2 00 . ...|G#3 00 . ...|... .. . ...|... .. . ...
45|... .. . ...|... .. . ...|... .. . ...|... .. . ...|... .. . ...
46|... .. . ...|... .. . ...|... .. . ...|... .. . ...|... .. . ...
47|... .. . ...|... .. . ...|... .. . ...|... .. . ...|... .. . ...
48|C-3 00 . ...|A-2 00 . ...|F#3 00 . ...|... .. . ...|... .. . ...
49|... .. . ...|... .. . ...|... .. . ...|... .. . ...|... .. . ...
4a|... .. . ...|... .. . ...|... .. . ...|... .. . ...|... .. . ...
4b|... .. . ...|... .. . ...|... .. . ...|... .. . ...|... .. . ...
4c|D-3 00 . ...|B-2 00 . ...|G#3 00 . ...|... .. . ...|... .. . ...
4d|... .. . ...|... .. . ...|... .. . ...|... .. . ...|... .. . ...
4e|... .. . ...|... .. . ...|... .. . ...|... .. . ...|... .. . ...
4f|... .. . ...|... .. . ...|... .. . ...|... .. . ...|... .. . ...
50|C-3 00 5 ...|A-2 00 6 ...|F#3 00 . ...|C#2 01 . ...|... .. . ...
51|... .. . ...|... .. . ...|... .. . ...|... .. . ...|... .. . ...
52|... .. . ...|... .. . ...|... .. . ...|... .. . ...|... .. . ...
53|... .. . ...|... .. . ...|... .. . ...|... .. . ...|... .. . ...
54|D-3 00 . ...|B-2 00 . ...|G#3 00 . ...|... .. . ...|... .. . ...
55|... .. . ...|... .. . ...|... .. . ...|... .. . ...|... .. . ...
56|... .. . ...|... .. . ...|... .. . ...|... .. . ...|... .. . ...
57|... .. . ...|... .. . ...|... .. . ...|... .. . ...|... .. . ...
58|C-3 00 . ...|A-2 00 . ...|F#3 00 . ...|... .. . ...|... .. . ...
59|... .. . ...|... .. . ...|... .. . ...|... .. . ...|... .. . ...
5a|... .. . ...|... .. . ...|... .. . ...|... .. . ...|... .. . ...
5b|... .. . ...|... .. . ...|... .. . ...|... .. . ...|... .. . ...
5c|D-3 00 . ...|B-2 00 . ...|G#3 00 . ...|... .. . ...|... .. . ...
5d|... .. . ...|... .. . ...|... .. . ...|... .. . ...|... .. . ...
5e|... .. . ...|... .. . ...|... .. . ...|... .. . ...|... .. . ...
5f|... .. . ...|... .. . ...|... .. . ...|... .. . ...|... .. . ...
60|C-3 00 6 ...|A-2 00 7 ...|F#3 00 . ...|C#2 01 . ...|... .. . ...
61|... .. . ...|... .. . ...|... .. . ...|... .. . ...|... .. . ...
62|... .. . ...|... .. . ...|... .. . ...|... .. . ...|... .. . ...
63|... .. . ...|... .. . ...|... .. . ...|... .. . ...|... .. . ...
64|D-3 00 . ...|B-2 00 . ...|G#3 00 . ...|F#2 02 a ...|D-3 00 . Z00
65|... .. . ...|... .. . ...|... .. . ...|... .. . ...|... .. . ...
66|... .. . ...|... .. . ...|... .. . ...|F#2 02 . ...|D-3 00 . ...
67|... .. . ...|... .. . ...|... .. . ...|... .. . ...|... .. . ...
68|C-3 00 . ...|A-2 00 . ...|F#3 00 . ...|F#2 02 . ...|D#3 00 . ...
69|... .. . ...|... .. . ...|... .. . ...|... .. . ...|... .. . ...
6a|... .. . ...|... .. . ...|... .. . ...|... .. . ...|... .. . ...
6b|... .. . ...|... .. . ...|... .. . ...|... .. . ...|... .. . ...
6c|D-3 00 . ...|B-2 00 . ...|G#3 00 . ...|F#2 02 . ...|D#3 00 . ...
6d|... .. . ...|... .. . ...|... .. . ...|... .. . ...|... .. . ...
6e|... .. . ...|... .. . ...|... .. . ...|F#2 02 . ...|D#3 00 . ...
6f|... .. . ...|... .. . ...|... .. . ...|... .. . ...|... .. . ...
70|C-3 00 7 ...|A-2 00 8 ...|F#3 00 . ...|E-2 02 . ...|C-3 00 . ...
71|... .. . ...|... .. . ...|... .. . ...|... .. . ...|... .. . ...
72|... .. . ...|... .. . ...|... .. . ...|... .. . ...|... .. . ...
73|... .. . ...|... .. . ...|... .. . ...|... .. . ...|... .. . ...
74|D-3 00 . ...|B-2 00 . ...|G#3 00 . ...|F#2 02 . ...|D#3 00 . ...
75|... .. . ...|... .. . ...|... .. . ...|... .. . ...|... .. . ...
76|... .. . ...|... .. . ...|... .. . ...|... .. . ...|... .. . ...
77|... .. . ...|... .. . ...|... .. . ...|... .. . ...|... .. . ...
78|C-3 00 . ...|A-2 00 . ...|F#3 00 . ...|E-2 03 . ...|C#3 00 . ...
79|... .. . ...|... .. . ...|... .. . ...|... .. . ...|... .. . ...
7a|... .. . ...|... .. . ...|... .. . ...|... .. . ...|... .. . ...
7b|... .. . ...|... .. . ...|... .. . ...|... .. . ...|... .. . ...
7c|D-3 00 . ...|B-2 00 . ...|G#3 00 . ...|E-2 03 . ...|C#3 00 . ...
7d|... .. . ...|... .. . ...|... .. . ...|... .. . ...|... .. . ...
7e|... .. . ...|... .. . ...|... .. . ...|E-2 03 . ...|C#3 00 . ...
7f|... .. . ...|... .. . ...|... .. . ...|... .. . ...|... .. . ...

[Frame53]
00|F-4 00 6 V01|F-1 00 8 V00|F-2 00 . ...|C#2 06 . ...|C-3 00 . ...
01|... .. . ...|... .. . ...|... .. . ...|... .. . ...|... .. . ...
02|F-5 00 2 V02|... .. . ...|... .. . ...|... .. . ...|... .. . ...
03|... .. . ...|... .. . ...|... .. . ...|... .. . ...|... .. . ...
04|C-4 00 6 V01|... .. . ...|... .. . ...|... .. . ...|... .. . ...
05|... .. . ...|... .. . ...|... .. . ...|... .. . ...|... .. . ...
06|C-5 00 2 V02|... .. . ...|... .. . ...|... .. . ...|... .. . ...
07|... .. . ...|... .. . ...|... .. . ...|... .. . ...|... .. . ...
08|F-3 00 6 V01|... .. 3 ...|F-1 00 . ...|E-2 03 . ...|C#3 00 . ...
09|... .. . ...|... .. . ...|... .. . ...|... .. . ...|... .. . ...
0a|F-4 00 2 V02|... .. . ...|... .. . ...|... .. . ...|... .. . ...
0b|... .. . ...|... .. . ...|... .. . ...|... .. . ...|... .. . ...
0c|F#4 00 6 V01|F#1 00 8 ...|F#2 00 . ...|E-2 02 . ...|C-3 00 . ...
0d|... .. . ...|... .. . ...|... .. . ...|... .. . ...|... .. . ...
0e|F#5 00 2 V02|... .. . ...|... .. . ...|... .. . ...|... .. . ...
0f|... .. . ...|... .. . ...|... .. . ...|... .. . ...|... .. . ...
10|A#3 00 6 V01|... .. . ...|... .. . ...|F#2 02 . ...|D-3 00 . ...
11|... .. . ...|... .. . ...|... .. . ...|... .. . ...|... .. . ...
12|A#4 00 2 V02|... .. . ...|... .. . ...|F#2 02 . ...|D-3 00 . ...
13|... .. . ...|... .. . ...|... .. . ...|... .. . ...|... .. . ...
14|F#3 00 6 V01|... .. 3 ...|F#1 00 . ...|F#2 02 . ...|D#3 00 . ...
15|... .. . ...|... .. . ...|... .. . ...|... .. . ...|... .. . ...
16|F#4 00 2 V02|... .. . ...|... .. . ...|... .. . ...|... .. . ...
17|... .. . ...|... .. . ...|... .. . ...|... .. . ...|... .. . ...
18|G-4 00 6 V01|G-1 00 8 ...|G-2 00 . ...|C#2 06 . ...|C-3 00 . ...
19|... .. . ...|... .. . ...|... .. . ...|... .. . ...|... .. . ...
1a|... .. . ...|... .. . ...|... .. . ...|... .. . ...|... .. . ...
1b|... .. . ...|... .. . ...|... .. . ...|... .. . ...|... .. . ...
1c|... .. . ...|... .. . ...|... .. . ...|... .. . ...|... .. . ...
1d|... .. . ...|... .. . ...|... .. . ...|... .. . ...|... .. . ...
1e|... .. . ...|... .. . ...|... .. . ...|... .. . ...|... .. . ...
1f|... .. . ...|... .. . ...|... .. . ...|... .. . ...|... .. . ...
20|... .. . ...|... .. 3 ...|--- .. . ...|... .. . ...|... .. . ...
21|... .. . ...|... .. . ...|... .. . ...|... .. . ...|... .. . ...
22|... .. . ...|... .. . ...|... .. . ...|... .. . ...|... .. . ...
23|... .. . ...|... .. . ...|... .. . ...|... .. . ...|... .. . ...
24|... .. . ...|G-4 00 2 V01|... .. . ...|E-2 03 . ...|C#3 00 . ...
25|D-4 00 . ...|... .. . ...|... .. . ...|... .. . ...|... .. . ...
26|B-3 00 . ...|... .. . ...|... .. . ...|... .. . ...|... .. . ...
27|A-3 00 . ...|... .. . ...|... .. . ...|... .. . ...|... .. . ...
28|G-3 00 . ...|D-4 00 . ...|... .. . ...|E-2 02 . ...|C-3 00 . ...
29|F-3 00 . ...|B-3 00 . ...|... .. . ...|... .. . ...|... .. . ...
2a|E-3 00 . ...|A-3 00 . ...|... .. . ...|... .. . ...|... .. . ...
2b|D-3 00 . ...|G-3 00 . ...|... .. . ...|... .. . ...|... .. . ...
2c|C-3 00 . ...|F-3 00 . ...|... .. . ...|E-2 02 . ...|C-3 00 . ...
2d|B-2 00 . ...|E-3 00 . ...|... .. . ...|... .. . ...|... .. . ...
2e|A-2 00 . ...|D-3 00 . ...|... .. . ...|... .. . ...|... .. . ...
2f|G-2 00 . ...|C-3 00 . ...|... .. . ...|... .. . ...|... .. . ...
30|... .. 2 ...|B-2 00 . ...|G-2 00 . ...|E-2 03 . ...|C#3 00 . ...
31|... .. 0 ...|A-2 00 . ...|... .. . ...|... .. . ...|... .. . ...
32|... .. . ...|G-2 00 . ...|... .. . ...|... .. . ...|... .. . ...
33|... .. . ...|... .. 0 ...|... .. . ...|... .. . ...|... .. . ...
34|... .. . ...|... .. . ...|--- .. . ...|... .. . ...|... .. . ...
35|... .. . ...|... .. . ...|... .. . ...|... .. . ...|... .. . ...
36|... .. . ...|... .. . ...|... .. . ...|... .. . ...|... .. . ...
37|... .. . ...|... .. . ...|... .. . ...|... .. . ...|... .. . C00
38|... .. . ...|... .. . ...|... .. . ...|... .. . ...|... .. . ...
39|... .. . ...|... .. . ...|... .. . ...|... .. . ...|... .. . ...
3a|... .. . ...|... .. . ...|... .. . ...|... .. . ...|... .. . ...
3b|... .. . ...|... .. . ...|... .. . ...|... .. . ...|... .. . ...
3c|... .. . ...|... .. . ...|... .. . ...|... .. . ...|... .. . ...
3d|... .. . ...|... .. . ...|... .. . ...|... .. . ...|... .. . ...
3e|... .. . ...|... .. . ...|... .. . ...|... .. . ...|... .. . ...
3f|... .. . ...|... .. . ...|... .. . ...|... .. . ...|... .. . ...
40|... .. . ...|... .. . ...|... .. . ...|... .. . ...|... .. . ...
41|... .. . ...|... .. . ...|... .. . ...|... .. . ...|... .. . ...
42|... .. . ...|... .. . ...|... .. . ...|... .. . ...|... .. . ...
43|... .. . ...|... .. . ...|... .. . ...|... .. . ...|... .. . ...
44|... .. . ...|... .. . ...|... .. . ...|... .. . ...|... .. . ...
45|... .. . ...|... .. . ...|... .. . ...|... .. . ...|... .. . ...
46|... .. . ...|... .. . ...|... .. . ...|... .. . ...|... .. . ...
47|... .. . ...|... .. . ...|... .. . ...|... .. . ...|... .. . ...
48|... .. . ...|... .. . ...|... .. . ...|... .. . ...|... .. . ...
49|... .. . ...|... .. . ...|... .. . ...|... .. . ...|... .. . ...
4a|... .. . ...|... .. . ...|... .. . ...|... .. . ...|... .. . ...
4b|... .. . ...|... .. . ...|... .. . ...|... .. . ...|... .. . ...
4c|... .. . ...|... .. . ...|... .. . ...|... .. . ...|... .. . ...
4d|... .. . ...|... .. . ...|... .. . ...|... .. . ...|... .. . ...
4e|... .. . ...|... .. . ...|... .. . ...|... .. . ...|... .. . ...
4f|... .. . ...|... .. . ...|... .. . ...|... .. . ...|... .. . ...
50|... .. . ...|... .. . ...|... .. . ...|... .. . ...|... .. . ...
51|... .. . ...|... .. . ...|... .. . ...|... .. . ...|... .. . ...
52|... .. . ...|... .. . ...|... .. . ...|... .. . ...|... .. . ...
53|... .. . ...|... .. . ...|... .. . ...|... .. . ...|... .. . ...
54|... .. . ...|... .. . ...|... .. . ...|... .. . ...|... .. . ...
55|... .. . ...|... .. . ...|... .. . ...|... .. . ...|... .. . ...
56|... .. . ...|... .. . ...|... .. . ...|... .. . ...|... .. . ...
57|... .. . ...|... .. . ...|... .. . ...|... .. . ...|... .. . ...
58|... .. . ...|... .. . ...|... .. . ...|... .. . ...|... .. . ...
59|... .. . ...|... .. . ...|... .. . ...|... .. . ...|... .. . ...
5a|... .. . ...|... .. . ...|... .. . ...|... .. . ...|... .. . ...
5b|... .. . ...|... .. . ...|... .. . ...|... .. . ...|... .. . ...
5c|... .. . ...|... .. . ...|... .. . ...|... .. . ...|... .. . ...
5d|... .. . ...|... .. . ...|... .. . ...|... .. . ...|... .. . ...
5e|... .. . ...|... .. . ...|... .. . ...|... .. . ...|... .. . ...
5f|... .. . ...|... .. . ...|... .. . ...|... .. . ...|... .. . ...
60|... .. . ...|... .. . ...|... .. . ...|... .. . ...|... .. . ...
61|... .. . ...|... .. . ...|... .. . ...|... .. . ...|... .. . ...
62|... .. . ...|... .. . ...|... .. . ...|... .. . ...|... .. . ...
63|... .. . ...|... .. . ...|... .. . ...|... .. . ...|... .. . ...
64|... .. . ...|... .. . ...|... .. . ...|... .. . ...|... .. . ...
65|... .. . ...|... .. . ...|... .. . ...|... .. . ...|... .. . ...
66|... .. . ...|... .. . ...|... .. . ...|... .. . ...|... .. . ...
67|... .. . ...|... .. . ...|... .. . ...|... .. . ...|... .. . ...
68|... .. . ...|... .. . ...|... .. . ...|... .. . ...|... .. . ...
69|... .. . ...|... .. . ...|... .. . ...|... .. . ...|... .. . ...
6a|... .. . ...|... .. . ...|... .. . ...|... .. . ...|... .. . ...
6b|... .. . ...|... .. . ...|... .. . ...|... .. . ...|... .. . ...
6c|... .. . ...|... .. . ...|... .. . ...|... .. . ...|... .. . ...
6d|... .. . ...|... .. . ...|... .. . ...|... .. . ...|... .. . ...
6e|... .. . ...|... .. . ...|... .. . ...|... .. . ...|... .. . ...
6f|... .. . ...|... .. . ...|... .. . ...|... .. . ...|... .. . ...
70|... .. . ...|... .. . ...|... .. . ...|... .. . ...|... .. . ...
71|... .. . ...|... .. . ...|... .. . ...|... .. . ...|... .. . ...
72|... .. . ...|... .. . ...|... .. . ...|... .. . ...|... .. . ...
73|... .. . ...|... .. . ...|... .. . ...|... .. . ...|... .. . ...
74|... .. . ...|... .. . ...|... .. . ...|... .. . ...|... .. . ...
75|... .. . ...|... .. . ...|... .. . ...|... .. . ...|... .. . ...
76|... .. . ...|... .. . ...|... .. . ...|... .. . ...|... .. . ...
77|... .. . ...|... .. . ...|... .. . ...|... .. . ...|... .. . ...
78|... .. . ...|... .. . ...|... .. . ...|... .. . ...|... .. . ...
79|... .. . ...|... .. . ...|... .. . ...|... .. . ...|... .. . ...
7a|... .. . ...|... .. . ...|... .. . ...|... .. . ...|... .. . ...
7b|... .. . ...|... .. . ...|... .. . ...|... .. . ...|... .. . ...
7c|... .. . ...|... .. . ...|... .. . ...|... .. . ...|... .. . ...
7d|... .. . ...|... .. . ...|... .. . ...|... .. . ...|... .. . ...
7e|... .. . ...|... .. . ...|... .. . ...|... .. . ...|... .. . ...
7f|... .. . ...|... .. . ...|... .. . ...|... .. . ...|... .. . ...

[DMC0]
SamplesAssigned=0,0,0,0,0,0,0,0,0,0,0,0,0,0,0,0,0,0,0,0,0,0,0,0,0,0,0,0,0,0,0,0,0,0,0,0,1,3,2,4,0,0,0,0,0,0,0,0,0,0,0,0,0,0,0,0,0,0,0,0,0,0,0,0,0,0,0,0,0,0,0,0,0,0,0,0,0,0,0,0,0,0,0,0,0,0,0,0,0,0,0,0,0,0,0,0
SamplesPitch=0,0,0,0,0,0,0,0,0,0,0,0,0,0,0,0,0,0,0,0,0,0,0,0,0,0,0,0,0,0,0,0,0,0,0,0,15,15,15,15,0,0,0,0,0,0,0,0,0,0,0,0,0,0,0,0,0,0,0,0,0,0,0,0,0,0,0,0,0,0,0,0,0,0,0,0,0,0,0,0,0,0,0,0,0,0,0,0,0,0,0,0,0,0,0,0
SamplesLoop=0,0,0,0,0,0,0,0,0,0,0,0,0,0,0,0,0,0,0,0,0,0,0,0,0,0,0,0,0,0,0,0,0,0,0,0,0,0,0,0,0,0,0,0,0,0,0,0,0,0,0,0,0,0,0,0,0,0,0,0,0,0,0,0,0,0,0,0,0,0,0,0,0,0,0,0,0,0,0,0,0,0,0,0,0,0,0,0,0,0,0,0,0,0,0,0

[DMC1]
SamplesAssigned=0,0,0,0,0,0,0,0,0,0,0,0,0,0,0,0,0,0,0,0,0,0,0,0,0,0,0,0,0,0,0,0,0,0,0,0,0,0,0,0,0,0,0,0,0,0,0,0,0,0,0,0,0,0,0,0,0,0,0,0,0,0,0,0,0,0,0,0,0,0,0,0,0,0,0,0,0,0,0,0,0,0,0,0,0,0,0,0,0,0,0,0,0,0,0,0
SamplesPitch=0,0,0,0,0,0,0,0,0,0,0,0,0,0,0,0,0,0,0,0,0,0,0,0,0,0,0,0,0,0,0,0,0,0,0,0,0,0,0,0,0,0,0,0,0,0,0,0,0,0,0,0,0,0,0,0,0,0,0,0,0,0,0,0,0,0,0,0,0,0,0,0,0,0,0,0,0,0,0,0,0,0,0,0,0,0,0,0,0,0,0,0,0,0,0,0
SamplesLoop=0,0,0,0,0,0,0,0,0,0,0,0,0,0,0,0,0,0,0,0,0,0,0,0,0,0,0,0,0,0,0,0,0,0,0,0,0,0,0,0,0,0,0,0,0,0,0,0,0,0,0,0,0,0,0,0,0,0,0,0,0,0,0,0,0,0,0,0,0,0,0,0,0,0,0,0,0,0,0,0,0,0,0,0,0,0,0,0,0,0,0,0,0,0,0,0

[DMC2]
SamplesAssigned=0,0,0,0,0,0,0,0,0,0,0,0,0,0,0,0,0,0,0,0,0,0,0,0,0,0,0,0,0,0,0,0,0,0,0,0,0,0,0,0,0,0,0,0,0,0,0,0,0,0,0,0,0,0,0,0,0,0,0,0,0,0,0,0,0,0,0,0,0,0,0,0,0,0,0,0,0,0,0,0,0,0,0,0,0,0,0,0,0,0,0,0,0,0,0,0
SamplesPitch=0,0,0,0,0,0,0,0,0,0,0,0,0,0,0,0,0,0,0,0,0,0,0,0,0,0,0,0,0,0,0,0,0,0,0,0,0,0,0,0,0,0,0,0,0,0,0,0,0,0,0,0,0,0,0,0,0,0,0,0,0,0,0,0,0,0,0,0,0,0,0,0,0,0,0,0,0,0,0,0,0,0,0,0,0,0,0,0,0,0,0,0,0,0,0,0
SamplesLoop=0,0,0,0,0,0,0,0,0,0,0,0,0,0,0,0,0,0,0,0,0,0,0,0,0,0,0,0,0,0,0,0,0,0,0,0,0,0,0,0,0,0,0,0,0,0,0,0,0,0,0,0,0,0,0,0,0,0,0,0,0,0,0,0,0,0,0,0,0,0,0,0,0,0,0,0,0,0,0,0,0,0,0,0,0,0,0,0,0,0,0,0,0,0,0,0

[DMC3]
SamplesAssigned=0,0,0,0,0,0,0,0,0,0,0,0,0,0,0,0,0,0,0,0,0,0,0,0,0,0,0,0,0,0,0,0,0,0,0,0,0,0,0,0,0,0,0,0,0,0,0,0,0,0,0,0,0,0,0,0,0,0,0,0,0,0,0,0,0,0,0,0,0,0,0,0,0,0,0,0,0,0,0,0,0,0,0,0,0,0,0,0,0,0,0,0,0,0,0,0
SamplesPitch=0,0,0,0,0,0,0,0,0,0,0,0,0,0,0,0,0,0,0,0,0,0,0,0,0,0,0,0,0,0,0,0,0,0,0,0,0,0,0,0,0,0,0,0,0,0,0,0,0,0,0,0,0,0,0,0,0,0,0,0,0,0,0,0,0,0,0,0,0,0,0,0,0,0,0,0,0,0,0,0,0,0,0,0,0,0,0,0,0,0,0,0,0,0,0,0
SamplesLoop=0,0,0,0,0,0,0,0,0,0,0,0,0,0,0,0,0,0,0,0,0,0,0,0,0,0,0,0,0,0,0,0,0,0,0,0,0,0,0,0,0,0,0,0,0,0,0,0,0,0,0,0,0,0,0,0,0,0,0,0,0,0,0,0,0,0,0,0,0,0,0,0,0,0,0,0,0,0,0,0,0,0,0,0,0,0,0,0,0,0,0,0,0,0,0,0

[DMC4]
SamplesAssigned=0,0,0,0,0,0,0,0,0,0,0,0,0,0,0,0,0,0,0,0,0,0,0,0,0,0,0,0,0,0,0,0,0,0,0,0,0,0,0,0,0,0,0,0,0,0,0,0,0,0,0,0,0,0,0,0,0,0,0,0,0,0,0,0,0,0,0,0,0,0,0,0,0,0,0,0,0,0,0,0,0,0,0,0,0,0,0,0,0,0,0,0,0,0,0,0
SamplesPitch=0,0,0,0,0,0,0,0,0,0,0,0,0,0,0,0,0,0,0,0,0,0,0,0,0,0,0,0,0,0,0,0,0,0,0,0,0,0,0,0,0,0,0,0,0,0,0,0,0,0,0,0,0,0,0,0,0,0,0,0,0,0,0,0,0,0,0,0,0,0,0,0,0,0,0,0,0,0,0,0,0,0,0,0,0,0,0,0,0,0,0,0,0,0,0,0
SamplesLoop=0,0,0,0,0,0,0,0,0,0,0,0,0,0,0,0,0,0,0,0,0,0,0,0,0,0,0,0,0,0,0,0,0,0,0,0,0,0,0,0,0,0,0,0,0,0,0,0,0,0,0,0,0,0,0,0,0,0,0,0,0,0,0,0,0,0,0,0,0,0,0,0,0,0,0,0,0,0,0,0,0,0,0,0,0,0,0,0,0,0,0,0,0,0,0,0

[DMC5]
SamplesAssigned=0,0,0,0,0,0,0,0,0,0,0,0,0,0,0,0,0,0,0,0,0,0,0,0,0,0,0,0,0,0,0,0,0,0,0,0,0,0,0,0,0,0,0,0,0,0,0,0,0,0,0,0,0,0,0,0,0,0,0,0,0,0,0,0,0,0,0,0,0,0,0,0,0,0,0,0,0,0,0,0,0,0,0,0,0,0,0,0,0,0,0,0,0,0,0,0
SamplesPitch=0,0,0,0,0,0,0,0,0,0,0,0,0,0,0,0,0,0,0,0,0,0,0,0,0,0,0,0,0,0,0,0,0,0,0,0,0,0,0,0,0,0,0,0,0,0,0,0,0,0,0,0,0,0,0,0,0,0,0,0,0,0,0,0,0,0,0,0,0,0,0,0,0,0,0,0,0,0,0,0,0,0,0,0,0,0,0,0,0,0,0,0,0,0,0,0
SamplesLoop=0,0,0,0,0,0,0,0,0,0,0,0,0,0,0,0,0,0,0,0,0,0,0,0,0,0,0,0,0,0,0,0,0,0,0,0,0,0,0,0,0,0,0,0,0,0,0,0,0,0,0,0,0,0,0,0,0,0,0,0,0,0,0,0,0,0,0,0,0,0,0,0,0,0,0,0,0,0,0,0,0,0,0,0,0,0,0,0,0,0,0,0,0,0,0,0

[DMC6]
SamplesAssigned=0,0,0,0,0,0,0,0,0,0,0,0,0,0,0,0,0,0,0,0,0,0,0,0,0,0,0,0,0,0,0,0,0,0,0,0,0,0,0,0,0,0,0,0,0,0,0,0,0,0,0,0,0,0,0,0,0,0,0,0,0,0,0,0,0,0,0,0,0,0,0,0,0,0,0,0,0,0,0,0,0,0,0,0,0,0,0,0,0,0,0,0,0,0,0,0
SamplesPitch=0,0,0,0,0,0,0,0,0,0,0,0,0,0,0,0,0,0,0,0,0,0,0,0,0,0,0,0,0,0,0,0,0,0,0,0,0,0,0,0,0,0,0,0,0,0,0,0,0,0,0,0,0,0,0,0,0,0,0,0,0,0,0,0,0,0,0,0,0,0,0,0,0,0,0,0,0,0,0,0,0,0,0,0,0,0,0,0,0,0,0,0,0,0,0,0
SamplesLoop=0,0,0,0,0,0,0,0,0,0,0,0,0,0,0,0,0,0,0,0,0,0,0,0,0,0,0,0,0,0,0,0,0,0,0,0,0,0,0,0,0,0,0,0,0,0,0,0,0,0,0,0,0,0,0,0,0,0,0,0,0,0,0,0,0,0,0,0,0,0,0,0,0,0,0,0,0,0,0,0,0,0,0,0,0,0,0,0,0,0,0,0,0,0,0,0

[DMC7]
SamplesAssigned=0,0,0,0,0,0,0,0,0,0,0,0,0,0,0,0,0,0,0,0,0,0,0,0,0,0,0,0,0,0,0,0,0,0,0,0,0,0,0,0,0,0,0,0,0,0,0,0,0,0,0,0,0,0,0,0,0,0,0,0,0,0,0,0,0,0,0,0,0,0,0,0,0,0,0,0,0,0,0,0,0,0,0,0,0,0,0,0,0,0,0,0,0,0,0,0
SamplesPitch=0,0,0,0,0,0,0,0,0,0,0,0,0,0,0,0,0,0,0,0,0,0,0,0,0,0,0,0,0,0,0,0,0,0,0,0,0,0,0,0,0,0,0,0,0,0,0,0,0,0,0,0,0,0,0,0,0,0,0,0,0,0,0,0,0,0,0,0,0,0,0,0,0,0,0,0,0,0,0,0,0,0,0,0,0,0,0,0,0,0,0,0,0,0,0,0
SamplesLoop=0,0,0,0,0,0,0,0,0,0,0,0,0,0,0,0,0,0,0,0,0,0,0,0,0,0,0,0,0,0,0,0,0,0,0,0,0,0,0,0,0,0,0,0,0,0,0,0,0,0,0,0,0,0,0,0,0,0,0,0,0,0,0,0,0,0,0,0,0,0,0,0,0,0,0,0,0,0,0,0,0,0,0,0,0,0,0,0,0,0,0,0,0,0,0,0

[DMC8]
SamplesAssigned=0,0,0,0,0,0,0,0,0,0,0,0,0,0,0,0,0,0,0,0,0,0,0,0,0,0,0,0,0,0,0,0,0,0,0,0,0,0,0,0,0,0,0,0,0,0,0,0,0,0,0,0,0,0,0,0,0,0,0,0,0,0,0,0,0,0,0,0,0,0,0,0,0,0,0,0,0,0,0,0,0,0,0,0,0,0,0,0,0,0,0,0,0,0,0,0
SamplesPitch=0,0,0,0,0,0,0,0,0,0,0,0,0,0,0,0,0,0,0,0,0,0,0,0,0,0,0,0,0,0,0,0,0,0,0,0,0,0,0,0,0,0,0,0,0,0,0,0,0,0,0,0,0,0,0,0,0,0,0,0,0,0,0,0,0,0,0,0,0,0,0,0,0,0,0,0,0,0,0,0,0,0,0,0,0,0,0,0,0,0,0,0,0,0,0,0
SamplesLoop=0,0,0,0,0,0,0,0,0,0,0,0,0,0,0,0,0,0,0,0,0,0,0,0,0,0,0,0,0,0,0,0,0,0,0,0,0,0,0,0,0,0,0,0,0,0,0,0,0,0,0,0,0,0,0,0,0,0,0,0,0,0,0,0,0,0,0,0,0,0,0,0,0,0,0,0,0,0,0,0,0,0,0,0,0,0,0,0,0,0,0,0,0,0,0,0

[DMC9]
SamplesAssigned=0,0,0,0,0,0,0,0,0,0,0,0,0,0,0,0,0,0,0,0,0,0,0,0,0,0,0,0,0,0,0,0,0,0,0,0,0,0,0,0,0,0,0,0,0,0,0,0,0,0,0,0,0,0,0,0,0,0,0,0,0,0,0,0,0,0,0,0,0,0,0,0,0,0,0,0,0,0,0,0,0,0,0,0,0,0,0,0,0,0,0,0,0,0,0,0
SamplesPitch=0,0,0,0,0,0,0,0,0,0,0,0,0,0,0,0,0,0,0,0,0,0,0,0,0,0,0,0,0,0,0,0,0,0,0,0,0,0,0,0,0,0,0,0,0,0,0,0,0,0,0,0,0,0,0,0,0,0,0,0,0,0,0,0,0,0,0,0,0,0,0,0,0,0,0,0,0,0,0,0,0,0,0,0,0,0,0,0,0,0,0,0,0,0,0,0
SamplesLoop=0,0,0,0,0,0,0,0,0,0,0,0,0,0,0,0,0,0,0,0,0,0,0,0,0,0,0,0,0,0,0,0,0,0,0,0,0,0,0,0,0,0,0,0,0,0,0,0,0,0,0,0,0,0,0,0,0,0,0,0,0,0,0,0,0,0,0,0,0,0,0,0,0,0,0,0,0,0,0,0,0,0,0,0,0,0,0,0,0,0,0,0,0,0,0,0

[DMC10]
SamplesAssigned=0,0,0,0,0,0,0,0,0,0,0,0,0,0,0,0,0,0,0,0,0,0,0,0,0,0,0,0,0,0,0,0,0,0,0,0,0,0,0,0,0,0,0,0,0,0,0,0,0,0,0,0,0,0,0,0,0,0,0,0,0,0,0,0,0,0,0,0,0,0,0,0,0,0,0,0,0,0,0,0,0,0,0,0,0,0,0,0,0,0,0,0,0,0,0,0
SamplesPitch=0,0,0,0,0,0,0,0,0,0,0,0,0,0,0,0,0,0,0,0,0,0,0,0,0,0,0,0,0,0,0,0,0,0,0,0,0,0,0,0,0,0,0,0,0,0,0,0,0,0,0,0,0,0,0,0,0,0,0,0,0,0,0,0,0,0,0,0,0,0,0,0,0,0,0,0,0,0,0,0,0,0,0,0,0,0,0,0,0,0,0,0,0,0,0,0
SamplesLoop=0,0,0,0,0,0,0,0,0,0,0,0,0,0,0,0,0,0,0,0,0,0,0,0,0,0,0,0,0,0,0,0,0,0,0,0,0,0,0,0,0,0,0,0,0,0,0,0,0,0,0,0,0,0,0,0,0,0,0,0,0,0,0,0,0,0,0,0,0,0,0,0,0,0,0,0,0,0,0,0,0,0,0,0,0,0,0,0,0,0,0,0,0,0,0,0

[DMC11]
SamplesAssigned=0,0,0,0,0,0,0,0,0,0,0,0,0,0,0,0,0,0,0,0,0,0,0,0,0,0,0,0,0,0,0,0,0,0,0,0,0,0,0,0,0,0,0,0,0,0,0,0,0,0,0,0,0,0,0,0,0,0,0,0,0,0,0,0,0,0,0,0,0,0,0,0,0,0,0,0,0,0,0,0,0,0,0,0,0,0,0,0,0,0,0,0,0,0,0,0
SamplesPitch=0,0,0,0,0,0,0,0,0,0,0,0,0,0,0,0,0,0,0,0,0,0,0,0,0,0,0,0,0,0,0,0,0,0,0,0,0,0,0,0,0,0,0,0,0,0,0,0,0,0,0,0,0,0,0,0,0,0,0,0,0,0,0,0,0,0,0,0,0,0,0,0,0,0,0,0,0,0,0,0,0,0,0,0,0,0,0,0,0,0,0,0,0,0,0,0
SamplesLoop=0,0,0,0,0,0,0,0,0,0,0,0,0,0,0,0,0,0,0,0,0,0,0,0,0,0,0,0,0,0,0,0,0,0,0,0,0,0,0,0,0,0,0,0,0,0,0,0,0,0,0,0,0,0,0,0,0,0,0,0,0,0,0,0,0,0,0,0,0,0,0,0,0,0,0,0,0,0,0,0,0,0,0,0,0,0,0,0,0,0,0,0,0,0,0,0

[Sample1]
SampleName=ABoyAndHisBlob_$E000.dmc
SampleSize=385
SampleData=$9565a21f183e0fc11f8201ff07fc1fc7f9fe07fc7aeadcd83558266805e008a0017c0007e0002d581d15eaa4abdbb6abf6dbddbbbbbbb7bb6deaaab5aad55555555555555552a952aa94a94949534a8a248889249489492514915252aa554aaaaaaaaaaadaaaaaaaaf6ddb75bb6dbb76eeedbb6eb6dab5aaaad555555552aaaaaaaaaaaaaaaa54aaaaaaaaa52954a952a4aa4a94aa4a952a4a54a954a5552aa552aa955555555555555555555aaaaaaaaab555555555555555555555555555aaaaad5556aad56ab55ab5aad6ad5ab55ad5aab556ab55aaaab55555566aaaaaaaaa5555554aaaaa554aa9552aaa54aa552aa54a954aa94a954aa552aa9552aaa9555555554aaaaad35555555aaaab5555aaab555aaad556aaad55aaaad5555aaaaaad555555555556aaaaaaaaa5555555555552aaaaaaaaa955555555552aaaaaaaaaaaaaaaaaaaaaaaaaaa555555555555555aaaaaaaaaaaaaaaaaaaaaaaaaaaaaaaaaaaaaaaaaaaaa52aaaaaaaaaaaaaaaaaaaaaaaaaaaaaaaaaaaaaaaaaaaa00

[Sample2]
SampleName=ABoyAndHisBlob_$F180.dmc
SampleSize=833
SampleData=$8fff89b3fff083f80300c03dff9d80c030003700e0ffdffcffc0e40c3bc071c107803effc1f9e3ff910783000f0a0779fe7bf40dec887f0c22e0f0190781ce7fff3ff0c0e1100f81801e577ffd08f78c9ffe70028040be502365c7ffff9fe0301871c0418d81bf0f37ae78fefbc3628004030a2cfc3affe5f7c5698f50a9400c4152e34f1bdfffbf1c14a440aa4c0216951efffeb8f2e4eb6b110000296e4ab4fb6bfffa974aa404aa20a1825556bb7ffeadaba9cc44820095249b554d7fffbb66913ab48810204556d2afbebabff6b172c40908a125550956daffff755555494a9400249255adb5efbdd76b5a94a90424911255a4a9fbfbf7ad55a65224082494b54a966aefffbaaba52a5448224424a6aadef7b6ddd655da4a240842535552a957bfbf76ad54a94911209254aa955bbbeef6ad5aaaa492222244a555a5bbdeeddb5aa5aa4a089092555552adaddefdadb54a4a4922489524a955bbbdbbdaaad6a94a442849252aaad5bbbb5bdada9694a22285252952aabb6eeef56d5594a524492524a54a56ddfaedd6aaad554888a124aaa9556b5b76f6d6b554a949128a494a55555b76eef5aaaaa952524a44a52a9556b6ddb76d56b2aaa448a4492956aaadadb6db6dad4a952492a4a494a9555b6eebbb56aaaa54924a452952aaab56b76db5b5aaa954892924952aaaad6d6db76b56aa949492a4a94a952aab5b76dbb55955552492a4925552ad5b56dadad6d5a554924a9294a954ab56d6eb6dab55554a4a4a8a52a955555adbad6b6ad55552494a494a955555ad6dadad5ad5552924a92954aa55556b5badb6b555529494aa2952a5555ab5aead6d6b5554a524a4a54aa9556ab5b6adb5ab552a9294a8a952a9555ab5bab6d6ab52aa5252a8a54aa955aad6dad6b56ab4aa9292a2952aaaaaab56dab6d6aaaaa94a4aa4a952a55aab5adadad5aaaaa94a4a92952aaaaab56b5ab6b56aaaa94a4a92954aaaaaad6b5ad6d5aaaa95294aa4a952aaaaad6b6adad5aaaa95292a92952aaaab556b5ab6b5aaaa95292a92a54aaaaad5ab6ad6d5aaa955292a94a54aaaab55ad6ad6b56aa555292a92a55555555ab56ab56aaaaaa954aaa54aaaaaaaab55aaab55555555555555555555555555555555555555555555555555555555555555555555555586

[Sample3]
SampleName=AkumajouDensetsu_$C040.dmc
SampleSize=513
SampleData=$feffdeffe3ef8c444031370980186000c0202f3aa3ee3cef7757ef9fafffdebf9ec92441090909290000040018749bbf76ebcf7bdffdf3e7c6f381e268311c31886ac08f060a61c638d4c5c72f1d63a7d0fc63cfb8f1b1cff1dc7633ee30e2d008388401420e070c1d1e7d9e7fe7ef3f7f3f87dc6318730c2318885311060d62033c3324e77caef3e71ff8f0f3cf71ae1c8ecf08ce0ccc1831c240e18e182cd191ed9f0fcfa73cff93c7ccf53839b819478846d6047631851c58639c61798cf398f77827c79f6477390f8cf5862f918c71c721e1c4198c416607a62e8ae743cf9e1f9e71f3e3b718fc63c318c3b0e0e30f08e0718cc18f19c3393999f1bc7476e2f3c79719e3633987c6370f09c6712388e0a9838b198766718cef0ddaf473ee1cdb8e761a390e71c62e31c39c5907a1c0f1199c58ce2e2d6e3ce339e38eb8e71ce3a70d8e4794b705c239e62636198c7498cd473859e8d353b8f26eacb3b4e571278e8c8f1a3c8a738e1c6b298e1c2c68d931e3554739ab2d9738d3b1ce38f1d4b34ea962ad54b238c9a8aca918e6519a73299e399ad5a796d3659d58ba61da46aa3c52b1a566638d31e0e5952accb29cacab3966a74b995a6accab8b55a6a6aa3c5a3938e2a4b930b954aa95aa655a9cc759b2ae6b34dcb2d4b1d463c5346a6569654ce3354c71a554d6334d7192ea9aab56555aca6ace333a3c6556398d62f0

[Sample4]
SampleName=ABoyAndHisBlob_$F8C0.dmc
SampleSize=833
SampleData=$9ffd052300011e33fe019ff9e7ff81fe400013f1bffc000000c7ff7c07f83fffffc7310000000fffe01880e07fffe1fc8767be9fcf9000000271cf83807b17defff4f980338fff87e400020015f0112bdd3ffefdfae60c1fe06c5ba5800400ce60c283edd7fff9fde93dc630a65068090738039015f78277efbedff8bbb8f2830001aa245086909f95731d7feb7f8f2ff91d63000320840ebc05902dc7d77ff6ff5abaae89ac509500150555a82442ab77edfbdfedad5a74ada0521022aa12514c5052ed5fffadfda96f7552ad3102285288049456a96ab7b57dff49b7edd5650aa948905204312540aaedefdfad6f69759ba955ea5149221024952450aaaddaedffb7f6a8ab4aad6d2245492204955494aa56aaad77ff6efaa54b6a52b49242a40552aaa52a4a6aadb6defbb76b6b554a5292488a88aa4aa4a9555ad5aad6b76f6ef56aaaa94924924a8a4494aa94ab5ab5eeab6dadb76ad6aaa5124a44a9488a95254aad56bb6eedb5b5b5556ad5494a51449248a552954aab56dbdeedb5ab556aaaa92a944a49295252494aaad5aedb76eedab556aaaa94aa5122a4894a954aaaa55b6daddbbad6b556aaa929544a5528494a52a9555b6d5b6dab6dad6b56acaa54924a4a24a5252aaa55ad5b5ddadb6d56ad555554a9294a4a8924a54aaaaaab5b6dbadb6d6b6aaaa54a94924a9294954a94aaaaad6db6bb6db5b55aaa955292492a49494aa5555a955ab5b5badb75b5aaaa954a5244a924a4a95555556b56b5b6ab6b6d56ad5554a949252929494a9555556ab5b5b6b6d6d56aaaaaa95294a4aa4a5254aa5555aad5b5b6b6d6b5aaaaaa94a54a52aa4a54a952aaaaaab56b6db6b6d6aaaaaa95494a52a4a54a955555555556b5b6adad5ad56aaa554a5294aa4a52954aaaad556ad6b6ad6b56b55555554a5294aa4a54a5554ab5556b56d6ad6b56ab555552a552952a929529555555556ad5b6ad6b56ad55554aa54a94aa4a954aaaa9555aaad6adaad6ad6aad54aaa54aa52a94a552aaaaaaaaab55ab5aad6b56aad554aa54a54aa529552aaaaaaaab55ab5aad5aad56aaaaaa552a54aa4aa554aaaaaaad56ab5aaab55aaaaaaaaaa9552aaaaa954aaaaaaaaad555aaaaaaaaaaaaaaaaaaaaaaaaaaaaaaaaaa55555555555555555555555555555555aa

